<svg xmlns="http://www.w3.org/2000/svg" xmlns:xlink="http://www.w3.org/1999/xlink" width="358" height="104" viewBox="0 0 358 104"><defs><path id="rqdha" d="M476.13 111.38v3.48a7.1 7.1 0 0 0-4.25-1.34c-3 0-6.01 1.7-6.01 5.81-.03 3.74 3.04 5.4 6 5.4 1.76 0 3.36-.49 4.39-1.41v3.57c-1.46.7-3.14 1.1-4.94 1.1-4.55 0-9.2-2.73-9.2-8.66.03-6.22 4.6-9.04 9.15-9.04 1.7 0 3.4.36 4.86 1.1z"/><path id="rqdhb" d="M492.5 113.9h-5.22v13.73h-3.62v-13.72h-5.22v-3.28h14.06z"/><path id="rqdhc" d="M499.28 113.84v5.01h2.94c1.87 0 3.45-.51 3.45-2.5 0-2.03-1.58-2.51-3.45-2.51zm2.77-3.21c4.1 0 7.34 1.31 7.34 5.71s-3.23 5.71-7.34 5.71h-2.77v5.6h-3.65v-17.02z"/><path id="rqdhd" d="M515.6 119.14c0 2.99 1.76 5.47 5.31 5.47 3.53 0 5.3-2.48 5.3-5.47 0-3-1.77-5.47-5.3-5.47-3.55 0-5.32 2.48-5.32 5.47zm5.31-8.85c6.03 0 9.05 4.23 9.05 8.85 0 4.62-3.02 8.85-9.05 8.85-6.02 0-9.04-4.23-9.04-8.85 0-4.62 3.02-8.85 9.04-8.85z"/><path id="rqdhe" d="M544.92 118.86c0-.77.02-1.62.07-2.33l-7.92 11.1h-3.43v-17h3.64v8.77c0 .78-.02 1.63-.07 2.33l7.93-11.1h3.42v17h-3.64z"/><path id="rqdhf" d="M565.77 113.9h-5.23v13.73h-3.63v-13.72h-5.23v-3.28h14.09z"/><path id="rqdhg" d="M580.86 113.84h-8.34v3.61h7.6v3.19h-7.6v3.79H581v3.2h-12.13v-17h11.99z"/><path id="rqdhh" d="M599.52 127.63h-3.64v-13.72h-4.67c-.58 7.24-1.36 13.92-6.07 13.94-.58 0-1.21-.07-1.9-.31v-3.2c.32.09.69.14 1.17.11 2.87-.2 3.01-7.85 3.45-13.82h11.66z"/><path id="rqdhi" d="M610.75 124.44c1.87 0 3.45-.51 3.45-2.5 0-2-1.58-2.52-3.45-2.52h-2.94v5.02zm-6.59 3.2v-17.01h3.65v5.6h2.77c4.1.02 7.34 1.3 7.34 5.7s-3.23 5.72-7.34 5.72z"/><path id="rqdhj" d="M636.28 127.63h-3.65v-6.85H625v6.85h-3.65v-17H625v6.85h7.63v-6.85h3.65z"/><path id="rqdhk" d="M656.04 127.65h3.65v-17.02h-3.65zm-11.5-8.22h2.95c1.87 0 3.45.51 3.45 2.5 0 2-1.58 2.5-3.45 2.5h-2.94zm2.78 8.22c4.1 0 7.34-1.32 7.34-5.72 0-4.4-3.23-5.68-7.34-5.7h-2.77v-5.6h-3.65v17.02z"/><path id="rqdhl" d="M676.3 113.84h-8.33v3.61h7.6v3.19h-7.6v3.79h8.48v3.2h-12.13v-17h11.98z"/><path id="rqdhm" d="M465.84 147.86c0 2.99 1.77 5.47 5.32 5.47 3.53 0 5.3-2.48 5.3-5.47 0-3-1.77-5.47-5.3-5.47-3.55 0-5.32 2.48-5.32 5.47zm5.32-8.85c6.03 0 9.04 4.23 9.04 8.85 0 4.62-3.01 8.85-9.04 8.85-6.03 0-9.04-4.23-9.04-8.85 0-4.62 3.01-8.85 9.04-8.85z"/><path id="rqdhn" d="M487.53 142.56v5.01h2.94c1.87 0 3.45-.5 3.45-2.5 0-2.03-1.58-2.51-3.45-2.51zm2.77-3.21c4.1 0 7.34 1.31 7.34 5.71s-3.23 5.71-7.34 5.71h-2.77v5.6h-3.65v-17.02z"/><path id="rqdho" d="M501.08 139.35h11.87v3.28h-8.23v13.72h-3.64z"/><path id="rqdhp" d="M523.48 150.17l-2.39-6.1a7.42 7.42 0 0 1-.36-1.34c-.13.65-.25 1-.4 1.34l-2.36 6.1zm-11.68 6.2l6.95-17.02h3.94l6.93 17.02h-3.77l-1.24-3.19h-7.78l-1.26 3.19z"/><path id="rqdhq" d="M547.41 156.35h-3.64v-6.85h-7.63v6.85h-3.64v-17h3.64v6.85h7.63v-6.85h3.64z"/><path id="rqdhr" d="M563.32 147.58c0-.77.02-1.62.07-2.33l-7.92 11.1h-3.42v-17h3.64v8.77c0 .78-.02 1.63-.07 2.33l7.92-11.1h3.42v17h-3.64z"/><path id="rqdhs" d="M570.72 155.6v-3.5a12.8 12.8 0 0 0 6.03 1.31c1.85 0 3.62-.46 3.62-2.2 0-1.59-1.4-2-3.06-2h-3.84l.02-3.2h3.58c1.6 0 2.65-.59 2.65-1.78 0-1.36-1.22-1.94-3.38-1.94-1.53-.03-3.26.31-5.33 1.3v-3.47a14.4 14.4 0 0 1 5.64-1.11c3.99 0 6.71 1.5 6.71 4.64a3.75 3.75 0 0 1-2.72 3.72c1.77.48 3.4 1.82 3.4 4.37 0 3.79-3.64 4.95-7.02 4.95-2.02 0-4.04-.29-6.3-1.09z"/><path id="rqdht" d="M597.16 150.17l-2.39-6.1c-.12-.35-.24-.69-.36-1.34-.12.65-.25 1-.4 1.34l-2.36 6.1zm-11.68 6.2l6.95-17.02h3.94l6.93 17.02h-3.77l-1.24-3.19h-7.78l-1.26 3.19z"/><path id="rqdhu" d="M619.96 156.36h-13.78v-17.01h3.64v13.73h7.54v-13.73H621v13.73h2.16v6.98h-3.2z"/><path id="rqdhv" d="M637.98 147.58c0-.77.02-1.62.07-2.33l-7.92 11.1h-3.43v-17h3.65v8.77c0 .78-.03 1.63-.08 2.33l7.93-11.1h3.43v17h-3.65z"/><path id="rqdhw" d="M657.53 147.58c0-.77.03-1.62.07-2.33l-7.92 11.1h-3.43v-17h3.65v8.77c0 .78-.03 1.63-.07 2.33l7.92-11.1h3.43v17h-3.65z"/><path id="rqdhx" d="M481.47 185.07h-3.64V174.6l-4.5 6.83h-2.12l-4.5-6.85v10.5h-3.64v-17.01h3.38l5.83 8.84 5.81-8.84h3.38z"/><path id="rqdhy" d="M488.87 176.58c0 2.99 1.77 5.47 5.32 5.47 3.53 0 5.3-2.48 5.3-5.47 0-3-1.77-5.47-5.3-5.47-3.55 0-5.32 2.48-5.32 5.47zm5.32-8.85c6.03 0 9.05 4.23 9.05 8.85 0 4.62-3.02 8.85-9.05 8.85-6.03 0-9.04-4.23-9.04-8.85 0-4.62 3.01-8.85 9.04-8.85z"/><path id="rqdhz" d="M519.97 168.82v3.47a7.1 7.1 0 0 0-4.26-1.33c-2.99 0-6 1.7-6 5.8-.03 3.75 3.04 5.4 6 5.4 1.75 0 3.36-.49 4.38-1.41v3.57c-1.46.7-3.14 1.1-4.94 1.1-4.54 0-9.18-2.73-9.18-8.66.02-6.22 4.59-9.03 9.14-9.03 1.7 0 3.4.36 4.86 1.09z"/><path id="rqdhA" d="M523.79 168.07h3.65v6.75h2.74l4.3-6.75h4.07l-5.52 8.28 5.83 8.72h-4.03l-4.65-6.94h-2.74v6.94h-3.65z"/><path id="rqdhB" d="M548.7 171.06c1.6 0 2.57.6 2.57 1.95 0 1.31-1 1.95-2.38 1.95h-3.67v-3.9zm3.24 8.87c0 1.86-1.46 2.2-3.1 2.2h-3.65v-4.4h3.85c1.46 0 2.9.4 2.9 2.2zm-10.37-11.86v17.02h7.32c2.96 0 6.68-.9 6.68-4.77 0-2.5-1.58-3.74-3.26-4.23 1.51-.51 2.58-1.72 2.58-3.72 0-2.91-2.26-4.3-5.88-4.3z"/><path id="rqdhC" d="M574.4 185.09h3.62v-17.02h-3.63zm-11.51-8.23h2.94c1.87 0 3.45.52 3.45 2.51 0 2-1.58 2.5-3.45 2.5h-2.94zm2.77 8.23c4.1 0 7.34-1.32 7.34-5.72 0-4.4-3.24-5.69-7.34-5.7h-2.77v-5.6h-3.65v17.02z"/><path id="rqdhD" d="M427.8 198.38v1c-.86-.55-2-.85-3.15-.85-2.57 0-5.26 1.66-5.26 5.25-.02 3.4 2.74 5.01 5.32 5.01a5.9 5.9 0 0 0 3.2-.86v1c-.95.52-2.13.8-3.4.8-2.95 0-6.15-2-6.13-5.95 0-4.1 3.11-6.2 6.12-6.2 1.18 0 2.34.27 3.3.8z"/><path id="rqdhE" d="M435.35 207.33v-1.48c-.7-.19-1.6-.34-2.4-.34-1.34 0-2.73.44-2.73 1.79 0 1.1.99 1.61 2.02 1.61 1.2 0 2.38-.55 3.1-1.58zm1.66 1.47c.22 0 .42-.06.63-.12v.77c-.27.1-.58.17-.88.17-.69 0-1.31-.34-1.4-1.25a4.4 4.4 0 0 1-3.31 1.37c-1.41 0-2.81-.74-2.81-2.4 0-2 1.85-2.63 3.57-2.63.86 0 1.76.13 2.54.35v-.54c0-1.41-.91-2.35-2.58-2.35-1.23 0-2.22.28-2.9.57v-.95c.63-.22 1.7-.5 3-.5 2.14 0 3.42 1.2 3.42 3.35v3.45c0 .54.34.7.72.7z"/><path id="rqdhF" d="M439.13 201.47h1.05l3.26 4.78 3.27-4.78h1.02v8.08h-.9v-6.67l-3.03 4.43h-.71l-3.05-4.43v6.67h-.9z"/><path id="rqdhG" d="M450.76 205.51c0 2.1 1.5 3.32 3.3 3.32a3.15 3.15 0 0 0 3.28-3.32c0-2.1-1.5-3.31-3.28-3.31-1.8 0-3.3 1.21-3.3 3.31zm3.28-4.22c2.2 0 4.26 1.5 4.26 4.22 0 2.73-2.05 4.23-4.26 4.23-2.17 0-4.24-1.5-4.24-4.23 0-2.72 2.07-4.22 4.24-4.22z"/><path id="rqdhH" d="M461.3 204.42v2.18a3.52 3.52 0 0 0 3.25 2.25c1.78 0 3.18-1.26 3.18-3.34 0-2.07-1.4-3.34-3.18-3.34a3.52 3.52 0 0 0-3.25 2.25zm3.37-3.13c2.3 0 4.02 1.73 4.02 4.22 0 2.5-1.72 4.23-4.02 4.23a3.91 3.91 0 0 1-3.35-1.75v5.26h-.96v-11.78h.86v1.67a4.06 4.06 0 0 1 3.45-1.85z"/><path id="rqdhI" d="M471.16 205.12h5.87c.14-1.15-.5-2.96-2.78-2.96-1.58 0-3 1.03-3.1 2.96zm3.03-3.83c3.06 0 4.1 2.54 3.68 4.66h-6.71c.12 2.05 1.82 2.91 3.62 2.91.97 0 1.95-.25 2.64-.65v.94c-.73.39-1.75.59-2.78.59-2.35 0-4.44-1.32-4.44-4.23 0-2.77 2.04-4.22 3.99-4.22z"/><path id="rqdhJ" d="M479.94 201.47h5.8v.9h-4.84v7.18h-.96z"/><path id="rqdhK" d="M494.71 201.47l-4.09 9.4c-.82 1.87-1.77 2.57-2.9 2.57-.28 0-.55-.04-.85-.1v-.85c.25.07.5.1.74.1.96 0 1.63-.65 2.2-2.07l.4-.94-3.96-8.1h1l3.44 7 3.01-7z"/><path id="rqdhL" d="M494.5 209.51v-.77c.2.09.4.1.58.1 1.48 0 2.02-2.76 2.17-7.37h5.7v8.08H502v-7.19h-3.8c-.24 4.45-.87 7.3-2.84 7.3-.27 0-.54-.03-.86-.15z"/><path id="rqdhM" d="M505.56 201.47h.96v6.55l5.46-6.55h.83v8.08h-.94V203l-5.49 6.55h-.82z"/><path id="rqdhN" d="M516.37 204.42v2.18a3.52 3.52 0 0 0 3.25 2.25c1.78 0 3.18-1.26 3.18-3.34 0-2.07-1.4-3.34-3.18-3.34a3.52 3.52 0 0 0-3.25 2.25zm3.37-3.13c2.3 0 4.02 1.73 4.02 4.22 0 2.5-1.72 4.23-4.02 4.23a3.9 3.9 0 0 1-3.35-1.75v5.26h-.96v-11.78h.86v1.67a4.07 4.07 0 0 1 3.45-1.85z"/><path id="rqdhO" d="M532.94 201.47l-4.1 9.4c-.82 1.87-1.77 2.57-2.9 2.57-.28 0-.55-.04-.86-.1v-.85c.26.07.51.1.75.1.96 0 1.63-.65 2.2-2.07l.4-.94-3.97-8.1h1.01l3.44 7 3.02-7z"/><path id="rqdhP" d="M534.67 205.12h5.87c.14-1.15-.5-2.96-2.77-2.96-1.59 0-3.02 1.03-3.1 2.96zm3.03-3.83c3.06 0 4.1 2.54 3.68 4.66h-6.71c.12 2.05 1.82 2.91 3.62 2.91.97 0 1.95-.25 2.64-.65v.94c-.73.39-1.75.59-2.78.59-2.35 0-4.44-1.32-4.44-4.23 0-2.77 2.04-4.22 3.99-4.22z"/><path id="rqdhQ" d="M543.45 201.47h1.04l3.27 4.78 3.26-4.78h1.03v8.08h-.9v-6.67l-3.04 4.43h-.7l-3.05-4.43v6.67h-.9z"/><path id="rqdhR" d="M560.07 207.33v-1.48c-.7-.19-1.6-.34-2.4-.34-1.34 0-2.73.44-2.73 1.79 0 1.1.99 1.61 2.01 1.61a3.8 3.8 0 0 0 3.12-1.58zm1.66 1.47c.22 0 .42-.06.63-.12v.77c-.27.1-.58.17-.88.17-.69 0-1.31-.34-1.4-1.25a4.4 4.4 0 0 1-3.31 1.37c-1.41 0-2.81-.74-2.81-2.4 0-2 1.85-2.63 3.57-2.63.86 0 1.76.13 2.54.35v-.54c0-1.41-.91-2.35-2.58-2.35a7.4 7.4 0 0 0-2.9.57v-.95c.63-.22 1.7-.5 3-.5 2.14 0 3.42 1.2 3.42 3.35v3.45c0 .54.34.7.72.7z"/><path id="rqdhS" d="M569.39 205.68v-3.35h-2.83c-1.34 0-2.13.65-2.13 1.68 0 1.02.8 1.67 2.13 1.67zm-6.29 3.87l2.4-3.1c-1.3-.32-2.03-1.28-2.03-2.44 0-1.41 1.1-2.54 3.01-2.54h3.86v8.08h-.96v-3h-2.85l-2.3 3z"/><path id="rqdhT" d="M577.68 205.51c0 2.1 1.5 3.32 3.3 3.32a3.15 3.15 0 0 0 3.28-3.32c0-2.1-1.5-3.31-3.28-3.31-1.8 0-3.3 1.21-3.3 3.31zm3.28-4.22c2.2 0 4.26 1.5 4.26 4.22 0 2.73-2.06 4.23-4.26 4.23-2.17 0-4.24-1.5-4.24-4.23 0-2.72 2.07-4.22 4.24-4.22z"/><path id="rqdhU" d="M588.22 204.42v2.18a3.52 3.52 0 0 0 3.25 2.25c1.78 0 3.18-1.26 3.18-3.34 0-2.07-1.4-3.34-3.18-3.34a3.52 3.52 0 0 0-3.25 2.25zm3.37-3.13c2.3 0 4.02 1.73 4.02 4.22 0 2.5-1.72 4.23-4.02 4.23a3.91 3.91 0 0 1-3.35-1.75v5.26h-.96v-11.78h.86v1.67a4.06 4.06 0 0 1 3.45-1.85z"/><path id="rqdhV" d="M597.68 201.47h5.8v.9h-4.84v7.18h-.96z"/><path id="rqdhW" d="M610.37 207.33v-1.48c-.7-.19-1.6-.34-2.4-.34-1.34 0-2.74.44-2.74 1.79 0 1.1 1 1.61 2.02 1.61a3.8 3.8 0 0 0 3.12-1.58zm1.66 1.47c.22 0 .42-.06.63-.12v.77c-.27.1-.58.17-.88.17-.69 0-1.31-.34-1.4-1.25a4.4 4.4 0 0 1-3.31 1.37c-1.41 0-2.81-.74-2.81-2.4 0-2 1.85-2.63 3.57-2.63.86 0 1.76.13 2.54.35v-.54c0-1.41-.91-2.35-2.58-2.35a7.4 7.4 0 0 0-2.9.57v-.95c.63-.22 1.7-.5 3-.5 2.14 0 3.42 1.2 3.42 3.35v3.45c0 .54.34.7.72.7z"/><path id="rqdhX" d="M614.14 201.47h.97v3.6h5.25v-3.6h.95v8.08h-.95v-3.6h-5.25v3.6h-.97z"/><path id="rqdhY" d="M623.92 201.47h.96v6.55l5.46-6.55h.83v8.08h-.94V203l-5.49 6.55h-.82z"/><path id="rqdhZ" d="M633.15 209.13v-.91c.7.37 1.84.64 2.83.64 1.36 0 2.66-.36 2.66-1.57 0-1.07-1.05-1.41-1.9-1.41h-1.89V205h1.89c1.02-.05 1.73-.43 1.73-1.3 0-1.07-1.1-1.54-2.46-1.54-.97 0-1.95.24-2.74.6v-.88c.84-.38 1.78-.61 2.84-.61 2.06 0 3.32.86 3.32 2.3 0 .98-.6 1.64-1.55 1.84.9.22 1.72.9 1.72 1.98 0 1.59-1.48 2.34-3.52 2.34-1.1 0-2.17-.23-2.93-.6z"/><path id="rqdhaa" d="M647.12 207.33v-1.48c-.7-.19-1.6-.34-2.4-.34-1.34 0-2.73.44-2.73 1.79 0 1.1.99 1.61 2.02 1.61a3.8 3.8 0 0 0 3.11-1.58zm1.67 1.47c.21 0 .42-.06.62-.12v.77c-.27.1-.57.17-.88.17-.69 0-1.3-.34-1.4-1.25a4.4 4.4 0 0 1-3.31 1.37c-1.41 0-2.81-.74-2.81-2.4 0-2 1.85-2.63 3.57-2.63.86 0 1.77.13 2.54.35v-.54c0-1.41-.9-2.35-2.58-2.35a7.4 7.4 0 0 0-2.89.57v-.95a9.1 9.1 0 0 1 3-.5c2.13 0 3.41 1.2 3.41 3.35v3.45c0 .54.34.7.73.7z"/><path id="rqdhab" d="M658.13 209.55h-7.23v-8.08h.96v7.19h5.08v-7.19h.94v7.19h1.18v3.13h-.93z"/><path id="rqdhac" d="M660.94 201.47h.96v6.55l5.47-6.55h.82v8.08h-.94V203l-5.49 6.55h-.82z"/><path id="rqdhad" d="M676.34 205.68v-3.35h-2.82c-1.35 0-2.14.65-2.14 1.68 0 1.02.8 1.67 2.14 1.67zm-6.29 3.87l2.4-3.1c-1.3-.32-2.03-1.28-2.03-2.44 0-1.41 1.1-2.54 3.01-2.54h3.86v8.08h-.96v-3h-2.85l-2.3 3z"/><path id="rqdhae" d="M395.03 127.4a41.7 41.7 0 0 0-32.97-16.17 41.8 41.8 0 0 0-41.75 41.75 41.8 41.8 0 0 0 41.75 41.75v-17.57a24.2 24.2 0 0 1-24.17-24.18 24.2 24.2 0 0 1 24.17-24.17 24.2 24.2 0 0 1 24.18 24.17h17.57c0-10.23 6.4-19 15.4-22.52v55.49h17.57v-74.72h-8.79a41.7 41.7 0 0 0-32.96 16.18z"/></defs><g><g transform="translate(-320 -110)"><g><use fill="#fff" xlink:href="#rqdha"/></g><g><use fill="#fff" xlink:href="#rqdhb"/></g><g><use fill="#fff" xlink:href="#rqdhc"/></g><g><use fill="#fff" xlink:href="#rqdhd"/></g><g><use fill="#fff" xlink:href="#rqdhe"/></g><g><use fill="#fff" xlink:href="#rqdhf"/></g><g><use fill="#fff" xlink:href="#rqdhg"/></g><g><use fill="#fff" xlink:href="#rqdhh"/></g><g><use fill="#fff" xlink:href="#rqdhi"/></g><g><use fill="#fff" xlink:href="#rqdhj"/></g><g><use fill="#fff" xlink:href="#rqdhk"/></g><g><use fill="#fff" xlink:href="#rqdhl"/></g><g><use fill="#fff" xlink:href="#rqdhm"/></g><g><use fill="#fff" xlink:href="#rqdhn"/></g><g><use fill="#fff" xlink:href="#rqdho"/></g><g><use fill="#fff" xlink:href="#rqdhp"/></g><g><use fill="#fff" xlink:href="#rqdhq"/></g><g><use fill="#fff" xlink:href="#rqdhr"/></g><g><use fill="#fff" xlink:href="#rqdhs"/></g><g><use fill="#fff" xlink:href="#rqdht"/></g><g><use fill="#fff" xlink:href="#rqdhu"/></g><g><use fill="#fff" xlink:href="#rqdhv"/></g><g><use fill="#fff" xlink:href="#rqdhw"/></g><g><use fill="#fff" xlink:href="#rqdhx"/></g><g><use fill="#fff" xlink:href="#rqdhy"/></g><g><use fill="#fff" xlink:href="#rqdhz"/></g><g><use fill="#fff" xlink:href="#rqdhA"/></g><g><use fill="#fff" xlink:href="#rqdhB"/></g><g><use fill="#fff" xlink:href="#rqdhC"/></g><g><use fill="#fff" xlink:href="#rqdhD"/></g><g><use fill="#fff" xlink:href="#rqdhE"/></g><g><use fill="#fff" xlink:href="#rqdhF"/></g><g><use fill="#fff" xlink:href="#rqdhG"/></g><g><use fill="#fff" xlink:href="#rqdhH"/></g><g><use fill="#fff" xlink:href="#rqdhI"/></g><g><use fill="#fff" xlink:href="#rqdhJ"/></g><g><use fill="#fff" xlink:href="#rqdhK"/></g><g><use fill="#fff" xlink:href="#rqdhL"/></g><g><use fill="#fff" xlink:href="#rqdhM"/></g><g><use fill="#fff" xlink:href="#rqdhN"/></g><g><use fill="#fff" xlink:href="#rqdhO"/></g><g><use fill="#fff" xlink:href="#rqdhP"/></g><g><use fill="#fff" xlink:href="#rqdhQ"/></g><g><use fill="#fff" xlink:href="#rqdhR"/></g><g><use fill="#fff" xlink:href="#rqdhS"/></g><g><use fill="#fff" xlink:href="#rqdhT"/></g><g><use fill="#fff" xlink:href="#rqdhU"/></g><g><use fill="#fff" xlink:href="#rqdhV"/></g><g><use fill="#fff" xlink:href="#rqdhW"/></g><g><use fill="#fff" xlink:href="#rqdhX"/></g><g><use fill="#fff" xlink:href="#rqdhY"/></g><g><use fill="#fff" xlink:href="#rqdhZ"/></g><g><use fill="#fff" xlink:href="#rqdhaa"/></g><g><use fill="#fff" xlink:href="#rqdhab"/></g><g><use fill="#fff" xlink:href="#rqdhac"/></g><g><use fill="#fff" xlink:href="#rqdhad"/></g><g><use fill="#ab2430" xlink:href="#rqdhae"/></g></g></g></svg>