<svg width="64" height="70" fill="none" xmlns="http://www.w3.org/2000/svg"><mask id="a" maskUnits="userSpaceOnUse" x="0" y="0" width="64" height="70" fill="#000"><path fill="#fff" d="M0 0h64v70H0z"/><path fill-rule="evenodd" clip-rule="evenodd" d="M34.785 6.039v2.088C50.612 9.56 62.91 22.875 62.908 38.742c0 16.971-13.885 30.778-30.954 30.778C14.886 69.52 1 55.713 1 38.742 1 22.875 13.298 9.56 29.124 8.127V6.039h-1.74a.747.747 0 0 1-.748-.745v-3.55c0-.41.335-.744.749-.744h9.14c.413 0 .748.333.748.745v3.549a.747.747 0 0 1-.749.745h-1.739zM2.498 38.742c0 16.15 13.214 29.288 29.456 29.288 16.243 0 29.457-13.138 29.457-29.287 0-15.32-12.047-28.14-27.426-29.185a.746.746 0 0 1-.697-.743v-3.52c0-.411.335-.745.748-.745h1.74V2.49h-7.642v2.06h1.739c.413 0 .748.333.748.744v3.52a.746.746 0 0 1-.697.743C14.544 10.603 2.498 23.422 2.498 38.742zm29.456-25.628a25.875 25.875 0 0 0-16.4 5.88l-.074.058a3.752 3.752 0 0 0-.098.08h-.002l-.02.017-.02.016h-.001l-.015.014-.008.006c-.3.252-.596.513-.887.78l-.034.033a1.63 1.63 0 0 1-.112.102c-.243.228-.48.458-.708.688l-.006.007-.002.002a1.66 1.66 0 0 0-.086.093l-.027.031a16.678 16.678 0 0 0-.56.596l-.092.101-.072.078c-.046.05-.093.1-.136.15a23.32 23.32 0 0 0-.645.75v.001l-.002.002a4.172 4.172 0 0 0-.13.172l-.073.098-.04.052-.039.048a54.28 54.28 0 0 0-.283.362l-.003.003a26.183 26.183 0 0 0-.49.658l-.022.031c-.128.178-.25.352-.364.522-.063.093-.12.189-.176.285a5.068 5.068 0 0 1-.104.172l-.008.012-.004.006c-.152.238-.295.463-.428.68l-.023.041-.03.047-.014.024c-.165.27-.318.534-.465.804l-.003.007a.17.17 0 0 0-.006.01v.003c-.074.136-.14.277-.206.418-.04.086-.08.172-.122.257l-.078.154a.272.272 0 0 0-.006.013l-.007.012a3.014 3.014 0 0 0-.035.071 10.514 10.514 0 0 0-.838 1.9l-.226.614c-.14.365-.28.73-.397 1.106v.001c-.01.031-.017.063-.025.094l-.022.081c-.058.204-.113.408-.163.616l-.193.749a5.312 5.312 0 0 0-.04.161l-.034.137-.03.11c-.042.161-.085.322-.119.486v.003c-.07.341-.117.69-.164 1.037l-.018.125-.035.249-.022.134-.003.017-.011.071-.025.154-.005.03a10.735 10.735 0 0 0-.146 1.21 28.432 28.432 0 0 0-.071 1.748l-.007.118c-.006.076-.01.153-.01.23 0 1.29.096 2.564.284 3.814 1.313 8.745 7.09 16.28 15.457 19.8a25.769 25.769 0 0 0 4.838 1.493 26.11 26.11 0 0 0 7.817.39 4.76 4.76 0 0 0 .258-.036l.091-.015.144-.02.171-.025c.117-.02.235-.04.352-.056l.346-.047c.398-.053.795-.107 1.185-.186h.001c.297-.06.585-.139.874-.216l.757-.194c.277-.066.553-.132.824-.215l.008-.002.01-.003c.094-.03.188-.06.282-.092a23.362 23.362 0 0 0 .828-.303l.01-.004.003-.001.003-.002h.002l.296-.113c.094-.035.188-.068.283-.1l.043-.016c.197-.068.392-.135.583-.215l.005-.002.001-.001c.097-.04.192-.085.287-.129l.103-.048.08-.035a27.31 27.31 0 0 0 .275-.125c.125-.06.246-.12.367-.181l.081-.04.138-.069c.046-.022.092-.044.136-.067l.028-.014.072-.035.008-.004.124-.059.122-.057c.136-.062.271-.125.402-.195a.012.012 0 0 0 .004-.002h.002l.01-.005c.182-.098.362-.2.54-.304l.222-.134.036-.02.045-.027.11-.068.023-.015c.224-.137.44-.273.642-.4l.002-.002a4.887 4.887 0 0 1 .194-.117l.015-.008c.09-.053.18-.106.267-.164h.002c.257-.172.52-.358.8-.562l.145-.11.089-.07.072-.054c.181-.136.363-.273.564-.432l.036-.028.088-.065a3.23 3.23 0 0 0 .173-.13c.262-.213.523-.435.786-.668l.011-.01a28.035 28.035 0 0 0 .936-.87 6.6 6.6 0 0 0 .077-.07v-.001l.006-.006.002-.002c4.234-4.157 6.842-9.535 7.492-15.352a1.117 1.117 0 0 0 .006-.065c.043-.393.078-.787.103-1.184.004-.06.006-.12.008-.18 0-.046.002-.093.005-.139l.002-.054c.015-.287.03-.575.034-.864V39.1l.006-.12a3.02 3.02 0 0 0 .011-.237c0-14.13-11.562-25.628-25.774-25.628zm24.267 25.23H32.188V14.61c13.145.124 23.82 10.686 24.033 23.735zm-33.716 22.64C13.498 57.196 7.678 48.465 7.678 38.742c0-.035.002-.07.005-.103l.002-.02c.004-.069.009-.136.01-.205.002-.156.006-.301.01-.447l.002-.076.004-.16.013-.314.009-.203c.005-.103.012-.202.019-.301l.001-.023a10.443 10.443 0 0 1 .044-.53l.003-.033.003-.034v-.002c.02-.198.053-.393.085-.587l.009-.051.002-.016c.022-.13.044-.261.064-.393l.031-.226.023-.162.004-.028c.041-.307.083-.614.144-.914.055-.264.125-.522.195-.78l.006-.023.107-.398v-.002a18.361 18.361 0 0 0 .12-.481l.02-.071.017-.07c.038-.157.077-.315.124-.468.103-.332.227-.654.35-.977l.016-.039.116-.306c.043-.116.084-.233.125-.35.062-.177.123-.353.196-.524.188-.445.403-.873.631-1.325l.005-.01.057-.112v-.001c.046-.09.089-.183.132-.274l.01-.024.018-.037c.047-.101.094-.203.147-.3.144-.265.297-.526.463-.799.144-.235.296-.476.464-.74l.002-.003.003-.004.098-.16.03-.052.013-.021c.037-.063.074-.126.115-.187a19.723 19.723 0 0 1 .636-.887c.166-.22.337-.445.535-.694l.002-.002c.04-.049.076-.1.113-.151.025-.035.05-.07.077-.104a23.378 23.378 0 0 1 .757-.871l.05-.054c.197-.215.396-.43.616-.656l.103-.113.001-.001.002-.002c.24-.242.486-.478.737-.71.294-.273.597-.544.91-.806l.01-.01a.932.932 0 0 1 .02-.016l.006-.005a24.257 24.257 0 0 1 1.552-1.195l.006-.005a24.464 24.464 0 0 1 12.81-4.434v24.43c0 .41.336.744.75.744h24.746c-.003.051-.004.103-.006.154 0 .027-.002.053-.003.08-.01.174-.023.347-.036.52v.01a24.452 24.452 0 0 1-.117 1.158 23.84 23.84 0 0 1-.535 2.863 25.002 25.002 0 0 1-.854 2.715c-.06.16-.125.317-.19.476l-.013.031c-.075.186-.151.37-.232.554-.056.127-.115.253-.173.38l-.043.093-.014.028c-.083.18-.167.361-.256.54-.054.108-.11.216-.167.324l-.056.108-.03.055c-.092.177-.185.354-.283.53-.047.084-.097.168-.146.252a19.5 19.5 0 0 0-.077.132l-.042.07v.001a21.265 21.265 0 0 1-.358.593l-.03.047a7.56 7.56 0 0 1-.11.168l-.05.078-.03.044c-.121.188-.243.377-.371.561-.05.072-.102.143-.154.215l-.093.127-.03.043h-.001c-.13.182-.26.364-.397.542-.056.075-.115.147-.174.22-.034.042-.069.084-.102.127l-.087.109c-.117.149-.235.297-.357.442-.081.096-.166.19-.25.284a24.754 24.754 0 0 0-.23.26c-.094.108-.188.216-.285.322-.264.284-.535.564-.814.838l-.006.005a.24.24 0 0 0-.011.01l-.028.025-.014.012a25.518 25.518 0 0 1-1.638 1.465c-.03.025-.064.048-.097.072l-.028.02a2.25 2.25 0 0 1-.028.02l-.09.067h-.001l-.001.001a23.7 23.7 0 0 1-.46.353l-.1.077-.122.093a19.301 19.301 0 0 1-.925.66 3.74 3.74 0 0 1-.206.125l-.08.048-.018.01c-.042.025-.085.05-.127.077l-.178.111-.03.019a18.428 18.428 0 0 1-1.255.748l-.047.027a.425.425 0 0 1-.046.027c-.092.05-.187.093-.282.137l-.043.02-.054.025a4.326 4.326 0 0 1-.053.025l-.045.021a3.429 3.429 0 0 0-.137.065l-.055.028-.049.024-.056.028-.048.024c-.201.1-.397.199-.593.292-.229.11-.457.215-.69.312-.16.067-.327.125-.493.182-.12.041-.242.083-.361.128l-.228.087-.078.029-.028.01c-.338.13-.677.259-1.024.365-.228.07-.462.126-.697.182l-.032.008-.006.001-.4.098-.373.099-.02.004-.037.01c-.247.067-.494.134-.748.185-.357.073-.72.121-1.085.17l-.356.049c-.135.019-.27.04-.403.064a7.667 7.667 0 0 1-.554.08 24.967 24.967 0 0 1-2.056.115 24.73 24.73 0 0 1-3.492-.182 24.07 24.07 0 0 1-6.37-1.7z"/></mask><path fill-rule="evenodd" clip-rule="evenodd" d="M34.785 6.039v2.088C50.612 9.56 62.91 22.875 62.908 38.742c0 16.971-13.885 30.778-30.954 30.778C14.886 69.52 1 55.713 1 38.742 1 22.875 13.298 9.56 29.124 8.127V6.039h-1.74a.747.747 0 0 1-.748-.745v-3.55c0-.41.335-.744.749-.744h9.14c.413 0 .748.333.748.745v3.549a.747.747 0 0 1-.749.745h-1.739zM2.498 38.742c0 16.15 13.214 29.288 29.456 29.288 16.243 0 29.457-13.138 29.457-29.287 0-15.32-12.047-28.14-27.426-29.185a.746.746 0 0 1-.697-.743v-3.52c0-.411.335-.745.748-.745h1.74V2.49h-7.642v2.06h1.739c.413 0 .748.333.748.744v3.52a.746.746 0 0 1-.697.743C14.544 10.603 2.498 23.422 2.498 38.742zm29.456-25.628a25.875 25.875 0 0 0-16.4 5.88l-.074.058a3.752 3.752 0 0 0-.098.08h-.002l-.02.017-.02.016h-.001l-.015.014-.008.006c-.3.252-.596.513-.887.78l-.034.033a1.63 1.63 0 0 1-.112.102c-.243.228-.48.458-.708.688l-.006.007-.002.002a1.66 1.66 0 0 0-.086.093l-.027.031a16.678 16.678 0 0 0-.56.596l-.092.101-.072.078c-.046.05-.093.1-.136.15a23.32 23.32 0 0 0-.645.75v.001l-.002.002a4.172 4.172 0 0 0-.13.172l-.073.098-.04.052-.039.048a54.28 54.28 0 0 0-.283.362l-.003.003a26.183 26.183 0 0 0-.49.658l-.022.031c-.128.178-.25.352-.364.522-.063.093-.12.189-.176.285a5.068 5.068 0 0 1-.104.172l-.008.012-.004.006c-.152.238-.295.463-.428.68l-.023.041-.03.047-.014.024c-.165.27-.318.534-.465.804l-.003.007a.17.17 0 0 0-.006.01v.003c-.074.136-.14.277-.206.418-.04.086-.08.172-.122.257l-.078.154a.272.272 0 0 0-.006.013l-.007.012a3.014 3.014 0 0 0-.035.071 10.514 10.514 0 0 0-.838 1.9l-.226.614c-.14.365-.28.73-.397 1.106v.001c-.01.031-.017.063-.025.094l-.022.081c-.058.204-.113.408-.163.616l-.193.749a5.312 5.312 0 0 0-.04.161l-.034.137-.03.11c-.042.161-.085.322-.119.486v.003c-.07.341-.117.69-.164 1.037l-.018.125-.035.249-.022.134-.003.017-.011.071-.025.154-.005.03a10.735 10.735 0 0 0-.146 1.21 28.432 28.432 0 0 0-.071 1.748l-.007.118c-.006.076-.01.153-.01.23 0 1.29.096 2.564.284 3.814 1.313 8.745 7.09 16.28 15.457 19.8a25.769 25.769 0 0 0 4.838 1.493 26.11 26.11 0 0 0 7.817.39 4.76 4.76 0 0 0 .258-.036l.091-.015.144-.02.171-.025c.117-.02.235-.04.352-.056l.346-.047c.398-.053.795-.107 1.185-.186h.001c.297-.06.585-.139.874-.216l.757-.194c.277-.066.553-.132.824-.215l.008-.002.01-.003c.094-.03.188-.06.282-.092a23.362 23.362 0 0 0 .828-.303l.01-.004.003-.001.003-.002h.002l.296-.113c.094-.035.188-.068.283-.1l.043-.016c.197-.068.392-.135.583-.215l.005-.002.001-.001c.097-.04.192-.085.287-.129l.103-.048.08-.035a27.31 27.31 0 0 0 .275-.125c.125-.06.246-.12.367-.181l.081-.04.138-.069c.046-.022.092-.044.136-.067l.028-.014.072-.035.008-.004.124-.059.122-.057c.136-.062.271-.125.402-.195a.012.012 0 0 0 .004-.002h.002l.01-.005c.182-.098.362-.2.54-.304l.222-.134.036-.02.045-.027.11-.068.023-.015c.224-.137.44-.273.642-.4l.002-.002a4.887 4.887 0 0 1 .194-.117l.015-.008c.09-.053.18-.106.267-.164h.002c.257-.172.52-.358.8-.562l.145-.11.089-.07.072-.054c.181-.136.363-.273.564-.432l.036-.028.088-.065a3.23 3.23 0 0 0 .173-.13c.262-.213.523-.435.786-.668l.011-.01a28.035 28.035 0 0 0 .936-.87 6.6 6.6 0 0 0 .077-.07v-.001l.006-.006.002-.002c4.234-4.157 6.842-9.535 7.492-15.352a1.117 1.117 0 0 0 .006-.065c.043-.393.078-.787.103-1.184.004-.06.006-.12.008-.18 0-.046.002-.093.005-.139l.002-.054c.015-.287.03-.575.034-.864V39.1l.006-.12a3.02 3.02 0 0 0 .011-.237c0-14.13-11.562-25.628-25.774-25.628zm24.267 25.23H32.188V14.61c13.145.124 23.82 10.686 24.033 23.735zm-33.716 22.64C13.498 57.196 7.678 48.465 7.678 38.742c0-.035.002-.07.005-.103l.002-.02c.004-.069.009-.136.01-.205.002-.156.006-.301.01-.447l.002-.076.004-.16.013-.314.009-.203c.005-.103.012-.202.019-.301l.001-.023a10.443 10.443 0 0 1 .044-.53l.003-.033.003-.034v-.002c.02-.198.053-.393.085-.587l.009-.051.002-.016c.022-.13.044-.261.064-.393l.031-.226.023-.162.004-.028c.041-.307.083-.614.144-.914.055-.264.125-.522.195-.78l.006-.023.107-.398v-.002a18.361 18.361 0 0 0 .12-.481l.02-.071.017-.07c.038-.157.077-.315.124-.468.103-.332.227-.654.35-.977l.016-.039.116-.306c.043-.116.084-.233.125-.35.062-.177.123-.353.196-.524.188-.445.403-.873.631-1.325l.005-.01.057-.112v-.001c.046-.09.089-.183.132-.274l.01-.024.018-.037c.047-.101.094-.203.147-.3.144-.265.297-.526.463-.799.144-.235.296-.476.464-.74l.002-.003.003-.004.098-.16.03-.052.013-.021c.037-.063.074-.126.115-.187a19.723 19.723 0 0 1 .636-.887c.166-.22.337-.445.535-.694l.002-.002c.04-.049.076-.1.113-.151.025-.035.05-.07.077-.104a23.378 23.378 0 0 1 .757-.871l.05-.054c.197-.215.396-.43.616-.656l.103-.113.001-.001.002-.002c.24-.242.486-.478.737-.71.294-.273.597-.544.91-.806l.01-.01a.932.932 0 0 1 .02-.016l.006-.005a24.257 24.257 0 0 1 1.552-1.195l.006-.005a24.464 24.464 0 0 1 12.81-4.434v24.43c0 .41.336.744.75.744h24.746c-.003.051-.004.103-.006.154 0 .027-.002.053-.003.08-.01.174-.023.347-.036.52v.01a24.452 24.452 0 0 1-.117 1.158 23.84 23.84 0 0 1-.535 2.863 25.002 25.002 0 0 1-.854 2.715c-.06.16-.125.317-.19.476l-.013.031c-.075.186-.151.37-.232.554-.056.127-.115.253-.173.38l-.043.093-.014.028c-.083.18-.167.361-.256.54-.054.108-.11.216-.167.324l-.056.108-.03.055c-.092.177-.185.354-.283.53-.047.084-.097.168-.146.252a19.5 19.5 0 0 0-.077.132l-.042.07v.001a21.265 21.265 0 0 1-.358.593l-.03.047a7.56 7.56 0 0 1-.11.168l-.05.078-.03.044c-.121.188-.243.377-.371.561-.05.072-.102.143-.154.215l-.093.127-.03.043h-.001c-.13.182-.26.364-.397.542-.056.075-.115.147-.174.22-.034.042-.069.084-.102.127l-.087.109c-.117.149-.235.297-.357.442-.081.096-.166.19-.25.284a24.754 24.754 0 0 0-.23.26c-.094.108-.188.216-.285.322-.264.284-.535.564-.814.838l-.006.005a.24.24 0 0 0-.011.01l-.028.025-.014.012a25.518 25.518 0 0 1-1.638 1.465c-.03.025-.064.048-.097.072l-.028.02a2.25 2.25 0 0 1-.028.02l-.09.067h-.001l-.001.001a23.7 23.7 0 0 1-.46.353l-.1.077-.122.093a19.301 19.301 0 0 1-.925.66 3.74 3.74 0 0 1-.206.125l-.08.048-.018.01c-.042.025-.085.05-.127.077l-.178.111-.03.019a18.428 18.428 0 0 1-1.255.748l-.047.027a.425.425 0 0 1-.046.027c-.092.05-.187.093-.282.137l-.043.02-.054.025a4.326 4.326 0 0 1-.053.025l-.045.021a3.429 3.429 0 0 0-.137.065l-.055.028-.049.024-.056.028-.048.024c-.201.1-.397.199-.593.292-.229.11-.457.215-.69.312-.16.067-.327.125-.493.182-.12.041-.242.083-.361.128l-.228.087-.078.029-.028.01c-.338.13-.677.259-1.024.365-.228.07-.462.126-.697.182l-.032.008-.006.001-.4.098-.373.099-.02.004-.037.01c-.247.067-.494.134-.748.185-.357.073-.72.121-1.085.17l-.356.049c-.135.019-.27.04-.403.064a7.667 7.667 0 0 1-.554.08 24.967 24.967 0 0 1-2.056.115 24.73 24.73 0 0 1-3.492-.182 24.07 24.07 0 0 1-6.37-1.7z" fill="#fff"/><path d="M34.785 8.127h-.2v.183l.182.016.018-.2zm0-2.088v-.2h-.2v.2h.2zm28.123 32.703h-.2.2zM29.124 8.127l.018.199.182-.016v-.183h-.2zm0-2.088h.2v-.2h-.2v.2zm4.861 3.52l.014-.2-.014.2zm1.79-5.009v.2h.2v-.2h-.2zm0-2.06h.2v-.2h-.2v.2zm-7.641 0v-.2h-.2v.2h.2zm0 2.06h-.2v.2h.2v-.2zm1.79 5.007l-.014-.2.014.2zm-14.37 9.436l.126.155-.127-.155zm-.074.059l-.124-.157.124.157zm0 0l.123.157-.124-.157zm-.098.08l.122.157.007-.005-.13-.153zm-.001 0l.105.17.009-.006.008-.006-.122-.158zm0 0l-.153-.13v.001l.152.13zm-.001 0l.125.156.075-.06v-.095h-.2zm-.02.017l-.125-.156.125.156zm-.02.016v.2h.07l.055-.044-.125-.156zm-.001 0l.14-.141-.125-.126-.14.11.125.157zm-.015.014l.136.146-.136-.146zm-.008.006l.13.153.004-.004-.133-.149zm-.887.78l-.136-.147v.002l.136.145zm-.034.033l.14.143-.14-.143zm-.044.042l-.135-.148-.001.001.136.147zm-.034.03l-.13-.151.13.151zm-.034.03l-.136-.147-.001.001.137.146zm-.708.688l.141.142h.001l-.142-.142zm-.006.007l-.14-.142h-.001l.141.142zm0 0l-.142-.141.141.141zm-.002.002l-.141-.142-.06.059v.083h.2zm0 0l.14.142.06-.058v-.083h-.2zm-.076.083l-.15-.132-.006.006.156.126zm-.01.01l-.141-.142-.01.01.151.133zm-.027.031l.141.142.01-.01-.15-.132zm-.008.01l.143.139.009-.01.007-.01-.16-.12zm-.336.35l-.145-.138.145.137zm-.216.236l-.148-.135.148.134zm-.092.101l.147.136v-.001l-.147-.135zm-.072.078l.147.136-.147-.136zm-.136.15l.149.133-.15-.133zm-.645.75l-.155-.126-.045.055v.072h.2zm-.002.003l-.14-.142-.008.008-.007.008.155.126zm-.13.172l.16.12.002-.002-.162-.118zm-.073.098l.156.125.005-.006-.16-.12zm-.04.052l-.159-.123-.004.006.162.117zm0 0l.158.122.003-.005-.162-.117zm-.039.048l-.155-.125-.002.001.158.124zm-.283.362l-.158-.123-.012.015-.008.018.178.09zm-.003.003l-.14-.142-.001.001.141.141zm0 0l-.141-.141-.01.01-.007.01.158.121zm-.422.565l-.162-.118.162.118zm-.068.093l-.162-.117.162.117zm-.022.031l-.162-.117.162.117zm-.364.522l.166.112-.166-.112zm-.176.285l-.173-.101.173.1zm-.104.172l-.169-.108-.006.01.175.098zm-.008.012l-.167-.11v.002l.167.108zm-.004.006l-.168-.109v.001l.168.108zm-.428.68l-.17-.104-.002.003.172.102zm-.023.041l.171.103.003-.006-.174-.097zm-.03.047l.17.106-.17-.106zm-.014.024l-.17-.105v.001l.17.104zm-.465.804l.172.103.004-.007-.176-.096zm-.003.007l.17.103.001-.001-.171-.102zm-.003.004l-.174-.1.174.1zm-.003.006l-.179-.09-.02.042v.047h.2zm0 0l-.14-.142.14.142zm0 0l.189.065-.19-.064zm0 .003l.175.095.024-.045v-.05h-.2zm-.206.418l-.181-.085.181.084zm-.122.257l.178.09-.178-.09zm-.078.154l.176.096.003-.006-.179-.09zm-.006.013l.18.086-.18-.086zm-.007.012l-.175-.096-.002.004.177.093zm-.035.071l.18.088-.18-.088zm0 0l-.18-.087-.003.006.183.081zm-.01.02l-.175-.097-.004.008.18.09zm-.6 1.268l-.184-.078.185.078zm-.228.613l.187.069.001-.003-.188-.066zm-.226.613l.186.071.001-.002-.187-.07zm-.397 1.106l-.19-.06-.01.03v.03h.2zm0 .001l.191.059.009-.029v-.03h-.2zm-.025.094l-.194-.049.194.05zm-.022.081l-.192-.056v.001l.192.055zm-.163.616l.194.05v-.004l-.194-.046zm-.193.749l.193.052.001-.002-.194-.05zm-.04.161l.194.047-.194-.047zm-.034.137l.193.051-.193-.05zm-.03.11l-.193-.05v.002l.194.048zm0 0l.194.052v-.003l-.193-.049zm-.119.486l-.195-.04-.005.02v.02h.2zm0 .003l.196.04.004-.02v-.02h-.2zm-.164 1.037l.198.028v-.001l-.198-.027zm-.018.125l.198.028-.198-.028zm-.035.249l.198.03v-.002l-.198-.028zm-.022.134l-.197-.033.197.033zm-.003.017l-.197-.033v.001l.197.032zm-.011.071l-.197-.031.197.031zm-.025.154l-.197-.034v.001l.197.033zm-.005.03l.197.034-.197-.033zm-.102.707l.2.02-.2-.02zm-.044.503l.2.015-.2-.015zM6.2 38.394L6 38.39v.003h.2zm0 0l.2.012v-.012h-.2zm-.007.118l.2.014v-.003l-.2-.011zm.274 4.044l-.198.03.198-.03zm15.457 19.8l-.077.184.077-.184zm1.181.462l.068-.188-.068.188zm3.658 1.03l.04-.195-.04.196zm7.816.39v-.2h-.01l-.01.002.02.199zm0 0v.2h.023l-.02-.2zm.258-.035l.031.197-.031-.197zm.091-.015l.03.198-.03-.198zm.144-.02l.027.198h.002l-.029-.198zm0 0l-.026-.198h-.002l.028.198zm.171-.025l.032.198h.001l-.033-.198zm.352-.056l-.027-.198h-.002l.029.198zm.346-.047l-.026-.198.026.198zm1.185-.186v-.2h-.02l-.02.004.04.196zm.001 0v.2h.02l.02-.005-.04-.196zm.874-.216l-.05-.194h-.002l.052.194zm.757-.194l-.047-.194h-.003l.05.194zm.824-.215v-.2h-.03l-.03.009.06.191zm0 0v.2h.031l.03-.01-.06-.19zm.008-.002l.06.19-.06-.19zm.01-.003l-.06-.191h-.001l.06.19zm.282-.092l.065.189-.065-.19zm.819-.3l.071.187.01-.004.008-.004-.089-.18zm.01-.003l.047.194-.048-.194zm0 0l.048.194.014-.004.014-.006-.077-.184zm.008-.004l-.048-.194-.014.003-.014.006.076.185zm.004-.001l.076.184h.001l-.078-.184zm0 0l.078.184-.077-.185zm.003-.002l-.071-.187h-.001l.072.188zm.002 0l.048.194.012-.003.01-.004-.07-.187zm.296-.113l-.07-.187h-.001l.071.187zm.283-.1l.066.188-.066-.189zm.043-.016l.066.19.002-.001-.068-.189zm0 0l-.065-.189h-.002l.068.19zm.583-.215l.077.184h.002l-.079-.184zm.005-.002v-.2h-.04l-.038.016.078.184zm.001-.001l-.077-.185-.123.052v.133h.2zm.287-.129l.084.181-.084-.181zm.103-.048l-.083-.182.083.182zm.08-.035l.08.182-.08-.182zm.052-.024l.08.183-.08-.183zm.223-.102l-.086-.18.086.18zm.367-.18l-.089-.18.09.18zm.081-.04l.09.179-.09-.18zm.138-.069l-.088-.179.088.18zm.136-.067l-.089-.179.09.18zm.028-.014l-.09-.178.09.178zm.072-.035l-.083-.183-.006.004.089.179zm.008-.004l.083.182.006-.003-.089-.179zm.124-.059l.084.182h.001l-.085-.182zm.122-.057l.084.182-.084-.182zm.402-.195l-.09-.179-.004.003.094.176zm0 0l-.09-.179.09.18zm.004-.002v-.2h-.083l-.058.058.14.142zm.002 0v.2h.047l.042-.022-.089-.179zm.01-.005l.088.179.006-.003-.095-.176zm.54-.304l-.101-.173.1.173zm.222-.134l-.102-.172h-.002l.104.172zm.036-.02l-.09-.18-.009.005.099.174zm0 0l.09.178.009-.005-.099-.174zm.045-.027l-.103-.172-.002.001.105.17zm.11-.068l-.107-.17.106.17zm0 0l.106.17v-.001l-.106-.17zm.023-.015l-.104-.17h-.002l.106.17zm.642-.4l-.102-.173-.005.004.107.168zm.002-.002l.103.172.008-.006-.11-.166zm0 0l-.102-.172-.009.005.111.167zm.022-.014l-.107-.169-.008.005-.008.006.123.158zm.172-.103l.1.174.001-.001-.101-.173zm.015-.008l-.097-.175-.004.002.101.172zm0 0l.097.174.004-.002-.1-.173zm.267-.164l.111.166.017-.01.014-.015-.142-.14zm.002 0v.2h.06l.051-.034-.11-.166zm.8-.562l.119.16-.119-.16zm.145-.11l-.123-.159.123.158zm.089-.07l-.12-.16-.001.002.12.159zm.072-.054l-.12-.16.12.16zm0 0l.12.16-.12-.16zm.564-.432l.124.157.002-.001-.126-.156zm.036-.028l-.118-.161h-.001l.12.161zm.088-.065l-.116-.163-.002.002.118.161zm.173-.13l-.126-.155.126.155zm.786-.668l.133.15.004-.005-.137-.145zm.011-.01l.137.145-.137-.146zm.022-.02l.13.151.003-.002-.133-.15zm.914-.851l-.129-.153-.005.004-.005.005.139.144zm.077-.069v-.2h-.078l-.057.053.135.147zm0-.001l-.14-.142-.06.059v.083h.2zm.006-.006l-.141-.142.14.142zm0 0l.141.142-.14-.142zm.002-.002l-.14-.142h-.001l.141.142zm7.492-15.352l.2.022-.2-.022zm.006-.065l-.199-.021.199.021zm.103-1.184l-.2-.013.2.013zm.008-.18l-.2-.005.2.006zm0 0l.2.007-.2-.006zm.005-.139l.2.01-.2-.01zm.002-.054l-.2-.01.2.01zm.034-.864l.2.003v-.003h-.2zm0-.036l-.2-.011v.011h.2zm.006-.12l-.2-.016v.004l.2.011zm.011-.237h-.2.2zm-25.54-.397h-.2v.2h.2v-.2zm24.032 0v.2h.204l-.004-.203-.2.003zM32.188 14.61l.002-.2-.202-.002v.202h.2zm-9.683 46.374l-.078.184.078-.184zM7.683 38.638l.2.016-.2-.016zm.002-.02l.2.015v-.001l-.2-.014zm.01-.204l-.2-.003.2.003zm.01-.447l.2.006v-.002l-.2-.004zm0 0l-.2-.005v.001l.2.004zm.002-.076l.2.005-.2-.005zm.004-.16l.2.008-.2-.008zm.013-.314l-.2-.009.2.01zm.009-.203l-.2-.01v.001l.2.01zm.019-.301l.2.014v-.001l-.2-.013zm.001-.023l.2.013V36.9l-.2-.01zm0 0l-.2-.013v.003l.2.01zm.011-.156l.2.016-.2-.016zm.033-.374l-.199-.02.2.02zm.003-.033l.2.017-.2-.017zm.003-.034l.2.022v-.021h-.2zm0-.002l-.199-.02v.02h.2zm.085-.587l.197.033-.197-.034zm.009-.051L7.7 35.62l.197.033zm.002-.016l.198.033v-.003l-.198-.03zm0 0l-.197-.033v.004l.197.03zm.064-.393l.198.029v-.002l-.198-.027zm.031-.226l-.198-.028.198.028zm.023-.162l.198.028v-.002l-.198-.026zm.004-.028l.198.027-.198-.027zm.144-.914l-.195-.04.195.04zm.195-.78l.193.053-.193-.052zm.006-.023l.193.053-.193-.053zm.107-.398l.193.051.007-.025v-.026h-.2zm0-.002l-.193-.05-.007.024v.026h.2zm.1-.404l-.194-.047v.001l.195.046zm.02-.077l.194.053-.193-.053zm.02-.071l.194.048-.194-.048zm.017-.07l.194.048-.194-.047zm.124-.468l-.19-.06.19.06zm.35-.977l.187.072-.187-.072zm.016-.039l.186.072-.186-.072zm.116-.306l.187.071v-.001l-.187-.07zm.125-.35l.19.067-.19-.067zm0 0l.19.066-.19-.066zm.196-.524l.184.078-.184-.078zm.631-1.325l.18.09-.18-.09zm.005-.01l.179.09-.179-.09zm.057-.112l.178.09.022-.043v-.047h-.2zm0-.001l-.179-.09-.021.042v.048h.2zm.132-.274l-.181-.085.18.085zm0 0l.18.084-.18-.085zm.01-.024l.182.084-.181-.084zm.018-.037l.181.085.005-.01-.186-.075zm0 0l-.182-.084-.004.01.186.074zm.147-.3l-.176-.095.176.095zm.463-.799l-.17-.104.17.104zm.464-.74l-.166-.111-.002.004.168.107zm.002-.003l.174.1-.174-.1zm.003-.004l.166.111.003-.004-.17-.107zm.098-.16l.172.101-.172-.102zm.03-.052l-.172-.101-.002.002.174.1zm.013-.021l.172.101-.172-.101zm.115-.187l.166.112.034-.05v-.062h-.2zm0 0l-.166-.112-.034.05v.061h.2zm.475-.672l-.161-.118.16.118zm.16-.215l.16.121-.16-.12zm.536-.694l.156.125.044-.055v-.07h-.2zm.002-.002l.14.143.06-.06v-.083h-.2zm0 0v.2h.096l.06-.075-.156-.125zm.113-.151l.162.117.002-.002-.164-.115zm0 0l-.162-.117-.002.002.164.115zm.077-.104l-.155-.126-.001.002.156.124zm.617-.717l-.15-.133.15.133zm.14-.154l.147.135-.147-.135zm.05-.054l.147.135-.147-.135zm.616-.656l.143.14.005-.005-.148-.135zm.103-.113l-.141-.142-.007.007.148.135zm.001-.001v-.2h-.083l-.058.058.141.142zm0 0v.2h.083l.059-.058-.141-.142zm.002-.002l.141.142.002-.001-.143-.14zm.737-.71l-.136-.147.136.146zm.91-.806l.128.153.002-.002-.13-.151zm.01-.01l.131.152.001-.001-.132-.15zm.02-.016l-.111-.167-.01.007-.008.007.128.153zm.006-.005l-.129-.154-.022.018-.016.024.167.112zm1.54-1.186l.115.163.004-.002-.12-.16zm.012-.009l.115.163-.115-.163zm.006-.005l.111.167.005-.003-.116-.163zm12.81-4.434h.2v-.21l-.21.01.01.2zm25.496 25.174l.2.01.01-.21h-.21v.2zm-.006.154l.2.008-.2-.008zm-.003.08l-.2-.012.2.012zm-.036.52l-.2-.014.2.014zm0 .01l.2.015-.2-.015zm-.055.628l.198.02-.198-.02zm-.062.53l.199.025-.199-.025zm-.084.615l.198.03-.198-.03zm-.086.529l-.197-.035.197.035zm-.113.603l-.196-.04.196.04zm-.113.53l-.195-.044.195.044zm-.139.585l-.194-.049.194.05zm-.139.532l.193.053-.192-.053zm-.163.565l.191.058-.191-.058zm-.168.535l-.19-.062.19.063zm-.185.54l-.189-.067.189.067zm-.199.543l-.187-.071.187.071zm-.19.477l-.185-.076.185.076zm-.013.031l.186.075-.186-.075zm-.232.554l-.183-.08.183.08zm-.173.38l-.181-.085.181.084zm-.043.093l.181.084-.181-.084zm-.014.028l-.18-.084.18.084zm-.256.54l-.179-.09.18.09zm-.167.324l-.177-.093.177.093zm-.056.108l.177.093-.177-.093zm-.03.055l-.177-.093.177.093zm-.283.53l-.175-.098.175.097zm-.146.252l-.172-.102-.002.002.174.1zm0 0l.172.102v-.002l-.172-.1zm-.077.132l.172.1-.172-.1zm-.042.07l.17.105.003-.003-.173-.101zm0 .001l-.171-.104-.002.003.173.101zm-.32.534l-.17-.106.17.106zm-.023.036l-.167-.11.167.11zm-.015.023l-.166-.111.166.11zm-.03.047l-.17-.107.17.107zm-.068.105l-.168-.11.168.11zm-.042.063l-.167-.11.167.11zm-.05.078l-.168-.11v.001l.167.109zm-.03.044l-.167-.109.168.109zm-.371.561l-.165-.114.165.114zm-.154.215l.161.118-.161-.118zm-.093.127l-.162-.117.162.117zm-.03.043l.161.117-.162-.117zm-.001 0l-.162-.117.162.117zm-.397.542l.16.122-.16-.122zm-.174.22l-.155-.126.155.126zm-.102.127l-.157-.125.157.125zm-.087.109l-.156-.124.156.124zm-.357.442l-.153-.13v.001l.153.129zm-.25.284l-.149-.133.149.133zm-.107.12l-.15-.132.15.132zm-.123.14l.148.136.003-.004-.15-.132zm0 0l-.147-.135-.004.004.151.132zm-.285.322l.146.136-.146-.136zm-.814.838l.133.149.007-.006-.14-.143zm-.006.005l.111.166.012-.008.01-.01-.133-.148zm0 0l-.11-.167-.011.008-.01.008.131.15zm-.011.01l.133.15.008-.008-.141-.142zm-.041.037l-.133-.15.133.15zm-.02.017l.14.144.002-.002-.142-.142zm-.839.782l-.133-.15.133.15zm-.78.665l.126.157.001-.002-.126-.155zm-.097.073l.116.162-.116-.162zm-.028.02l.12.16-.12-.16zm0 0l-.12-.16.12.16zm-.028.02l-.117-.162-.002.002.119.16zm-.09.067v.2h.07l.054-.043-.124-.157zm0 0l.086.18-.086-.18zm0 0l-.103-.171-.002.001.104.17zm-.003.002v-.2h-.07l-.054.043.124.157zm-.459.352l-.12-.159.12.16zm-.1.077l.12.16-.12-.16zm-.122.093l.122.158-.122-.158zm-.174.133l.118.161-.118-.16zm-.751.528l.11.166-.11-.166zm-.206.124l-.1-.174-.002.002.102.172zm-.08.048l.1.173.002-.001-.102-.172zm-.018.01l.1.173h.001l-.1-.173zm0 0l-.1-.173.1.173zm-.127.077l.108.168-.108-.168zm-.178.111l-.108-.168-.003.002.11.166zm-.03.019l-.104-.17h-.003l.107.17zm-.521.326l.103.17-.103-.17zm-.734.422l-.096-.175h-.001l.097.175zm-.047.027l-.101-.172.101.172zm-.046.027l.095.176.002-.001-.097-.175zm-.282.137l-.083-.182.083.182zm-.043.02l-.083-.183-.001.001.084.181zm-.054.025l-.086-.18.086.18zm0 0l.087.18-.087-.18zm-.053.025l.084.182-.084-.182zm-.045.021l-.084-.181.084.181zm0 0l.083.182-.083-.182zm-.137.065l-.09-.178.09.178zm-.055.028l.09.179-.09-.18zm-.049.024l-.089-.179-.003.001.092.178zm-.056.028l-.089-.18.09.18zm-.048.024l.089.179-.09-.179zm-.593.292l.087.18-.087-.18zm-.69.312l.077.185-.077-.185zm-.493.182l-.065-.19.065.19zm-.361.128l-.07-.187h-.001l.071.187zm-.228.087l.07.187-.07-.187zm-.078.029l-.07-.187.07.187zm-.028.01l.071.188-.071-.187zm-1.024.365l.059.192-.059-.192zm-.697.182l.047.195-.047-.195zm-.032.008l-.046-.195h-.002l.048.195zm-.006.001l.048.195-.048-.195zm-.4.098v.2h.025l.023-.006-.047-.194zm0 0v-.2h-.026l-.025.007.05.193zm-.373.099l.046.194h.005l-.051-.194zm-.02.004L37.562 62l-.005.001.052.193zm-.037.01l.048.195.004-.001-.052-.193zm0 0l-.049-.193h-.003l.052.194zm-.748.185l-.04-.196.04.196zm-1.085.17l-.026-.198h-.001l.027.198zm-.356.049l-.027-.198.027.198zm-.403.064l-.034-.197.034.197zm-.554.08l-.02-.199.02.2zm-1.652.105l.007.2-.007-.2zm-.404.01l.003.2-.003-.2zm-3.492-.182l-.025.198.025-.198zm-1.816-.298l.04-.196-.04.196zm7.925-54.26V6.039h-.4v2.088h.4zm28.123 30.615C63.11 22.771 50.732 9.37 34.803 7.928l-.036.398C50.492 9.75 62.71 22.98 62.708 38.742h.4zM31.955 69.72c17.177 0 31.153-13.895 31.153-30.978h-.4c0 16.86-13.794 30.578-30.753 30.578v.4zM.8 38.742C.8 55.825 14.777 69.72 31.954 69.72v-.4C14.995 69.32 1.2 55.602 1.2 38.742H.8zM29.106 7.928C13.178 9.37.8 22.77.8 38.742h.4C1.2 22.98 13.418 9.75 29.142 8.326l-.036-.398zm-.182-1.89v2.089h.4V6.039h-.4zm-1.54.2h1.74v-.4h-1.74v.4zm-.948-.944c0 .523.426.945.949.945v-.4a.547.547 0 0 1-.55-.545h-.4zm0-3.55v3.55h.4v-3.55h-.4zM27.385.8a.947.947 0 0 0-.95.945h.4c0-.3.246-.545.55-.545V.8zm9.14 0h-9.14v.4h9.14V.8zm.948.945A.947.947 0 0 0 36.524.8v.4c.304 0 .55.245.55.545h.4zm0 3.549v-3.55h-.4v3.55h.4zm-.949.945a.947.947 0 0 0 .95-.945h-.4c0 .3-.246.545-.55.545v.4zm-1.739 0h1.74v-.4h-1.74v.4zm-2.83 61.591c-16.133 0-29.257-13.05-29.257-29.088h-.4c0 16.261 13.305 29.488 29.656 29.488v-.4zM61.21 38.743c0 16.037-13.124 29.087-29.256 29.087v.4c16.351 0 29.656-13.227 29.656-29.487h-.4zM33.97 9.758c15.275 1.038 27.24 13.771 27.24 28.985h.4c0-15.426-12.13-28.332-27.612-29.384l-.027.399zm-.883-.943c0 .497.387.909.884.943l.027-.4a.546.546 0 0 1-.511-.543h-.4zm0-3.52v3.52h.4v-3.52h-.4zm.948-.945a.947.947 0 0 0-.948.945h.4c0-.3.244-.545.548-.545v-.4zm1.74 0h-1.74v.4h1.74v-.4zm-.2-1.86v2.06h.4V2.49h-.4zm-7.442.2h7.641v-.4h-7.641v.4zm.2 1.86V2.49h-.4v2.06h.4zm1.539-.2h-1.74v.4h1.74v-.4zm.948.944a.947.947 0 0 0-.948-.945v.4c.304 0 .549.245.549.545h.4zm0 3.52v-3.52h-.4v3.52h.4zm-.884.943a.946.946 0 0 0 .884-.943h-.4a.546.546 0 0 1-.51.544l.026.399zM2.697 38.742c0-15.214 11.965-27.947 27.24-28.985l-.027-.4C14.427 10.41 2.298 23.317 2.298 38.743h.4zM15.68 19.148a25.675 25.675 0 0 1 16.274-5.834v-.4a26.075 26.075 0 0 0-16.528 5.925l.254.309zm-.076.061l.076-.061-.254-.31-.07.057.248.314zm0 0l-.248-.314.248.314zm-.093.075a3.31 3.31 0 0 1 .092-.075l-.248-.314a3.828 3.828 0 0 0-.103.083l.259.306zm-.008.006l-.244-.317.244.317zm.03-.029a.2.2 0 0 1-.04.037l-.008.004h.002l-.212-.34s.003-.002 0 0l-.006.004a.202.202 0 0 0-.041.037l.305.258zm.047-.128a.2.2 0 0 1-.047.128l-.306-.258a.2.2 0 0 0-.047.13h.4zm-.095.172l.02-.017-.25-.311-.02.016.25.312zm-.02.015l.02-.015-.25-.312-.02.016.25.311zm-.268-.013a.2.2 0 0 0 .285-.002c.014-.013.022-.026.024-.028l.001-.003-.001.002a.2.2 0 0 1-.165.088v-.4a.201.201 0 0 0-.17.092l.002-.002a.2.2 0 0 1 .306-.03l-.281.283zm.263.018a.064.064 0 0 1 .004-.004l-.25-.312-.026.023.272.293zm-.01.01l.01-.01-.272-.293a.215.215 0 0 1-.005.004l.267.298zm-.885.778c.288-.266.582-.525.88-.775l-.257-.306c-.303.254-.601.516-.895.786l.272.295zm-.03.028l.03-.03-.273-.291a2.835 2.835 0 0 0-.036.034l.279.287zm-.05.047c.019-.016.036-.033.05-.047l-.279-.287a1.662 1.662 0 0 1-.04.038l.27.296zm-.038.034l.04-.035-.272-.294-.029.026.261.303zm-.028.025l.028-.025-.26-.303-.04.034.272.294zm-.702.682c.227-.229.461-.457.703-.683l-.274-.292c-.245.23-.483.461-.713.694l.284.281zm-.007.007l.006-.006-.282-.283-.006.006.282.283zm0 .001l-.282-.284.281.284zm-.002.002l.001-.002-.282-.283-.001.001.282.284zm.059-.141v-.001h-.4.4zm-.125.213l.066-.072-.282-.283a1.778 1.778 0 0 0-.086.092l.302.263zm-.02.021a.182.182 0 0 0 .025-.027l-.312-.25a.11.11 0 0 1 .006-.008l-.001.002.282.283zm-.018.021l.027-.03-.3-.265-.027.03.3.265zm.002-.002a.147.147 0 0 1-.01.012c-.002.001-.003.002 0 0l-.283-.284s-.014.014-.027.03l.32.242zm-.35.366c.108-.114.22-.23.333-.347l-.287-.28c-.114.119-.228.237-.337.353l.291.274zm-.213.234c.07-.079.14-.155.213-.234l-.291-.274c-.077.082-.149.162-.22.24l.298.268zm-.093.102l.093-.102-.297-.269-.092.102.296.269zm-.072.078l.071-.077-.294-.271-.072.078.294.27zm-.135.148l.134-.147-.294-.271c-.046.05-.094.101-.139.152l.299.266zm-.64.745c.201-.245.415-.494.64-.745l-.299-.266c-.227.254-.445.507-.65.757l.31.254zm.046-.127h-.4.4zm-.06.144a.2.2 0 0 1-.03.024l-.005.003h-.001l.006-.003c.006-.004.032-.02.053-.052a.2.2 0 0 0 .037-.116h-.4a.2.2 0 0 1 .036-.114.208.208 0 0 1 .053-.052l.006-.003-.006.004a.202.202 0 0 0-.032.025l.282.284zm-.11.148c.042-.058.082-.113.123-.164l-.31-.252c-.049.06-.095.123-.136.18l.323.236zm-.074.1l.072-.098-.32-.24-.073.098.32.24zm-.043.054l.038-.049-.311-.251-.044.056.316.244zm.003-.005l-.324-.234.324.234zm-.044.056l.04-.05-.316-.245-.035.045.311.25zm-.28.359c.088-.115.184-.237.282-.36l-.315-.248-.284.363.316.245zm-.02.023s.023-.021.04-.055l-.357-.18a.187.187 0 0 1 .032-.047l.002-.002.282.284zm0 0l-.283-.283.283.283zm-.403.541c.131-.18.267-.363.42-.56l-.317-.245c-.156.202-.294.388-.426.57l.323.235zm-.066.092l.066-.092-.323-.235-.068.093.325.234zm-.023.031l.023-.031-.325-.234-.022.031.324.234zm-.36.517c.113-.168.233-.34.36-.517l-.324-.233c-.13.178-.252.355-.368.526l.332.224zm-.17.273c.056-.095.11-.186.17-.273l-.332-.224c-.066.099-.126.2-.183.296l.346.201zm-.107.18c.038-.06.074-.12.108-.18l-.346-.201a4.901 4.901 0 0 1-.1.165l.338.215zm-.01.014c.003-.004.01-.013.016-.025l-.35-.195.335.22zm-.003.005l.004-.006-.336-.218-.004.006.336.218zm-.426.676c.132-.216.274-.439.427-.677l-.337-.216c-.152.238-.297.465-.43.684l.34.209zm-.019.034l.02-.037-.343-.203-.026.044.35.195zm-.034.055l.031-.05-.343-.206a2.272 2.272 0 0 1-.027.044l.34.212zm-.014.023l.014-.023-.34-.211-.014.024.34.21zm-.459.795c.144-.267.296-.527.46-.796l-.342-.208c-.166.273-.321.54-.47.813l.352.19zm-.008.013l.004-.006-.344-.205-.003.006.343.205zm0 .001l-.343-.206-.005.008.348.198zm.002-.004a.063.063 0 0 1-.002.004l-.348-.198a.333.333 0 0 0-.008.015l.358.18zm-.039.054c.003-.003.06-.055.06-.143h-.4a.2.2 0 0 1 .057-.14l.002-.002.281.285zm.049-.079c-.017.052-.053.082-.049.079l-.28-.285H9.1v.001c-.002 0-.003.002-.004.003a.194.194 0 0 0-.045.075l.379.127zm.01-.063a.2.2 0 0 1-.01.064l-.379-.129a.201.201 0 0 0-.01.065h.4zm0 0h-.4.4zm0 .002v-.001h-.4.4zm-.224.502c.067-.142.13-.277.2-.408l-.352-.19a8.884 8.884 0 0 0-.21.429l.362.17zm-.125.263c.045-.089.086-.178.126-.264l-.363-.168c-.04.087-.079.17-.12.252l.357.18zm-.077.154l.077-.154-.357-.18-.077.154.357.18zm-.005.01l.002-.005-.351-.191-.011.022.36.173zm-.011.022l.011-.023-.36-.173-.002.004.35.192zm-.031.062L9 27.583l-.355-.185-.038.076.36.175zm0 0l-.36-.176.36.176zm-.015.03c.009-.015.015-.03.018-.036l-.366-.163a.217.217 0 0 1-.002.006v-.002l.35.195zm-.59 1.247c.181-.431.388-.845.594-1.254l-.358-.18a21.14 21.14 0 0 0-.605 1.28l.369.154zm-.225.602c.073-.207.143-.408.225-.602l-.369-.155a10.66 10.66 0 0 0-.233.625l.377.131zm-.227.616l.226-.613-.375-.139-.226.613.375.139zm-.393 1.096c.115-.369.252-.728.392-1.094l-.373-.143c-.14.365-.282.735-.4 1.118l.381.12zm.009-.058v-.001h-.4v.001h.4zm-.031.143l.022-.084-.382-.117-.028.103.388.098zm-.024.088c.01-.03.017-.062.024-.088l-.388-.098a2.058 2.058 0 0 1-.02.074l.384.112zm-.16.606c.049-.203.103-.405.16-.607l-.384-.11c-.059.206-.115.413-.165.624l.389.093zm-.194.753l.193-.75-.387-.1-.193.75.387.1zm-.04.158a3.91 3.91 0 0 1 .04-.156l-.387-.105-.042.168.39.093zm-.035.141c.013-.048.024-.096.035-.141l-.389-.093c-.01.046-.021.09-.032.132l.386.102zm-.029.11l.03-.11-.387-.102-.03.11.387.103zm0-.002l-.387-.097.388.097zm-.117.477c.033-.157.074-.312.117-.474l-.387-.103c-.042.16-.086.326-.121.497l.391.08zm.004-.038v-.002h-.4v.002h.4zm0 .001v-.001h-.4v.001h.4zm-.166 1.064c.047-.349.094-.69.162-1.024l-.392-.08c-.07.349-.12.703-.166 1.05l.396.054zm-.018.126l.018-.125-.396-.056-.018.125.396.056zm-.035.249l.035-.249-.396-.056-.035.249.396.056zm-.022.14l.022-.138-.396-.06-.02.13.394.067zm-.003.016l.003-.017-.395-.066-.003.017.395.066zm-.012.07l.012-.072-.395-.063-.011.072.394.063zm-.025.157l.026-.157-.395-.063-.025.15.394.07zm-.005.029l.005-.031-.395-.066-.005.031.395.066zm-.1.693c.023-.23.06-.458.1-.693l-.395-.066c-.038.233-.078.474-.103.72l.398.039zm-.044.498c.013-.172.028-.337.044-.497l-.398-.041c-.017.165-.031.333-.045.508l.4.03zm-.07 1.735c.009-.66.032-1.223.07-1.735l-.399-.03a28.805 28.805 0 0 0-.071 1.76l.4.005zm0-.002H6h.4zm-.008.13l.007-.118-.399-.023-.007.117.4.023zm-.01.218c0-.07.005-.141.01-.216l-.399-.029c-.005.078-.01.16-.01.245h.4zm.283 3.784a25.472 25.472 0 0 1-.282-3.784h-.4c0 1.3.097 2.584.286 3.844l.396-.06zm15.337 19.645C13.7 58.68 7.969 51.201 6.666 42.526l-.396.06c1.324 8.813 7.146 16.408 15.578 19.954l.155-.369zm1.171.459a25.09 25.09 0 0 1-1.171-.459l-.155.37c.393.164.79.32 1.19.465l.136-.376zm3.63 1.023a25.562 25.562 0 0 1-3.63-1.023l-.136.376c1.202.436 2.436.785 3.686 1.039l.08-.392zm5.154.517a25.91 25.91 0 0 1-5.154-.517l-.08.392c1.712.348 3.473.525 5.234.525v-.4zm2.602-.13a26.08 26.08 0 0 1-2.602.13v.4c.877 0 1.766-.044 2.642-.132l-.04-.398zm.02-.001v.4-.4zm.227-.034a4.581 4.581 0 0 1-.247.035l.041.397c.094-.01.184-.023.268-.037l-.062-.395zm.092-.014l-.092.014.062.395.09-.014-.06-.395zm.148-.021l-.148.02.06.396.141-.02-.053-.396zm-.002 0l.057.396-.057-.396zm.167-.024c-.053.009-.108.016-.166.024l.054.396a6.94 6.94 0 0 0 .176-.025l-.064-.395zm.355-.057a14.4 14.4 0 0 0-.356.057l.066.395c.118-.02.233-.04.347-.056l-.057-.396zm.348-.047l-.346.047.053.396.347-.047-.054-.396zm1.172-.184c-.382.078-.772.13-1.171.184l.053.396c.397-.053.8-.107 1.198-.188l-.08-.392zm.041-.005a.203.203 0 0 0-.139.056l-.001.002h-.001l.002-.002a.208.208 0 0 1 .036-.027.206.206 0 0 1 .102-.028v.4a.2.2 0 0 0 .132-.05l.007-.006.002-.002-.002.002a.208.208 0 0 1-.036.027.195.195 0 0 1-.102.028v-.4zm.822-.208c-.29.078-.572.154-.861.212l.08.392c.303-.061.597-.14.885-.218l-.104-.386zm.76-.194l-.757.193.099.388.756-.194-.099-.387zm.814-.213c-.263.08-.534.146-.812.212l.093.389c.276-.066.559-.134.836-.219l-.117-.382zm.06-.009h-.002v.4h.001v-.4zm-.053.007l-.008.002.12.382.008-.003-.12-.381zm.009-.003l-.01.003.122.381.009-.003-.121-.38zm.28-.09a11.79 11.79 0 0 1-.28.09l.12.382c.096-.03.192-.061.288-.094l-.129-.379zm.81-.298c-.27.103-.54.205-.81.297l.128.379c.28-.095.554-.199.825-.302l-.142-.374zm.033-.01s-.025.005-.05.018l.178.358a.17.17 0 0 1-.025.01l-.006.002-.097-.389zm0 0l.097.388-.097-.389zm-.02.005l-.008.004.153.37.009-.004-.153-.37zm.004-.001a.19.19 0 0 1 .025-.008l.097.388a.21.21 0 0 0 .031-.01l-.153-.37zm0 0h-.001l.155.37.001-.001-.155-.37zm.008-.003a.115.115 0 0 0-.006.002h-.002v.001l.156.368-.005.002-.143-.373zm.026-.008a.24.24 0 0 0-.025.007l.141.375a.182.182 0 0 1-.02.006l-.096-.388zm.273-.106l-.296.113.142.374.296-.113-.142-.374zm.289-.103c-.095.033-.192.067-.288.103l.14.374c.091-.034.184-.066.279-.099l-.131-.378zm.043-.015l-.043.015.131.378.043-.015-.131-.378zm-.002 0v.001l.135.377-.135-.377zm.573-.21a9.52 9.52 0 0 1-.57.21l.13.378c.195-.067.397-.137.594-.22l-.154-.369zm.004-.002l-.005.002.157.368.005-.002-.157-.368zm-.12.183a.2.2 0 0 1 .184-.199h.015v.4h.015a.201.201 0 0 0 .187-.2h-.4zm.401-.31a7.538 7.538 0 0 1-.28.125l.155.37c.102-.043.2-.089.294-.133l-.169-.362zm.104-.049l-.104.049.169.362.102-.047-.166-.364zm.082-.036l-.081.036.166.364.077-.035-.162-.365zm.053-.024l-.053.024.162.365.053-.023-.162-.366zm.218-.099c-.07.034-.142.066-.218.1l.162.365c.075-.033.153-.068.229-.104l-.173-.36zm.364-.18c-.121.062-.241.121-.364.18l.173.36c.126-.06.248-.12.37-.181l-.179-.358zm.081-.04l-.08.04.178.359.08-.04-.178-.358zm.14-.068l-.14.069.179.358.136-.068-.176-.359zm.134-.067l-.135.067.176.359.138-.068-.18-.358zm.028-.014l-.028.014.178.358.028-.013-.178-.358zm.072-.035l-.072.035.178.359.072-.036-.178-.358zm.015-.007l-.008.004.164.364.008-.004-.164-.364zm.123-.058l-.13.06.178.359c.038-.019.077-.037.119-.056l-.167-.363zm.121-.057l-.123.057.17.362.12-.056-.167-.363zm.392-.19a7.4 7.4 0 0 1-.392.19l.168.363c.134-.062.275-.127.412-.2l-.188-.353zm.005-.003l.178.358-.178-.358zm-.048.035a.188.188 0 0 1 .04-.03l.008-.005.178.358.004-.001a.22.22 0 0 0 .008-.005.19.19 0 0 0 .044-.033l-.282-.284zm.142-.058h-.001v.4-.4zm-.141.058l.003-.003.007-.006a.2.2 0 0 1 .13-.049v.4c.087 0 .138-.054.143-.059l-.283-.283zm.142-.059a.197.197 0 0 0-.142.06l.283.282-.003.002a.207.207 0 0 1-.036.028.2.2 0 0 1-.102.028v-.4zm-.08.017l-.009.004.178.358.01-.004-.179-.358zm.529-.297c-.176.103-.354.203-.534.3l.189.352c.184-.099.368-.202.547-.308l-.202-.344zm.22-.133l-.22.132.202.346c.078-.046.153-.093.224-.136l-.206-.342zm.04-.024a2.096 2.096 0 0 0-.04.023l.205.344.033-.02-.198-.347zm.01-.005l.178.358-.178-.358zm.03-.018a1.384 1.384 0 0 1-.04.023l.198.348.05-.03-.209-.34zm.107-.066l-.106.066.206.342a6.02 6.02 0 0 0 .113-.07l-.213-.338zm0 0l.212.338-.211-.339zm.024-.015l-.024.015.213.338.024-.015-.213-.338zm.64-.4a47 47 0 0 1-.638.398l.209.341c.224-.137.442-.273.644-.402l-.214-.337zm.008-.005l-.002.001.204.344.003-.001-.205-.344zm-.009.005l.222.333-.222-.333zm.01-.005l.005-.004-.006.004.204.344a.394.394 0 0 0 .042-.028l-.244-.316zm.195-.118a4.998 4.998 0 0 0-.179.107l.214.338c.053-.033.107-.065.165-.098l-.2-.347zm.014-.008l-.015.009.202.345.015-.009-.202-.345zm.004-.002l.194.35-.194-.35zm.253-.155a5.19 5.19 0 0 1-.257.157l.202.345a4.71 4.71 0 0 0 .277-.17l-.222-.332zm.112-.035a.203.203 0 0 0-.138.055l-.003.003v.001h-.001v.001l.14.141.142.141v.001l-.002.002-.002.002a.191.191 0 0 1-.062.04.197.197 0 0 1-.074.014v-.4zm.001 0v.4-.4zm.682-.523a21.58 21.58 0 0 1-.793.557l.222.333c.26-.173.526-.361.808-.567l-.237-.323zm.14-.107l-.14.108.237.322.149-.114-.245-.316zm.09-.07l-.09.07.246.316.087-.067-.242-.319zm.074-.055l-.072.055.24.32.073-.055-.241-.32zm0 0l.24.32-.24-.32zm.56-.429c-.199.158-.379.293-.56.43l.24.319c.181-.136.365-.274.568-.435l-.248-.314zm.04-.031a.49.49 0 0 0-.041.033l.25.31.03-.023-.238-.32zm.09-.066l-.088.065.237.322.088-.065-.237-.322zm.165-.124a2.766 2.766 0 0 1-.163.122l.232.326a3.4 3.4 0 0 0 .184-.138l-.253-.31zm.779-.663c-.26.232-.52.452-.779.663l.252.31c.265-.215.528-.438.793-.674l-.266-.299zm.007-.006l-.011.01.274.291.01-.01-.273-.291zm.03-.027c-.013.01-.024.021-.03.027l.275.29a.309.309 0 0 1 .014-.013l-.26-.304zm.904-.842c-.31.302-.61.58-.908.845l.266.299c.301-.269.606-.55.92-.857l-.278-.287zm.08-.072l-.036.033a2.397 2.397 0 0 1-.023.02l-.01.01.257.306.082-.074-.27-.296zm-.064.146v-.013a.2.2 0 0 1 .2-.186v.4a.2.2 0 0 0 .2-.198v-.003h-.4zm.065-.147l-.006.005.282.284.006-.006-.282-.283zm0-.001l.281.285.001-.001-.281-.284zm.002-.002l-.002.002.283.284.001-.002-.282-.284zM57.356 41.6c-.645 5.77-3.233 11.106-7.434 15.232l.28.285c4.267-4.19 6.896-9.61 7.551-15.473l-.397-.044zm.002-.025a.635.635 0 0 1-.002.026l.397.042a1.06 1.06 0 0 0 .004-.04l-.4-.028zm.003-.04a1.05 1.05 0 0 0-.003.04l.399.029.002-.025-.398-.043zm.103-1.174c-.025.393-.06.784-.103 1.175l.398.043c.043-.396.078-.793.104-1.193l-.4-.025zm.007-.173a4.67 4.67 0 0 1-.007.172l.399.026c.004-.063.006-.127.007-.186l-.4-.012zm0 0l.4.012-.4-.013zm.005-.144a6.842 6.842 0 0 0-.005.144l.4.011c0-.047.002-.091.004-.135l-.4-.02zm.002-.054l-.002.054.4.02.002-.054-.4-.02zm.033-.857c-.004.285-.018.569-.033.857l.4.02c.014-.287.03-.578.033-.87l-.4-.007zm0-.024v.027h.4v-.027h-.4zm0-.002v.002h.4v-.002h-.4zm0-.007v.007h.4V39.1h-.4zm.008-.132l-.007.121.4.023.006-.121-.4-.023zm.01-.225c0 .073-.004.145-.01.22l.399.032c.006-.08.011-.164.011-.252h-.4zM31.954 13.314c14.103 0 25.576 11.409 25.575 25.428h.4c0-14.242-11.653-25.828-25.975-25.828v.4zm.234 25.23h24.033v-.4H32.188v.4zm-.2-23.934v23.735h.4V14.61h-.4zm24.433 23.732C56.206 25.184 45.442 14.535 32.19 14.41l-.004.4c13.038.123 23.624 10.599 23.835 23.538l.4-.006zm-48.943.4c0 9.804 5.869 18.607 14.95 22.426l.154-.368C13.65 57.041 7.878 48.383 7.878 38.742h-.4zm.006-.119a1.332 1.332 0 0 0-.006.12h.4c0-.027.002-.053.004-.09l-.398-.03zm.001-.02l-.001.02.398.03.002-.02-.399-.03zm.01-.191a3.425 3.425 0 0 1-.01.193l.4.027c.004-.067.009-.14.01-.216l-.4-.004zm.01-.45c-.004.145-.008.292-.01.45l.4.005c.002-.155.006-.299.01-.444l-.4-.01zm0 .001l.4.008-.4-.008zm0 0l.4.008-.4-.008zm.002-.077l-.002.076.4.01.002-.076-.4-.01zm.005-.163c-.003.054-.004.11-.005.163l.4.01c0-.054.002-.106.004-.157l-.4-.016zm.012-.314a15.13 15.13 0 0 0-.012.315l.4.014.011-.312-.4-.017zm.01-.204l-.01.203.4.019.009-.204-.4-.018zm.018-.306l-.019.305.4.02c.005-.1.012-.198.019-.297l-.4-.028zm.002-.022l-.002.023.4.026.001-.023-.4-.026zm0 .003l.4.02-.4-.02zm.01-.162a10.66 10.66 0 0 0-.01.16l.4.025c.002-.053.006-.105.01-.153l-.4-.032zm.034-.378c-.012.124-.023.25-.033.378l.399.031c.01-.126.02-.249.032-.369l-.398-.04zm.003-.03l-.003.03.398.04.003-.036-.398-.033zm.003-.038l-.003.039.398.033.003-.03-.398-.042zm0 .02v.001h.4-.4zm0 0h.4-.4zm.087-.622c-.032.194-.066.395-.087.602l.398.04c.02-.192.05-.38.083-.575l-.394-.067zm.008-.05l-.008.05.394.067.009-.051-.395-.066zm.003-.016l-.002.016.394.066.003-.016-.395-.066zm0 .004l.395.059-.395-.06zm.063-.393c-.02.13-.04.258-.063.389l.395.066c.022-.13.044-.263.064-.397l-.396-.058zm.03-.225l-.03.226.396.055.031-.226-.396-.055zm.024-.162l-.023.162.396.056.023-.162-.396-.056zm.003-.027l-.003.028.396.053.004-.027-.397-.054zm.148-.927c-.064.308-.106.621-.148.927l.397.054c.042-.309.082-.608.142-.9l-.391-.081zm.197-.792c-.07.257-.142.52-.197.792l.391.08c.053-.257.122-.509.192-.767l-.386-.105zm.006-.023l-.006.023.386.105.006-.023-.386-.105zm.107-.398l-.107.398.386.104.107-.399-.386-.103zm-.007.05v.002h.4v-.002h-.4zm.106-.45c-.032.134-.064.267-.1.4l.388.1a15.1 15.1 0 0 0 .101-.407l-.389-.093zm.022-.083l-.022.082.389.095.019-.072-.386-.105zm.018-.067a3.283 3.283 0 0 1-.018.067l.386.105.02-.076-.388-.096zm.016-.069l-.017.07.389.095.017-.07-.389-.095zm.128-.48c-.05.16-.09.324-.128.48l.389.095c.039-.158.076-.31.121-.457l-.382-.118zm.355-.99c-.124.323-.25.65-.355.99l.382.118c.101-.324.222-.64.346-.964l-.373-.143zm.015-.038l-.015.039.373.143.015-.04-.373-.142zm.116-.306l-.116.306.374.142.116-.306-.374-.142zm.124-.345c-.042.117-.082.233-.125.347l.375.139c.044-.118.086-.236.127-.353l-.377-.133zm0 0l.377.132-.377-.132zm.2-.536c-.076.178-.14.36-.2.536l.377.131a7.9 7.9 0 0 1 .19-.51l-.367-.157zm.637-1.338c-.228.452-.446.886-.637 1.338l.368.156c.185-.438.398-.86.626-1.313l-.357-.18zm.004-.008l-.004.009.357.18.005-.01-.358-.18zm.057-.113l-.057.113.358.18.056-.113-.357-.18zm-.021.089h.4-.4zm.15-.36a9.55 9.55 0 0 1-.129.27l.357.18c.048-.093.092-.188.135-.28l-.362-.17zm0 0l.363.17-.362-.17zm.012-.023l-.011.024.362.17.011-.025-.362-.17zm.017-.036l-.017.036.362.169.017-.036-.362-.17zm-.005.01l.371.148-.37-.148zm.157-.321c-.056.103-.106.21-.152.31l.362.17c.048-.103.092-.199.142-.29l-.352-.19zm.468-.808a18.59 18.59 0 0 0-.468.808l.351.19c.142-.26.294-.519.459-.79l-.342-.208zm.467-.743c-.17.264-.322.506-.466.743l.34.209c.144-.234.295-.474.463-.737l-.337-.215zm-.003.004l.005-.008.332.223.007-.011.003-.005-.347-.199zm.01-.016l-.01.016.347.2c0-.002 0-.001 0 0a.095.095 0 0 1-.005.007l-.332-.223zm.093-.151a6.912 6.912 0 0 1-.096.156l.338.214.101-.166-.343-.204zm.027-.048l-.027.048.343.204.032-.054-.348-.198zm.015-.024l-.013.022.345.203.012-.022-.344-.203zm.122-.197a3.645 3.645 0 0 0-.122.197l.344.203c.038-.064.072-.12.109-.176l-.331-.224zm-.035.111v.001h.4-.4zm.514-.79c-.171.234-.333.46-.48.68l.332.222c.143-.213.3-.433.47-.665l-.322-.236zm.163-.217a10.28 10.28 0 0 0-.163.218l.322.236.159-.212-.318-.242zm.537-.698c-.2.252-.372.478-.538.7l.32.24c.165-.22.335-.444.531-.69l-.313-.25zm.018-.019a.186.186 0 0 1 .03-.024l.003-.002.001-.001c.002 0-.002.001-.005.004-.006.004-.032.02-.054.052a.201.201 0 0 0-.036.115h.4a.2.2 0 0 1-.089.166l-.005.003h.001a.206.206 0 0 0 .035-.028l-.281-.285zm.141-.058a.2.2 0 0 0-.2.186v.014h.4v.007l-.001.008a.196.196 0 0 1-.02.075.199.199 0 0 1-.179.11v-.4zm-.05-.068a3.417 3.417 0 0 1-.106.143l.312.25c.043-.054.083-.109.12-.16l-.326-.233zm-.001.002l.328.23-.328-.23zm.085-.114c-.03.038-.059.078-.083.112l.324.234c.026-.036.048-.067.071-.096l-.312-.25zm.623-.725c-.214.241-.423.482-.621.724l.309.253c.194-.236.398-.472.61-.71l-.298-.267zm.143-.156l-.143.156.299.267c.044-.05.09-.1.138-.152l-.294-.271zm.05-.055l-.05.055.294.27.05-.054-.294-.27zm.62-.66a28.66 28.66 0 0 0-.62.66l.295.27c.196-.214.393-.427.611-.65l-.286-.28zm.098-.108l-.103.113.296.27.103-.114-.296-.269zm.008-.008l.281.284h.001l-.282-.284zm.142-.058h-.001v.4-.4zm-.14.057l-.001.001.282.284.001-.002-.282-.283zm.742-.716c-.252.234-.502.472-.743.717l.285.28c.236-.238.48-.472.73-.704l-.272-.293zm.917-.812c-.316.265-.621.537-.917.812l.272.293c.292-.27.593-.539.902-.8l-.257-.305zm.009-.008l-.011.01.261.302.011-.009-.261-.303zm.02-.018l-.021.02.263.3.016-.014-.257-.306zm-.03.036a.184.184 0 0 1 .037-.04l.012-.01.221.334.006-.004.013-.01a.215.215 0 0 0 .043-.047l-.333-.223zm1.59-1.237c-.532.377-1.05.775-1.553 1.195l.257.307a24.011 24.011 0 0 1 1.527-1.176l-.231-.326zm.012-.009a.522.522 0 0 0-.016.012l.239.32.008-.006-.23-.326zm.012-.008a.744.744 0 0 0-.012.008l.231.326h.002l-.221-.334zm12.91-4.467a24.662 24.662 0 0 0-12.915 4.47l.23.327A24.263 24.263 0 0 1 30.7 14.86l-.02-.4zm.21 24.628V14.661h-.4v24.428h.4zm.55.545a.547.547 0 0 1-.55-.545h-.4c0 .523.427.945.95.945v-.4zm24.746 0H31.438v.4h24.746v-.4zm.194.361c.002-.054.003-.101.006-.151l-.4-.02-.006.157.4.014zm-.004.085l.004-.084-.4-.015c0 .026-.002.05-.003.075l.4.024zm-.035.523c.013-.173.026-.348.035-.524l-.399-.023c-.01.173-.022.344-.035.518l.399.03zm0 .01v-.01l-.4-.03v.01l.4.03zm-.056.633c.021-.21.039-.422.055-.633l-.399-.03c-.016.209-.033.416-.054.622l.398.041zm-.062.535c.022-.177.043-.355.062-.535l-.398-.04c-.019.175-.04.35-.061.525l.397.05zm-.085.62c.03-.207.059-.414.085-.62l-.397-.05c-.026.204-.053.408-.084.611l.396.06zm-.087.533c.03-.176.06-.354.087-.532l-.396-.06c-.026.175-.055.35-.086.523l.395.07zm-.114.608c.04-.202.078-.404.114-.608l-.395-.069c-.034.2-.072.4-.111.599l.392.078zm-.114.535c.04-.178.079-.356.114-.535l-.392-.078c-.035.176-.072.35-.112.525l.39.088zm-.14.59c.05-.196.097-.393.14-.59l-.39-.088c-.043.194-.09.388-.138.58l.388.098zm-.14.535c.05-.178.095-.357.14-.535l-.388-.097c-.044.176-.09.352-.137.527l.385.105zm-.165.57c.057-.189.113-.378.165-.57l-.385-.105a25.08 25.08 0 0 1-.163.56l.383.115zm-.169.54c.059-.179.115-.36.169-.54l-.383-.116c-.054.18-.109.357-.166.532l.38.125zm-.187.544c.064-.179.127-.36.187-.543l-.38-.125c-.058.178-.12.356-.184.535l.377.133zm-.2.548c.07-.182.136-.365.2-.548l-.377-.133c-.064.181-.129.36-.197.539l.374.142zm-.192.481c.065-.158.13-.318.192-.48l-.373-.143c-.06.157-.124.313-.19.472l.371.151zm-.012.032l.012-.032-.37-.15-.013.03.37.151zm-.236.56c.083-.187.16-.375.236-.56l-.37-.152c-.077.186-.151.369-.231.55l.365.161zm-.174.381c.059-.125.118-.253.175-.382l-.366-.161c-.055.125-.113.249-.172.375l.363.168zm-.043.094l.044-.094-.364-.168-.043.094.363.168zm-.013.029l.013-.029-.363-.168-.013.028.363.169zm-.259.544c.09-.181.175-.365.259-.544l-.363-.169c-.084.18-.166.359-.254.534l.358.179zm-.169.328c.056-.108.114-.218.17-.33l-.36-.177a9.686 9.686 0 0 1-.164.32l.354.187zm-.056.107l.056-.107-.354-.186-.057.108.355.185zm-.03.056l.03-.055-.355-.186-.029.055.355.186zm-.285.534c.099-.178.193-.357.286-.534l-.355-.186a21.99 21.99 0 0 1-.28.525l.349.195zm-.149.257c.05-.084.1-.17.149-.258l-.35-.194c-.045.083-.094.164-.143.248l.344.204zm0-.002h.001l-.347-.2.347.2zm-.076.132l.076-.13-.345-.203-.077.132.346.201zm-.042.072l.041-.071-.345-.202-.042.07.346.203zm-.002.003l-.342-.208.342.208zm-.321.536c.112-.179.218-.36.322-.539l-.345-.202c-.105.18-.208.356-.316.529l.339.212zm-.026.04l.026-.04-.34-.211a1.31 1.31 0 0 1-.02.031l.334.22zm-.015.023l.015-.023-.334-.22-.014.022.333.221zm-.029.044l.029-.044-.333-.221-.034.05.338.215zm-.07.108l.07-.109-.338-.212a5.962 5.962 0 0 1-.066.102l.335.219zm-.04.063a8.65 8.65 0 0 0 .04-.063l-.334-.22a21.4 21.4 0 0 1-.04.063l.333.22zm-.052.078l.052-.078-.335-.22-.051.078.334.22zm-.028.043l.03-.044-.337-.218-.028.044.336.218zm-.375.566c.13-.187.254-.378.376-.566l-.336-.218c-.123.19-.243.375-.369.556l.33.228zm-.157.219l.157-.219-.329-.228c-.048.07-.098.139-.15.21l.322.237zm-.091.126l.091-.126-.323-.236-.093.128.325.233zm-.031.043l.03-.044-.324-.233-.031.044.325.233zm0 0l-.325-.234.324.234zm-.4.547c.137-.181.27-.365.4-.547l-.325-.233c-.131.182-.26.361-.394.537l.318.243zm-.179.224a10 10 0 0 0 .178-.224l-.318-.243a9.247 9.247 0 0 1-.17.215l.31.252zm-.1.125c.032-.042.066-.083.1-.125l-.31-.252-.104.128.313.25zm-.087.109l.086-.109-.313-.248-.086.108.313.249zm-.362.447c.125-.148.245-.299.362-.447l-.313-.248a17.69 17.69 0 0 1-.354.437l.305.258zm-.253.289c.084-.094.17-.19.253-.289l-.305-.258c-.08.094-.161.185-.246.28l.298.267zm-.107.119l.107-.12-.298-.266-.108.12.3.266zm-.12.139l.12-.14-.3-.264-.122.141.301.263zm-.004.004l-.295-.27.295.27zm-.286.321c.1-.108.195-.218.289-.325l-.302-.263c-.094.108-.186.214-.281.317l.294.271zm-.821.846c.282-.277.554-.559.82-.845l-.293-.272c-.262.282-.53.56-.807.831l.28.286zm-.012.01l.005-.004-.267-.298-.005.005.267.298zm-.023.018l-.222-.333.222.333zm.019-.014l-.002.002.004-.004-.264-.3-.02.018.282.284zm-.037.033l.03-.026-.267-.298a3.36 3.36 0 0 1-.027.024l.264.3zm-.013.011l.013-.011-.264-.3-.014.012.265.3zm-.01.01l-.002.002.003-.004.009-.008-.265-.3a.726.726 0 0 0-.028.026l.282.284zm-.848.79c.278-.248.558-.509.846-.788l-.28-.287c-.283.276-.558.532-.832.776l.266.298zm-.786.67c.262-.213.523-.436.786-.67l-.266-.3c-.259.232-.516.45-.773.66l.253.31zm-.108.08l.107-.078-.25-.313c-.026.021-.054.04-.09.066l.233.325zm-.024.018l.024-.018-.233-.325-.03.023.239.32zm-.001.001l-.238-.322.238.322zm-.03.023a.268.268 0 0 1 .03-.023l-.239-.321-.025.018.233.325zm-.083.06l.085-.062-.238-.322c-.023.017-.063.045-.094.07l.247.314zm-.037.023a.2.2 0 0 1-.087.02v-.4a.201.201 0 0 0-.087.02l.174.36zm.054-.038l-.013.012a.196.196 0 0 1-.042.027l-.172-.361a.198.198 0 0 0-.053.036l-.002.002v.001h-.001l.283.283zm-.04.03a.198.198 0 0 0 .03-.021l.008-.007.001-.002-.282-.283.01-.009a.19.19 0 0 1 .029-.021l.204.344zm-.102.029c.035 0 .071-.01.105-.03l-.21-.34a.198.198 0 0 1 .105-.03v.4zm.14-.058c.003-.003-.014.015-.038.03a.2.2 0 0 1-.102.028v-.4a.197.197 0 0 0-.142.059l.282.283zm-.142.059a.195.195 0 0 0 .142-.06l-.282-.282.002-.003a.205.205 0 0 1 .037-.028.2.2 0 0 1 .101-.027v.4zm-.338.312c.147-.111.296-.224.462-.355l-.248-.314c-.162.128-.308.239-.455.35l.241.319zm-.1.076l.1-.076-.241-.319-.101.077.241.318zm-.12.093c.04-.032.08-.064.12-.093l-.242-.318-.123.094.244.316zm-.178.135l.177-.136-.244-.316-.17.13.236.322zm-.76.533c.245-.162.495-.338.76-.533l-.238-.322c-.26.192-.505.364-.743.522l.221.333zm-.216.131c.069-.04.144-.082.216-.13l-.22-.334a3.55 3.55 0 0 1-.195.117l.2.347zm-.078.047l.08-.048-.204-.344-.08.048.204.344zm-.019.01l.018-.01-.202-.345-.017.01.201.346zm0 .001l-.2-.346h-.001l.2.346zm-.12.072c.038-.024.077-.047.12-.072l-.202-.346a3.589 3.589 0 0 0-.134.081l.216.337zm-.179.112l.088-.055.09-.057-.214-.337a7.944 7.944 0 0 1-.088.055l-.09.057.214.337zm-.032.02a.302.302 0 0 0 .035-.022l-.22-.333-.024.014.209.341zm-.522.326c.179-.109.353-.218.524-.327l-.214-.338a32.53 32.53 0 0 1-.518.324l.208.341zm-.742.428c.25-.137.5-.281.742-.427l-.208-.342c-.236.143-.48.284-.726.418l.192.35zm-.041.023l.042-.024-.194-.35a2.31 2.31 0 0 0-.051.03l.203.344zm-.05.03l.05-.03-.203-.344a2.66 2.66 0 0 1-.043.025l.195.349zm-.297.144c.094-.044.195-.09.294-.143l-.19-.352a4.51 4.51 0 0 1-.27.13l.166.364zm-.043.02l.043-.02-.166-.364-.043.02.166.363zm-.05.023l.051-.024-.168-.363-.056.027.173.36zm0 0l-.174-.36.174.36zm-.056.027l.056-.027-.174-.36a4.163 4.163 0 0 1-.05.024l.168.363zm-.045.02l.045-.02-.168-.363-.045.02.168.364zm0 0l-.168-.362.168.363zm-.131.063c.041-.021.084-.04.13-.062l-.167-.363c-.045.02-.094.043-.143.068l.18.357zm-.055.027l.055-.027-.18-.357-.055.027.18.357zm-.05.025l.05-.024-.179-.358-.049.024.178.358zm-.056.028l.06-.03-.185-.355-.053.026.178.359zm-.048.024l.049-.025-.18-.357-.048.024.18.358zm-.595.294c.197-.095.395-.194.595-.294l-.18-.358c-.2.1-.394.198-.588.29l.173.362zm-.7.316c.238-.1.47-.206.7-.316l-.173-.361a15.16 15.16 0 0 1-.68.308l.154.369zm-.505.186c.166-.057.338-.116.505-.186l-.153-.37c-.154.065-.314.12-.482.177l.13.379zm-.356.126c.117-.043.235-.084.357-.126l-.131-.378c-.12.041-.244.084-.366.13l.14.374zm-.227.087l.228-.087-.142-.374-.228.087.142.374zm-.078.03l.077-.03-.14-.374-.078.029.14.374zm-.028.01l.029-.011-.143-.374-.028.01.142.375zm-1.036.368c.354-.108.7-.24 1.036-.368l-.142-.374c-.34.13-.672.256-1.011.36l.117.383zm-.71.186c.234-.056.474-.113.71-.185l-.117-.383c-.222.068-.45.122-.685.179l.093.389zm-.031.007l.032-.007-.093-.39-.032.008.093.39zm-.005.002l.007-.002-.097-.388-.006.001.097.389zm-.4.097l.4-.097-.095-.389-.4.098.095.388zm-.048.006v-.4.4zm-.322.092l.373-.099-.102-.386-.373.098.102.387zm-.024.006l.02-.005-.093-.389-.02.005.093.389zm-.032.009l.038-.01-.104-.387-.038.01.104.387zm-.004 0l-.097-.387.097.388zm-.756.187c.261-.053.514-.12.76-.187l-.104-.387c-.248.067-.489.132-.736.182l.08.392zm-1.098.172c.363-.048.733-.098 1.098-.172l-.08-.392c-.349.071-.706.119-1.071.168l.053.396zm-.356.049l.356-.049-.054-.396-.356.049.054.396zm-.397.063c.133-.023.266-.044.398-.063l-.056-.396c-.137.02-.274.042-.409.065l.067.394zm-.568.083a8.51 8.51 0 0 0 .568-.083l-.067-.394c-.184.031-.36.06-.54.078l.04.399zm-1.664.105c.553-.02 1.11-.05 1.665-.106l-.04-.398c-.544.055-1.09.085-1.639.104l.014.4zm-.408.01l.408-.01-.014-.4a24.16 24.16 0 0 1-.4.01l.006.4zm-3.52-.184c1.163.146 2.342.204 3.52.184l-.006-.4a24.529 24.529 0 0 1-3.465-.18l-.05.396zm-1.83-.3a24.72 24.72 0 0 0 1.83.3l.05-.397a24.305 24.305 0 0 1-1.801-.295l-.08.392zm-4.594-1.415a24.268 24.268 0 0 0 4.594 1.415l.079-.392a23.858 23.858 0 0 1-4.518-1.392l-.155.37z" fill="#fff" mask="url(#a)"/></svg>