<svg width="64" height="53" fill="none" xmlns="http://www.w3.org/2000/svg"><path d="M9.741 52.115H54.6c4.715 0 8.601-3.888 8.601-8.65a.674.674 0 0 0-.189-.485.674.674 0 0 0-.485-.19H37.13a.674.674 0 0 0-.485.19.674.674 0 0 0-.19.485v2.79H27.79v-2.79a.674.674 0 0 0-.189-.485.675.675 0 0 0-.485-.19H1.767a.674.674 0 0 0-.486.19.674.674 0 0 0-.189.485c0 4.763 3.887 8.65 8.65 8.65zm-.047-1.302c-3.761 0-6.902-2.936-7.237-6.625H26.44v2.79c0 .188.063.36.189.486a.678.678 0 0 0 .486.189h10.063a.67.67 0 0 0 .485-.19.674.674 0 0 0 .19-.485v-2.79h23.935c-.333 3.732-3.474 6.625-7.237 6.625H9.694z" fill="#fff" stroke="#fff" stroke-width=".4"/><path d="M27.114 47.606h10.063c.17 0 .335-.067.458-.174a.604.604 0 0 0 .217-.453v-2.79h20.354a.67.67 0 0 0 .485-.19.674.674 0 0 0 .19-.486V3.023a2.104 2.104 0 0 0-2.1-2.098H7.558A2.104 2.104 0 0 0 5.46 3.023v40.443c0 .188.063.36.189.486a.674.674 0 0 0 .485.189H26.44v2.79c0 .188.064.36.19.486a.674.674 0 0 0 .485.189zm9.341-1.35h-8.619v-2.743a.674.674 0 0 0-.189-.485.674.674 0 0 0-.485-.19H6.808V3.024c0-.411.338-.75.75-.75h49.176c.412 0 .75.339.75.75v39.768H37.13a.674.674 0 0 0-.486.19.674.674 0 0 0-.189.485v2.79z" fill="#fff" stroke="#fff" stroke-width=".4"/><path d="M52.196 37.633l.004-.02V7.407a.604.604 0 0 0-.172-.436.61.61 0 0 0-.438-.17H12.41a.61.61 0 0 0-.439.17.604.604 0 0 0-.171.436v30.188c0 .167.057.323.171.436a.61.61 0 0 0 .438.17h39.14c.372 0 .594-.304.647-.567zM50.98 8.013v28.974H13.018V8.013h37.963z" fill="#fff" stroke="#fff" stroke-width=".4"/></svg>