<svg width="55" height="50" fill="none" xmlns="http://www.w3.org/2000/svg"><path d="M52.094.593H.15v2.24h51.944V.594zM20.476 11.797H.15v2.24h20.326v-2.24zM15.959 23H.149v2.241h15.81v-2.24zm0 11.204H.149v2.24h15.81v-2.24zm22.584 6.722c-8.715 0-15.809-7.038-15.809-15.685 0-8.649 7.094-15.685 15.81-15.685 8.715 0 15.808 7.036 15.808 15.685 0 8.647-7.093 15.685-15.809 15.685zm0-29.13c-7.473 0-13.55 6.03-13.55 13.445s6.077 13.444 13.55 13.444c7.474 0 13.551-6.03 13.551-13.444 0-7.414-6.078-13.444-13.55-13.444z" fill="#fff"/><path d="M27.87 34.245l-14.13 14.02 1.596 1.585 14.132-14.021-1.597-1.584z" fill="#fff"/><path d="M45.917 19.643a.973.973 0 0 0-.562.283c-3.216 3.141-5.623 5.733-8.692 8.765l-3.493-2.876a.973.973 0 0 0-.705-.22.983.983 0 0 0-.658.33.933.933 0 0 0-.224.688.923.923 0 0 0 .342.64l4.176 3.444a.98.98 0 0 0 1.305-.06c3.446-3.365 5.908-6.063 9.314-9.39a.918.918 0 0 0 .195-1.086.95.95 0 0 0-.412-.417.985.985 0 0 0-.586-.101z" fill="#fff" stroke="#206CDE" stroke-width=".3"/></svg>