<svg width="64" height="60" fill="none" xmlns="http://www.w3.org/2000/svg"><rect x="1" y="1" width="62" height="58" rx="4" stroke="#fff" stroke-width="2"/><path d="M10.707 17.293l1.58 1.58 3.665-4.504a1 1 0 0 1 1.552 1.262l-4.364 5.364a1 1 0 0 1-1.483.076l-2.364-2.364a1 1 0 1 1 1.414-1.414zm0 12l1.58 1.58 3.665-4.504a1 1 0 0 1 1.552 1.262l-4.364 5.364a1 1 0 0 1-1.483.076l-2.364-2.364a1 1 0 1 1 1.414-1.414zm0 12l1.58 1.58 3.665-4.504a1 1 0 0 1 1.552 1.262l-4.364 5.364a1 1 0 0 1-1.483.076l-2.364-2.364a1 1 0 1 1 1.414-1.414zM23.864 31.5a1 1 0 1 1 0-2h30a1 1 0 0 1 0 2h-30zm0 12a1 1 0 1 1 0-2h30a1 1 0 0 1 0 2h-30zm0-24a1 1 0 1 1 0-2h30a1 1 0 0 1 0 2h-30z" fill="#fff"/></svg>