<svg width="54" height="61" fill="none" xmlns="http://www.w3.org/2000/svg"><path d="M53.344 50.617v4.51a5.08 5.08 0 0 1-5.072 5.072H19.635a.805.805 0 1 1 0-1.61h28.637a3.47 3.47 0 0 0 3.462-3.463v-3.704H16.768v3.817a4.957 4.957 0 0 1-8.46 3.504 4.956 4.956 0 0 1-1.45-3.504V7.895a.805.805 0 0 1 .805-.805h39.836a.805.805 0 0 1 .805.805V45.4a.805.805 0 1 1-1.61 0V8.7H8.468v46.54a3.346 3.346 0 0 0 6.69 0v-4.622a.805.805 0 0 1 .805-.805H52.54a.805.805 0 0 1 .805.805zM16.97 19.973H28a.805.805 0 0 0 0-1.61H16.97a.805.805 0 0 0 0 1.61zm21.794 7.73a.805.805 0 0 0-.805-.806h-20.99a.805.805 0 1 0 0 1.61h20.99a.805.805 0 0 0 .805-.772v-.033zM16.97 35.431a.805.805 0 1 0 0 1.61h18.139a.805.805 0 1 0 0-1.61h-18.14z" fill="#fff"/><path d="M3.509 4.713v47.344s.105.388.736.388c.63 0 .874-.388.874-.388V5.519h38.227c.558-.66.574-1.013 0-1.61H4.314a.805.805 0 0 0-.805.804z" fill="#fff"/><path d="M.146 1.352v47.343s.105.388.736.388c.63 0 .874-.388.874-.388V2.157h38.227c.558-.66.573-1.012 0-1.61H.95a.805.805 0 0 0-.805.805z" fill="#fff"/></svg>