<svg width="66" height="66" fill="none" xmlns="http://www.w3.org/2000/svg"><path d="M33.274.712c-17.92 0-32.5 14.58-32.5 32.5s14.58 32.5 32.5 32.5 32.5-14.58 32.5-32.5-14.58-32.5-32.5-32.5zm0 63.033c-16.836 0-30.532-13.697-30.532-30.533 0-16.835 13.696-30.532 30.532-30.532s30.532 13.697 30.532 30.532c0 16.836-13.696 30.533-30.532 30.533z" fill="#fff"/><path d="M31.745 24.584c0-4.034-3.282-7.316-7.317-7.316-4.034 0-7.316 3.282-7.316 7.316S20.394 31.9 24.43 31.9c4.034 0 7.316-3.282 7.316-7.316zm-12.665 0c0-2.949 2.4-5.348 5.349-5.348 2.949 0 5.347 2.4 5.347 5.348a5.354 5.354 0 0 1-5.348 5.348 5.355 5.355 0 0 1-5.348-5.348zm23.692 9.36c-4.114 0-7.46 3.347-7.46 7.461 0 4.114 3.346 7.462 7.46 7.462s7.462-3.347 7.462-7.462c0-4.114-3.348-7.46-7.462-7.46zm0 12.954a5.5 5.5 0 0 1-5.493-5.493 5.5 5.5 0 0 1 5.493-5.493 5.5 5.5 0 0 1 5.493 5.493 5.5 5.5 0 0 1-5.493 5.493zm.609-26.64a.984.984 0 0 0-1.382.164L21.444 46.524a.984.984 0 1 0 1.546 1.218L43.545 21.64a.984.984 0 0 0-.164-1.382z" fill="#fff"/></svg>