<svg width="55" height="50" fill="none" xmlns="http://www.w3.org/2000/svg"><path d="M52.093.142H.15v2.24h51.944V.143zM20.475 11.346H.15v2.24h20.326v-2.24zM15.958 22.55H.15v2.24h15.81v-2.24zm0 11.203H.15v2.24h15.81v-2.24zm22.584 6.722c-8.715 0-15.809-7.038-15.809-15.685 0-8.65 7.094-15.685 15.81-15.685 8.715 0 15.808 7.036 15.808 15.685 0 8.647-7.093 15.685-15.809 15.685zm0-29.13c-7.473 0-13.55 6.03-13.55 13.445s6.077 13.444 13.55 13.444c7.474 0 13.551-6.03 13.551-13.444 0-7.415-6.077-13.444-13.55-13.444z" fill="#fff"/><path d="M27.87 33.794l-14.13 14.02 1.596 1.584 14.132-14.02-1.597-1.584z" fill="#fff"/><path d="M45.917 19.191a.973.973 0 0 0-.562.284c-3.216 3.141-5.623 5.733-8.693 8.765l-3.493-2.876a.971.971 0 0 0-.705-.22.983.983 0 0 0-.657.33.934.934 0 0 0-.224.688.923.923 0 0 0 .342.64l4.175 3.443a.98.98 0 0 0 1.305-.058c3.446-3.366 5.909-6.065 9.315-9.391a.918.918 0 0 0 .195-1.086.95.95 0 0 0-.413-.417.986.986 0 0 0-.585-.102z" fill="#fff" stroke="#206CDE" stroke-width=".3"/></svg>