<svg width="64" height="70" fill="none" xmlns="http://www.w3.org/2000/svg"><path d="M32.089 38.345v.1h24.234l-.001-.102C56.107 25.24 45.388 14.635 32.189 14.51h-.1v23.835z" stroke="#fff" stroke-width=".2"/><mask id="a" maskUnits="userSpaceOnUse" x="6.68" y="13.657" width="50" height="50" fill="#000"><path fill="#fff" d="M6.68 13.657h50v50h-50z"/><path d="M28.877 62.688c1.153.145 2.322.202 3.492.182a24.435 24.435 0 0 0 2.056-.114c.188-.018.37-.05.554-.08.134-.023.269-.046.403-.065l.356-.048c.365-.05.73-.098 1.085-.17.267-.054.526-.125.786-.195l.02-.005.372-.099.4-.097.007-.002c.245-.058.49-.116.728-.19.357-.109.705-.242 1.053-.374l.077-.03.228-.086c.12-.045.24-.087.362-.129.166-.058.332-.114.493-.181.233-.098.46-.203.69-.312.21-.101.423-.208.64-.317l.056-.027.05-.025.054-.027c.06-.03.122-.058.182-.086l.107-.051c.11-.05.22-.1.325-.156l.093-.054a18.623 18.623 0 0 0 1.255-.749l.03-.018.178-.112c.048-.03.097-.058.145-.087l.08-.048c.07-.04.14-.08.206-.124.24-.16.488-.334.751-.527.092-.068.2-.153.296-.226.182-.138.359-.27.56-.43l.002-.001.09-.067a3.01 3.01 0 0 1 .056-.04c.033-.024.066-.047.098-.073.26-.21.518-.432.78-.665a26.418 26.418 0 0 0 .858-.8l.041-.036a24.81 24.81 0 0 0 .83-.853c.141-.152.273-.308.409-.462.119-.135.241-.267.357-.404.152-.182.297-.367.444-.552.092-.115.187-.229.276-.346.147-.193.288-.39.428-.585.082-.115.167-.227.247-.342.138-.2.269-.403.4-.606.054-.082.108-.163.16-.245l.07-.106c.124-.2.242-.403.36-.606.076-.128.152-.255.224-.384.108-.193.21-.39.313-.585.075-.144.151-.287.223-.432.094-.188.182-.378.27-.567.073-.157.147-.314.216-.473.08-.184.156-.37.233-.555.069-.169.137-.337.203-.507.068-.18.134-.362.198-.544a21.955 21.955 0 0 0 .655-2.171 21.47 21.47 0 0 0 .252-1.116 26.138 26.138 0 0 0 .2-1.13 27.687 27.687 0 0 0 .145-1.147 24.05 24.05 0 0 0 .09-1.158c.005-.077.006-.156.01-.233H31.44a.747.747 0 0 1-.75-.745V14.657a24.461 24.461 0 0 0-12.81 4.434l-.019.014a24.41 24.41 0 0 0-1.54 1.185l-.006.006-.03.026a26.083 26.083 0 0 0-1.646 1.516l-.001.002h-.001l-.104.114c-.22.225-.42.44-.616.655-.063.07-.13.14-.19.209-.215.24-.42.478-.617.717-.027.034-.052.069-.077.104a4.305 4.305 0 0 1-.113.15v.001l-.002.002c-.198.249-.37.473-.535.694a19.19 19.19 0 0 0-.636.886v.001a4.52 4.52 0 0 0-.158.259 5.743 5.743 0 0 1-.098.16l-.005.008c-.168.264-.32.505-.464.74-.166.272-.32.533-.463.799-.06.109-.111.223-.164.336-.047.1-.093.2-.143.299l-.057.113-.005.01c-.228.452-.444.88-.631 1.325-.072.17-.133.348-.196.524-.04.117-.081.234-.125.35l-.116.306c-.13.335-.259.67-.366 1.015a8.795 8.795 0 0 0-.141.539l-.04.148c-.032.135-.065.27-.1.404v.001l-.107.4c-.073.265-.145.53-.2.802-.064.309-.107.625-.15.941l-.022.163-.031.226c-.02.137-.043.272-.066.409a9.295 9.295 0 0 0-.094.638v.001l-.006.068c-.012.122-.023.246-.033.374-.004.057-.007.12-.012.178a28.7 28.7 0 0 0-.02.302l-.008.203c-.005.103-.01.206-.013.314a190.474 190.474 0 0 0-.016.683c-.001.068-.006.136-.01.204-.003.041-.007.082-.007.124 0 9.723 5.82 18.453 14.827 22.242 1.466.616 3 1.089 4.555 1.406a22.92 22.92 0 0 0 1.815.301z"/></mask><path d="M28.877 62.688c1.153.145 2.322.202 3.492.182a24.435 24.435 0 0 0 2.056-.114c.188-.018.37-.05.554-.08.134-.023.269-.046.403-.065l.356-.048c.365-.05.73-.098 1.085-.17.267-.054.526-.125.786-.195l.02-.005.372-.099s0 0 0 0l.4-.097.007-.002c.245-.058.49-.116.728-.19.357-.109.705-.242 1.053-.374l.077-.03.228-.086c.12-.045.24-.087.362-.129.166-.058.332-.114.493-.181.233-.098.46-.203.69-.312.21-.101.423-.208.64-.317l.056-.027.05-.025.054-.027c.06-.03.122-.058.182-.086l.107-.051c.11-.05.22-.1.325-.156l.093-.054a18.623 18.623 0 0 0 1.255-.749l.03-.018.178-.112c.048-.03.097-.058.145-.087l.08-.048c.07-.04.14-.08.206-.124.24-.16.488-.334.751-.527.092-.068.2-.153.296-.226.182-.138.359-.27.56-.43 0 0 0 0 0 0l.002-.001.09-.067a3.01 3.01 0 0 1 .056-.04c.033-.024.066-.047.098-.073.26-.21.518-.432.78-.665a26.418 26.418 0 0 0 .858-.8l.041-.036a24.81 24.81 0 0 0 .83-.853c.141-.152.273-.308.409-.462.119-.135.241-.267.357-.404.152-.182.297-.367.444-.552.092-.115.187-.229.276-.346.147-.193.288-.39.428-.585.082-.115.167-.227.247-.342.138-.2.269-.403.4-.606.054-.082.108-.163.16-.245l.07-.106c.124-.2.242-.403.36-.606.076-.128.152-.255.224-.384.108-.193.21-.39.313-.585.075-.144.151-.287.223-.432.094-.188.182-.378.27-.567.073-.157.147-.314.216-.473.08-.184.156-.37.233-.555.069-.169.137-.337.203-.507.068-.18.134-.362.198-.544a21.955 21.955 0 0 0 .655-2.171 21.47 21.47 0 0 0 .252-1.116 26.138 26.138 0 0 0 .2-1.13 27.687 27.687 0 0 0 .145-1.147 24.05 24.05 0 0 0 .09-1.158c.005-.077.006-.156.01-.233H31.44a.747.747 0 0 1-.75-.745V14.657a24.461 24.461 0 0 0-12.81 4.434l-.019.014a24.41 24.41 0 0 0-1.54 1.185l-.006.006-.03.026a26.083 26.083 0 0 0-1.646 1.516l-.001.002h-.001s0 0 0 0l-.104.114c-.22.225-.42.44-.616.655-.063.07-.13.14-.19.209-.215.24-.42.478-.617.717-.027.034-.052.069-.077.104a4.305 4.305 0 0 1-.113.15v.001l-.002.002c-.198.249-.37.473-.535.694a19.19 19.19 0 0 0-.636.886v.001a4.52 4.52 0 0 0-.158.259 5.743 5.743 0 0 1-.098.16l-.005.008c-.168.264-.32.505-.464.74-.166.272-.32.533-.463.799-.06.109-.111.223-.164.336-.047.1-.093.2-.143.299v0l-.057.113-.005.01c-.228.452-.444.88-.631 1.325-.072.17-.133.348-.196.524-.04.117-.081.234-.125.35l-.116.306c-.13.335-.259.67-.366 1.015a8.795 8.795 0 0 0-.141.539l-.04.148c-.032.135-.065.27-.1.404v.001l-.107.4c-.073.265-.145.53-.2.802-.064.309-.107.625-.15.941l-.022.163-.031.226c-.02.137-.043.272-.066.409a9.295 9.295 0 0 0-.094.638v.001s0 0 0 0l-.006.068c-.012.122-.023.246-.033.374-.004.057-.007.12-.012.178a28.7 28.7 0 0 0-.02.302l-.008.203c-.005.103-.01.206-.013.314a190.474 190.474 0 0 0-.016.683c-.001.068-.006.136-.01.204-.003.041-.007.082-.007.124 0 9.723 5.82 18.453 14.827 22.242 1.466.616 3 1.089 4.555 1.406a22.92 22.92 0 0 0 1.815.301z" stroke="#fff" stroke-width=".4" mask="url(#a)"/><mask id="b" maskUnits="userSpaceOnUse" x="1.498" y="1.49" width="61" height="67" fill="#000"><path fill="#fff" d="M1.498 1.49h61v67h-61z"/><path d="M33.986 9.558a.746.746 0 0 1-.698-.743v-3.52c0-.412.335-.745.749-.745h1.739V2.49h-7.642v2.06h1.739c.413 0 .749.334.749.745v3.52a.747.747 0 0 1-.698.743C14.544 10.604 2.498 23.423 2.498 38.743c0 16.15 13.215 29.288 29.457 29.288S61.41 54.893 61.41 38.743c0-15.32-12.047-28.14-27.425-29.185zm23.727 29.541v.036c-.005.307-.021.613-.036.918-.006.106-.007.213-.013.319-.025.397-.06.79-.103 1.184l-.005.065c-.65 5.816-3.26 11.194-7.493 15.352l-.001.001-.001.001-.005.005-.001.002-.077.068a29.67 29.67 0 0 1-.914.85l-.033.031c-.263.234-.524.456-.786.669-.056.045-.114.087-.173.13l-.09.063-.037.028c-.227.18-.43.332-.636.487-.076.057-.16.125-.234.179-.28.205-.543.39-.8.562h-.002a5.049 5.049 0 0 1-.282.172 4.891 4.891 0 0 0-.196.118c-.2.128-.417.264-.642.4l-.133.084-.081.047c-.074.045-.146.09-.222.134-.178.104-.358.206-.54.304l-.01.004-.001.001h-.001l-.004.002a6.78 6.78 0 0 1-.402.195l-.122.057c-.041.02-.083.038-.124.06l-.008.003-.072.036-.028.013-.274.136c-.148.074-.295.148-.448.22-.116.056-.237.108-.355.161-.13.06-.257.121-.39.177l-.006.003a9.02 9.02 0 0 1-.583.215c-.108.038-.218.076-.326.116l-.297.114c-.003 0-.005.002-.008.003l-.01.003-.009.004c-.27.103-.543.206-.818.3a9.095 9.095 0 0 1-.284.092l-.016.005h-.001c-.27.083-.548.15-.824.215l-.757.194c-.288.077-.578.155-.873.215l-.002.001c-.389.08-.786.132-1.184.186l-.347.047c-.117.017-.235.037-.352.056-.104.018-.21.03-.314.045-.116.018-.23.038-.349.05a26.049 26.049 0 0 1-7.816-.39 25.739 25.739 0 0 1-4.84-1.492C13.556 58.837 7.779 51.3 6.465 42.556a25.673 25.673 0 0 1-.284-3.813c0-.078.005-.155.01-.231l.007-.117v-.001c.01-.663.032-1.23.071-1.748.013-.173.028-.34.045-.502.024-.249.066-.493.106-.737l.037-.226.024-.15.036-.25.017-.124c.048-.348.095-.696.165-1.037v-.003c.041-.202.096-.399.149-.596.026-.1.047-.2.074-.299l.193-.75c.05-.205.105-.41.163-.614.016-.058.028-.118.047-.175v-.002c.117-.376.256-.742.396-1.106l.226-.613c.072-.206.145-.413.229-.613a20.638 20.638 0 0 1 .61-1.287l.035-.071.013-.026.077-.154c.043-.085.083-.171.123-.257.065-.14.131-.282.205-.418v-.003l.01-.016c.147-.27.3-.534.465-.805l.043-.07a51.168 51.168 0 0 1 .452-.721l.011-.019c.036-.056.07-.114.105-.172a4.36 4.36 0 0 1 .176-.285c.114-.17.236-.344.363-.521l.09-.124a26.183 26.183 0 0 1 .71-.93l.078-.101.073-.098c.042-.058.085-.116.13-.172l.001-.001c.203-.248.42-.499.645-.752l.208-.227c.103-.113.201-.223.309-.338l.335-.35.009-.01.026-.03.01-.01.076-.083.002-.002v-.001l.007-.006c.228-.23.465-.46.707-.688l.068-.06.079-.075c.29-.268.587-.529.887-.78l.022-.02.002-.001.04-.032.001-.002c.057-.047.115-.09.172-.137a25.878 25.878 0 0 1 16.401-5.88c14.212 0 25.775 11.497 25.775 25.629 0 .08-.006.157-.011.236l-.002.12z"/></mask><path d="M33.986 9.558a.746.746 0 0 1-.698-.743v-3.52c0-.412.335-.745.749-.745h1.739V2.49h-7.642v2.06h1.739c.413 0 .749.334.749.745v3.52a.747.747 0 0 1-.698.743C14.544 10.604 2.498 23.423 2.498 38.743c0 16.15 13.215 29.288 29.457 29.288S61.41 54.893 61.41 38.743c0-15.32-12.047-28.14-27.425-29.185zm23.727 29.541v.036c-.005.307-.021.613-.036.918-.006.106-.007.213-.013.319-.025.397-.06.79-.103 1.184l-.005.065c-.65 5.816-3.26 11.194-7.493 15.352l-.001.001-.001.001-.005.005-.001.002-.077.068a29.67 29.67 0 0 1-.914.85l-.033.031c-.263.234-.524.456-.786.669-.056.045-.114.087-.173.13l-.09.063-.037.028c-.227.18-.43.332-.636.487-.076.057-.16.125-.234.179-.28.205-.543.39-.8.562h-.002a5.049 5.049 0 0 1-.282.172 4.891 4.891 0 0 0-.196.118c-.2.128-.417.264-.642.4l-.133.084-.081.047c-.074.045-.146.09-.222.134-.178.104-.358.206-.54.304l-.01.004-.001.001h-.001l-.004.002a6.78 6.78 0 0 1-.402.195l-.122.057c-.041.02-.083.038-.124.06l-.008.003-.072.036-.028.013-.274.136c-.148.074-.295.148-.448.22-.116.056-.237.108-.355.161-.13.06-.257.121-.39.177 0 0 0 0 0 0l-.006.003a9.02 9.02 0 0 1-.583.215c-.108.038-.218.076-.326.116l-.297.114c-.003 0-.005.002-.008.003l-.01.003-.009.004c-.27.103-.543.206-.818.3a9.095 9.095 0 0 1-.284.092l-.016.005h-.001c-.27.083-.548.15-.824.215l-.757.194c-.288.077-.578.155-.873.215l-.002.001c-.389.08-.786.132-1.184.186l-.347.047c-.117.017-.235.037-.352.056-.104.018-.21.03-.314.045-.116.018-.23.038-.349.05h0a26.049 26.049 0 0 1-7.816-.39 25.739 25.739 0 0 1-4.84-1.492C13.556 58.837 7.779 51.3 6.465 42.556a25.673 25.673 0 0 1-.284-3.813c0-.078.005-.155.01-.231l.007-.117v-.001c.01-.663.032-1.23.071-1.748.013-.173.028-.34.045-.502.024-.249.066-.493.106-.737l.037-.226.024-.15.036-.25.017-.124c.048-.348.095-.696.165-1.037v-.003c.041-.202.096-.399.149-.596.026-.1.047-.2.074-.299l.193-.75c.05-.205.105-.41.163-.614.016-.058.028-.118.047-.175v-.002c.117-.376.256-.742.396-1.106l.226-.613c.072-.206.145-.413.229-.613a20.638 20.638 0 0 1 .61-1.287l.035-.071.013-.026.077-.154c.043-.085.083-.171.123-.257.065-.14.131-.282.205-.418 0 0 0 0 0 0v-.003l.01-.016c.147-.27.3-.534.465-.805l.043-.07a51.168 51.168 0 0 1 .452-.721l.011-.019c.036-.056.07-.114.105-.172a4.36 4.36 0 0 1 .176-.285c.114-.17.236-.344.363-.521l.09-.124a26.183 26.183 0 0 1 .71-.93l.078-.101.073-.098c.042-.058.085-.116.13-.172l.001-.001s0 0 0 0c.203-.248.42-.499.645-.752l.208-.227c.103-.113.201-.223.309-.338l.335-.35.009-.01.026-.03.01-.01.076-.083s0 0 0 0l.002-.002v-.001l.007-.006c.228-.23.465-.46.707-.688l.068-.06.079-.075c.29-.268.587-.529.887-.78l.022-.02.002-.001.04-.032.001-.002c.057-.047.115-.09.172-.137a25.878 25.878 0 0 1 16.401-5.88c14.212 0 25.775 11.497 25.775 25.629 0 .08-.006.157-.011.236l-.002.12z" stroke="#fff" stroke-width=".4" mask="url(#b)"/><mask id="c" maskUnits="userSpaceOnUse" x="5.184" y="12.114" width="53" height="53" fill="#000"><path fill="#fff" d="M5.184 12.114h53v53h-53z"/><path d="M31.954 13.114a25.875 25.875 0 0 0-16.401 5.88c-.057.046-.116.09-.172.137l-.001.002c-.013.01-.027.02-.04.032h-.002l-.022.02c-.3.252-.596.513-.887.78l-.078.075-.069.06a26.332 26.332 0 0 0-.713.695l-.002.002a1.568 1.568 0 0 0-.076.083l-.01.01-.027.031a28.06 28.06 0 0 0-.344.36c-.108.114-.206.225-.308.337-.07.076-.142.153-.209.228-.226.253-.441.503-.644.75v.001l-.002.002a4.02 4.02 0 0 0-.13.172l-.073.098-.079.1a54.28 54.28 0 0 0-.286.365c-.154.2-.291.385-.423.565l-.09.124c-.127.178-.249.352-.363.522-.063.093-.12.189-.176.285a4.762 4.762 0 0 1-.104.172l-.012.018c-.152.238-.295.463-.429.68l-.023.041-.043.07c-.165.272-.319.535-.465.805l-.01.017v.003a7.7 7.7 0 0 0-.205.418c-.04.086-.08.172-.123.257l-.077.154-.013.026-.035.07a10.514 10.514 0 0 0-.838 1.9l-.227.614c-.14.365-.279.73-.396 1.106v.001c-.018.058-.03.117-.047.175-.058.204-.113.408-.163.616l-.193.749c-.027.098-.048.2-.074.298-.052.198-.107.394-.149.596v.003c-.07.341-.118.69-.164 1.037l-.018.125-.035.249-.025.15c-.012.076-.023.151-.036.226-.041.245-.082.489-.107.737-.017.163-.031.33-.044.503-.04.517-.062 1.084-.072 1.748l-.006.118c-.006.076-.01.153-.01.23 0 1.29.096 2.564.284 3.814 1.313 8.745 7.09 16.28 15.457 19.8a25.765 25.765 0 0 0 4.839 1.493 26.108 26.108 0 0 0 7.816.39c.119-.013.233-.033.35-.05.103-.017.21-.029.314-.046.117-.02.235-.04.351-.056l.347-.047c.398-.053.795-.107 1.185-.186h.001c.297-.06.585-.139.874-.216l.756-.194c.278-.066.554-.132.824-.215h.001l.017-.005c.095-.03.189-.06.283-.092a23.293 23.293 0 0 0 .828-.303l.01-.004c.002-.001.005-.003.008-.003l.296-.113c.108-.04.217-.078.326-.116.196-.067.392-.135.583-.215l.005-.002v-.001c.133-.056.261-.117.39-.177.12-.054.24-.105.356-.16.152-.073.3-.147.448-.221.091-.046.184-.09.274-.136l.028-.014.072-.035.008-.004.124-.059.122-.057a7.484 7.484 0 0 0 .406-.197h.002l.01-.005c.181-.098.362-.2.54-.304.076-.045.147-.09.222-.134.026-.016.055-.031.08-.047.048-.028.088-.054.134-.083.224-.137.44-.273.642-.4.007-.005.017-.01.024-.016a3.72 3.72 0 0 1 .172-.103c.095-.055.19-.11.282-.172h.001c.258-.172.522-.358.801-.562.074-.054.159-.122.234-.18.205-.154.408-.305.636-.486l.036-.028.088-.065c.059-.042.117-.084.173-.13.262-.213.523-.435.786-.668a28.035 28.035 0 0 0 .947-.88l.076-.07.001-.001.005-.006h.001l.002-.002c4.233-4.157 6.842-9.535 7.492-15.352.002-.021.003-.044.006-.065.042-.393.078-.787.103-1.184.007-.105.007-.213.012-.319.016-.305.032-.611.036-.918v-.036l.007-.12a3.02 3.02 0 0 0 .01-.237c.002-14.13-11.561-25.628-25.774-25.628zm24.267 25.23H32.188V14.61c13.145.124 23.82 10.686 24.033 23.735zm-33.716 22.64C13.498 57.196 7.677 48.465 7.677 38.742c0-.042.004-.083.007-.124.005-.068.01-.135.01-.204l.01-.447.007-.236.012-.314.01-.203c.005-.103.012-.202.019-.301.004-.06.007-.121.012-.18.01-.127.02-.251.033-.373l.006-.067v-.002c.022-.216.058-.427.093-.638.023-.136.046-.272.066-.41l.032-.225.023-.162c.043-.317.085-.633.148-.942.056-.272.129-.538.2-.803l.108-.398v-.002c.035-.134.068-.269.1-.404l.04-.148c.044-.18.087-.362.141-.538.107-.345.237-.68.365-1.016l.117-.306c.043-.116.084-.233.125-.35.062-.177.123-.353.196-.524.188-.445.403-.873.631-1.325l.005-.01.056-.112v-.001c.05-.098.097-.199.144-.298.052-.114.105-.228.164-.337.143-.265.297-.526.463-.799.144-.235.295-.476.464-.74l.004-.007a7.207 7.207 0 0 0 .13-.212c.04-.07.081-.14.127-.208a19.873 19.873 0 0 1 .636-.887c.166-.22.336-.445.535-.694l.001-.002h.001c.04-.049.076-.1.113-.151.025-.035.05-.07.077-.104a24.328 24.328 0 0 1 .807-.925c.197-.215.396-.43.616-.656l.103-.113v-.001h.002l.001-.002a25.281 25.281 0 0 1 1.646-1.517l.03-.025.006-.005a24.284 24.284 0 0 1 1.54-1.186l.02-.014a24.463 24.463 0 0 1 12.81-4.434v24.43c0 .41.335.744.748.744h24.747c-.004.078-.005.156-.01.234-.01.177-.023.353-.035.53a24.01 24.01 0 0 1-.201 1.773 23.84 23.84 0 0 1-.451 2.247 24.999 24.999 0 0 1-.854 2.715c-.065.17-.134.339-.203.508-.076.186-.151.37-.233.554-.07.159-.143.315-.216.473-.088.19-.176.38-.27.567-.071.146-.148.289-.223.433-.102.195-.204.391-.312.584-.072.13-.15.257-.224.385-.118.202-.236.406-.361.605-.022.036-.047.07-.069.106-.052.083-.106.164-.16.246-.132.203-.263.406-.4.605-.08.115-.165.228-.247.342-.14.196-.281.393-.428.585-.09.118-.185.231-.276.347-.148.185-.292.37-.445.551-.115.137-.237.27-.356.404-.136.154-.268.31-.409.462a24.67 24.67 0 0 1-.814.838l-.016.015-.042.037a25.519 25.519 0 0 1-1.638 1.465c-.03.025-.065.048-.098.072l-.055.04c-.03.023-.061.044-.09.067h-.002l-.001.002c-.202.159-.378.291-.56.429-.096.073-.203.158-.295.226-.263.194-.51.367-.752.528a3.74 3.74 0 0 1-.205.124l-.08.048c-.048.028-.097.056-.145.087-.06.038-.119.073-.178.111l-.03.019a18.504 18.504 0 0 1-1.255.748c-.032.018-.062.037-.094.054-.105.057-.215.106-.324.156l-.107.051c-.06.029-.122.056-.183.086l-.054.028-.049.024-.056.028c-.217.108-.43.215-.64.316a8.583 8.583 0 0 1-1.184.494c-.12.041-.242.083-.361.128l-.229.087-.077.029c-.347.132-.695.266-1.052.375-.239.073-.484.131-.729.19l-.006.001-.4.098-.373.099-.02.004c-.259.07-.518.141-.785.195-.357.073-.72.121-1.085.17l-.356.049c-.135.019-.27.04-.404.064a7.659 7.659 0 0 1-.553.08 24.969 24.969 0 0 1-2.056.115 24.73 24.73 0 0 1-3.493-.182 24.068 24.068 0 0 1-6.37-1.7z"/></mask><path d="M31.954 13.114a25.875 25.875 0 0 0-16.401 5.88c-.057.046-.116.09-.172.137l-.001.002c-.013.01-.027.02-.04.032h-.002l-.022.02c-.3.252-.596.513-.887.78l-.078.075-.069.06a26.332 26.332 0 0 0-.713.695l-.002.002a1.568 1.568 0 0 0-.076.083l-.01.01-.027.031a28.06 28.06 0 0 0-.344.36c-.108.114-.206.225-.308.337-.07.076-.142.153-.209.228-.226.253-.441.503-.644.75v.001l-.002.002a4.02 4.02 0 0 0-.13.172l-.073.098-.079.1a54.28 54.28 0 0 0-.286.365c-.154.2-.291.385-.423.565l-.09.124c-.127.178-.249.352-.363.522-.063.093-.12.189-.176.285a4.762 4.762 0 0 1-.104.172l-.012.018c-.152.238-.295.463-.429.68l-.023.041-.043.07c-.165.272-.319.535-.465.805l-.01.017v.003a7.7 7.7 0 0 0-.205.418c-.04.086-.08.172-.123.257l-.077.154-.013.026-.035.07a10.514 10.514 0 0 0-.838 1.9l-.227.614c-.14.365-.279.73-.396 1.106v.001c-.018.058-.03.117-.047.175-.058.204-.113.408-.163.616l-.193.749c-.027.098-.048.2-.074.298-.052.198-.107.394-.149.596v.003c-.07.341-.118.69-.164 1.037l-.018.125-.035.249-.025.15c-.012.076-.023.151-.036.226-.041.245-.082.489-.107.737-.017.163-.031.33-.044.503-.04.517-.062 1.084-.072 1.748l-.006.118c-.006.076-.01.153-.01.23 0 1.29.096 2.564.284 3.814 1.313 8.745 7.09 16.28 15.457 19.8a25.765 25.765 0 0 0 4.839 1.493 26.108 26.108 0 0 0 7.816.39c.119-.013.233-.033.35-.05.103-.017.21-.029.314-.046.117-.02.235-.04.351-.056l.347-.047c.398-.053.795-.107 1.185-.186h.001c.297-.06.585-.139.874-.216l.756-.194c.278-.066.554-.132.824-.215h.001l.017-.005c.095-.03.189-.06.283-.092a23.293 23.293 0 0 0 .828-.303l.01-.004c.002-.001.005-.003.008-.003l.296-.113c.108-.04.217-.078.326-.116.196-.067.392-.135.583-.215l.005-.002v-.001c.133-.056.261-.117.39-.177.12-.054.24-.105.356-.16.152-.073.3-.147.448-.221.091-.046.184-.09.274-.136l.028-.014.072-.035.008-.004.124-.059.122-.057a7.484 7.484 0 0 0 .406-.197h.002l.01-.005c.181-.098.362-.2.54-.304.076-.045.147-.09.222-.134.026-.016.055-.031.08-.047.048-.028.088-.054.134-.083.224-.137.44-.273.642-.4.007-.005.017-.01.024-.016a3.72 3.72 0 0 1 .172-.103c.095-.055.19-.11.282-.172h.001c.258-.172.522-.358.801-.562.074-.054.159-.122.234-.18.205-.154.408-.305.636-.486l.036-.028.088-.065c.059-.042.117-.084.173-.13.262-.213.523-.435.786-.668a28.035 28.035 0 0 0 .947-.88l.076-.07.001-.001.005-.006h.001l.002-.002c4.233-4.157 6.842-9.535 7.492-15.352.002-.021.003-.044.006-.065.042-.393.078-.787.103-1.184.007-.105.007-.213.012-.319.016-.305.032-.611.036-.918v-.036l.007-.12a3.02 3.02 0 0 0 .01-.237c.002-14.13-11.561-25.628-25.774-25.628zm24.267 25.23H32.188V14.61c13.145.124 23.82 10.686 24.033 23.735zm-33.716 22.64C13.498 57.196 7.677 48.465 7.677 38.742c0-.042.004-.083.007-.124.005-.068.01-.135.01-.204l.01-.447.007-.236.012-.314.01-.203c.005-.103.012-.202.019-.301.004-.06.007-.121.012-.18.01-.127.02-.251.033-.373l.006-.067v-.002c.022-.216.058-.427.093-.638.023-.136.046-.272.066-.41l.032-.225.023-.162c.043-.317.085-.633.148-.942.056-.272.129-.538.2-.803l.108-.398v-.002c.035-.134.068-.269.1-.404l.04-.148c.044-.18.087-.362.141-.538.107-.345.237-.68.365-1.016l.117-.306c.043-.116.084-.233.125-.35.062-.177.123-.353.196-.524.188-.445.403-.873.631-1.325l.005-.01.056-.112v-.001c.05-.098.097-.199.144-.298.052-.114.105-.228.164-.337.143-.265.297-.526.463-.799.144-.235.295-.476.464-.74l.004-.007a7.207 7.207 0 0 0 .13-.212c.04-.07.081-.14.127-.208a19.873 19.873 0 0 1 .636-.887c.166-.22.336-.445.535-.694l.001-.002h.001c.04-.049.076-.1.113-.151.025-.035.05-.07.077-.104a24.328 24.328 0 0 1 .807-.925c.197-.215.396-.43.616-.656l.103-.113v-.001h.002l.001-.002a25.281 25.281 0 0 1 1.646-1.517l.03-.025.006-.005a24.284 24.284 0 0 1 1.54-1.186l.02-.014a24.463 24.463 0 0 1 12.81-4.434v24.43c0 .41.335.744.748.744h24.747c-.004.078-.005.156-.01.234-.01.177-.023.353-.035.53a24.01 24.01 0 0 1-.201 1.773 23.84 23.84 0 0 1-.451 2.247 24.999 24.999 0 0 1-.854 2.715c-.065.17-.134.339-.203.508-.076.186-.151.37-.233.554-.07.159-.143.315-.216.473-.088.19-.176.38-.27.567-.071.146-.148.289-.223.433-.102.195-.204.391-.312.584-.072.13-.15.257-.224.385-.118.202-.236.406-.361.605-.022.036-.047.07-.069.106-.052.083-.106.164-.16.246-.132.203-.263.406-.4.605-.08.115-.165.228-.247.342-.14.196-.281.393-.428.585-.09.118-.185.231-.276.347-.148.185-.292.37-.445.551-.115.137-.237.27-.356.404-.136.154-.268.31-.409.462a24.67 24.67 0 0 1-.814.838l-.016.015-.042.037a25.519 25.519 0 0 1-1.638 1.465c-.03.025-.065.048-.098.072l-.055.04c-.03.023-.061.044-.09.067h-.002l-.001.002c-.202.159-.378.291-.56.429-.096.073-.203.158-.295.226-.263.194-.51.367-.752.528a3.74 3.74 0 0 1-.205.124l-.08.048c-.048.028-.097.056-.145.087-.06.038-.119.073-.178.111l-.03.019a18.504 18.504 0 0 1-1.255.748c-.032.018-.062.037-.094.054-.105.057-.215.106-.324.156l-.107.051c-.06.029-.122.056-.183.086l-.054.028-.049.024-.056.028c-.217.108-.43.215-.64.316a8.583 8.583 0 0 1-1.184.494c-.12.041-.242.083-.361.128l-.229.087-.077.029c-.347.132-.695.266-1.052.375-.239.073-.484.131-.729.19l-.006.001-.4.098-.373.099-.02.004c-.259.07-.518.141-.785.195-.357.073-.72.121-1.085.17l-.356.049c-.135.019-.27.04-.404.064a7.659 7.659 0 0 1-.553.08 24.969 24.969 0 0 1-2.056.115 24.73 24.73 0 0 1-3.493-.182 24.068 24.068 0 0 1-6.37-1.7z" fill="#fff"/><path d="M31.954 13.114a25.875 25.875 0 0 0-16.401 5.88c-.057.046-.116.09-.172.137l-.001.002c-.013.01-.027.02-.04.032h-.002l-.022.02c-.3.252-.596.513-.887.78l-.078.075-.069.06a26.332 26.332 0 0 0-.713.695h0l-.002.002s0 0 0 0a1.568 1.568 0 0 0-.076.083l-.01.01-.027.031a28.06 28.06 0 0 0-.344.36c-.108.114-.206.225-.308.337-.07.076-.142.153-.209.228-.226.253-.441.503-.644.75v.001l-.002.002a4.02 4.02 0 0 0-.13.172l-.073.098-.079.1a54.28 54.28 0 0 0-.286.365c-.154.2-.291.385-.423.565l-.09.124c-.127.178-.249.352-.363.522-.063.093-.12.189-.176.285a4.762 4.762 0 0 1-.104.172l-.012.018c-.152.238-.295.463-.429.68l-.023.041-.043.07c-.165.272-.319.535-.465.805l-.01.017v.003a7.7 7.7 0 0 0-.205.418c-.04.086-.08.172-.123.257l-.077.154-.013.026-.035.07a10.514 10.514 0 0 0-.838 1.9l-.227.614c-.14.365-.279.73-.396 1.106v.001c-.018.058-.03.117-.047.175-.058.204-.113.408-.163.616l-.193.749c-.027.098-.048.2-.074.298-.052.198-.107.394-.149.596v.003c-.07.341-.118.69-.164 1.037l-.018.125-.035.249-.025.15c-.012.076-.023.151-.036.226-.041.245-.082.489-.107.737-.017.163-.031.33-.044.503-.04.517-.062 1.084-.072 1.748v0l-.006.118c-.006.076-.01.153-.01.23 0 1.29.096 2.564.284 3.814 1.313 8.745 7.09 16.28 15.457 19.8a25.765 25.765 0 0 0 4.839 1.493 26.108 26.108 0 0 0 7.816.39h0c.119-.013.233-.033.35-.05.103-.017.21-.029.314-.046.117-.02.235-.04.351-.056l.347-.047c.398-.053.795-.107 1.185-.186h.001c.297-.06.585-.139.874-.216l.756-.194c.278-.066.554-.132.824-.215h.001l.017-.005c.095-.03.189-.06.283-.092a23.293 23.293 0 0 0 .828-.303l.01-.004c.002-.001.005-.003.008-.003l.296-.113c.108-.04.217-.078.326-.116.196-.067.392-.135.583-.215l.005-.002v-.001c.133-.056.261-.117.39-.177.12-.054.24-.105.356-.16.152-.073.3-.147.448-.221.091-.046.184-.09.274-.136l.028-.014.072-.035.008-.004.124-.059.122-.057a7.484 7.484 0 0 0 .406-.197h.002l.01-.005c.181-.098.362-.2.54-.304.076-.045.147-.09.222-.134.026-.016.055-.031.08-.047.048-.028.088-.054.134-.083.224-.137.44-.273.642-.4.007-.005.017-.01.024-.016a3.72 3.72 0 0 1 .172-.103c.095-.055.19-.11.282-.172h.001c.258-.172.522-.358.801-.562.074-.054.159-.122.234-.18.205-.154.408-.305.636-.486l.036-.028.088-.065c.059-.042.117-.084.173-.13.262-.213.523-.435.786-.668a28.035 28.035 0 0 0 .947-.88l.076-.07.001-.001.005-.006h.001l.002-.002c4.233-4.157 6.842-9.535 7.492-15.352.002-.021.003-.044.006-.065.042-.393.078-.787.103-1.184.007-.105.007-.213.012-.319.016-.305.032-.611.036-.918v-.036l.007-.12a3.02 3.02 0 0 0 .01-.237c.002-14.13-11.561-25.628-25.774-25.628zm24.267 25.23H32.188V14.61c13.145.124 23.82 10.686 24.033 23.735zm-33.716 22.64C13.498 57.196 7.677 48.465 7.677 38.742c0-.042.004-.083.007-.124.005-.068.01-.135.01-.204l.01-.447.007-.236.012-.314.01-.203c.005-.103.012-.202.019-.301.004-.06.007-.121.012-.18.01-.127.02-.251.033-.373l.006-.067s0 0 0 0v-.002c.022-.216.058-.427.093-.638.023-.136.046-.272.066-.41l.032-.225.023-.162c.043-.317.085-.633.148-.942.056-.272.129-.538.2-.803l.108-.398v-.002c.035-.134.068-.269.1-.404l.04-.148c.044-.18.087-.362.141-.538.107-.345.237-.68.365-1.016l.117-.306c.043-.116.084-.233.125-.35.062-.177.123-.353.196-.524.188-.445.403-.873.631-1.325l.005-.01.056-.112v-.001c.05-.098.097-.199.144-.298.052-.114.105-.228.164-.337.143-.265.297-.526.463-.799.144-.235.295-.476.464-.74l.004-.007a7.207 7.207 0 0 0 .13-.212c.04-.07.081-.14.127-.208 0 0 0 0 0 0a19.873 19.873 0 0 1 .636-.887c.166-.22.336-.445.535-.694l.001-.002h.001c.04-.049.076-.1.113-.151.025-.035.05-.07.077-.104a24.328 24.328 0 0 1 .807-.925c.197-.215.396-.43.616-.656l.103-.113v-.001h.002l.001-.002a25.281 25.281 0 0 1 1.646-1.517l.03-.025.006-.005a24.284 24.284 0 0 1 1.54-1.186l.02-.014a24.463 24.463 0 0 1 12.81-4.434v24.43c0 .41.335.744.748.744h24.747c-.004.078-.005.156-.01.234-.01.177-.023.353-.035.53a24.01 24.01 0 0 1-.201 1.773 23.84 23.84 0 0 1-.451 2.247 24.999 24.999 0 0 1-.854 2.715c-.065.17-.134.339-.203.508-.076.186-.151.37-.233.554-.07.159-.143.315-.216.473-.088.19-.176.38-.27.567-.071.146-.148.289-.223.433-.102.195-.204.391-.312.584-.072.13-.15.257-.224.385-.118.202-.236.406-.361.605-.022.036-.047.07-.069.106-.052.083-.106.164-.16.246-.132.203-.263.406-.4.605-.08.115-.165.228-.247.342-.14.196-.281.393-.428.585-.09.118-.185.231-.276.347-.148.185-.292.37-.445.551-.115.137-.237.27-.356.404-.136.154-.268.31-.409.462a24.67 24.67 0 0 1-.814.838l-.016.015-.042.037a25.519 25.519 0 0 1-1.638 1.465c-.03.025-.065.048-.098.072l-.055.04c-.03.023-.061.044-.09.067h-.002l-.001.002c-.202.159-.378.291-.56.429-.096.073-.203.158-.295.226-.263.194-.51.367-.752.528a3.74 3.74 0 0 1-.205.124l-.08.048c-.048.028-.097.056-.145.087-.06.038-.119.073-.178.111l-.03.019a18.504 18.504 0 0 1-1.255.748c-.032.018-.062.037-.094.054-.105.057-.215.106-.324.156l-.107.051c-.06.029-.122.056-.183.086l-.054.028-.049.024-.056.028c-.217.108-.43.215-.64.316a8.583 8.583 0 0 1-1.184.494c-.12.041-.242.083-.361.128l-.229.087-.077.029c-.347.132-.695.266-1.052.375-.239.073-.484.131-.729.19l-.006.001-.4.098s0 0 0 0l-.373.099-.02.004c-.259.07-.518.141-.785.195-.357.073-.72.121-1.085.17l-.356.049c-.135.019-.27.04-.404.064a7.659 7.659 0 0 1-.553.08 24.969 24.969 0 0 1-2.056.115 24.73 24.73 0 0 1-3.493-.182 24.068 24.068 0 0 1-6.37-1.7z" stroke="#fff" stroke-width=".4" mask="url(#c)"/><path d="M63.008 38.742c.001-15.889-12.29-29.225-28.123-30.706V6.139h1.64a.847.847 0 0 0 .848-.845v-3.55A.847.847 0 0 0 36.524.9h-9.14a.847.847 0 0 0-.848.845v3.549c0 .467.38.845.849.845h1.639v1.897C13.19 9.516.9 22.853.9 38.742.9 55.77 14.831 69.62 31.955 69.62c17.123 0 31.053-13.851 31.053-30.878zM31.954 67.93c-16.187 0-29.356-13.094-29.356-29.188 0-15.267 12.005-28.043 27.333-29.085a.846.846 0 0 0 .79-.843v-3.52a.847.847 0 0 0-.848-.845h-1.64V2.59h7.442v1.86h-1.639a.847.847 0 0 0-.848.845v3.52c0 .444.345.813.79.843C49.305 10.7 61.311 23.476 61.311 38.743c0 16.093-13.169 29.187-29.357 29.187z" fill="#fff" stroke="#fff" stroke-width=".2"/></svg>