<svg width="54" height="60" fill="none" xmlns="http://www.w3.org/2000/svg"><path d="M53.344 50.185v4.51a5.081 5.081 0 0 1-5.072 5.072H19.635a.805.805 0 1 1 0-1.61h28.637a3.47 3.47 0 0 0 3.462-3.463v-3.703H16.768v3.816a4.957 4.957 0 0 1-9.91 0V7.464a.805.805 0 0 1 .805-.805h39.836a.805.805 0 0 1 .805.805v37.504a.805.805 0 1 1-1.61 0V8.27H8.468v46.538a3.346 3.346 0 1 0 6.69 0v-4.622a.805.805 0 0 1 .805-.805H52.54a.805.805 0 0 1 .805.805zM16.97 19.541H28a.805.805 0 1 0 0-1.61H16.97a.805.805 0 1 0 0 1.61zm21.794 7.73a.805.805 0 0 0-.805-.805h-20.99a.805.805 0 1 0 0 1.61h20.99a.805.805 0 0 0 .805-.773v-.032zM16.97 35a.805.805 0 0 0 0 1.61h18.139a.805.805 0 0 0 0-1.61h-18.14z" fill="#fff"/><path d="M3.509 4.282v47.343s.105.388.736.388c.63 0 .874-.388.874-.388V5.087h38.227c.558-.66.573-1.012 0-1.61H4.314a.805.805 0 0 0-.805.805z" fill="#fff"/><path d="M.146.92v47.343s.105.388.736.388c.63 0 .874-.388.874-.388V1.725h38.227c.558-.66.573-1.012 0-1.61H.95A.805.805 0 0 0 .146.92z" fill="#fff"/></svg>