<svg width="53" height="69" fill="none" xmlns="http://www.w3.org/2000/svg"><path d="M26.597 9.031c-9.298 0-16.863 7.546-16.863 16.823 0 9.278 7.565 16.824 16.863 16.824 9.298 0 16.862-7.546 16.862-16.824 0-9.277-7.564-16.823-16.862-16.823zm-.828 7.508a29.597 29.597 0 0 0-5.468.63c.634-1.77 1.453-3.255 2.393-4.354.934-1.09 1.979-1.79 3.075-2.025v5.749zm-6.034 2.473c1.83-.473 3.873-.76 6.034-.82v6.837h-6.855c.06-2.157.348-4.192.821-6.017zm-1.846.564a29.447 29.447 0 0 0-.63 5.453h-5.763c.236-1.093.936-2.134 2.03-3.066 1.1-.938 2.589-1.754 4.363-2.387zm-6.393 7.106h5.763c.049 1.926.264 3.76.63 5.453-1.774-.633-3.262-1.45-4.364-2.388-1.093-.931-1.793-1.972-2.03-3.065zm8.24 6.016c-.474-1.825-.762-3.86-.822-6.016h6.855v6.836c-2.162-.06-4.203-.347-6.033-.82zm6.033 2.473v5.749c-1.096-.236-2.14-.934-3.075-2.026-.94-1.098-1.759-2.583-2.393-4.353a29.77 29.77 0 0 0 5.468.63zm1.656 5.749v-5.75c1.93-.048 3.77-.264 5.465-.629-.634 1.77-1.451 3.255-2.392 4.353-.933 1.092-1.977 1.79-3.073 2.026zm6.03-8.221c-1.828.472-3.869.76-6.03.819v-6.836h6.852c-.06 2.156-.347 4.192-.821 6.017zm1.847-.564c.366-1.692.581-3.527.63-5.453h5.766c-.236 1.093-.937 2.134-2.03 3.066-1.102.938-2.591 1.755-4.366 2.387zm.63-7.106a29.445 29.445 0 0 0-.63-5.454c1.775.632 3.264 1.449 4.365 2.387 1.094.932 1.795 1.973 2.03 3.067h-5.764zm-2.476-6.017c.474 1.824.761 3.86.821 6.017h-6.852v-6.837c2.161.06 4.201.347 6.03.82zm-.566-1.844a29.677 29.677 0 0 0-5.465-.63V10.79c1.096.235 2.14.934 3.073 2.025.94 1.1 1.758 2.584 2.392 4.353zm-14.508.491c-2.52.76-4.63 1.872-6.137 3.233a15.236 15.236 0 0 1 9.376-9.355c-1.363 1.504-2.478 3.609-3.239 6.122zm0 16.392c.761 2.513 1.877 4.618 3.24 6.122a15.236 15.236 0 0 1-9.377-9.355c1.508 1.36 3.617 2.473 6.137 3.233zm16.428 0c2.52-.76 4.63-1.872 6.139-3.233a15.235 15.235 0 0 1-9.378 9.356c1.364-1.504 2.477-3.61 3.239-6.122zm0-16.392c-.762-2.514-1.876-4.619-3.239-6.123a15.234 15.234 0 0 1 9.378 9.356c-1.508-1.36-3.619-2.473-6.14-3.233z" fill="#fff" stroke="#fff" stroke-width=".5"/><path d="M48.884.75H4.307A3.557 3.557 0 0 0 .75 4.3v59.903a3.558 3.558 0 0 0 3.557 3.55h44.577a3.558 3.558 0 0 0 3.557-3.55V4.3A3.558 3.558 0 0 0 48.884.75zm1.902 63.452a1.902 1.902 0 0 1-1.902 1.896H4.307a1.902 1.902 0 0 1-1.901-1.896V4.3c0-1.045.853-1.897 1.901-1.897h44.577c1.049 0 1.902.851 1.902 1.897v59.902z" fill="#fff" stroke="#fff" stroke-width=".5"/><path d="M40.208 52.167v-.25H12.985v1.653h27.223v-1.403zm-9.152 4.899v-.25h-8.917v1.653h8.917v-1.403z" fill="#fff" stroke="#fff" stroke-width=".5"/></svg>