<svg width="58" height="63" fill="none" xmlns="http://www.w3.org/2000/svg"><path d="M28.95.583a.665.665 0 0 0-.271.146C20.858 7.194 11.793 12.125 1.89 15.01a.665.665 0 0 0-.478.56 39.914 39.914 0 0 0-.27 4.637c0 17.763 11.678 37.286 27.785 41.556a.67.67 0 0 0 .333 0c16.108-4.27 27.786-23.793 27.786-41.556 0-1.565-.093-3.121-.27-4.636a.665.665 0 0 0-.479-.561C46.396 12.125 37.332 7.194 29.511.729a.666.666 0 0 0-.562-.146zm.145 1.476c7.737 6.312 16.639 11.167 26.371 14.074.143 1.339.25 2.696.25 4.075 0 17.11-11.427 36.058-26.621 40.205C13.9 56.266 2.474 37.318 2.474 20.208c0-1.379.106-2.736.25-4.075 9.732-2.907 18.633-7.762 26.37-14.074z" fill="#fff" stroke="#fff" stroke-width=".8"/><circle cx="28.75" cy="29" r="13" stroke="#fff" stroke-width="2"/><path d="M34.826 25.007a.836.836 0 0 0-.473.226c-2.71 2.506-4.737 4.573-7.322 6.992l-2.942-2.294a.834.834 0 0 0-.278-.143.879.879 0 0 0-.622.048.806.806 0 0 0-.248.183.735.735 0 0 0-.154.257.694.694 0 0 0 .054.573c.05.088.117.165.199.229l3.517 2.747a.856.856 0 0 0 .56.174.844.844 0 0 0 .54-.221c2.902-2.685 4.976-4.837 7.846-7.491a.733.733 0 0 0 .234-.409.697.697 0 0 0-.07-.457.78.78 0 0 0-.348-.333.87.87 0 0 0-.493-.081z" fill="#fff" stroke="#fff" stroke-width=".3"/></svg>