<svg width="53" height="60" fill="none" xmlns="http://www.w3.org/2000/svg"><path d="M53 49.907V54.4a5.065 5.065 0 0 1-5.053 5.056H19.416a.802.802 0 0 1 0-1.605h28.53a3.456 3.456 0 0 0 3.45-3.45v-3.693H16.56v3.804a4.942 4.942 0 0 1-4.936 4.94 4.936 4.936 0 0 1-4.937-4.94V7.325a.803.803 0 0 1 .802-.803h39.688a.802.802 0 0 1 .802.803v37.382a.803.803 0 1 1-1.604 0V8.127H8.29v46.386a3.336 3.336 0 0 0 3.332 3.335 3.332 3.332 0 0 0 3.333-3.335v-4.606a.802.802 0 0 1 .802-.803h36.44a.802.802 0 0 1 .802.803zM16.761 19.363H27.75a.802.802 0 0 0 0-1.605H16.76a.802.802 0 0 0 0 1.605zm21.713 7.704a.802.802 0 0 0-.802-.802H16.76a.802.802 0 1 0 0 1.605h20.91a.801.801 0 0 0 .803-.77v-.033zm-21.713 7.704a.802.802 0 0 0 0 1.605h18.071a.802.802 0 0 0 0-1.605H16.761z" fill="#fff"/><path d="M3.35 4.154v47.188s.105.387.734.387c.628 0 .87-.387.87-.387V4.956H43.04c.556-.657.571-1.009 0-1.605H4.153a.802.802 0 0 0-.802.803z" fill="#fff"/><path d="M0 .803V47.99s.105.387.733.387.871-.387.871-.387V1.605h38.084c.556-.657.572-1.009 0-1.605H.802A.802.802 0 0 0 0 .803z" fill="#fff"/><rect x="16.125" y="21.78" width="19.267" height="1.466" rx=".733" fill="#fff"/><rect x="16.125" y="30.786" width="19.267" height="1.466" rx=".733" fill="#fff"/></svg>