<?xml version="1.0" encoding="UTF-8"?>
<svg width="50px" height="50px" viewBox="0 0 50 50" version="1.1" xmlns="http://www.w3.org/2000/svg" xmlns:xlink="http://www.w3.org/1999/xlink">
    <!-- Generator: Sketch 50.2 (55047) - http://www.bohemiancoding.com/sketch -->
    <title>1</title>
    <desc>Created with Sketch.</desc>
    <defs>
        <circle id="path-1" cx="25" cy="25" r="25"></circle>
    </defs>
    <g id="Page-1" stroke="none" stroke-width="1" fill="none" fill-rule="evenodd">
        <g id="1">
            <circle id="Oval" fill="#094295" fill-rule="nonzero" cx="25" cy="25" r="25"></circle>
            <g id="Clipped">
                <mask id="mask-2" fill="white">
                    <use xlink:href="#path-1"></use>
                </mask>
                <g id="Oval"></g>
                <g id="Group" mask="url(#mask-2)" fill-rule="nonzero">
                    <g transform="translate(24.000000, -4.000000)" id="Shape">
                        <path d="M20.7528,5.99597 L0.9903,32.258 L10.8139,0.54449 C15.1495,0.91412 18.1543,3.212426 20.7528,5.99597 Z" fill="#0AA2B7"></path>
                        <path d="M29,13.5 L1.07398882,32.1580809 L21.5,5 C25.4531,6.8186 27.5,10 29,13.5 Z" fill="#745BBC"></path>
                    </g>
                </g>
            </g>
            <path d="M31.6585997,6.68713277 L33.4172507,0.833659235 C33.4172507,0.833659235 39.3903507,3.24108344 42.0762507,5.61488344 C44.7977507,8.02017344 48.0941175,12.7746881 48.0941175,12.7746881 L43.1107329,16.1794703 C43.1107329,16.1794703 40.5,12.5 38,10.5 C35.5,8.5 31.6585997,6.68713277 31.6585997,6.68713277 Z" id="Path" fill="#FFFFFF"></path>
        </g>
    </g>
</svg>