<svg width="254" height="284" fill="none" xmlns="http://www.w3.org/2000/svg"><g opacity=".15" fill="#fff"><path d="M253.072 238.302v21.459a24.19 24.19 0 0 1-7.078 17.06 24.163 24.163 0 0 1-17.051 7.082H92.71a3.828 3.828 0 0 1-3.83-3.832 3.831 3.831 0 0 1 3.83-3.832h136.233a16.501 16.501 0 0 0 11.634-4.838 16.521 16.521 0 0 0 4.835-11.64v-17.627H79.075v18.164a23.6 23.6 0 0 1-6.904 16.677 23.555 23.555 0 0 1-16.67 6.909 23.556 23.556 0 0 1-16.67-6.909 23.588 23.588 0 0 1-6.903-16.677V34.976a3.833 3.833 0 0 1 3.83-3.832h189.508a3.828 3.828 0 0 1 3.83 3.832v178.495a3.828 3.828 0 0 1-1.122 2.709 3.827 3.827 0 0 1-5.416 0 3.832 3.832 0 0 1-1.122-2.709V38.808H39.588v221.49c0 4.222 1.676 8.272 4.66 11.258a15.91 15.91 0 0 0 27.167-11.258v-21.996a3.831 3.831 0 0 1 3.83-3.832h173.997a3.83 3.83 0 0 1 3.83 3.832zM80.032 92.456h52.472a3.83 3.83 0 0 0 3.83-3.832 3.834 3.834 0 0 0-3.83-3.832H80.033a3.83 3.83 0 0 0-3.83 3.832 3.833 3.833 0 0 0 3.83 3.832zm103.679 36.787a3.832 3.832 0 0 0-3.83-3.832H80.032a3.828 3.828 0 0 0-3.83 3.832 3.834 3.834 0 0 0 3.83 3.832h99.849a3.831 3.831 0 0 0 3.83-3.678v-.154zM80.032 166.03a3.828 3.828 0 0 0-3.83 3.832 3.834 3.834 0 0 0 3.83 3.832h86.29a3.83 3.83 0 0 0 2.709-6.541 3.83 3.83 0 0 0-2.709-1.123h-86.29z"/><path d="M16 19.832v225.322S16.5 247 19.5 247s4.16-1.846 4.16-1.846V23.664h181.848c2.655-3.139 2.729-4.817 0-7.664H19.83A3.829 3.829 0 0 0 16 19.832z"/><path d="M0 3.832v225.322S.5 231 3.5 231s4.16-1.846 4.16-1.846V7.664h181.848c2.655-3.139 2.729-4.817 0-7.664H3.83A3.829 3.829 0 0 0 0 3.832z"/><rect x="77" y="104" width="92" height="7" rx="3.5"/><rect x="77" y="147" width="92" height="7" rx="3.5"/></g></svg>