<svg width="408" height="358" fill="none" xmlns="http://www.w3.org/2000/svg"><g opacity=".2"><path d="M264.717 65.325c.686.784 1.618 1.225 2.647 1.225 1.029 0 2.01-.44 2.647-1.225l7.499-8.774c1.127-1.274 1.127-3.186.049-4.51l-7.499-8.969c-1.324-1.568-4.02-1.568-5.343 0l-7.499 8.97c-1.079 1.323-1.079 3.235.049 4.51l7.45 8.773zm2.647-14.558l2.941 3.53-2.941 3.43-2.941-3.43 2.941-3.53zm116.064 6.088c12.357-18.327 11.968-42.87-.894-55.894-.738-.732-1.671-1.097-2.642-.914-.816.137-1.866.96-2.293 1.782-3.653 6.901-36.604 68.371-72.743 94.833l-1.282.914c-1.243.869-2.059 2.377-2.215 4.022-.116 1.691.428 3.291 1.516 4.433 3.808 3.976 5.906 9.278 5.906 14.945 0 10.055-6.761 18.738-16.165 20.658-4.313.96-11.58.96-19.04-1.874-1.011-.366-2.138-.183-2.954.548-.738.64-1.321 2.011-1.321 3.062v37.568c0 1.828 1.127 3.382 2.681 3.748 1.555.365 3.109-.686 3.653-2.377 3.692-11.288 14.222-13.802 18.924-14.396 2.332 14.351 6.217 25.685 11.036 32.083 4.468 5.942 10.841 9.415 17.408 9.461h.156c5.362 0 10.219-2.285 13.289-6.307.661-.869.933-2.011.777-3.154-.116-.96-.855-2.193-1.593-2.696-3.381-2.24-19.701-13.894-24.247-32.861 0 0 .039 0 .039-.045 6.295 11.151 14.999 21.023 22.149 24.999 13.017 7.221 25.724 4.113 31.63-7.586.583-1.097.622-2.468.117-3.657-.428-1.005-1.71-2.011-2.681-2.102-6.606-.64-26.774-7.13-36.644-22.76 10.725 8.775 24.403 15.767 34.118 17.276 9.442 1.462 17.913-.732 23.198-6.079 3.847-3.885 5.984-9.369 6.101-15.904 0-1.052-.35-2.057-.972-2.788-.544-.64-1.632-1.234-2.487-1.097-3.031.183-28.405 1.599-47.873-9.049 8.743 2.148 30.582 6.992 42.55 4.661 15.699-2.97 25.413-17.047 23.587-34.185-.078-1.051-.855-2.423-1.671-2.925-.777-.503-2.215-.549-3.07-.092-4.313 2.514-26.501 14.397-55.645 11.335 22.46-3.337 37.537-7.861 47.368-14.123 14.145-9.049 20.051-30.3 12.94-46.388-.505-1.097-1.477-1.874-2.526-2.01-.932-.047-2.215.456-2.836 1.279-3.809 5.027-23.859 29.935-55.684 39.03 0-.137-.039-.274-.039-.411 20.012-13.071 33.573-24.862 40.374-34.963zM338.741 87.34c-1.011.64-1.555 1.965-1.399 3.29a74.91 74.91 0 0 1 .466 5.942c.039.96.428 1.828 1.088 2.422.661.594 1.477.777 2.254.594 30.853-7.632 51.798-29.798 59.375-38.893 3.42 12.294-1.632 27.422-11.968 34.049-9.676 6.215-25.258 10.648-49 13.893-1.244.183-2.215 1.28-2.409 2.743a121.634 121.634 0 0 1-.816 5.164c-.156.868 0 1.828.427 2.559.427.732 1.127 1.234 1.904 1.371 28.444 4.434 51.409-5.21 60.23-9.734-.194 11.928-7.538 21.069-19.157 23.262-13.872 2.605-43.871-5.484-44.182-5.575-1.321-.366-2.603.411-3.147 1.828a56.338 56.338 0 0 1-1.904 4.524c-.7 1.554-.233 3.52 1.088 4.388 18.419 12.202 42.977 12.614 52.031 12.248-.505 3.336-1.826 6.079-3.925 8.181-4.041 4.068-11.113 5.804-18.885 4.57-9.559-1.508-23.431-8.866-33.729-17.915-1.127-1.006-2.759-.823-3.691.411-.972 1.234-1.982 2.377-3.031 3.519-1.01 1.051-1.205 2.788-.505 4.113 8.859 16.773 27.706 25.183 38.314 27.605-5.013 5.758-13.445 6.535-22.227 1.645-6.761-3.747-15.271-13.756-21.1-24.908-.738-1.417-2.293-1.919-3.575-1.234a34.287 34.287 0 0 1-4.08 1.92c-1.321.548-2.098 2.148-1.826 3.747 3.38 19.653 17.874 32.724 24.675 37.888-1.904 1.28-4.158 2.194-6.995 2.011-5.013-.046-9.87-2.697-13.289-7.267-4.391-5.85-8.083-17.413-10.142-31.718-.234-1.553-1.36-2.696-2.72-2.696-5.868 0-15.699 2.377-22.033 10.466v-24.725c6.412 1.919 13.251 2.331 18.807 1.097 12.007-2.468 20.712-13.848 20.712-27.102 0-6.993-2.41-13.574-6.762-18.693l.234-.137c34.195-25.045 65.32-79.98 73.014-94.147 8.665 11.151 8.121 30.163-1.749 44.743-6.567 9.734-20.128 21.343-40.373 34.55zM23.73 56.855c-12.356-18.327-11.968-42.87.894-55.894.739-.732 1.671-1.097 2.643-.914.816.137 1.865.96 2.292 1.782C33.212 8.73 66.164 70.2 102.302 96.662l1.282.914c1.244.869 2.06 2.377 2.215 4.022.117 1.691-.427 3.291-1.516 4.433-3.808 3.976-5.906 9.278-5.906 14.945 0 10.055 6.761 18.738 16.165 20.658 4.313.96 11.58.96 19.041-1.874 1.01-.366 2.137-.183 2.953.548.738.64 1.321 2.011 1.321 3.062v37.568c0 1.828-1.127 3.382-2.681 3.748-1.555.365-3.109-.686-3.653-2.377-3.691-11.288-14.222-13.802-18.924-14.396-2.331 14.351-6.217 25.685-11.036 32.083-4.468 5.942-10.841 9.415-17.408 9.461H84c-5.363 0-10.22-2.285-13.29-6.307-.66-.869-.932-2.011-.777-3.154.116-.96.855-2.193 1.593-2.696 3.38-2.24 19.701-13.894 24.248-32.861 0 0-.04 0-.04-.045-6.294 11.151-14.998 21.023-22.148 24.999-13.018 7.221-25.724 4.113-31.631-7.586-.583-1.097-.622-2.468-.117-3.657.428-1.005 1.71-2.011 2.682-2.102 6.606-.64 26.773-7.13 36.643-22.76-10.725 8.775-24.403 15.767-34.117 17.276-9.443 1.462-17.914-.732-23.199-6.079-3.847-3.885-5.984-9.369-6.1-15.904 0-1.052.35-2.057.97-2.788.545-.64 1.633-1.234 2.488-1.097 3.03.183 28.405 1.599 47.873-9.049-8.743 2.148-30.581 6.992-42.55 4.661-15.698-2.97-25.413-17.047-23.587-34.185.078-1.051.855-2.423 1.671-2.925.778-.503 2.215-.549 3.07-.092 4.313 2.514 26.501 14.397 55.645 11.335-22.46-3.337-37.537-7.861-47.368-14.123-14.144-9.049-20.05-30.3-12.94-46.388.505-1.097 1.477-1.874 2.526-2.01.933-.047 2.215.456 2.837 1.279 3.808 5.027 23.858 29.935 55.683 39.03 0-.137.04-.274.04-.411C44.091 78.747 30.53 66.956 23.73 56.855zM68.418 87.34c1.01.64 1.555 1.965 1.4 3.29a74.722 74.722 0 0 0-.467 5.942c-.039.96-.427 1.828-1.088 2.422-.66.594-1.477.777-2.254.594C35.155 91.955 14.21 69.79 6.633 60.694c-3.42 12.294 1.632 27.422 11.968 34.049 9.676 6.215 25.258 10.648 49 13.893 1.244.183 2.215 1.28 2.41 2.743.233 1.736.505 3.427.816 5.164.155.868 0 1.828-.428 2.559-.427.732-1.127 1.234-1.904 1.371-28.444 4.434-51.41-5.21-60.23-9.734.194 11.928 7.538 21.069 19.157 23.262 13.872 2.605 43.87-5.484 44.182-5.575 1.321-.366 2.603.411 3.147 1.828a56.122 56.122 0 0 0 1.904 4.524c.7 1.554.233 3.52-1.088 4.388-18.418 12.202-42.977 12.614-52.03 12.248.504 3.336 1.826 6.079 3.924 8.181 4.041 4.068 11.113 5.804 18.885 4.57 9.56-1.508 23.432-8.866 33.729-17.915 1.127-1.006 2.759-.823 3.691.411.972 1.234 1.982 2.377 3.031 3.519 1.01 1.051 1.205 2.788.505 4.113-8.86 16.773-27.705 25.183-38.314 27.605 5.013 5.758 13.445 6.535 22.227 1.645 6.761-3.747 15.272-13.756 21.1-24.908.739-1.417 2.293-1.919 3.575-1.234a34.311 34.311 0 0 0 4.08 1.92c1.321.548 2.099 2.148 1.827 3.747-3.381 19.653-17.875 32.724-24.675 37.888 1.904 1.28 4.157 2.194 6.994 2.011 5.013-.046 9.87-2.697 13.29-7.267 4.391-5.85 8.082-17.413 10.142-31.718.233-1.553 1.36-2.696 2.72-2.696 5.867 0 15.698 2.377 22.032 10.466v-24.725c-6.411 1.919-13.25 2.331-18.807 1.097-12.007-2.468-20.712-13.848-20.712-27.102 0-6.993 2.41-13.574 6.762-18.693l-.233-.137C65.115 77.147 33.99 22.212 26.295 8.045c-8.665 11.151-8.121 30.163 1.749 44.743 6.567 9.734 20.128 21.343 40.373 34.55z" fill="#fff" fill-opacity=".49"/><path d="M117.621 73.609c-1.96 2.794-3.578 7.891-.441 16.175 1.372 3.578 6.078 9.9 6.617 10.587a3.53 3.53 0 0 0 2.794 1.372h28.037c27.595 0 37.006-17.841 39.996-26.468h18.822c2.941 8.627 12.4 26.468 39.947 26.468h28.037c1.078 0 2.107-.539 2.794-1.372.539-.686 5.244-7.01 6.617-10.636 3.137-8.284 1.519-13.382-.393-16.175-2.499-3.627-6.862-5.588-12.351-5.588a3.39 3.39 0 0 0-2.304.882l-8.333 7.401-8.332-7.4a3.392 3.392 0 0 0-2.304-.883c-5.441 0-9.852 2.01-12.303 5.588-1.862 2.695-3.431 7.45-.833 15.096-6.519-2.647-12.695-7.842-14.852-16.224 2.01-3.235 7.108-11.42 8.725-15.44 3.431-8.675 3.431-15.684-.049-20.83-3.284-4.853-9.313-7.402-17.4-7.402-1.03 0-1.961.44-2.647 1.225l-13.479 15.39-13.332-15.39c-.687-.784-1.618-1.225-2.647-1.225-8.088 0-14.117 2.549-17.401 7.401-3.48 5.147-3.48 12.156-.049 20.831 1.618 4.02 6.666 12.205 8.725 15.44-2.157 8.43-8.332 13.577-14.851 16.224 2.597-7.646 1.029-12.4-.834-15.096-2.499-3.627-6.862-5.588-12.303-5.588a3.39 3.39 0 0 0-2.303.882l-8.333 7.401-8.332-7.4a3.393 3.393 0 0 0-2.304-.883c-5.539.049-9.901 2.059-12.401 5.637zm132.537 3.97c1.225-1.765 3.529-2.353 5.294-2.549l9.607 8.529a3.513 3.513 0 0 0 4.656 0l9.607-8.529c1.765.147 4.068.735 5.294 2.549 1.372 2.01 1.274 5.49-.343 9.705-.638 1.666-2.892 5.048-4.657 7.5h-25.782c.196-.883 0-1.814-.49-2.599-1.519-2.303-2.5-3.97-2.843-4.901-1.617-4.216-1.764-7.696-.343-9.705zm-73.131-23.135c-1.764-4.412-3.284-10.44-.686-14.313 1.716-2.548 5.294-4.068 10.097-4.313l14.901 17.155c.686.785 1.617 1.226 2.647 1.226 1.029 0 1.96-.441 2.647-1.226l14.9-17.204c4.804.245 8.382 1.764 10.097 4.313 2.598 3.873 1.079 9.95-.686 14.313-1.421 3.529-6.911 12.4-8.872 15.488a3.333 3.333 0 0 0-.49 2.55c1.029 5.146 3.137 9.41 5.931 12.89-5-5.048-7.205-10.93-8.137-14.46-.392-1.519-1.813-2.597-3.382-2.597h-23.968c-1.568 0-2.99 1.078-3.382 2.598-.931 3.578-3.137 9.46-8.137 14.508 2.794-3.48 4.951-7.744 5.98-12.94.147-.882 0-1.813-.49-2.549-2.058-3.038-7.548-11.861-8.97-15.44zm-53.671 23.135c1.225-1.765 3.529-2.353 5.294-2.549l9.606 8.529a3.514 3.514 0 0 0 4.657 0l9.607-8.529c1.764.147 4.068.735 5.294 2.549 1.372 2.01 1.274 5.49-.344 9.754-.196.539-.882 1.96-2.842 4.852-.54.785-.687 1.716-.54 2.598h-25.782c-1.764-2.45-4.019-5.833-4.656-7.5-1.569-4.215-1.667-7.645-.294-9.704z" fill="#fff" fill-opacity=".49"/><path d="M137.964 65.325c.686.784 1.618 1.225 2.647 1.225 1.029 0 2.01-.44 2.647-1.225l7.499-8.774c1.127-1.274 1.127-3.186.049-4.51l-7.499-8.969c-1.324-1.568-4.019-1.568-5.343 0l-7.499 8.97c-1.078 1.323-1.079 3.235.049 4.51l7.45 8.773zm2.647-14.558l2.941 3.53-2.941 3.43-2.941-3.43 2.941-3.53zm60.628-19.214c.686.834 1.667 1.324 2.745 1.324s2.059-.49 2.745-1.324l10.587-13.283c1.03-1.323 1.03-3.137-.049-4.411L206.68 1.213c-1.323-1.617-4.019-1.617-5.343 0L190.75 13.86c-1.078 1.274-1.078 3.088-.049 4.411l10.538 13.284zm2.745-22.645l6.078 7.255-6.078 7.597-6.078-7.646 6.078-7.206z" fill="#fff" fill-opacity=".49"/><g opacity=".49"><g clip-path="url(#clip0)" fill="#fff"><path d="M205.175 357.172a3.868 3.868 0 0 1-1.491.294c-.411 0-.823-.049-1.234-.197-.206-.049-19.226-6.96-19.226-19.312 0-12.842 4.267-28.477 7.3-37.986-6.374 9.901-11.875 23.968-12.954 39.457-.052 1.226-.72 2.353-1.8 3.088-.873.588-2.57.882-3.65.637-9.664-2.402-21.59-11.519-18.866-22.302 2.57-10.195 8.688-20.194 17.118-28.429-10.794 8.088-20.87 19.656-23.595 33.135-.206 1.078-.874 2.009-1.799 2.647-.822.538-2.313.832-3.29.637-6.889-1.275-13.417-5.637-16.758-11.176-2.21-3.675-2.725-7.499-1.491-10.832 6.477-17.352 35.624-32.889 61.379-39.605-5.141-11.468-11.207-16.91-15.525-19.459-5.86-3.479-11.978-3.676-15.936-.489-3.702 2.99-4.421 8.087-1.902 13.674.925 2.109.72 4.412-.514 6.177-1.234 1.814-3.393 2.843-5.861 2.843-16.398 0-36.292 5.636-43.848 12.351-6.427 8.774-17.633 13.479-29.508 12.45-14.393-1.323-26.063-11.47-27.707-24.066-1.389-10.636 4.112-20.734 14.393-26.419 1.286-.686 2.88-.637 4.062.244l12.542 9.215 12.543-9.215c1.183-.881 2.828-.98 4.062-.244 6.066 3.382 10.538 8.381 12.799 14.312 7.506 0 18.866-2.304 23.442-4.117-15.834-22.057-11.978-36.468-8.173-43.183 5.551-9.754 17.58-15.39 31.202-14.753 1.954.098 3.496 1.617 3.496 3.48v23.478c0 5.587 5.398 10.146 12.03 10.146h16.861c9.253 0 16.244 5.49 19.997 9.362 3.752-3.823 6.22 112.342 1.902 114.157zm-57.73-133.469v-19.998c-9.355.441-17.169 4.558-20.87 11.077-5.398 9.51-2.108 22.989 9.407 38.085 1.028 1.47 1.028 3.285.051 4.803-3.444 5.294-26.577 8.872-34.39 7.843-1.492-.196-2.674-1.226-3.034-2.549-1.233-4.46-4.112-8.381-8.224-11.224l-12.749 9.362c-1.336.98-3.188.98-4.472 0l-12.749-9.362c-6.323 4.363-9.664 11.175-8.739 18.283 1.233 9.411 10.127 16.958 21.128 17.988 9.304.833 18.094-2.892 22.979-9.754.153-.196.308-.392.463-.539 9.663-8.97 31.973-14.361 48.526-14.558-3.341-8.136-1.799-16.174 4.215-21.027 2.314-1.912 5.09-3.088 8.123-3.627-5.809-2.99-9.665-8.48-9.665-14.803zm57.73 29.164c-1.234 0-3.856-1.225-4.524-2.205-.051-.098-6.991-9.804-16.964-9.804h-12.338c.72.343 1.439.735 2.107 1.128 8.226 4.902 15.114 14.067 20.049 26.566.36.931.308 2.01-.205 2.843a3.832 3.832 0 0 1-2.365 1.764c-24.572 5.588-54.645 20.979-60.299 36.124-.668 1.814.308 3.922.925 5 1.799 3.039 5.244 5.637 8.996 7.01 7.094-25.783 36.498-44.164 51.766-47.398 1.8-.393 3.599.539 4.215 2.156l1.285 3.186c.668 1.716-.154 3.628-1.901 4.411-17.479 7.745-31.307 22.989-35.265 38.869-1.285 5.098 4.369 10.195 10.23 12.744 2.467-22.497 13.211-41.417 23.184-50.534.976-.882 2.415-1.176 3.701-.784 1.285.441 2.262 1.519 2.416 2.794.309 1.813.514 3.676.668 5.539.052.49-.051.98-.205 1.47-.103.245-9.871 25.88-9.871 44.261 0 5.391 11.238 11.065 15.402 12.879 2.884-8.37.227-98.019-1.007-98.019z"/><path d="M203.027 357.305c.463.195.978.294 1.491.294.411 0 .823-.049 1.234-.197.206-.049 19.226-6.96 19.226-19.312 0-12.842-4.267-28.477-7.3-37.986 6.374 9.901 11.875 23.968 12.954 39.457.052 1.226.72 2.353 1.8 3.088.873.588 2.57.882 3.65.637 9.664-2.402 21.59-11.519 18.866-22.302-2.57-10.195-8.687-20.194-17.118-28.429 10.794 8.087 20.87 19.656 23.595 33.135.206 1.078.874 2.009 1.799 2.647.822.538 2.313.832 3.29.637 6.889-1.275 13.417-5.638 16.758-11.176 2.211-3.675 2.725-7.499 1.491-10.832-6.477-17.352-35.624-32.889-61.379-39.605 5.141-11.469 11.207-16.91 15.525-19.459 5.86-3.479 11.978-3.676 15.936-.489 3.702 2.99 4.421 8.087 1.902 13.674-.925 2.109-.72 4.412.514 6.177 1.234 1.814 3.393 2.843 5.861 2.843 16.398 0 36.292 5.636 43.848 12.351 6.427 8.774 17.634 13.479 29.508 12.45 14.393-1.323 26.063-11.47 27.707-24.066 1.389-10.636-4.112-20.734-14.393-26.419-1.285-.686-2.879-.637-4.062.244l-12.542 9.215-12.543-9.215c-1.182-.881-2.828-.98-4.062-.244-6.065 3.382-10.537 8.381-12.799 14.312-7.506 0-18.866-2.304-23.441-4.117 15.833-22.057 11.977-36.468 8.172-43.183-5.551-9.754-17.58-15.39-31.202-14.753-1.954.098-3.496 1.617-3.496 3.48v23.478c0 5.587-5.398 10.146-12.029 10.146h-16.862c-9.253 0-16.244 5.49-19.997 9.362-3.752-3.823-6.22 112.342-1.902 114.157zm57.73-133.469v-19.998c9.355.441 17.169 4.558 20.87 11.077 5.398 9.51 2.108 22.989-9.407 38.085-1.027 1.47-1.027 3.285-.051 4.803 3.444 5.294 26.577 8.872 34.39 7.843 1.492-.197 2.674-1.226 3.034-2.549 1.233-4.46 4.112-8.381 8.224-11.224l12.749 9.362c1.336.98 3.188.98 4.472 0l12.749-9.362c6.324 4.363 9.665 11.175 8.739 18.283-1.233 9.41-10.126 16.958-21.128 17.987-9.304.834-18.094-2.891-22.978-9.753a5.269 5.269 0 0 0-.463-.539c-9.664-8.97-31.974-14.361-48.527-14.558 3.341-8.136 1.799-16.174-4.215-21.027-2.314-1.912-5.09-3.088-8.123-3.627 5.809-2.99 9.665-8.48 9.665-14.803zM203.027 253c1.234 0 3.856-1.225 4.524-2.205.051-.098 6.991-9.804 16.964-9.804h12.338c-.72.343-1.439.735-2.107 1.128-8.226 4.902-15.114 14.067-20.049 26.566-.36.931-.308 2.009.205 2.843a3.834 3.834 0 0 0 2.365 1.764c24.572 5.588 54.645 20.979 60.299 36.124.668 1.814-.308 3.922-.925 5-1.799 3.039-5.243 5.637-8.996 7.01-7.094-25.783-36.498-44.164-51.766-47.398-1.8-.393-3.598.539-4.215 2.156l-1.285 3.186c-.668 1.716.154 3.628 1.902 4.411 17.478 7.745 31.307 22.989 35.264 38.869 1.286 5.098-4.369 10.195-10.229 12.744-2.468-22.497-13.212-41.417-23.185-50.534-.976-.882-2.415-1.176-3.701-.784-1.285.44-2.262 1.519-2.416 2.794-.308 1.813-.514 3.676-.668 5.538-.052.491.051.98.205 1.471.103.245 9.871 25.88 9.871 44.261 0 5.391-11.238 11.065-15.401 12.879-2.885-8.37-.228-98.019 1.006-98.019zm-28.426-42.67v15.418h4.092v-4.846h2.035c3.827-.022 6.747-1.233 6.747-5.286 0-4.052-2.92-5.286-6.747-5.286h-6.127zm8.671 5.286c0 1.388-1.106 1.762-2.345 1.762h-2.234v-3.524h2.234c1.239 0 2.345.375 2.345 1.762zm5.373 2.423c0 4.295 2.766 8.039 8.296 8.039 5.53 0 8.295-3.744 8.295-8.039S202.471 210 196.941 210c-5.53 0-8.296 3.744-8.296 8.039zm12.388 0c0 2.467-1.416 4.295-4.092 4.295-2.677 0-4.093-1.828-4.093-4.295 0-2.467 1.416-4.295 4.093-4.295 2.676 0 4.092 1.828 4.092 4.295zm5.586.22c0 5.507 4.225 7.819 8.472 7.819 1.637 0 3.163-.33 4.513-.969v-3.964c-.885.859-2.345 1.343-3.938 1.343-2.411 0-4.844-1.233-4.844-4.229 0-3.347 2.433-4.691 4.889-4.691 1.415 0 2.831.463 3.782 1.256v-3.855c-1.349-.639-2.92-.969-4.49-.969-4.181 0-8.384 2.445-8.384 8.259z"/><path d="M220.694 210.33v3.635h4.38v11.783h4.092v-11.783h4.358v-3.635h-12.83z"/></g><path d="M151.215 201.976v-80.149l54.553-24.58 51.244 23.511v81.218" stroke="#fff" stroke-width="6"/></g><g clip-path="url(#clip1)"><path d="M218.833 203.561h-29.155a6.124 6.124 0 0 1-4.319-1.781 6.068 6.068 0 0 1-1.789-4.3c0-.416.024-5.602.112-6.689.386-1.929 1.292.124 2.092.124.686 0 1.868-1.728 2.272-.025-.054 1.314-.069 6.062-.069 6.59 0 .449.179.88.498 1.197.319.318.752.496 1.203.496h29.155c.94 0 1.701-.758 1.701-1.693v-6.565c0-1.767 1.492 0 2.204 0 .681 0 2.203-1.186 2.203.509v6.056c0 3.358-2.734 6.081-6.108 6.081zm-35.95-11.645c-2.434 0-4.407-1.964-4.407-4.388v-7.222c0-5.604 4.56-10.148 10.189-10.153h31.173c5.618.019 10.162 4.559 10.162 10.153v7.249c0 2.423-1.973 4.387-4.407 4.387l-42.71-.026zm0-4.388h42.71v-7.222c-.004-3.172-2.586-5.743-5.773-5.748h-31.155c-3.187.005-5.768 2.576-5.773 5.748l-.009 7.222zm31.05-29.029a5.019 5.019 0 0 1 3.111 4.633v8.806c0 1.212-.986-1.143-2.203-1.143-1.217 0-2.204 1.211-2.204 0v-7.636a.624.624 0 0 0-.625-.623h-15.503a.624.624 0 0 0-.626.623v7.14c0 1.211-1.114 0-2.331 0-1.217 0-2.076 1.707-2.076.496v-7.636a5.02 5.02 0 0 1 3.111-4.634 61.906 61.906 0 0 0-.608-2.773 32.226 32.226 0 0 0-4.407-10.32c-4.751-7.233-3.469-16.84 3.014-22.588 6.482-5.748 16.214-5.906 22.882-.372 6.668 5.533 8.264 15.093 3.753 22.478a37.323 37.323 0 0 0-4.689 10.785 69.169 69.169 0 0 0-.599 2.764zm-.917-32.355c-4.898-4.422-12.337-4.52-17.352-.231a13.019 13.019 0 0 0-2.39 17.115 36.58 36.58 0 0 1 4.997 11.715c.265 1.097.494 2.247.723 3.405h10.532c.221-1.158.459-2.299.723-3.396a41.557 41.557 0 0 1 5.235-12.093 13.007 13.007 0 0 0-2.468-16.515z" fill="#fff" fill-opacity=".49"/><path d="M182.883 192.066h.598a322.291 322.291 0 0 0-.061 5.414c0 1.653.66 3.238 1.833 4.406a6.272 6.272 0 0 0 4.425 1.825h29.155c3.456 0 6.258-2.789 6.258-6.231v-5.388h.502c2.516 0 4.557-2.031 4.557-4.537v-7.249c0-5.677-4.611-10.284-10.311-10.303h-2.645v-6.871 0a5.168 5.168 0 0 0-3.09-4.723c.178-.898.372-1.8.574-2.638a37.138 37.138 0 0 1 4.67-10.741l.001-.002c4.55-7.448 2.94-17.09-3.785-22.672-6.725-5.581-16.54-5.421-23.078.376-6.538 5.797-7.831 15.486-3.039 22.783a32.074 32.074 0 0 1 4.386 10.271v.002c.211.864.405 1.743.584 2.647a5.17 5.17 0 0 0-3.091 4.724v6.844h-2.662c-5.71.005-10.338 4.616-10.338 10.303v7.222c0 2.507 2.041 4.538 4.557 4.538zm29.604-22.063h-16.454v-6.844c0-.261.212-.473.476-.473h15.503c.263 0 .475.212.475.473v6.844zm-24.32 22.066l32.217.02v5.391c0 .852-.693 1.543-1.551 1.543h-29.155c-.411 0-.806-.162-1.097-.452a1.538 1.538 0 0 1-.454-1.091c0-.421.009-3.505.04-5.411zm24.749-65.814l.001.001a12.858 12.858 0 0 1 2.44 16.324 41.713 41.713 0 0 0-5.253 12.135l-.001.002a70.82 70.82 0 0 0-.701 3.281h-10.285a82.133 82.133 0 0 0-.7-3.289 36.726 36.726 0 0 0-5.017-11.763l-.001-.001a12.869 12.869 0 0 1 2.362-16.918c4.959-4.241 12.312-4.143 17.155.228zm12.527 54.051v7.072h-42.41l.009-7.072s0 0 0 0c.004-3.089 2.519-5.593 5.623-5.598h31.155c3.104.005 5.619 2.509 5.623 5.598z" stroke="#fff" stroke-opacity=".49" stroke-width=".3"/></g></g><defs><clipPath id="clip0"><path fill="#fff" transform="translate(43.815 195.564)" d="M0 0h321.666v162.436H0z"/></clipPath><clipPath id="clip1"><path fill="#fff" transform="translate(178 118)" d="M0 0h52v86H0z"/></clipPath></defs></svg>