<svg width="40" height="50" fill="none" xmlns="http://www.w3.org/2000/svg"><path d="M20 .897c-6.36 0-12.129 2.97-15.82 8.158C.33 14.448-.588 21.326 1.712 27.452c.6 1.588 1.54 3.156 2.805 4.651l14.755 17.47c.18.216.454.34.728.34a.955.955 0 0 0 .728-.34l14.755-17.47c1.265-1.495 2.204-3.063 2.805-4.65 2.31-6.127 1.382-13.005-2.468-18.398C32.13 3.867 26.36.897 20 .897zm16.506 25.905c-.528 1.393-1.36 2.774-2.49 4.105L20 47.52 5.983 30.917c-1.128-1.33-1.962-2.712-2.489-4.104C1.406 21.254 2.24 15.015 5.73 10.117 9.063 5.435 14.262 2.754 20 2.754c5.727 0 10.927 2.681 14.27 7.363 3.49 4.888 4.335 11.137 2.236 16.685z" fill="#206CDE"/><path d="M20 10.437c-5 0-9.06 3.97-9.06 8.858S15 28.153 20 28.153c4.999 0 9.06-3.97 9.06-8.858s-4.061-8.859-9.06-8.859zm0 15.86c-3.945 0-7.162-3.145-7.162-7.002 0-3.857 3.217-7.002 7.162-7.002 3.944 0 7.161 3.145 7.161 7.002 0 3.857-3.217 7.002-7.161 7.002z" fill="#206CDE"/></svg>