<svg width="25" height="15" fill="none" xmlns="http://www.w3.org/2000/svg"><path fill-rule="evenodd" clip-rule="evenodd" d="M21.515 9.537c.829.858 1.705 1.665 2.449 2.612.33.419.64.852.876 1.339.338.694.033 1.455-.553 1.497l-3.641-.001c-.94.082-1.69-.32-2.32-1.001-.504-.544-.971-1.124-1.456-1.686a3.477 3.477 0 0 0-.656-.618c-.496-.343-.927-.238-1.212.312-.29.56-.356 1.18-.383 1.802-.04.91-.299 1.149-1.16 1.191-1.841.092-3.588-.204-5.211-1.188-1.432-.868-2.54-2.093-3.506-3.48C2.86 7.612 1.42 4.645.126 1.592-.165.905.048.537.763.522a95.562 95.562 0 0 1 3.566 0c.483.008.803.301.989.785.642 1.675 1.43 3.27 2.416 4.748.263.393.531.786.914 1.064.421.307.743.205.942-.294.127-.317.182-.657.21-.997.094-1.165.105-2.329-.058-3.49-.102-.725-.487-1.194-1.17-1.331C8.225.937 8.276.8 8.445.59 8.738.226 9.013 0 9.562 0h4.114c.649.135.794.443.882 1.136l.004 4.847c-.008.268.127 1.062.58 1.238.364.127.604-.182.822-.426.986-1.11 1.69-2.42 2.319-3.776.277-.598.517-1.217.75-1.837.173-.459.442-.684.93-.677l3.962.005c.116 0 .235.002.35.023.668.12.851.426.645 1.116-.326 1.085-.957 1.989-1.575 2.895-.662.97-1.367 1.906-2.023 2.88-.602.891-.554 1.34.194 2.113z" fill="#fff"/></svg>