<svg width="94" height="78" fill="none" xmlns="http://www.w3.org/2000/svg"><path d="M81.056 77.52h-68.04C5.96 77.52.2 71.76.2 64.704c0-.432.288-.72.72-.72h38.448c.432 0 .72.288.72.72v4.536H53.84v-4.536c0-.432.288-.72.72-.72h38.52c.432 0 .72.288.72.72 0 7.056-5.76 12.816-12.744 12.816zM1.64 65.496C2 71.4 6.968 76.152 12.944 76.152h68.04c5.976 0 10.944-4.68 11.304-10.656H55.352v4.536c0 .432-.288.72-.72.72H39.368c-.432 0-.72-.288-.72-.72v-4.536H1.64z" fill="#0F62CA"/><path d="M54.632 70.68H39.368c-.432 0-.72-.288-.72-.72v-4.536H7.544c-.432 0-.72-.288-.72-.72V3.36A2.888 2.888 0 0 1 9.704.48h74.664a2.888 2.888 0 0 1 2.88 2.88v61.416c0 .432-.288.72-.72.72H55.352v4.536c0 .36-.36.648-.72.648zm-14.544-1.44H53.84v-4.536c0-.432.288-.72.72-.72h31.176V3.36c0-.792-.648-1.44-1.44-1.44H9.704c-.792 0-1.44.648-1.44 1.44v60.696H39.44c.432 0 .72.288.72.72v4.464h-.072z" fill="#0F62CA"/><path d="M81.416 60.456H12.584c-.432 0-.72-.288-.72-.72V6.24c0-.432.288-.72.72-.72h68.904c.432 0 .72.288.72.72v53.496c-.072.36-.36.72-.792.72zm-68.112-1.44h67.464V6.96H13.304v52.056z" fill="#0F62CA"/><path d="M77.096 17.256a.654.654 0 0 1-.504-.216l-5.976-5.976a.696.696 0 0 1 0-1.008.696.696 0 0 1 1.008 0l5.976 5.976a.696.696 0 0 1 0 1.008.654.654 0 0 1-.504.216zm-.072 6.192a.654.654 0 0 1-.504-.216L64.784 11.928a.696.696 0 0 1 0-1.008.696.696 0 0 1 1.008 0l11.736 11.304a.696.696 0 0 1 0 1.008.654.654 0 0 1-.504.216z" fill="#0F62CA"/></svg>