<svg width="50" height="50" fill="none" xmlns="http://www.w3.org/2000/svg"><path fill-rule="evenodd" clip-rule="evenodd" d="M40.982 38.8c1.268 1.037 1.364 2.846.207 4.002l-4.89 4.89c-3.954 3.955-17.572-1.629-24.942-8.999-7.37-7.37-12.954-20.987-8.998-24.942l4.889-4.89c1.155-1.155 2.967-1.059 4.003.208l6.485 7.926c1.002 1.224.912 3.094-.205 4.21l-3.088 3.09c-.624.623-.78 1.797-.303 2.597.032.064.102.197.213.391.188.33.42.705.697 1.116a24.538 24.538 0 0 0 2.993 3.608 24.553 24.553 0 0 0 3.612 2.995c.412.278.787.51 1.119.7.195.111.328.181.438.238.755.439 1.926.286 2.544-.332l3.09-3.089c1.115-1.115 2.986-1.205 4.21-.204l7.926 6.485zm-.922 1.125l-7.926-6.485c-.646-.528-1.674-.479-2.26.108l-3.09 3.088c-1.084 1.085-2.978 1.332-4.257.585a9.248 9.248 0 0 1-.474-.256 19.247 19.247 0 0 1-1.211-.757 26 26 0 0 1-3.827-3.172 25.986 25.986 0 0 1-3.17-3.824 19.17 19.17 0 0 1-.756-1.208 6.587 6.587 0 0 1-.226-.418c-.793-1.323-.541-3.228.551-4.32l3.089-3.09c.587-.586.636-1.613.107-2.26L10.125 9.99c-.493-.602-1.303-.645-1.848-.1l-4.89 4.89C.245 17.921 5.53 30.807 12.386 37.664c6.856 6.856 19.743 12.14 22.885 8.998l4.89-4.89c.546-.546.503-1.354-.1-1.848zM49 25a.727.727 0 1 1-1.454 0C47.546 12.549 37.452 2.455 25 2.455A.727.727 0 0 1 25 1c13.255 0 24 10.745 24 24zm-8.727 0a.727.727 0 1 1-1.454 0c0-7.632-6.187-13.818-13.819-13.818a.727.727 0 0 1 0-1.455c8.435 0 15.273 6.838 15.273 15.273z" fill="#206CDE" stroke="#206CDE" stroke-width=".3"/></svg>