<svg width="25" height="24" fill="none" xmlns="http://www.w3.org/2000/svg"><path d="M23.932 21.57l-5.94-5.892a9.497 9.497 0 0 0 2.168-6.062 9.514 9.514 0 0 0-2.84-6.8A9.67 9.67 0 0 0 10.467 0c-2.59 0-5.024 1-6.855 2.816a9.513 9.513 0 0 0-2.839 6.8 9.514 9.514 0 0 0 2.84 6.8 9.667 9.667 0 0 0 6.853 2.816 9.669 9.669 0 0 0 6.111-2.152l5.94 5.894c.195.193.452.29.708.29a1 1 0 0 0 .707-.29.986.986 0 0 0 0-1.404zM5.026 15.012a7.551 7.551 0 0 1-2.253-5.396c0-2.039.8-3.955 2.253-5.397a7.675 7.675 0 0 1 5.44-2.235c2.055 0 3.987.794 5.44 2.235a7.55 7.55 0 0 1 2.254 5.397 7.55 7.55 0 0 1-2.253 5.396 7.674 7.674 0 0 1-5.44 2.236 7.676 7.676 0 0 1-5.44-2.236z" fill="#DFE5EF"/></svg>