<svg width="45" height="45" fill="none" xmlns="http://www.w3.org/2000/svg"><path d="M28.695 6.952a.355.355 0 0 0 .54 0L30 6.06a.354.354 0 0 0 .005-.458l-.765-.912a.37.37 0 0 0-.545 0l-.765.912a.354.354 0 0 0 .005.458l.76.892zm.27-1.48l.3.359-.3.349-.3-.35.3-.358zm-1.537 16.055a.475.475 0 0 0-.13-.459c-1.325-1.07-1.18-2.845-.605-4.15.77-1.75 2.61-3.369 4.64-3.065.656.1.79.533.796.548a.36.36 0 0 0 .57.175c.39-.32.66-1.226.545-1.834-.33-1.729-2.65-1.724-5.11-1.714-1.48.01-3.016.01-4.086-.369a.353.353 0 0 0-.315.035.337.337 0 0 0-.16.27c-.06.762.7 1.753 1.525 2.311-1.17 1.156-2.08 2.895-2.57 4.859-.49-1.964-1.4-3.703-2.57-4.859.825-.558 1.585-1.55 1.525-2.312a.353.353 0 0 0-.475-.304c-1.07.379-2.605.374-4.086.369-2.45 0-4.78-.015-5.11 1.714-.115.603.155 1.51.545 1.834a.36.36 0 0 0 .57-.175c.005-.02.145-.453.8-.548 2.04-.299 3.865 1.316 4.64 3.07.575 1.305.72 3.08-.61 4.15-.115.095-.18.32-.125.459.06.164.22.274.395.274h2.706a.49.49 0 0 0-.16.553l.4 1.156c-.5.194-1.065.568-1.065 1.121 0 .27.125.528.355.743.055.05.115.094.175.14a.815.815 0 0 0-.475.164c-.295.234-.49.717-.07 1.33.135.194.105.27.04.369a.353.353 0 0 0-.02.364c.105.194.375.204.555.159a4.39 4.39 0 0 0-.3.927c-.14-.01-.3.045-.425.244a1.644 1.644 0 0 0-.215.762c0 .384.175.708.495.907.26.16.595.23.88.18.53.428 1.25.583 1.925.583.625 0 1.205-.135 1.545-.31a.38.38 0 0 0 .15-.144.317.317 0 0 0 .09-.03c.89-.458 1.425-1.156 1.425-1.868 0-.3-.155-.538-.415-.633-.245-.09-.535-.045-.8.075-.075-.424-.145-.837-.22-1.246.165-.045.355-.025.465.05.05.035.105.094.1.249-.01.259.17.463.42.478a.464.464 0 0 0 .5-.423c.09-.673-.135-1.052-.34-1.246-.23-.22-.55-.334-.92-.334h-.005v-.005c0-.01-.005-.02-.005-.03.19-.03.33-.174.425-.284.3-.349.45-.807.405-1.22a1.107 1.107 0 0 0-.44-.783c-.245-.184-.63-.244-1.055-.17-.24.046-.46.125-.645.23-.02-.025-.04-.055-.055-.075.105-.12.235-.319.235-.558a.673.673 0 0 0-.695-.663c-.35 0-.72.244-.78.703-.105.005-.205.02-.295.04l-.445-1.27a.508.508 0 0 0-.165-.225h5.725a.459.459 0 0 0 .395-.29zm-7.33 7.768l-.055-.035.055.035zm.305-3.06c.015-.01.04-.014.075-.014.07 0 .18.025.29.08-.145.06-.225.194-.27.328-.005-.01-.01-.015-.015-.024-.05-.07-.185-.29-.08-.37zm4.43 3.205c.155-.175.375-.26.485-.264-.015.339-.265.702-.68.996l-.23-.648c.02.01.04.015.06.025.13.035.27-.01.365-.11zm-2.27-5.476c.05.005.095 0 .14-.015.035.08.085.14.11.174.125.154.23.319.245.374.035.134.15.239.29.264.145.025.28-.04.355-.16.06-.094.28-.224.57-.279.245-.044.435-.015.5.04.09.07.145.165.155.294.01.07.005.145-.01.22a.47.47 0 0 0-.11-.21.488.488 0 0 0-.31-.134.538.538 0 0 0-.43.209c-.24.309-.125.822-.095.922.055.199.1.403.155.623l.075.303c.01.045.03.09.06.125-.41.17-.415.488-.38.668.08.428.155.862.235 1.31l-1.66-4.728a.365.365 0 0 1 .105 0zm-.605 2.322c.085 0 .16-.04.22-.105l1.58 4.485c-.655.189-1.875.244-2.51-.394a.356.356 0 0 0-.255-.105.336.336 0 0 0-.155.035c-.055.025-.27.035-.435-.07a.382.382 0 0 1-.095-.08c.06.006.11-.004.14.01.1 0 .19-.04.26-.109a.399.399 0 0 0 .09-.17c.07-.014.15-.024.215-.07.165-.124.6-.213 1.025-.213.145 0 .275-.09.33-.225a.353.353 0 0 0-.085-.388c-.115-.11-.22-.643-.11-.972a.357.357 0 0 0-.595-.359c-.11.11-.205.214-.295.314 0-.005.005-.005.005-.01.14-.234.16-.448.07-.717a.899.899 0 0 1-.055-.454.321.321 0 0 0-.005-.154.332.332 0 0 0 .175-.105c.065-.065.33-.144.485-.144zm-.555 2.55c.02-.024.04-.054.06-.084l.015.07c-.02.01-.045.01-.075.015zm.04-4.738l.39 1.111c-.295.02-.825-.12-1.09-.363-.06-.055-.13-.135-.13-.22.005-.134.385-.403.83-.528zm-2.716-3.01c.906-1.13 1.026-2.775.285-4.46-.855-1.938-2.915-3.861-5.395-3.482-.485.07-.81.274-1.02.483-.08-.234-.13-.528-.085-.757.22-1.151 2.26-1.136 4.41-1.136 1.295.005 2.626.01 3.72-.24-.25.494-.824 1.106-1.43 1.386a.364.364 0 0 0-.204.274c-.015.12.03.239.12.319 1.605 1.365 2.8 4.046 3.045 6.836.015.184.17.324.355.324.185 0 .34-.14.355-.324.24-2.79 1.435-5.476 3.045-6.836a.34.34 0 0 0 .12-.32.353.353 0 0 0-.205-.273c-.61-.28-1.18-.892-1.43-1.386 1.095.245 2.425.245 3.72.24 2.146-.006 4.186-.015 4.406 1.136.045.229-.01.518-.085.752a1.795 1.795 0 0 0-1.02-.478c-2.496-.374-4.54 1.55-5.396 3.483-.745 1.689-.625 3.333.285 4.464h-7.596v-.005z" fill="#206CDE"/><path d="M41.944 13.59c1.59-1.999 1.54-4.675-.115-6.095a.422.422 0 0 0-.34-.1.48.48 0 0 0-.295.195c-.47.752-4.71 7.454-9.36 10.34l-.166.099a.588.588 0 0 0-.285.439.576.576 0 0 0 .195.483c.49.433.76 1.011.76 1.63 0 1.096-.87 2.042-2.08 2.252-.555.104-1.49.104-2.45-.205a.427.427 0 0 0-.38.06.465.465 0 0 0-.17.334v4.096c0 .2.145.369.345.408.2.04.4-.074.47-.259.475-1.23 1.83-1.505 2.435-1.57.3 1.565.8 2.801 1.42 3.499a3.04 3.04 0 0 0 2.24 1.031h.02c.69 0 1.316-.249 1.71-.688a.412.412 0 0 0 .1-.343.472.472 0 0 0-.204-.294c-.435-.245-2.536-1.515-3.12-3.583 0 0 .004 0 .004-.005.81 1.216 1.93 2.292 2.85 2.726 1.676.787 3.31.448 4.07-.828a.403.403 0 0 0 .016-.398.493.493 0 0 0-.345-.23c-.85-.07-3.445-.777-4.715-2.48 1.38.956 3.14 1.718 4.39 1.883 1.215.16 2.305-.08 2.985-.663.495-.424.77-1.022.785-1.734a.43.43 0 0 0-.125-.304.435.435 0 0 0-.32-.12c-.39.02-3.655.175-6.16-.986 1.125.234 3.935.762 5.475.508 2.02-.324 3.27-1.859 3.035-3.727a.46.46 0 0 0-.215-.32.516.516 0 0 0-.395-.01c-.555.275-3.41 1.57-7.16 1.237 2.89-.364 4.83-.857 6.095-1.54 1.82-.987 2.58-3.304 1.665-5.058a.43.43 0 0 0-.325-.219.515.515 0 0 0-.365.14c-.49.548-3.07 3.263-7.165 4.255 0-.015-.005-.03-.005-.045 2.575-1.425 4.32-2.71 5.195-3.812zm-5.75 3.323c-.13.07-.2.214-.18.359.03.214.05.428.06.647a.358.358 0 0 0 .43.329c3.97-.832 6.665-3.249 7.64-4.24.44 1.34-.21 2.99-1.54 3.712-1.245.678-3.25 1.161-6.305 1.515a.355.355 0 0 0-.31.299c-.03.19-.065.373-.105.563-.02.095 0 .2.055.279.055.08.145.134.245.15 3.66.483 6.615-.569 7.75-1.062-.025 1.3-.97 2.297-2.465 2.536-1.785.284-5.645-.598-5.685-.608a.352.352 0 0 0-.405.2c-.075.17-.155.334-.245.493-.09.17-.03.384.14.478 2.37 1.33 5.53 1.376 6.695 1.336a1.477 1.477 0 0 1-.505.892c-.52.443-1.43.633-2.43.498-1.23-.164-3.015-.967-4.34-1.953a.355.355 0 0 0-.476.045 7.045 7.045 0 0 1-.39.383.35.35 0 0 0-.065.449c1.14 1.828 3.566 2.745 4.93 3.01-.644.627-1.73.712-2.86.179-.87-.409-1.965-1.5-2.715-2.716a.365.365 0 0 0-.46-.134c-.17.08-.345.15-.525.209a.36.36 0 0 0-.235.409c.435 2.142 2.3 3.567 3.176 4.13a1.59 1.59 0 0 1-.9.22 2.318 2.318 0 0 1-1.71-.793c-.566-.637-1.04-1.898-1.306-3.458a.354.354 0 0 0-.35-.294c-.755 0-2.02.26-2.835 1.141v-2.695c.825.209 1.705.254 2.42.12 1.545-.27 2.665-1.51 2.665-2.956 0-.762-.31-1.48-.87-2.038l.03-.015c4.4-2.73 8.406-8.72 9.396-10.265 1.115 1.216 1.045 3.29-.225 4.879-.845 1.061-2.59 2.327-5.195 3.767zM13.69 7.794c-.2.284-.365.802-.045 1.645.14.363.62 1.006.675 1.076.07.09.175.14.285.14h2.86c2.816 0 3.776-1.814 4.08-2.691h1.92c.3.877 1.266 2.69 4.076 2.69h2.86c.11 0 .215-.054.285-.14.055-.069.535-.712.675-1.08.32-.843.155-1.36-.04-1.645-.255-.369-.7-.568-1.26-.568-.085 0-.17.03-.235.09l-.85.752-.85-.752a.347.347 0 0 0-.235-.09c-.555 0-1.005.204-1.255.568-.19.274-.35.758-.085 1.535-.665-.27-1.295-.797-1.515-1.65.205-.328.725-1.16.89-1.569.35-.882.35-1.595-.005-2.118-.335-.493-.95-.752-1.775-.752-.105 0-.2.045-.27.124L22.5 4.924 21.14 3.36a.355.355 0 0 0-.27-.124c-.825 0-1.44.259-1.776.752-.355.523-.355 1.236-.005 2.118.165.409.68 1.24.89 1.57-.22.857-.85 1.38-1.515 1.649.265-.777.105-1.26-.085-1.535-.255-.369-.7-.568-1.255-.568-.085 0-.17.03-.235.09l-.85.752-.85-.752a.347.347 0 0 0-.235-.09c-.565.005-1.01.21-1.265.573zm13.521.404c.125-.18.36-.24.54-.26l.98.868c.135.12.34.12.475 0l.98-.867c.18.015.415.074.54.259.14.204.13.558-.035.986-.065.17-.295.514-.475.763h-2.63c.02-.09 0-.185-.05-.264-.155-.234-.255-.404-.29-.499-.165-.428-.18-.782-.035-.986zm-7.46-2.352c-.18-.449-.336-1.061-.07-1.455.174-.26.54-.414 1.03-.439l1.52 1.744a.355.355 0 0 0 .54 0l1.52-1.749c.49.025.855.18 1.03.439.265.394.11 1.011-.07 1.455-.145.359-.705 1.26-.905 1.575-.05.074-.07.169-.05.259.105.523.32.956.605 1.31a3.31 3.31 0 0 1-.83-1.47.358.358 0 0 0-.345-.264H21.28c-.16 0-.305.11-.345.264-.096.364-.32.962-.83 1.475a3 3 0 0 0 .61-1.315.36.36 0 0 0-.05-.26c-.21-.308-.77-1.205-.916-1.57zm-5.476 2.352c.125-.18.36-.24.54-.26l.98.868c.135.12.34.12.475 0l.98-.867c.18.015.415.074.54.259.14.204.13.558-.035.991-.02.055-.09.2-.29.494a.357.357 0 0 0-.055.264h-2.63c-.18-.25-.41-.593-.475-.763-.16-.428-.17-.777-.03-.986z" fill="#206CDE"/><path d="M15.765 6.952a.355.355 0 0 0 .54 0l.765-.892a.353.353 0 0 0 .005-.458l-.765-.912a.37.37 0 0 0-.545 0L15 5.602a.354.354 0 0 0 .005.458l.76.892zm.27-1.48l.3.359-.3.349-.3-.35.3-.358zm6.185-1.953a.361.361 0 0 0 .56 0l1.08-1.35a.352.352 0 0 0-.005-.449L22.775.434a.363.363 0 0 0-.545 0L21.15 1.72a.352.352 0 0 0-.005.448l1.075 1.35zm.28-2.302l.62.737-.62.773-.62-.778.62-.732zM1.078 13.206a.402.402 0 0 0-.37-.135.492.492 0 0 0-.32.224c-.915 1.75-.15 4.066 1.665 5.053 1.26.688 3.205 1.18 6.095 1.54-3.75.338-6.6-.962-7.155-1.236a.426.426 0 0 0-.395.01c-.1.055-.2.2-.215.314-.235 1.903.985 3.403 3.035 3.732 1.545.254 4.35-.274 5.475-.508-2.51 1.166-5.77 1.011-6.165.986a.4.4 0 0 0-.32.12c-.07.07-.13.21-.125.309.015.707.29 1.31.785 1.729.685.583 1.77.822 2.985.663 1.25-.165 3.01-.927 4.39-1.884-1.27 1.704-3.865 2.417-4.72 2.482a.441.441 0 0 0-.34.224.479.479 0 0 0-.01.354c-.245-.205-.575-.38-1.03-.479a.358.358 0 0 0-.43.404c.015.08.025.19.035.304-.495-.155-1.21-.25-1.72.22-.43.492-.285 1.17-.095 1.638-.125 0-.24-.005-.33-.014a.336.336 0 0 0-.305.13.346.346 0 0 0-.065.323c.225.747.73 1.266 1.42 1.455.375.105.775.1 1.09.005.045.045.1.085.155.12.265.164.725.274 1.125.05.36.338 1.335 1.24 4.01 3.712-.145.319-.19.667-.13 1.016.13.743.745 1.346 1.536 1.5.425.085.85.04 1.235-.12l.98.887c.18.16.415.24.655.225a.886.886 0 0 0 .61-.3.79.79 0 0 0 .195-.582.735.735 0 0 0-.245-.499c-.015-.015-.025-.03-.845-.772.94-.483 2.37-.817 3.61-.817.24 0 .45-.105.57-.29a.662.662 0 0 0 .05-.627c-.24-.563-.17-1.086.19-1.39.385-.33.975-.31 1.55.05.42.264 1.01.817 1.51 1.978-2.505.682-5.34 2.262-5.97 4.026-.12.339-.07.727.145 1.101.32.558.96 1.007 1.62 1.131.11.025.23 0 .325-.064a.498.498 0 0 0 .18-.27c.265-1.37 1.245-2.546 2.295-3.368-.815.842-1.415 1.854-1.66 2.89-.26 1.096.895 2.023 1.84 2.267a.424.424 0 0 0 .36-.07.481.481 0 0 0 .17-.309c.1-1.579.64-3.01 1.26-4.016-.295.967-.71 2.557-.71 3.862 0 1.086 1.375 1.769 1.796 1.953a.36.36 0 0 0 .265.01c.02-.005 1.87-.707 1.87-1.963 0-1.305-.415-2.895-.71-3.862.62 1.007 1.155 2.437 1.26 4.012.005.124.07.239.175.313.085.06.25.09.355.065.94-.244 2.1-1.17 1.835-2.267-.25-1.036-.845-2.053-1.665-2.89 1.05.822 2.03 1.998 2.295 3.368a.43.43 0 0 0 .175.27.48.48 0 0 0 .32.064c.67-.13 1.305-.573 1.63-1.136.215-.374.265-.762.145-1.101-.63-1.764-3.465-3.344-5.97-4.026.5-1.166 1.09-1.72 1.51-1.978.57-.354 1.165-.374 1.55-.05.36.304.43.822.185 1.39a.663.663 0 0 0 .05.628c.12.184.33.289.57.289 1.595 0 3.53.573 4.265 1.255.625.892 1.716 1.37 2.87 1.266 1.4-.134 2.536-1.166 2.696-2.447.135-1.08-.4-2.107-1.4-2.685a.357.357 0 0 0-.395.025l-1.22.936-1.22-.936a.348.348 0 0 0-.395-.025 2.803 2.803 0 0 0-1.246 1.455h-.05c-.68 0-1.785-.234-2.23-.419 1.54-2.242 1.165-3.707.795-4.39-.54-.991-1.71-1.564-3.035-1.5a.356.356 0 0 0-.34.354v2.387c0 .568-.525 1.032-1.17 1.032h-1.64c-.9 0-1.58.558-1.945.951-.366-.389-1.046-.951-1.946-.951h-1.64c-.645 0-1.17-.464-1.17-1.032v-2.387c0-.19-.15-.344-.34-.354-1.315-.064-2.495.509-3.035 1.5-.37.683-.745 2.148.79 4.385-.505.21-1.875.484-2.725.424a2.129 2.129 0 0 0-1.88-.449c-2.78-2.57-3.816-3.518-4.216-3.871.115-.354.01-.698-.145-.922a.951.951 0 0 0-.165-.18 1.886 1.886 0 0 0-.15-1.21c.86.782 2.215.896 3.595.249.935-.439 2.03-1.495 2.85-2.726 0 0 .006 0 .006.005-.585 2.068-2.69 3.339-3.12 3.583a.418.418 0 0 0-.21.289.46.46 0 0 0 .1.349c.394.438 1.02.687 1.71.687h.014a3.022 3.022 0 0 0 2.24-1.031c.616-.698 1.116-1.934 1.416-3.498.605.06 1.96.338 2.44 1.57a.434.434 0 0 0 .475.258c.2-.04.34-.209.34-.408v-4.096a.425.425 0 0 0-.17-.334.497.497 0 0 0-.385-.065c-.96.31-1.895.31-2.455.205-1.2-.21-2.075-1.156-2.075-2.253 0-.618.27-1.196.76-1.63a.58.58 0 0 0 .2-.483.57.57 0 0 0-.285-.443l-.17-.1C8.548 15.034 4.303 8.337 3.833 7.58a.421.421 0 0 0-.29-.193.581.581 0 0 0-.35.094c-1.65 1.42-1.7 4.096-.11 6.094.875 1.101 2.62 2.387 5.195 3.827 0 .015-.005.03-.005.045-4.12-.977-6.705-3.687-7.195-4.24zM27.97 30.875v-2.033c.91.045 1.67.463 2.03 1.126.525.967.205 2.337-.915 3.872-.1.15-.1.334-.005.488.335.538 2.585.902 3.346.797a.354.354 0 0 0 .294-.259c.12-.453.4-.852.8-1.14l1.24.95c.13.1.31.1.436 0l1.24-.95c.615.443.94 1.135.85 1.858-.12.956-.985 1.724-2.055 1.828-.905.085-1.76-.294-2.236-.991a.53.53 0 0 0-.044-.055c-.94-.912-3.11-1.46-4.72-1.48.324-.827.174-1.644-.411-2.138a1.653 1.653 0 0 0-.79-.368c.565-.304.94-.862.94-1.505zm-7.416 1.744c.966 0 1.64.987 1.65.996a.35.35 0 0 0 .59 0c.006-.01.68-.996 1.65-.996h1.2c-.07.035-.14.075-.204.115-.8.498-1.47 1.43-1.95 2.7a.343.343 0 0 0 .02.29c.05.089.135.154.23.179 2.39.568 5.315 2.132 5.865 3.672.065.184-.03.399-.09.508-.175.31-.51.573-.875.713-.69-2.621-3.55-4.49-5.035-4.819a.352.352 0 0 0-.41.22l-.125.324a.357.357 0 0 0 .185.448c1.7.787 3.045 2.337 3.43 3.951.125.519-.425 1.037-.995 1.296-.24-2.287-1.285-4.21-2.255-5.137a.353.353 0 1 0-.595.204c-.03.184-.05.374-.065.563-.005.05.005.1.02.15.01.024.96 2.63.96 4.5 0 .547-.86 1.055-1.265 1.24-.49-.24-1.235-.733-1.235-1.24 0-1.864.95-4.47.96-4.5.015-.05.025-.1.02-.15-.015-.19-.035-.379-.06-.563a.361.361 0 0 0-.35-.304c-.09 0-.18.035-.245.1-.97.926-2.016 2.845-2.256 5.137-.565-.26-1.12-.777-.995-1.296.385-1.614 1.735-3.169 3.43-3.951.17-.08.25-.274.186-.448l-.125-.324a.351.351 0 0 0-.41-.22c-1.486.33-4.34 2.198-5.036 4.819-.365-.14-.7-.404-.875-.713-.065-.11-.16-.324-.095-.508.55-1.545 3.475-3.11 5.866-3.672a.35.35 0 0 0 .23-.18.345.345 0 0 0 .02-.289c-.6-1.604-1.39-2.357-1.946-2.7-.07-.04-.135-.08-.205-.115h1.185zM10.22 34.652c.1.09.24.12.365.075.505-.185 1.09-.055 1.445.304a.34.34 0 0 0 .21.104c.935.115 3.325-.229 3.68-.807a.436.436 0 0 0-.015-.488c-1.11-1.525-1.43-2.895-.905-3.862.36-.668 1.125-1.081 2.03-1.126v2.033c0 .643.375 1.2.935 1.505-.29.055-.56.174-.79.368-.58.494-.735 1.306-.41 2.138-1.545.015-3.36.503-4.34 1.176a.359.359 0 0 0-.155.27.368.368 0 0 0 .115.288l1.15 1.042c.01.01.03.134.04.144a.18.18 0 0 1-.12.055c-.08.02-.11-.025-.135-.045l-1.155-1.046a.375.375 0 0 0-.24-.095c-.06 0-.12.015-.175.045-.205.12-.54.239-.98.154-.505-.1-.896-.473-.97-.926-.06-.34.06-.603.17-.763a.356.356 0 0 0-.05-.463c-1.69-1.56-4.256-3.927-4.346-4.017a.353.353 0 0 0-.44-.11l-.23.11a.412.412 0 0 1-.465-.044.353.353 0 0 0-.195-.264.378.378 0 0 0-.4.044c-.07.06-.43.155-.835.03a1.271 1.271 0 0 1-.675-.498c.205 0 .37-.005.38-.005a.355.355 0 0 0 .29-.548c-.155-.24-.535-.992-.265-1.3.35-.32 1.175.004 1.435.139.115.06.25.055.355-.015.11-.07.17-.19.165-.314l-.02-.369c.35.185.515.444.595.658.135.359.065.678.015.742a.356.356 0 1 0 .265.588c.025.02.075.075.1.16.03.09.02.174-.035.279l-.04.085c-.08.174-.06.344.115.428.185.13 2.81 2.546 4.53 4.141zM8.8 16.912c-2.606-1.444-4.351-2.71-5.191-3.761-1.265-1.59-1.34-3.668-.225-4.878.99 1.55 5.005 7.539 9.396 10.27l.03.014c-.56.558-.87 1.276-.87 2.038 0 1.445 1.12 2.686 2.66 2.95.72.135 1.6.09 2.425-.115v2.701c-.815-.882-2.08-1.14-2.835-1.14a.354.354 0 0 0-.35.293c-.265 1.565-.745 2.825-1.305 3.458a2.335 2.335 0 0 1-1.71.793h-.015c-.335 0-.645-.075-.886-.22.876-.563 2.736-1.988 3.176-4.13a.36.36 0 0 0-.235-.41 4.776 4.776 0 0 1-.525-.208.36.36 0 0 0-.46.134c-.75 1.216-1.84 2.307-2.716 2.716-1.13.528-2.215.443-2.86-.18 1.365-.264 3.79-1.185 4.93-3.01a.357.357 0 0 0-.064-.453 5.64 5.64 0 0 1-.39-.383.356.356 0 0 0-.476-.045c-1.33.986-3.115 1.789-4.345 1.953-.995.135-1.905-.055-2.43-.498-.27-.23-.44-.528-.505-.892 1.165.035 4.32-.005 6.695-1.34a.357.357 0 0 0 .14-.479 7.566 7.566 0 0 1-.245-.493.354.354 0 0 0-.405-.2c-.04.01-3.91.892-5.685.608-1.49-.239-2.435-1.235-2.465-2.536 1.135.493 4.095 1.54 7.75 1.061.1-.015.19-.07.245-.149.055-.08.075-.184.055-.28-.04-.183-.075-.373-.105-.557a.355.355 0 0 0-.31-.3c-3.055-.358-5.06-.836-6.305-1.514-1.325-.723-1.975-2.372-1.54-3.712.97.991 3.67 3.408 7.635 4.24a.38.38 0 0 0 .29-.064.35.35 0 0 0 .14-.265c.01-.219.03-.433.06-.647a.348.348 0 0 0-.175-.37z" fill="#206CDE"/></svg>