<svg width="61" height="56" fill="none" xmlns="http://www.w3.org/2000/svg"><path d="M60.047 24.434H55.4V9.709a5.908 5.908 0 0 0-1.739-4.176A5.948 5.948 0 0 0 49.472 3.8H36.328a.955.955 0 0 0-.953.95.949.949 0 0 0 .953.95h13.144a4.034 4.034 0 0 1 2.843 1.175 4.007 4.007 0 0 1 1.18 2.834v5.8a5.91 5.91 0 0 0-4.023-1.582H1.906V5.7h16.68a.955.955 0 0 0 .953-.95.949.949 0 0 0-.953-.95H.953A.955.955 0 0 0 0 4.75v50.127a.948.948 0 0 0 .953.95h48.519a5.948 5.948 0 0 0 4.19-1.734 5.909 5.909 0 0 0 1.738-4.175v-4.49h4.647a.955.955 0 0 0 .953-.95V25.384a.948.948 0 0 0-.953-.95zM53.494 45.49v4.436a4.007 4.007 0 0 1-1.18 2.834 4.034 4.034 0 0 1-2.842 1.175H1.906v-38.11h47.566a4.034 4.034 0 0 1 2.844 1.178 4.007 4.007 0 0 1 1.178 2.837v4.602H36.53a10.593 10.593 0 0 0-7.437 3.06 10.523 10.523 0 0 0-3.124 7.39v.124a10.518 10.518 0 0 0 3.123 7.391 10.588 10.588 0 0 0 7.438 3.059H53.5s-.005-.005-.005.024zm5.6-1.972H36.528a8.644 8.644 0 0 1-6.095-2.517 8.592 8.592 0 0 1-2.526-6.075 8.569 8.569 0 0 1 2.526-6.076 8.623 8.623 0 0 1 6.096-2.517h22.565v17.185z" fill="#fff"/><path d="M32.312 34.893c0 .832.247 1.644.71 2.336a4.215 4.215 0 0 0 1.893 1.548 4.231 4.231 0 0 0 4.596-.911 4.2 4.2 0 0 0 .915-4.581 4.207 4.207 0 0 0-1.554-1.887 4.228 4.228 0 0 0-5.324.524 4.202 4.202 0 0 0-1.236 2.971zm6.533 0a2.3 2.3 0 0 1-1.427 2.129 2.318 2.318 0 0 1-2.518-.5 2.302 2.302 0 0 1-.502-2.51 2.305 2.305 0 0 1 2.136-1.422 2.32 2.32 0 0 1 1.633.676c.433.431.677 1.017.678 1.627zm-2.021-19.085a.954.954 0 0 1-.672-.28L22.875 2.294 9.593 15.532a.955.955 0 0 1-1.628-.672c0-.252.1-.494.28-.672L22.197.28a.953.953 0 0 1 1.349 0l13.949 13.908a.948.948 0 0 1-.672 1.62z" fill="#fff"/><path d="M46.16 15.808a.954.954 0 0 1-.673-.28L32.21 2.294 28.212 6.28a.955.955 0 0 1-1.628-.672c0-.252.1-.493.28-.672L31.533.28a.955.955 0 0 1 1.348 0l13.954 13.908a.949.949 0 0 1-.672 1.62h-.005z" fill="#fff"/></svg>