<svg width="28" height="28" fill="none" xmlns="http://www.w3.org/2000/svg"><circle cx="14" cy="14" r="13" stroke="#206CDE" stroke-width="2"/><path d="M22.102 8.383a.972.972 0 0 0-.562.283c-3.216 3.141-5.623 5.733-8.693 8.765l-3.493-2.876a.973.973 0 0 0-.705-.22.987.987 0 0 0-.657.33.934.934 0 0 0-.224.688.923.923 0 0 0 .342.64l4.175 3.443a.98.98 0 0 0 1.305-.058c3.446-3.366 5.909-6.064 9.315-9.391A.918.918 0 0 0 23.1 8.9a.95.95 0 0 0-.413-.417.985.985 0 0 0-.585-.101z" fill="#206CDE" stroke="#fff" stroke-width=".4"/></svg>