<svg width="75" height="45" fill="none" xmlns="http://www.w3.org/2000/svg"><path d="M73.784 37.139h-4.682C70.512 16.915 49.515 7.749 47.35 6.86V1a1 1 0 0 0-1-1H28.62a1 1 0 0 0-1 1v5.894C25.037 7.969 4.556 17.16 5.949 37.139H1a1 1 0 0 0-1 1v5.039a1 1 0 0 0 1 1h72.784a1 1 0 0 0 1-1v-5.04a1 1 0 0 0-1-1zm-1 5.039H2v-3.04h8.518a1 1 0 0 0 0-2H7.95C6.648 19.75 23.35 11.014 27.62 9.076v10.027a1 1 0 1 0 2 0V2h6.772v12.997a1 1 0 1 0 2 0V2h6.958v17.85a1 1 0 1 0 2 0V9.039c4.126 1.852 21.064 10.567 19.75 28.1h-2.087a1 1 0 0 0 0 2h7.771v3.039z" fill="#fff"/><path d="M53.605 29.089H21.18a.714.714 0 0 0-.557.293 1.15 1.15 0 0 0-.23.707c0 .265.082.52.23.707a.714.714 0 0 0 .557.293h32.425c.209 0 .41-.105.557-.293a1.15 1.15 0 0 0 .23-.707c0-.265-.082-.52-.23-.707a.714.714 0 0 0-.557-.293z" fill="#fff"/></svg>