<svg width="70" height="60" fill="none" xmlns="http://www.w3.org/2000/svg"><path d="M24.104.424c-6.215 0-11.86 1.186-16.003 3.171C4.077 5.522 1.345 8.28 1.194 11.54c0 .03-.03.03-.03.06v.029c-.03.06-.03.149-.03.237v28.162c0 3.38 2.793 6.225 6.937 8.242 4.174 1.986 9.82 3.17 16.035 3.17 2.342 0 4.594-.177 6.726-.504A21.262 21.262 0 0 0 47.528 59c11.8 0 21.38-9.605 21.38-21.402 0-11.829-9.58-21.433-21.38-21.433h-.51v-4.3c.03-.088 0-.177 0-.236v-.06c-.03 0-.03-.03-.03-.06-.18-3.231-2.912-5.988-6.906-7.915C35.905 1.61 30.32.424 24.104.424zm0 1.69c5.977 0 11.382 1.186 15.225 3.024 3.754 1.808 5.915 4.18 6.005 6.581v.148c0 1.72-1.08 3.468-3.092 4.98 0 .03-.03 0-.03 0a21.923 21.923 0 0 0-7.057 3.29c-3.243.919-6.997 1.483-11.05 1.483-6.006 0-11.44-1.157-15.285-3.025-3.604-1.718-5.734-3.972-5.975-6.255v-.474c0-.088-.03-.148-.03-.207.12-2.371 2.253-4.714 6.005-6.522 3.844-1.837 9.278-3.023 15.284-3.023zm21.23 14.08v.089h-.09l.09-.09zm-42.49.03c1.202 1.512 3.033 2.847 5.256 3.913 4.143 1.986 9.79 3.173 16.003 3.173 2.884 0 5.645-.238 8.199-.742-2.252 2.312-3.994 5.1-5.016 8.211-1.05.09-2.131.149-3.211.149-6.006 0-11.411-1.157-15.255-3.024-3.843-1.837-5.975-4.27-5.975-6.73v-4.95zm44.681 1.63c10.902 0 19.699 8.834 19.699 19.744 0 10.908-8.797 19.742-19.699 19.742-10.869 0-19.668-8.834-19.668-19.742 0-10.91 8.8-19.743 19.668-19.743zm-44.68 7.708c1.2 1.512 3.032 2.816 5.225 3.883 4.143 1.986 9.79 3.143 16.005 3.143.93 0 1.801-.03 2.702-.09a21.98 21.98 0 0 0-.6 5.1c0 1.067.06 2.135.21 3.141-.751.06-1.532.09-2.312.09-6.006 0-11.411-1.186-15.255-3.024-3.843-1.837-5.975-4.298-5.975-6.76v-5.482zm0 9.871c1.2 1.513 3.032 2.817 5.225 3.883 4.143 1.986 9.79 3.173 16.005 3.173.9 0 1.742 0 2.611-.06.6 2.52 1.622 4.89 3.033 6.966a42.862 42.862 0 0 1-5.616.385c-6.005 0-11.44-1.156-15.284-3.024-3.843-1.837-5.975-4.268-5.975-6.73v-4.593h0z" fill="#fff" stroke="#fff" stroke-width=".4"/></svg>