<svg width="19" height="34" fill="none" xmlns="http://www.w3.org/2000/svg"><path d="M18.973 17.37c-.036.117-.061.24-.108.354-.13.307-.204.36-.413.613L3.237 33.456c-.192.156-.387.315-.616.41-.805.332-1.822.028-2.309-.696a1.923 1.923 0 0 1 0-2.1c.069-.104.158-.19.236-.287L14.417 17 .547 3.22l-.235-.288c-.059-.11-.127-.213-.175-.327C-.197 1.806.1.801.837.31a1.955 1.955 0 0 1 2.113 0c.103.07.192.157.287.236l15.215 15.119c.078.096.167.183.236.287.139.206.235.436.285.68.047.242.023.49 0 .738z" fill="#094295"/></svg>