<svg width="61" height="65" fill="none" xmlns="http://www.w3.org/2000/svg"><path d="M60.575 63.235c0-18.592-16.54-23.83-20.223-24.754l-.765-7.071a13.633 13.633 0 0 0 1.98-4.562c.878-.538 1.59-1.906 2.25-4.263.693-2.47.66-4.057-.112-5a2.068 2.068 0 0 0-.66-.538c.06-.225.112-.471.165-.737.74-4.641.277-8.014-1.307-10.1a4.725 4.725 0 0 0-2.442-1.699 9.26 9.26 0 0 0-3.174-2.855A11.236 11.236 0 0 0 29.456.215a10.28 10.28 0 0 0-2.772.525 11.924 11.924 0 0 0-2.997 1.52 15.374 15.374 0 0 0-3.01 2.503 12.343 12.343 0 0 0-3.3 5.857 12.743 12.743 0 0 0 0 5.71c.045.248.095.487.153.717a2.055 2.055 0 0 0-.66.518c-.78.943-.819 2.537-.126 5.02.66 2.357 1.36 3.725 2.238 4.263a13.867 13.867 0 0 0 1.98 4.648l-.74 6.979C16.54 39.405 0 44.603 0 63.235a1 1 0 0 0 .29.705.987.987 0 0 0 .7.291h58.595a.985.985 0 0 0 .914-.615 1 1 0 0 0 .076-.38zm-40.55-38.1c-.113-.08-.66-.591-1.32-3.081-.733-2.603-.284-3.18-.265-3.207.02-.027.231-.053.304-.047a.985.985 0 0 0 .874-.381.999.999 0 0 0 .149-.947 8.45 8.45 0 0 1-.403-1.494 10.894 10.894 0 0 1-.033-4.867 10.433 10.433 0 0 1 2.825-4.953 13.53 13.53 0 0 1 2.64-2.211c.774-.548 1.62-.984 2.515-1.295a8.397 8.397 0 0 1 2.283-.432 9.37 9.37 0 0 1 5.71 1.195 6.972 6.972 0 0 1 2.64 2.444.994.994 0 0 0 .811.538c.635.137 1.196.51 1.571 1.042.865 1.103 1.716 3.48.891 8.513-.087.515-.21 1.023-.37 1.52a1.001 1.001 0 0 0 .53 1.245c.15.068.316.096.48.083.1 0 .264 0 .317.053.053.054.455.664-.264 3.194-.72 2.53-1.247 3.002-1.353 3.081a.988.988 0 0 0-.845.837c-.495 3.227-3.049 7.244-6.983 8.678a7.219 7.219 0 0 1-4.903 0c-3.901-1.38-6.449-5.418-6.944-8.685a.998.998 0 0 0-.858-.823zm7.127 11.4a9.188 9.188 0 0 0 6.244 0 12.031 12.031 0 0 0 4.442-2.92l.594 5.537-4.079 9.23-1.386-3.161 1.412-3.194a1.002 1.002 0 0 0-.29-1.195l-3.188-2.543a.986.986 0 0 0-1.227 0l-3.188 2.543a.996.996 0 0 0-.29 1.188l1.412 3.194-1.393 3.154-4.072-9.236.594-5.431a11.759 11.759 0 0 0 4.409 2.828l.006.007zm2.475 8.28l-1.32-2.887 1.98-1.574 1.98 1.574-1.32 2.888a1.001 1.001 0 0 0 0 .81l2.29 5.219-.263.604c-.233.53-.614.98-1.096 1.295a2.957 2.957 0 0 1-3.24 0 2.982 2.982 0 0 1-1.096-1.295l-.27-.61 2.355-5.213a1.001 1.001 0 0 0 0-.81zM2 62.24c.567-16.4 15.008-20.936 18.552-21.805l5.208 11.819a4.912 4.912 0 0 0 1.82 2.166 4.868 4.868 0 0 0 2.707.795 4.868 4.868 0 0 0 2.707-.795 4.912 4.912 0 0 0 1.821-2.166l5.207-11.82c3.545.87 17.985 5.405 18.553 21.806H2z" fill="#fff"/></svg>