<svg width="19" height="34" fill="none" xmlns="http://www.w3.org/2000/svg"><path d="M.027 17.37c.036.117.061.24.108.354.13.307.204.36.413.613l15.215 15.119c.192.156.387.315.615.41.806.332 1.823.028 2.31-.696a1.923 1.923 0 0 0 0-2.1c-.069-.104-.158-.19-.236-.287L4.583 17l13.87-13.78.235-.288c.059-.11.127-.213.175-.327.334-.799.038-1.804-.7-2.295a1.955 1.955 0 0 0-2.113 0c-.103.07-.192.157-.287.236L.548 15.665c-.078.096-.167.183-.236.287a1.887 1.887 0 0 0-.285.68c-.047.242-.023.49 0 .738z" fill="#094295"/></svg>