<svg width="80" height="81" fill="none" xmlns="http://www.w3.org/2000/svg"><path d="M73.698.992a2.455 2.455 0 0 0-1.973-.98c-.782 0-1.5.357-1.974.98a.959.959 0 0 0-.126.22l-6.099 14.646a.994.994 0 0 0-.077.384v58.282a5.494 5.494 0 0 0 5.488 5.488h5.575A5.494 5.494 0 0 0 80 74.524V16.242a.99.99 0 0 0-.077-.384L73.824 1.212a1.003 1.003 0 0 0-.126-.22zm-2.289 1.14a.466.466 0 0 1 .316-.12c.074 0 .203.017.315.12l2.293 5.505h-5.217l2.293-5.506zm6.273 13.547H65.767l2.521-6.054c.021.001.04.012.061.012h6.75c.022 0 .04-.01.061-.012l2.522 6.054zm.318 2v45.167H65.45V17.68H78zM65.45 64.845H78v4.417H65.45v-4.417zm9.062 13.167h-5.575a3.492 3.492 0 0 1-3.488-3.488v-3.262H78v3.262a3.491 3.491 0 0 1-3.488 3.488z" fill="#0F62CA"/><path d="M71.725 51.56c2.628 0 3.825-5.119 3.825-9.875s-1.197-9.875-3.825-9.875-3.825 5.12-3.825 9.875c0 4.756 1.197 9.875 3.825 9.875zm-.016-17.75c.507.142 1.84 2.778 1.84 7.876 0 5.098-1.333 7.734-1.81 7.876-.506-.14-1.84-2.777-1.84-7.876s1.334-7.735 1.81-7.876zM1 80.012h54.694a5.377 5.377 0 0 0 5.371-5.371V5.371A5.378 5.378 0 0 0 55.694 0H1a1 1 0 0 0-1 1v78.012a1 1 0 0 0 1 1zm6.822-40.818H2v-7.928h5.822v7.928zm0 2v7.928H2v-7.928h5.822zm0 9.928v7.928H2v-7.928h5.822zm0-21.856H2v-7.928h5.822v7.928zM2 61.05h5.822v7.928H2V61.05zm5.822-41.712H2V11.41h5.822v7.928zM2 70.978h5.822v7.034H2v-7.034zM59.065 5.371v69.27a3.375 3.375 0 0 1-3.371 3.371H9.822V2h45.872a3.375 3.375 0 0 1 3.371 3.371zM7.822 2v7.41H2V2h5.822z" fill="#0F62CA"/><path d="M20.407 35.805H46.92a1 1 0 0 0 1-1V17.136a1 1 0 0 0-1-1H20.407a1 1 0 0 0-1 1v17.67a1 1 0 0 0 1 1zm1-17.669H45.92v15.67H21.407v-15.67z" fill="#0F62CA"/><path d="M40.186 22.24H27.14a1 1 0 0 0 0 2h13.045a1 1 0 0 0 .001-2zm0 5.463H27.14a1 1 0 0 0 0 2h13.045a1 1 0 0 0 .001-2z" fill="#0F62CA"/></svg>