<svg width="70" height="63" fill="none" xmlns="http://www.w3.org/2000/svg"><path d="M49.678 30.105h8.14L69 7.195H53.671L54.701 1H15.275l1.03 6.196H1l11.183 22.909h8.116a15.303 15.303 0 0 0 3.436 5.898 15.336 15.336 0 0 0 5.662 3.822v8.883h-9.25V62h29.682V48.708h-9.25v-8.883a15.338 15.338 0 0 0 5.662-3.822 15.303 15.303 0 0 0 3.437-5.898zM66.452 8.79l-9.585 19.72h-6.782c0-.168.08-.327.104-.495L53.384 8.79h13.068zM13.157 28.51L3.572 8.79h13.02l3.195 19.225c0 .168.072.335.104.495h-6.734zm8.204-.798L17.159 2.595h35.658l-4.202 25.157a13.79 13.79 0 0 1-4.703 8.243 13.834 13.834 0 0 1-17.848 0 13.79 13.79 0 0 1-4.703-8.243v-.04zM48.24 60.405H21.744V50.302h26.488l.008 10.103zm-9.258-11.697h-7.988v-8.365a15.52 15.52 0 0 0 7.988 0v8.365z" fill="#fff" stroke="#fff" stroke-width=".4"/></svg>