<svg width="13" height="16" fill="none" xmlns="http://www.w3.org/2000/svg"><path d="M10.79 1.94A6.158 6.158 0 0 0 8.75.505 6.123 6.123 0 0 0 1.84 1.94 6.861 6.861 0 0 0 0 6.62a6.86 6.86 0 0 0 1.842 4.681L6.316 16l4.474-4.699a6.86 6.86 0 0 0 1.842-4.68A6.86 6.86 0 0 0 10.79 1.94zm-.509 8.867l-3.965 4.168-3.966-4.168A6.098 6.098 0 0 1 .69 6.62a6.1 6.1 0 0 1 1.66-4.186 5.408 5.408 0 0 1 7.93 0 6.098 6.098 0 0 1 1.662 4.186 6.098 6.098 0 0 1-1.66 4.187z" fill="#565656"/><path d="M6.316 3.369a2.947 2.947 0 1 0 0 5.894 2.947 2.947 0 0 0 0-5.894zm0 5.308a2.36 2.36 0 1 1 0-4.722 2.36 2.36 0 0 1 0 4.722z" fill="#565656"/></svg>