<svg width="22" height="18" fill="none" xmlns="http://www.w3.org/2000/svg"><path fill-rule="evenodd" clip-rule="evenodd" d="M19.75 4.481c.009.196.014.393.014.59C19.764 11.077 15.224 18 6.919 18 4.37 18 1.997 17.25 0 15.96c.353.042.713.063 1.077.063a9.021 9.021 0 0 0 5.606-1.945 4.522 4.522 0 0 1-4.217-3.157 4.52 4.52 0 0 0 2.038-.076 4.538 4.538 0 0 1-3.62-4.457v-.057c.609.34 1.305.545 2.044.568A4.55 4.55 0 0 1 .921 3.117c0-.833.222-1.615.61-2.286a12.789 12.789 0 0 0 9.304 4.75 4.57 4.57 0 0 1-.116-1.036C10.72 2.035 12.74 0 15.232 0c1.299 0 2.47.552 3.295 1.435A8.974 8.974 0 0 0 21.395.332a4.56 4.56 0 0 1-1.988 2.515A8.927 8.927 0 0 0 22 2.132a9.115 9.115 0 0 1-2.25 2.35z" fill="#fff"/></svg>