<svg width="46" height="48" fill="none" xmlns="http://www.w3.org/2000/svg"><path d="M44.948 13.354L23.47.133a.901.901 0 0 0-.942 0L1.052 13.353C.392 13.764 0 14.54 0 15.385v26.251C0 45.165 2.545 48 5.715 48h34.57C43.455 48 46 45.165 46 41.635v-26.25c0-.846-.392-1.623-1.052-2.031zM22.994 2.014l20.68 12.73-16.287 14.584-9.313-.014-15.786-14.57 20.706-12.73zM1.7 41.635v-24.97l14.783 13.657L2.496 44.334a4.859 4.859 0 0 1-.795-2.699zm38.572 4.457H5.703a3.649 3.649 0 0 1-1.91-.518l14.318-14.352 9.252.014L42.145 45.6a3.69 3.69 0 0 1-1.872.49zm4.014-4.457c0 1.022-.294 1.976-.82 2.74L28.99 30.321l15.297-13.697v25.01z" fill="#206CDE"/></svg>