<svg width="15" height="22" fill="none" xmlns="http://www.w3.org/2000/svg"><path d="M13.509 3.92a.38.38 0 0 0-.02-.096c-.003-.012-.006-.024-.012-.035a.37.37 0 0 0-.073-.109L10.434.71a.361.361 0 0 0-.11-.073c-.011-.005-.022-.008-.034-.012a.362.362 0 0 0-.099-.02c-.006 0-.013-.004-.02-.004H.514a.371.371 0 0 0-.371.372v18.57c0 .206.166.372.371.372h1.114v1.114c0 .206.167.372.372.372h12.628a.371.371 0 0 0 .371-.372V5.8a.37.37 0 0 0-.109-.262L13.514 4.16v-.218c0-.008-.005-.015-.005-.023zm-1.263-.348h-1.704V1.868l1.704 1.704zM.886 1.343h8.913v2.6c0 .206.167.372.372.372h2.6V19.17H.885V1.343zm13.37 4.611v14.703H2.372v-.743h10.771a.371.371 0 0 0 .372-.371V5.21l.743.743z" fill="#fff"/><path d="M2 10.257h9.656a.371.371 0 1 0 0-.743H2a.371.371 0 1 0 0 .743zm0 2.229h9.656a.371.371 0 1 0 0-.743H2a.371.371 0 1 0 0 .743zm9.656 2.228a.371.371 0 1 0 0-.742H2a.371.371 0 1 0 0 .742h9.657zM2 8.028h4.456a.371.371 0 1 0 0-.743H2a.371.371 0 1 0 0 .743z" fill="#fff"/></svg>