<svg width="20" height="20" fill="none" xmlns="http://www.w3.org/2000/svg"><path d="M18.434 20H1.565A1.567 1.567 0 0 1 0 18.434V10a.625.625 0 0 1 1.25 0v8.434c0 .174.141.316.315.316h16.87a.316.316 0 0 0 .315-.316V10A.625.625 0 1 1 20 10v8.434c0 .863-.703 1.566-1.566 1.566z" fill="#206CDE"/><path d="M10 14.886a.623.623 0 0 1-.442-.183l-3.41-3.41a.624.624 0 1 1 .885-.883L10 13.378l2.967-2.968a.624.624 0 1 1 .884.884l-3.41 3.41a.623.623 0 0 1-.441.182z" fill="#206CDE"/><path d="M10 14.886a.625.625 0 0 1-.625-.625V.625a.625.625 0 0 1 1.25 0v13.636c0 .346-.28.625-.625.625z" fill="#206CDE"/></svg>