<svg width="128" height="35" fill="none" xmlns="http://www.w3.org/2000/svg"><path d="M56.555 9.895V28.67h4.962v-5.901h2.467c4.64-.027 8.18-1.502 8.18-6.437 0-4.936-3.54-6.437-8.18-6.437h-7.43zm10.514 6.437c0 1.69-1.341 2.145-2.843 2.145h-2.71v-4.291h2.71c1.502 0 2.843.456 2.843 2.146zm6.515 2.95c0 5.23 3.353 9.79 10.058 9.79 6.706 0 10.059-4.56 10.059-9.79 0-5.23-3.353-9.79-10.059-9.79-6.705 0-10.058 4.56-10.058 9.79zm15.02 0c0 3.004-1.716 5.23-4.962 5.23-3.245 0-4.962-2.226-4.962-5.23 0-3.004 1.717-5.23 4.962-5.23 3.246 0 4.962 2.226 4.962 5.23zm6.773.268c0 6.706 5.123 9.522 10.273 9.522 1.985 0 3.836-.402 5.472-1.18v-4.828c-1.073 1.046-2.843 1.636-4.774 1.636-2.924 0-5.874-1.502-5.874-5.15 0-4.077 2.95-5.713 5.927-5.713 1.717 0 3.433.563 4.587 1.53v-4.695c-1.636-.777-3.541-1.18-5.445-1.18-5.069 0-10.166 2.977-10.166 10.058zm17.066-9.655v4.425h5.311v14.35h4.962V14.32H128V9.895h-15.557zm-54.98-4.052V4.55h.59l1.105 1.293h.59l-1.28-1.513 1.142-1.5h-.584l-.954 1.255h-.609V2.83h-.502v3.013h.502zm2.423-1.507c0 1.03.791 1.582 1.607 1.582.823 0 1.607-.552 1.607-1.582s-.784-1.582-1.607-1.582c-.816 0-1.607.553-1.607 1.582zm2.712 0c0 .697-.49 1.105-1.105 1.105s-1.105-.408-1.105-1.105c0-.696.49-1.105 1.105-1.105s1.105.409 1.105 1.105zm1.725 1.507V4.569h1.745v1.274h.502V2.83h-.502v1.274h-1.745V2.83h-.502v3.013h.502zm2.969-1.494c0 1.073.822 1.57 1.613 1.57.377 0 .697-.07.98-.208V5.21c-.252.15-.585.245-.91.245-.591 0-1.181-.346-1.181-1.118 0-.79.609-1.117 1.193-1.117.32 0 .64.094.866.27V3c-.257-.17-.59-.245-.93-.245-.784 0-1.631.496-1.631 1.595zm5.775.866v-1.18c0-.841-.508-1.28-1.312-1.28-.495 0-.91.119-1.148.2v.49a2.766 2.766 0 0 1 1.098-.226c.553 0 .86.301.86.753v.107a4.1 4.1 0 0 0-.835-.094c-.646 0-1.362.238-1.362 1.017 0 .634.527.916 1.061.916.49 0 .873-.15 1.174-.402.088.264.307.365.552.365.126 0 .258-.026.377-.07v-.408a.76.76 0 0 1-.232.044c-.132 0-.233-.05-.233-.232zm-2.184-.238c0-.44.477-.572.916-.572.245 0 .553.044.766.088v.553a1.42 1.42 0 0 1-1.03.44c-.332 0-.652-.158-.652-.51zm4.255-1.683h1.224v2.549h.502V2.83h-2.216c-.056 1.62-.232 2.636-.766 2.636a.596.596 0 0 1-.2-.037v.395c.131.05.25.07.363.07.779 0 .992-1.056 1.093-2.6zm3.909 2.549V3.294h1.105V2.83h-2.718v.464h1.11v2.549h.503zm2.102 0l1.845-2.203v2.203h.502V2.83h-.426l-1.846 2.203V2.83h-.502v3.013h.427zm3.778 0V4.569h1.745v1.274h.502V2.83h-.502v1.274h-1.745V2.83h-.503v3.013h.503zm3.678 0V3.294h1.701V2.83h-2.203v3.013h.502zm1.957-1.507c0 1.03.791 1.582 1.607 1.582.823 0 1.607-.552 1.607-1.582s-.784-1.582-1.607-1.582c-.816 0-1.607.553-1.607 1.582zm2.712 0c0 .697-.49 1.105-1.105 1.105s-1.105-.408-1.105-1.105c0-.696.49-1.105 1.105-1.105s1.105.409 1.105 1.105zm2.924 1.507c.653 0 .973-.34.973-.835a.724.724 0 0 0-.496-.697.718.718 0 0 0 .402-.665c0-.534-.402-.816-.93-.816h-1.65v3.013h1.7zm-1.2-1.306h1.15c.25 0 .52.082.52.44 0 .332-.225.426-.54.426h-1.13v-.866zm0-1.268h1.1c.213 0 .47.088.47.427 0 .308-.207.408-.47.408h-1.1v-.835zm5.386 1.946v-1.18c0-.841-.509-1.28-1.312-1.28-.496 0-.91.119-1.149.2v.49a2.766 2.766 0 0 1 1.099-.226c.552 0 .86.301.86.753v.107a4.098 4.098 0 0 0-.835-.094c-.647 0-1.362.238-1.362 1.017 0 .634.527.916 1.06.916.49 0 .873-.15 1.174-.402.088.264.308.365.553.365.125 0 .257-.026.376-.07v-.408a.758.758 0 0 1-.232.044c-.132 0-.232-.05-.232-.232zm-2.185-.238c0-.44.477-.572.917-.572a4.2 4.2 0 0 1 .766.088v.553a1.42 1.42 0 0 1-1.03.44c-.333 0-.653-.158-.653-.51zm3.489.866l.823-1.055h.847v1.055h.502V2.83h-1.481c-.735 0-1.13.452-1.13.979 0 .42.251.79.722.93l-.873 1.104h.59zm.063-2.034c0-.333.251-.527.672-.527h.935v1.054h-.935c-.421 0-.672-.194-.672-.527zm5.104 2.034V3.294h1.701V2.83h-2.203v3.013h.502zm2.727-2.511V2.83h-.452v4.394h.502V5.39c.219.257.59.527 1.167.527.86 0 1.507-.678 1.507-1.582s-.647-1.582-1.507-1.582c-.577 0-.948.27-1.217.578zm2.222 1.004c0 .69-.477 1.118-1.061 1.118a1.22 1.22 0 0 1-1.111-.741V3.96c.169-.39.571-.741 1.111-.741.584 0 1.061.427 1.061 1.117zm2.388.936l-1.136-2.442h-.534l1.432 3.02-.113.275c-.195.49-.44.735-.779.735a.951.951 0 0 1-.263-.038v.433c.113.032.219.044.326.044.439 0 .822-.276 1.136-1.004l1.482-3.465h-.534l-1.017 2.442zm2.612.571V3.294h1.745v2.549h.502V2.83h-2.749v3.013h.502zm3.678 0V3.294h1.745v2.549h.503V2.83h-2.75v3.013h.502zm5.624-.628v-1.18c0-.841-.508-1.28-1.312-1.28-.495 0-.91.119-1.148.2v.49a2.762 2.762 0 0 1 1.098-.226c.553 0 .86.301.86.753v.107a4.097 4.097 0 0 0-.835-.094c-.646 0-1.362.238-1.362 1.017 0 .634.527.916 1.061.916.49 0 .873-.15 1.174-.402.088.264.308.365.552.365.126 0 .258-.026.377-.07v-.408a.758.758 0 0 1-.232.044c-.132 0-.233-.05-.233-.232zm-2.184-.238c0-.44.477-.572.916-.572.245 0 .553.044.766.088v.553a1.42 1.42 0 0 1-1.029.44c-.333 0-.653-.158-.653-.51z" fill="#262626"/><path stroke="#FC4D5A" d="M.5 8v27m3-29v27m3-29v27m3-29v27m3-28v27"/><path stroke="#5E9EFF" d="M15.5 8v27m3-29v27m3-29v27m3-29v27m3-28v27"/><path stroke="#C7C7C7" d="M30.5 7v27m3-29v27m3-29v27m3-29v27m3-28v27"/></svg>