<svg width="338" height="316" fill="none" xmlns="http://www.w3.org/2000/svg"><path opacity=".15" d="M335.828 88.139L250.722 2.127c-1.494-1.503-3.733-1.503-5.226 0l-38.821 39.062c-15.304-.376-27.622.376-37.701 2.254-10.078-1.878-22.023-2.63-37.701-2.254L92.826 2.127c-1.493-1.503-3.733-1.503-5.226 0L2.12 88.139c-1.493 1.502-1.493 3.756 0 5.258l38.447 38.687c-4.48 24.038-1.12 43.945 11.945 64.227l-20.157 20.282c-4.48 4.507-7.092 10.517-7.092 16.902 0 6.385 2.613 12.395 7.092 16.902 4.48 4.507 10.079 6.761 16.051 7.136l-4.852 4.883c-4.48 4.507-7.093 10.517-7.093 16.902 0 6.385 2.613 12.395 7.093 16.902 4.479 4.507 10.451 7.136 16.797 7.136s12.318-2.629 16.797-7.136l4.853-4.883c0 6.01 2.613 11.644 7.092 16.151 4.48 4.507 10.825 7.136 16.798 7.136 5.972 0 12.318-2.253 16.797-7.136l17.917-18.029 12.318 12.395c4.48 4.507 10.452 7.136 16.798 7.136 6.345 0 12.318-2.629 16.797-7.136 4.479-4.507 6.719-10.517 7.092-16.151l22.024 22.161c4.479 4.507 10.825 7.136 16.797 7.136 5.972 0 12.318-2.254 16.797-7.136 4.48-4.508 6.719-10.517 7.093-16.151l4.852 4.883c4.48 4.507 10.825 7.136 16.798 7.136 5.972 0 12.318-2.254 16.797-7.136a23.908 23.908 0 0 0 0-33.804l-4.852-4.883c5.972 0 11.571-2.629 16.05-7.136 4.48-4.507 7.093-10.517 7.093-16.902 0-6.385-2.613-12.395-7.093-16.902l-21.276-21.785c12.318-21.033 16.424-42.067 13.064-63.1l38.448-38.687c1.12-1.502 1.12-3.756-.374-5.258zM60.351 245.514c-2.986 3.005-7.092 4.883-11.572 4.883-4.479 0-8.585-1.878-11.571-4.883-2.986-3.004-4.853-7.136-4.853-11.643 0-4.507 1.867-8.639 4.853-11.644l19.41-19.531c4.853 6.761 10.825 13.522 17.917 20.658l3.733 3.756-17.917 18.404zm11.571 45.448c-2.986 3.004-7.092 4.882-11.571 4.882-4.48 0-8.585-1.878-11.572-4.882-2.986-3.005-4.852-7.137-4.852-11.644 0-4.507 1.866-8.639 4.852-11.643l35.088-35.307 12.318 12.395 10.825 10.892-17.917 18.029-17.17 17.278zm45.54 11.643c-6.346 6.385-16.797 6.385-23.143 0s-6.346-16.902 0-23.287l17.917-18.029 23.143 23.288-17.917 18.028zm187.758-68.734c0 4.507-1.867 8.639-4.853 11.643-6.345 6.386-16.797 6.386-23.143 0l-45.166-45.823-28.369-28.545c-1.493-1.502-3.733-1.502-5.226 0-1.493 1.502-1.493 3.756 0 5.258l28.369 28.546 45.54 45.823 17.17 17.277c6.346 6.385 6.346 16.902 0 23.287-6.345 6.385-16.797 6.385-23.143 0l-16.797-16.902-71.296-73.992c-1.493-1.503-3.733-1.503-5.226 0-1.493 1.502-1.493 3.756 0 5.258l70.923 73.617c6.345 6.385 6.345 16.902 0 23.287-6.346 6.385-16.798 6.385-23.143 0l-33.969-34.179-42.18-42.067c-1.493-1.503-3.733-1.503-5.226 0-1.493 1.502-1.493 3.756 0 5.258l41.807 42.067c6.346 6.385 6.346 16.902 0 23.287-2.986 3.005-7.092 4.883-11.571 4.883-4.48 0-8.586-1.878-11.572-4.883l-14.931-15.024-47.78-48.076-9.331-9.39-6.346-6.385c-29.489-29.673-38.074-53.711-31.728-86.763v-1.878c0-.376 0-.376-.373-.752 0-.375-.374-.375-.374-.751 0 0 0-.375-.373-.375L9.585 90.017 89.466 9.639l37.328 37.56c.747.75 1.493 1.126 2.24 1.126h.373c7.839-.375 14.558 0 20.53 0-14.184 6.01-24.636 16.151-38.821 30.8l-42.553 43.569c-4.48 4.507-7.092 10.517-7.092 16.902 0 6.385 2.613 12.394 7.092 16.902 4.48 4.507 10.825 7.136 16.797 7.136 5.973 0 12.319-2.254 16.798-7.136l30.235-30.424c4.479.751 8.585 1.503 13.065 1.503 14.931 0 30.235-5.259 45.913-15.4l108.996 109.675c3.36 3.38 4.853 7.512 4.853 12.019zm-26.129-44.321l-81.375-81.505c1.494-1.126 2.987-1.878 4.106-3.004 1.494-1.127 1.867-3.756.747-5.259-1.12-1.502-3.733-1.878-5.226-.75-22.77 17.652-44.793 24.413-65.323 19.53h-1.867c-.373 0-.373 0-.746.376-.373 0-.373.375-.747.375 0 0-.373 0-.373.376l-31.728 31.926c-6.346 6.385-16.798 6.385-23.144 0-2.986-3.005-4.852-7.137-4.852-11.644 0-4.507 1.866-8.638 4.852-11.643l43.301-43.57c27.622-27.794 39.94-37.56 91.079-36.057h.373c.747 0 1.493-.376 2.24-1.127l37.327-37.56 79.881 80.378-37.327 37.56s0 .376-.373.376c0 .375-.374.375-.374.751s-.373.376-.373.751v1.878c4.479 19.156.747 38.687-10.078 57.842z" fill="#fff" stroke="#fff"/></svg>