<svg width="132" height="35" viewBox="0 0 132 35" fill="none" xmlns="http://www.w3.org/2000/svg">
<g clip-path="url(#clip0)">
<path d="M1.06 7.71582H0V35.003H1.06V7.71582Z" fill="#D10A11"/>
<path d="M3.86517 5.7854H2.80518V33.0726H3.86517V5.7854Z" fill="#D10A11"/>
<path d="M6.67377 3.85791H5.61377V31.1451H6.67377V3.85791Z" fill="#D10A11"/>
<path d="M9.47894 1.92749H8.41895V29.2147H9.47894V1.92749Z" fill="#D10A11"/>
<path d="M12.2846 0H11.2246V27.2872H12.2846V0Z" fill="#D10A11"/>
<path d="M15.0927 7.71582H14.0327V35.003H15.0927V7.71582Z" fill="#164193"/>
<path d="M17.8979 5.7854H16.8379V33.0726H17.8979V5.7854Z" fill="#164193"/>
<path d="M20.7031 3.85791H19.6431V31.1451H20.7031V3.85791Z" fill="#164193"/>
<path d="M23.5117 1.92749H22.4517V29.2147H23.5117V1.92749Z" fill="#164193"/>
<path d="M26.3168 0H25.2568V27.2872H26.3168V0Z" fill="#164193"/>
<path d="M29.1078 7.71582H28.0479V35.003H29.1078V7.71582Z" fill="#B1B1B1"/>
<path d="M31.913 5.7854H30.853V33.0726H31.913V5.7854Z" fill="#B1B1B1"/>
<path d="M34.7216 3.85791H33.6616V31.1451H34.7216V3.85791Z" fill="#B1B1B1"/>
<path d="M37.5239 1.92749H36.4668V29.2147H37.5239V1.92749Z" fill="#B1B1B1"/>
<path d="M40.3349 0H39.2749V27.2872H40.3349V0Z" fill="#B1B1B1"/>
<path d="M52.6572 2.92926C52.7449 2.94863 52.8278 2.98559 52.9011 3.03797C52.9674 3.08555 53.0261 3.14301 53.0754 3.20839C53.1242 3.27112 53.1625 3.34161 53.1886 3.41701C53.2177 3.49046 53.2438 3.56685 53.267 3.64325L53.63 5.01539H52.7879L52.4684 3.79603C52.432 3.64099 52.3547 3.49883 52.2448 3.38469C52.1167 3.2817 51.9549 3.23134 51.7918 3.24365H51.2603V5.00658H50.4355V1.06056H51.2603V2.62075H51.7453C51.8088 2.62087 51.8721 2.61397 51.9341 2.60018C51.9987 2.58782 52.0601 2.56179 52.1141 2.52379C52.1771 2.47958 52.2313 2.42376 52.2738 2.35925C52.3274 2.26802 52.3666 2.16889 52.39 2.06543L52.6514 1.05762H53.4616L53.1712 2.19471C53.1311 2.34743 53.0664 2.49238 52.9795 2.62369C52.9025 2.74028 52.7949 2.83286 52.6688 2.89106L52.6572 2.92926Z" fill="#0F265C"/>
<path d="M57.8471 3.03203C57.8498 3.30657 57.8116 3.57995 57.7338 3.84298C57.6644 4.07925 57.5488 4.29904 57.394 4.48938C57.2351 4.67511 57.0365 4.82181 56.8132 4.91836C56.5648 5.02627 56.2965 5.07935 56.0262 5.07409C55.7435 5.08062 55.4622 5.0307 55.1985 4.92718C54.9746 4.83871 54.7753 4.69654 54.6177 4.51289C54.4631 4.3255 54.3493 4.10724 54.2837 3.87236C54.1424 3.33819 54.1424 2.77582 54.2837 2.24165C54.3486 2.00317 54.4602 1.78033 54.6119 1.58643C54.7668 1.39276 54.9662 1.24043 55.1927 1.14276C55.4576 1.02794 55.744 0.972796 56.032 0.981156C56.3185 0.972161 56.6033 1.02839 56.8655 1.1457C57.0846 1.2462 57.2768 1.39833 57.426 1.58937C57.5741 1.78178 57.6818 2.00273 57.7425 2.23871C57.8119 2.4973 57.8471 2.76407 57.8471 3.03203V3.03203ZM56.9526 3.03203C56.9528 2.85417 56.9411 2.6765 56.9178 2.50021C56.8959 2.33803 56.8489 2.18037 56.7784 2.03304C56.7137 1.89739 56.6132 1.78249 56.488 1.70102C56.3509 1.61109 56.1894 1.56691 56.0262 1.57468C55.8589 1.56715 55.6931 1.6101 55.5499 1.69808C55.4275 1.78028 55.3276 1.89247 55.2595 2.02422C55.1856 2.17063 55.1365 2.32855 55.1143 2.4914C55.0859 2.67212 55.0723 2.85491 55.0737 3.03791C55.0531 3.39741 55.1262 3.75608 55.2857 4.07804C55.3649 4.20257 55.4764 4.3027 55.608 4.36747C55.7396 4.43224 55.8863 4.45917 56.032 4.44531C56.1792 4.44914 56.3248 4.41259 56.4531 4.33954C56.5725 4.26754 56.6724 4.16655 56.7435 4.04571C56.8197 3.90628 56.8736 3.75555 56.9032 3.59911C56.9378 3.4161 56.9543 3.23009 56.9526 3.04378V3.03203Z" fill="#0F265C"/>
<path d="M61.1022 5.01515V3.25223H59.5804C59.5804 3.54605 59.5804 3.83987 59.5804 4.13369C59.5804 4.42751 59.5804 4.72133 59.5804 5.01515H58.7324V1.05444H59.5804C59.5804 1.31888 59.5804 1.58332 59.5804 1.84482C59.5804 2.10632 59.5804 2.37076 59.5804 2.6352H61.1022V1.05444H61.9502V5.01515H61.1022Z" fill="#0F265C"/>
<path d="M64.7587 0.975259C64.9474 0.974286 65.1358 0.989029 65.3221 1.01933C65.4841 1.04815 65.6442 1.08741 65.8013 1.13686L65.6822 1.75977C65.5394 1.7185 65.3938 1.68805 65.2466 1.66868C65.1204 1.65198 64.9934 1.64315 64.8662 1.64223C64.711 1.63162 64.5554 1.65709 64.4115 1.71667C64.2675 1.77626 64.1389 1.86839 64.0356 1.986C63.821 2.28742 63.7182 2.65567 63.7452 3.02613C63.7435 3.22356 63.7629 3.4206 63.8033 3.61378C63.8342 3.77052 63.8997 3.91817 63.9949 4.0457C64.0873 4.1619 64.2086 4.25114 64.3463 4.30425C64.5196 4.36619 64.7028 4.39508 64.8865 4.38947H65.0665C65.1391 4.38947 65.2205 4.38946 65.3047 4.36302C65.3889 4.33657 65.476 4.33952 65.5602 4.32482C65.6445 4.31013 65.7287 4.2925 65.8042 4.27193L65.9407 4.85958C65.8508 4.89606 65.7586 4.92649 65.6648 4.95066C65.5631 4.97417 65.4586 4.99767 65.3511 5.0153C65.2426 5.03595 65.1331 5.05066 65.023 5.05938C64.9126 5.05938 64.8081 5.05938 64.7093 5.05938C64.4029 5.06864 64.0978 5.01569 63.812 4.90365C63.5852 4.81344 63.3852 4.66571 63.2312 4.47467C63.0884 4.28573 62.9891 4.06688 62.9407 3.83414C62.8808 3.57411 62.8516 3.30781 62.8536 3.04082C62.855 2.8002 62.8842 2.56057 62.9407 2.32684C62.9924 2.08526 63.0911 1.85652 63.2312 1.65399C63.383 1.44413 63.5821 1.2739 63.812 1.15743C64.1077 1.01807 64.4331 0.955454 64.7587 0.975259V0.975259Z" fill="#0F265C"/>
<path d="M69.3618 5.01515L69.0888 4.11019H67.66L67.3696 5.01515H66.5303L67.8633 1.05444H68.9233L70.2185 5.01515H69.3618ZM68.6299 2.49123L68.4034 1.63034H68.3744L68.1362 2.5118L67.8458 3.52548H68.9204L68.6299 2.49123Z" fill="#0F265C"/>
<path d="M73.3719 5.02103V1.65384H72.4542L72.4367 2.01818C72.4135 2.50592 72.3874 2.93196 72.3554 3.29924C72.3313 3.6192 72.2649 3.93444 72.158 4.23653C72.0704 4.47982 71.92 4.69492 71.7223 4.85943C71.4887 5.03733 71.2155 5.15438 70.9266 5.20026L70.7437 4.61262C70.9228 4.55096 71.0892 4.45633 71.2344 4.33349C71.3549 4.2176 71.443 4.07167 71.49 3.91039C71.5547 3.69038 71.5947 3.46368 71.6091 3.2346C71.6294 2.96134 71.6497 2.61757 71.673 2.20329L71.7398 1.05444H74.2141V5.02691L73.3719 5.02103Z" fill="#0F265C"/>
<path d="M76.1805 5.01517V1.66561H74.9404V1.04858H78.2569V1.66561H77.0198V5.01517H76.1805Z" fill="#0F265C"/>
<path d="M81.5121 1.05444H81.9187H82.3195V5.00928H81.5063V2.32669H81.4831C81.2972 2.62051 81.1143 2.9349 80.9313 3.23754L80.3825 4.14838L79.8423 5.02985H79.0117V1.06032H79.8423C79.8423 1.51868 79.8423 1.97411 79.8423 2.42953C79.8423 2.88495 79.8423 3.34331 79.8423 3.79873H79.8655L80.3331 3.03186C80.4115 2.89083 80.5073 2.73804 80.6235 2.54412C80.7397 2.3502 80.8471 2.1739 80.9633 1.98586L81.2827 1.45992C81.3757 1.29244 81.4541 1.1514 81.5121 1.05444Z" fill="#0F265C"/>
<path d="M85.7349 5.01515V3.25223H84.2132V4.13369C84.2132 4.42751 84.2132 4.72133 84.2132 5.01515H83.3623V1.05444H84.2132C84.2132 1.31888 84.2132 1.58332 84.2132 1.84482V2.6352H85.7349V1.05444H86.5829V5.01515H85.7349Z" fill="#0F265C"/>
<path d="M87.6401 5.01517V1.04858H90.3351V1.65386H88.4794V5.01517H87.6401Z" fill="#0F265C"/>
<path d="M94.5575 3.03202C94.5603 3.30655 94.5221 3.57994 94.4443 3.84297C94.3727 4.07893 94.2563 4.2985 94.1016 4.48937C93.9429 4.6754 93.7442 4.82216 93.5208 4.91835C93.2713 5.02623 93.0021 5.07931 92.7308 5.07408C92.449 5.08061 92.1687 5.03068 91.9061 4.92717C91.6828 4.83758 91.4837 4.69558 91.3252 4.51288C91.1716 4.32532 91.0587 4.10705 90.9942 3.87235C90.8509 3.33844 90.8509 2.77554 90.9942 2.24164C91.0601 2.00362 91.1716 1.781 91.3223 1.58642C91.4775 1.393 91.6768 1.24073 91.9032 1.14275C92.1669 1.02762 92.4524 0.972456 92.7396 0.981145C93.027 0.972209 93.3128 1.02843 93.5759 1.14568C93.7946 1.24696 93.9866 1.39896 94.1364 1.58936C94.2834 1.78249 94.3909 2.0032 94.453 2.2387C94.5224 2.49729 94.5575 2.76406 94.5575 3.03202V3.03202ZM93.6631 3.03202C93.6637 2.85404 93.6511 2.67626 93.6253 2.5002C93.6044 2.33818 93.5583 2.18052 93.4888 2.03303C93.4222 1.89868 93.3221 1.78423 93.1984 1.70101C93.0603 1.61103 92.8978 1.56687 92.7337 1.57467C92.5665 1.56767 92.4008 1.61058 92.2575 1.69807C92.1357 1.78111 92.036 1.8931 91.9671 2.02421C91.891 2.16996 91.8409 2.32809 91.8189 2.49139C91.792 2.67228 91.7784 2.85496 91.7783 3.03789C91.7586 3.39766 91.8327 3.75635 91.9932 4.07802C92.0714 4.2028 92.1823 4.30318 92.3136 4.36801C92.4448 4.43285 92.5913 4.4596 92.7366 4.4453C92.8797 4.45157 93.0216 4.41718 93.1463 4.34603C93.2711 4.27489 93.3736 4.16983 93.4423 4.04276C93.5185 3.90333 93.5724 3.7526 93.6021 3.59616C93.6404 3.41452 93.6608 3.22949 93.6631 3.04377V3.03202Z" fill="#0F265C"/>
<path d="M97.8654 2.9526C97.9832 2.98992 98.0913 3.05313 98.182 3.1377C98.2575 3.20674 98.3195 3.28945 98.365 3.38157C98.4061 3.46283 98.4345 3.55006 98.4492 3.64014C98.4598 3.71411 98.4656 3.7887 98.4666 3.86344C98.4692 4.02572 98.4385 4.18679 98.3766 4.33649C98.3184 4.47443 98.2323 4.59854 98.1239 4.70083C98.0109 4.80607 97.8774 4.88615 97.7319 4.93589C97.5709 4.99044 97.4021 5.01725 97.2323 5.01522H95.4492V1.05451H97.1568C97.4861 1.02908 97.8121 1.13448 98.0658 1.34833C98.1641 1.4488 98.2407 1.56885 98.2907 1.70087C98.3407 1.83289 98.363 1.97399 98.3562 2.1152C98.3563 2.18444 98.3485 2.25345 98.333 2.32088C98.3173 2.39865 98.2909 2.47382 98.2546 2.54418C98.2126 2.62029 98.1609 2.69044 98.1007 2.7528C98.0299 2.8237 97.9473 2.88139 97.8567 2.92321L97.8654 2.9526ZM96.2856 1.65978V2.68228H96.9187C97.0749 2.69252 97.2298 2.64789 97.3572 2.55594C97.4075 2.50985 97.4469 2.45292 97.4726 2.38935C97.4982 2.32578 97.5094 2.25719 97.5053 2.18866C97.5117 2.04718 97.4627 1.90886 97.3688 1.80375C97.3069 1.75097 97.2352 1.71109 97.158 1.68638C97.0807 1.66167 96.9994 1.65263 96.9187 1.65978H96.2856ZM96.2856 3.25817V4.40995H96.9971C97.0833 4.41855 97.1703 4.40802 97.2521 4.3791C97.3338 4.35017 97.4084 4.30355 97.4705 4.24247C97.5669 4.12577 97.6175 3.97727 97.6128 3.82525C97.6146 3.67657 97.5606 3.53272 97.4618 3.42271C97.3999 3.36412 97.3266 3.31923 97.2466 3.2909C97.1666 3.26257 97.0816 3.25142 96.9971 3.25817H96.2856Z" fill="#0F265C"/>
<path d="M101.835 5.01515L101.562 4.11019H100.134L99.8432 5.01515H99.0039L100.337 1.05444H101.397L102.692 5.01515H101.835ZM101.101 2.49123L100.874 1.63034H100.845L100.607 2.5118L100.317 3.52548H101.394L101.101 2.49123Z" fill="#0F265C"/>
<path d="M104.161 3.20825C103.964 3.13743 103.796 3.00065 103.685 2.82041C103.579 2.64343 103.524 2.43988 103.525 2.23276C103.525 2.08009 103.548 1.92827 103.595 1.78322C103.64 1.6437 103.716 1.51619 103.816 1.41007C103.927 1.29783 104.061 1.21157 104.208 1.15738C104.394 1.08777 104.591 1.05485 104.789 1.06042H106.418V5.02701H105.576V3.43156H105.149C104.995 3.42378 104.843 3.46488 104.713 3.54909C104.579 3.66214 104.486 3.81724 104.449 3.98982C104.449 4.01332 104.423 4.07503 104.394 4.17786L104.298 4.50988C104.266 4.62741 104.234 4.73906 104.202 4.8419C104.17 4.94474 104.156 5.0035 104.15 5.02701H103.313L103.627 3.92224C103.668 3.76263 103.735 3.61146 103.828 3.47563C103.913 3.36011 104.032 3.27396 104.167 3.22882L104.161 3.20825ZM104.373 2.26803C104.368 2.36907 104.387 2.47 104.429 2.56185C104.461 2.63065 104.51 2.69021 104.571 2.7352C104.628 2.77924 104.693 2.81122 104.763 2.82923C104.831 2.84657 104.901 2.85545 104.972 2.85567H105.57V1.68038H104.972C104.815 1.67391 104.661 1.72741 104.542 1.83023C104.486 1.885 104.443 1.95093 104.414 2.02379C104.385 2.09665 104.371 2.17483 104.373 2.25333V2.26803Z" fill="#0F265C"/>
<path d="M109.052 5.01517V1.04858H111.747V1.65386H109.888V5.01517H109.052Z" fill="#0F265C"/>
<path d="M115.356 2.26519C115.357 2.41183 115.334 2.55763 115.29 2.6971C115.244 2.84403 115.168 2.97932 115.066 3.09376C114.957 3.21902 114.822 3.31919 114.671 3.38759C114.488 3.46657 114.29 3.50465 114.09 3.49924H113.379V5.02123H112.528V1.05464H114.015C114.381 1.02549 114.744 1.14373 115.025 1.38372C115.138 1.49956 115.225 1.63768 115.282 1.78939C115.339 1.94109 115.364 2.1031 115.356 2.26519ZM113.37 1.65404V2.91453H113.933C114.007 2.91576 114.081 2.90484 114.151 2.88221C114.221 2.86308 114.285 2.82673 114.337 2.77644C114.394 2.72201 114.438 2.65588 114.468 2.58251C114.501 2.48838 114.517 2.38871 114.514 2.28869C114.524 2.1998 114.513 2.10992 114.483 2.02591C114.452 1.9419 114.404 1.86597 114.34 1.80389C114.217 1.70391 114.062 1.65181 113.904 1.65698L113.37 1.65404Z" fill="#0F265C"/>
<path d="M117.575 3.46088L117.912 2.50303L118.435 1.04861H119.263L117.924 4.46282C117.86 4.6596 117.74 4.83257 117.578 4.95937C117.423 5.0596 117.242 5.10981 117.058 5.10334C116.971 5.10334 116.864 5.09747 116.736 5.08572C116.576 5.06785 116.419 5.0344 116.266 4.98582L116.396 4.39818C116.507 4.42168 116.597 4.43931 116.666 4.44812C116.73 4.45686 116.794 4.46177 116.858 4.46282C116.926 4.46513 116.993 4.44889 117.053 4.4158C117.119 4.36754 117.167 4.2982 117.189 4.21894L117.279 3.97801H117.07L115.815 1.03979H116.652L117.207 2.49421L117.549 3.45207L117.575 3.46088Z" fill="#0F265C"/>
<path d="M122.402 5.01517V1.67149H120.88V5.01517H120.032V1.04858H123.256V5.01517H122.402Z" fill="#0F265C"/>
<path d="M126.712 5.01517V1.67149H125.19V5.01517H124.339V1.04858H127.56V5.01517H126.712Z" fill="#0F265C"/>
<path d="M131.135 5.01515L130.862 4.11019H129.43L129.14 5.01515H128.3L129.636 1.05444H130.693L131.988 5.01515H131.135ZM130.4 2.49123L130.171 1.63034H130.141L129.903 2.5118L129.613 3.52548H130.69L130.4 2.49123Z" fill="#0F265C"/>
<path d="M111.974 15.5753V8.71753H110.106V15.5753H111.974Z" fill="#0F265C"/>
<path d="M61.3697 20.7288C62.4722 20.7525 63.562 20.4862 64.5323 19.9561C65.1706 19.5943 65.7147 19.0842 66.1199 18.4678C66.5251 17.8515 66.7797 17.1466 66.8628 16.4111C66.9459 15.6757 66.8551 14.9308 66.5978 14.2378C66.3406 13.5449 65.9243 12.9237 65.3832 12.4254C64.3243 11.4796 62.9501 10.9755 61.5382 11.0151C59.3746 11.0151 57.214 11.0151 55.0504 11.0151H54.7861V20.7259L61.3697 20.7288ZM56.6912 12.9426C56.7871 12.9426 56.8829 12.9279 56.9816 12.9279H61.3145C62.0594 12.9075 62.7988 13.0614 63.4752 13.3774C63.991 13.6413 64.4126 14.0615 64.6811 14.5794C64.9496 15.0973 65.0516 15.687 64.973 16.2664C64.8943 16.8457 64.6389 17.3858 64.2423 17.8113C63.8458 18.2368 63.3278 18.5264 62.7608 18.6398C62.2787 18.7519 61.7859 18.81 61.2913 18.8131C59.8654 18.8337 58.4395 18.8131 57.0136 18.8131H56.697L56.6912 12.9426Z" fill="#0F265C"/>
<path d="M66.3386 10.2601C64.9317 9.21172 63.2212 8.66414 61.4743 8.70285C57.8587 8.70285 54.2431 8.70285 50.6275 8.70285H50.3516V10.6362H50.6797C54.2769 10.6362 57.8751 10.6362 61.4743 10.6362C62.9757 10.5856 64.4395 11.1175 65.5661 12.1229C66.9804 13.4157 67.5438 15.0376 67.1518 16.9181C66.7452 18.8573 65.4819 20.0767 63.6669 20.7378C62.8847 21.0007 62.0628 21.122 61.239 21.0962H54.8006V27.3664H58.8257V25.4389H56.697V23.0413H57.0136C58.4221 23.0413 59.8334 23.0619 61.2419 23.0413C61.939 23.0337 62.6343 22.9698 63.3213 22.8503C64.7345 22.5998 66.039 21.9204 67.0618 20.9023C67.7858 20.1985 68.3484 19.3425 68.7098 18.3947C69.0712 17.4469 69.2226 16.4304 69.1534 15.4169C69.0842 14.4034 68.796 13.4177 68.3091 12.5292C67.8223 11.6407 67.1486 10.8711 66.3357 10.2748L66.3386 10.2601Z" fill="#0F265C"/>
<path d="M50.3516 29.6668H58.8344V27.804H50.3516V29.6668Z" fill="#0F265C"/>
<path d="M50.3545 25.4654V27.3782H54.3999V11.0388H50.3516V12.9398H52.5006V25.4654H50.3545Z" fill="#0F265C"/>
<path d="M103.859 10.6507C102.57 10.5411 101.273 10.7316 100.067 11.2075C98.8615 11.6834 97.7796 12.4321 96.9042 13.3964C96.0288 14.3606 95.3831 15.5148 95.0166 16.7704C94.6501 18.0261 94.5725 19.35 94.7898 20.6406C95.0976 22.6894 96.156 24.546 97.7549 25.8413C99.9213 27.6277 102.422 28.1067 105.14 27.6042C106.418 27.3704 107.646 26.9088 108.764 26.2409C109.345 25.8854 109.9 25.4652 110.478 25.0656L109.209 23.5965C108.953 23.7934 108.724 23.9873 108.48 24.1606C107.051 25.1864 105.362 25.7758 103.612 25.8589C102.759 25.9237 101.9 25.8158 101.088 25.5413C100.276 25.2669 99.5258 24.8315 98.8817 24.2605C97.7885 23.3147 97.0319 22.0325 96.7277 20.6102C96.4235 19.1878 96.5884 17.7038 97.1973 16.3854C97.8062 15.067 98.8255 13.9868 100.099 13.3103C101.372 12.6339 102.83 12.3984 104.248 12.6399C105.285 12.7979 106.254 13.2549 107.039 13.9562C107.276 14.1561 107.468 14.4041 107.603 14.684C107.739 14.9639 107.815 15.2695 107.826 15.581H109.711V15.5487C109.725 15.0192 109.629 14.4926 109.429 14.0032C109.229 13.5137 108.929 13.0722 108.549 12.7075C107.254 11.3941 105.64 10.8006 103.859 10.6507Z" fill="#0F265C"/>
<path d="M80.6677 10.6184C78.986 10.6173 77.3418 11.1214 75.9436 12.0668C74.5454 13.0122 73.4562 14.3564 72.814 15.9289C72.1718 17.5014 72.0055 19.2314 72.3363 20.8996C72.6671 22.5678 73.48 24.0991 74.672 25.2993C75.864 26.4995 77.3814 27.3146 79.0318 27.6413C80.6822 27.9679 82.3913 27.7914 83.9424 27.1341C85.4936 26.4768 86.8169 25.3683 87.7446 23.9492C88.6723 22.53 89.1627 20.8642 89.1535 19.1627C89.145 16.8921 88.2469 14.7176 86.6562 13.1159C85.0655 11.5142 82.9119 10.6161 80.6677 10.6184V10.6184ZM80.6328 25.8677C79.3295 25.8608 78.0575 25.4633 76.9774 24.7255C75.8972 23.9877 75.0573 22.9426 74.5637 21.7222C74.0702 20.5018 73.945 19.1608 74.2041 17.8686C74.4632 16.5763 75.095 15.3906 76.0196 14.4613C76.9442 13.532 78.1202 12.9007 79.3991 12.6471C80.6781 12.3934 82.0026 12.5289 83.2056 13.0363C84.4085 13.5437 85.4359 14.4003 86.158 15.498C86.8801 16.5957 87.2646 17.8853 87.2629 19.2039C87.2617 20.0824 87.0892 20.952 86.755 21.7629C86.4209 22.5737 85.9318 23.3098 85.3158 23.929C84.6998 24.5481 83.969 25.0381 83.1654 25.3708C82.3618 25.7035 81.5011 25.8724 80.6328 25.8677V25.8677Z" fill="#0F265C"/>
<path d="M122.681 27.3751H126.712V25.4564H124.572V12.9484H127.583V15.5752H129.462V11.0269H122.681V27.3751Z" fill="#0F265C"/>
<path d="M113.185 8.72632V15.5753H115.095V10.6538H129.88V15.5753H131.748V8.72632H113.185Z" fill="#0F265C"/>
<path d="M118.209 29.67H126.712V27.7983H118.209V29.67Z" fill="#0F265C"/>
<path d="M80.676 8.30617C78.5459 8.30268 76.4626 8.93879 74.6901 10.134C72.9175 11.3291 71.5353 13.0296 70.7186 15.02C69.9018 17.0104 69.6872 19.2013 70.102 21.3152C70.5167 23.4291 71.5421 25.3709 73.0483 26.8949C74.5545 28.4188 76.4738 29.4562 78.5632 29.8758C80.6525 30.2954 82.818 30.0783 84.7853 29.2519C86.7526 28.4256 88.4333 27.0272 89.6146 25.2338C90.7959 23.4404 91.4246 21.3327 91.4212 19.1776C91.4166 16.2957 90.283 13.5332 88.2689 11.4955C86.2548 9.45769 83.5244 8.31083 80.676 8.30617ZM80.6615 28.1832C78.9092 28.1832 77.1962 27.6575 75.7392 26.6726C74.2822 25.6877 73.1465 24.2878 72.4758 22.6499C71.8051 21.012 71.6295 19.2097 71.9711 17.4709C72.3128 15.732 73.1563 14.1347 74.3952 12.8809C75.6341 11.6271 77.2126 10.773 78.9311 10.4268C80.6497 10.0806 82.4311 10.2577 84.0502 10.9357C85.6693 11.6138 87.0533 12.7623 88.0272 14.2362C89.0012 15.71 89.5213 17.4429 89.5219 19.2158C89.5112 21.5902 88.5744 23.8644 86.9151 25.5437C85.2558 27.223 83.0084 28.1716 80.6615 28.1832V28.1832Z" fill="#0F265C"/>
<path d="M118.209 25.474V27.3838H122.275V11.0415H115.473V15.5752H117.343V12.9484H120.358V25.474H118.209Z" fill="#0F265C"/>
<path d="M109.781 26.0353C108.279 27.0846 106.559 27.7721 104.754 28.0451C103.24 28.3007 101.687 28.1746 100.232 27.6778C98.4451 27.0486 96.9048 25.8553 95.8382 24.2737C94.7717 22.6921 94.2353 20.8058 94.308 18.8925C94.396 16.72 95.2561 14.6525 96.7303 13.0703C98.2045 11.4881 100.194 10.4975 102.332 10.2806C103.765 10.1253 105.212 10.3522 106.531 10.9388C107.815 11.5059 108.913 12.3051 109.613 13.5832C109.613 13.6067 109.653 13.6214 109.688 13.6508V8.72633H107.818V9.31397C107.796 9.31703 107.773 9.31703 107.751 9.31397C107.71 9.29928 107.667 9.28459 107.629 9.26696C106.564 8.78517 105.428 8.48248 104.266 8.37081C101.89 8.12293 99.4994 8.68341 97.473 9.96367C95.4466 11.2439 93.8996 13.1709 93.0767 15.4401C92.2432 17.7325 92.1952 20.2416 92.9405 22.5648C93.6857 24.8881 95.1809 26.8905 97.186 28.2508C99.6777 29.9432 102.434 30.4133 105.37 29.8785C106.997 29.5873 108.562 29.0106 109.993 28.1744C110.693 27.763 111.338 27.2665 112.026 26.7963L110.725 25.3272C110.4 25.5623 110.101 25.815 109.781 26.0353Z" fill="#0F265C"/>
</g>
<defs>
<clipPath id="clip0">
<rect width="132" height="35" fill="white"/>
</clipPath>
</defs>
</svg>
