<svg width="55" height="50" viewBox="0 0 55 50" fill="none" xmlns="http://www.w3.org/2000/svg">
<path d="M52.0936 0.593262H0.149902V2.83392H52.0936V0.593262Z" fill="white"/>
<path d="M20.4757 11.7969H0.149902V14.0376H20.4757V11.7969Z" fill="white"/>
<path d="M15.9589 23.0005H0.149902V25.2413H15.9589V23.0005Z" fill="white"/>
<path d="M15.9589 34.2041H0.149902V36.4448H15.9589V34.2041Z" fill="white"/>
<path d="M38.5434 40.9263C29.8281 40.9263 22.7344 33.8882 22.7344 25.2412C22.7344 16.592 29.8281 9.55615 38.5434 9.55615C47.2587 9.55615 54.3524 16.592 54.3524 25.2412C54.3524 33.8882 47.2587 40.9263 38.5434 40.9263ZM38.5434 11.7969C31.0702 11.7969 24.9928 17.8267 24.9928 25.2412C24.9928 32.6558 31.0702 38.6855 38.5434 38.6855C46.0165 38.6855 52.094 32.6558 52.094 25.2412C52.094 17.8267 46.0165 11.7969 38.5434 11.7969Z" fill="white"/>
<path d="M27.8706 34.2446L13.7393 48.2651L15.3362 49.8496L29.4675 35.829L27.8706 34.2446Z" fill="white"/>
<path d="M45.9173 19.6426C45.7025 19.6728 45.5045 19.7728 45.3552 19.9263C42.1392 23.0673 39.7322 25.6593 36.6628 28.6912L33.1697 25.8152C33.0729 25.7351 32.9608 25.6743 32.8399 25.6365C32.7189 25.5986 32.5915 25.5844 32.4649 25.5947C32.3383 25.6049 32.215 25.6394 32.1021 25.6962C31.9892 25.753 31.8889 25.8309 31.807 25.9256C31.7251 26.0202 31.6632 26.1296 31.6248 26.2477C31.5864 26.3657 31.5722 26.4899 31.5832 26.6133C31.5942 26.7366 31.63 26.8567 31.6887 26.9665C31.7473 27.0763 31.8277 27.1737 31.9251 27.2532L36.1007 30.6966C36.286 30.8483 36.5231 30.9264 36.7649 30.9156C37.0066 30.9047 37.2353 30.8056 37.4055 30.6379C40.8516 27.2723 43.3141 24.5737 46.7203 21.2469C46.8661 21.109 46.9634 20.9298 46.9984 20.7349C47.0334 20.5399 47.0043 20.3391 46.9153 20.1612C46.8262 19.9833 46.6818 19.8374 46.5026 19.7443C46.3234 19.6511 46.1185 19.6155 45.9173 19.6426Z" fill="white" stroke="#206CDE" stroke-width="0.3"/>
</svg>
