<svg width="56" height="61" viewBox="0 0 56 61" fill="none" xmlns="http://www.w3.org/2000/svg">
<path d="M56 61H0V16H56V61ZM2 59H54V18H2V59Z" fill="white"/>
<path d="M38 30H18C15.794 30 14 28.206 14 26C14 23.794 15.794 22 18 22H38C40.206 22 42 23.794 42 26C42 28.206 40.206 30 38 30ZM18 24C16.897 24 16 24.897 16 26C16 27.103 16.897 28 18 28H38C39.103 28 40 27.103 40 26C40 24.897 39.103 24 38 24H18Z" fill="white"/>
<path d="M54 17H52V2H4V17H2V0H54V17Z" fill="white"/>
<path d="M48 12H46V9H10V12H8V7H48V12Z" fill="white"/>
<path d="M50 16H48V13H8V16H6V11H50V16Z" fill="white"/>
<path d="M46 8H44V6H12V8H10V4H46V8Z" fill="white"/>
</svg>
