<svg width="50" height="64" viewBox="0 0 50 64" fill="none" xmlns="http://www.w3.org/2000/svg">
<path d="M20.0431 7.78667V22.4C20.0431 23.04 20.4741 23.4667 21.1207 23.4667H28.9871C29.6336 23.4667 30.0647 23.04 30.0647 22.4V7.78667C38.0388 9.70667 44.0733 16.2133 45.3664 24.32H47.5216C46.2285 15.04 39.1164 7.57333 29.9569 5.54667V1.06667C29.9569 0.426667 29.5259 0 28.8793 0H21.0129C20.3664 0 19.9353 0.426667 19.9353 1.06667V5.86667C19.9353 5.76 19.9353 5.76 19.9353 5.65333C10.7759 7.68 3.77155 15.1467 2.37069 24.4267H4.52586C5.92673 16.32 12.069 9.81333 20.0431 7.78667ZM22.1983 2.13333H27.9095V21.3333H22.1983V2.13333ZM47.8448 38.08H50V42.3467C50 45.0133 47.9526 47.1467 45.3664 47.4667V51.4133C45.3664 58.3467 39.6552 64 32.6509 64H17.3491C10.3448 64 4.63362 58.3467 4.63362 51.4133V47.4667C2.04742 47.1467 0 45.0133 0 42.3467V38.08H2.15517V42.3467C2.15517 43.84 3.23276 45.12 4.63362 45.3333V37.9733H6.78879V46.4V51.3067C6.78879 57.0667 11.5302 61.76 17.3491 61.76H32.7586C38.5776 61.76 43.319 57.0667 43.319 51.3067V46.4V37.9733H45.4741V45.3333C46.875 45.0133 47.9526 43.84 47.9526 42.3467V38.08H47.8448ZM48.9224 26.56H1.07759C0.431035 26.56 0 26.9867 0 27.6267V34.88C0 35.52 0.431035 35.9467 1.07759 35.9467H48.9224C49.569 35.9467 50 35.52 50 34.88V27.6267C50 26.9867 49.569 26.56 48.9224 26.56ZM47.8448 33.8133H2.15517V28.6933H47.8448V33.8133Z" fill="white"/>
</svg>
