<svg width="66" height="58" viewBox="0 0 66 58" fill="none" xmlns="http://www.w3.org/2000/svg">
<path d="M22.9595 1C17.0176 1 11.6208 2.13417 7.65985 4.03191C3.81259 5.8738 1.20104 8.50972 1.05686 11.6269C1.05686 11.6554 1.02843 11.6554 1.02843 11.6838V11.7122C1 11.7691 1 11.8544 1 11.9386V20.6963C1 20.7531 1 20.7816 1 20.8384V30.1626C1 30.191 1 30.2479 1 30.2753V38.8623C1 42.0943 3.66942 44.8135 7.63142 46.7417C11.6218 48.6404 17.0186 49.7736 22.9605 49.7736C25.2005 49.7736 27.3531 49.603 29.3909 49.2913C33.1234 53.9955 38.8928 57 45.3526 57C56.6345 57 65.7921 47.818 65.7921 36.5392C65.7921 25.2309 56.6345 16.0489 45.3526 16.0489H44.8652V11.9386C44.8937 11.8544 44.8652 11.7691 44.8652 11.7122C44.8652 11.6838 44.8652 11.6838 44.8652 11.6554C44.8368 11.6554 44.8368 11.6269 44.8368 11.5985C44.6652 8.5087 42.0527 5.87279 38.2348 4.0309C34.2414 2.13418 28.9015 1 22.9595 1ZM22.9595 2.61546C28.673 2.61546 33.8403 3.74964 37.5149 5.50725C41.1033 7.23542 43.1696 9.50377 43.2559 11.7985C43.2559 11.8259 43.2559 11.8554 43.2559 11.8828C43.2559 11.9112 43.2559 11.9112 43.2559 11.9397C43.2559 13.5836 42.2222 15.2559 40.2991 16.7008C40.2991 16.7292 40.2707 16.7008 40.2707 16.7008C37.8013 17.3526 35.5339 18.4289 33.5245 19.8464C30.4236 20.7247 26.8352 21.2639 22.9595 21.2639C17.2186 21.2639 12.0229 20.1581 8.34726 18.3721C4.90209 16.7292 2.86524 14.5746 2.63475 12.3925V11.9386C2.63475 11.8544 2.60632 11.7975 2.60632 11.7406C2.72106 9.47433 4.75994 7.23441 8.34726 5.50624C12.0219 3.74964 17.2176 2.61546 22.9595 2.61546ZM43.2559 16.0763V16.1616H43.1696C43.198 16.1332 43.2274 16.1057 43.2559 16.0763ZM2.63475 16.1057C3.78314 17.5506 5.53365 18.827 7.65883 19.8464C11.6198 21.7451 17.0176 22.8793 22.9585 22.8793C25.7153 22.8793 28.3552 22.6519 30.7962 22.1706C28.6436 24.3811 26.9784 27.0454 26.0016 30.0205C24.9974 30.1057 23.9637 30.1626 22.9311 30.1626C17.1891 30.1626 12.0219 29.0569 8.34726 27.2718C4.67363 25.5152 2.63475 23.19 2.63475 20.8384C2.63475 20.81 2.63475 20.7815 2.63475 20.7531V16.1057ZM45.3506 17.6643C55.7724 17.6643 64.1828 26.1092 64.1828 36.5392C64.1828 46.9681 55.7724 55.413 45.3506 55.413C34.9592 55.413 26.5469 46.9681 26.5469 36.5392C26.5479 26.1092 34.9592 17.6643 45.3506 17.6643ZM2.63475 25.0329C3.78314 26.4778 5.53365 27.7247 7.6304 28.7451C11.5914 30.6439 16.9891 31.7496 22.9311 31.7496C23.8206 31.7496 24.6532 31.7212 25.5142 31.6643C25.1416 33.2229 24.9405 34.8658 24.9405 36.5392C24.9405 37.5596 24.9984 38.5801 25.1416 39.5426C24.4237 39.5995 23.6774 39.6279 22.9311 39.6279C17.1891 39.6279 12.0219 38.4948 8.34726 36.7372C4.67363 34.9806 2.63475 32.6279 2.63475 30.2753C2.63475 30.2479 2.63475 30.2185 2.63475 30.2185V25.0329ZM2.63475 34.4698C3.78314 35.9157 5.53365 37.1626 7.6304 38.182C11.5914 40.0808 16.9891 41.215 22.9311 41.215C23.7921 41.215 24.5963 41.215 25.4279 41.1571C26.0016 43.5666 26.9784 45.8329 28.3268 47.818C26.6047 48.0444 24.8248 48.1855 22.9585 48.1855C17.2176 48.1855 12.0219 47.0808 8.34624 45.2947C4.67261 43.5381 2.63374 41.214 2.63374 38.8613V34.4698H2.63475Z" fill="white" stroke="white" stroke-width="0.4"/>
</svg>
