<svg width="58" height="63" viewBox="0 0 58 63" fill="none" xmlns="http://www.w3.org/2000/svg">
<path d="M28.9489 0.583206C28.8487 0.609986 28.7561 0.659819 28.6785 0.728727C20.8575 7.19386 11.7933 12.1247 1.89105 15.0106C1.76484 15.0466 1.65208 15.119 1.56697 15.2189C1.48186 15.3188 1.42819 15.4416 1.4127 15.5719C1.23506 17.0866 1.14233 18.6433 1.14233 20.2077C1.14233 37.9706 12.8206 57.4942 28.9281 61.7643C29.0372 61.7925 29.1517 61.7925 29.2609 61.7643C45.3683 57.4942 57.0466 37.9706 57.0466 20.2077C57.0466 18.6433 56.9539 17.0866 56.7763 15.5719C56.7608 15.4416 56.7071 15.3188 56.622 15.2189C56.5369 15.119 56.4241 15.0466 56.2979 15.0106C46.3957 12.1247 37.3314 7.19386 29.5104 0.728727C29.4339 0.663683 29.3436 0.616813 29.2464 0.591611C29.1491 0.566409 29.0474 0.563528 28.9489 0.583206ZM29.0945 2.0592C36.8317 8.37082 45.7335 13.2263 55.466 16.1332C55.6092 17.4717 55.7156 18.8291 55.7156 20.2077C55.7156 37.3178 44.2883 56.2658 29.0945 60.4131C13.9006 56.2658 2.47339 37.3178 2.47339 20.2077C2.47339 18.8291 2.57979 17.4717 2.72296 16.1332C12.4555 13.2263 21.3572 8.37082 29.0945 2.0592Z" fill="white" stroke="white" stroke-width="0.8"/>
<circle cx="28.7491" cy="29.0005" r="13" stroke="white" stroke-width="2"/>
<path d="M34.8263 25.007C34.6453 25.0311 34.4785 25.1108 34.3528 25.2333C31.6438 27.7389 29.6162 29.8064 27.0308 32.2249L24.0885 29.9308C24.0069 29.8668 23.9125 29.8184 23.8106 29.7882C23.7087 29.758 23.6014 29.7467 23.4947 29.7548C23.3881 29.763 23.2842 29.7905 23.1891 29.8358C23.0941 29.8811 23.0096 29.9433 22.9406 30.0188C22.8716 30.0943 22.8194 30.1816 22.7871 30.2757C22.7547 30.3699 22.7428 30.469 22.7521 30.5674C22.7613 30.6658 22.7915 30.7615 22.8409 30.8491C22.8903 30.9367 22.958 31.0144 23.04 31.0778L26.5573 33.8245C26.7134 33.9455 26.9131 34.0079 27.1168 33.9992C27.3204 33.9905 27.5131 33.9115 27.6564 33.7777C30.5592 31.093 32.6335 28.9405 35.5027 26.2867C35.6254 26.1768 35.7074 26.0338 35.7369 25.8783C35.7664 25.7228 35.7419 25.5626 35.6668 25.4207C35.5918 25.2788 35.4702 25.1624 35.3192 25.0881C35.1683 25.0138 34.9957 24.9854 34.8263 25.007Z" fill="white" stroke="white" stroke-width="0.3"/>
</svg>
