<svg width="54" height="62" viewBox="0 0 54 62" fill="none" xmlns="http://www.w3.org/2000/svg">
<path d="M0.404297 9.561V60.7524C0.404263 60.8838 0.430104 61.0138 0.480347 61.1352C0.530589 61.2565 0.604248 61.3668 0.697113 61.4596C0.789978 61.5525 0.900231 61.6261 1.02157 61.6764C1.14291 61.7266 1.27297 61.7525 1.4043 61.7524H52.5957C52.727 61.7525 52.8571 61.7266 52.9784 61.6764C53.0998 61.6261 53.21 61.5525 53.3029 61.4596C53.3957 61.3668 53.4694 61.2565 53.5196 61.1352C53.5699 61.0138 53.5957 60.8838 53.5957 60.7524V9.561C53.5957 9.42967 53.5699 9.29961 53.5196 9.17827C53.4694 9.05693 53.3957 8.94668 53.3029 8.85382C53.21 8.76095 53.0998 8.68729 52.9784 8.63705C52.8571 8.58681 52.727 8.56096 52.5957 8.561H42.2393V1.24756C42.2393 0.982342 42.1339 0.727987 41.9464 0.540451C41.7588 0.352915 41.5045 0.247559 41.2393 0.247559C40.974 0.247559 40.7197 0.352915 40.5322 0.540451C40.3446 0.727987 40.2393 0.982342 40.2393 1.24756V8.561H13.7607V1.24756C13.7607 0.982342 13.6554 0.727987 13.4678 0.540451C13.2803 0.352915 13.026 0.247559 12.7607 0.247559C12.4955 0.247559 12.2412 0.352915 12.0536 0.540451C11.8661 0.727987 11.7607 0.982342 11.7607 1.24756V8.561H1.4043C1.27297 8.56096 1.14291 8.58681 1.02157 8.63705C0.900231 8.68729 0.789978 8.76095 0.697113 8.85382C0.604248 8.94668 0.530589 9.05693 0.480347 9.17827C0.430104 9.29961 0.404263 9.42967 0.404297 9.561ZM2.4043 59.7524V19.749H51.5957V59.7524L2.4043 59.7524ZM51.5957 10.561V17.749H2.4043V10.561H51.5957Z" fill="white"/>
<path d="M27 24.9331C24.4588 24.9331 21.9746 25.6867 19.8617 27.0985C17.7487 28.5103 16.1019 30.517 15.1294 32.8648C14.1569 35.2126 13.9025 37.796 14.3983 40.2884C14.894 42.7808 16.1177 45.0702 17.9146 46.8671C19.7116 48.664 22.001 49.8877 24.4934 50.3835C26.9857 50.8792 29.5692 50.6248 31.917 49.6523C34.2647 48.6798 36.2714 47.033 37.6832 44.9201C39.0951 42.8071 39.8486 40.323 39.8486 37.7817C39.8448 34.3752 38.4899 31.1093 36.0812 28.7006C33.6724 26.2918 30.4065 24.9369 27 24.9331ZM27 48.6304C24.8543 48.6304 22.7569 47.9941 20.9728 46.8021C19.1888 45.61 17.7983 43.9157 16.9772 41.9333C16.1561 39.951 15.9412 37.7697 16.3598 35.6653C16.7784 33.5609 17.8117 31.6278 19.3289 30.1106C20.8461 28.5934 22.7791 27.5602 24.8835 27.1416C26.988 26.723 29.1693 26.9378 31.1516 27.7589C33.1339 28.58 34.8282 29.9705 36.0203 31.7546C37.2124 33.5386 37.8486 35.6361 37.8486 37.7817C37.8455 40.658 36.7015 43.4155 34.6676 45.4494C32.6338 47.4832 29.8763 48.6272 27 48.6304V48.6304Z" fill="white"/>
<path d="M30.7266 32.6416L28 35.3677V30.2285C28 29.9633 27.8946 29.7089 27.7071 29.5214C27.5196 29.3339 27.2652 29.2285 27 29.2285C26.7348 29.2285 26.4804 29.3339 26.2929 29.5214C26.1054 29.7089 26 29.9633 26 30.2285V37.7817C26 37.9795 26.0586 38.1728 26.1685 38.3373C26.2784 38.5017 26.4346 38.6299 26.6173 38.7056C26.8 38.7813 27.0011 38.801 27.195 38.7625C27.389 38.7239 27.5672 38.6286 27.707 38.4887L32.1406 34.0556C32.3281 33.8681 32.4335 33.6138 32.4335 33.3486C32.4335 33.0834 32.3281 32.8291 32.1406 32.6416C31.9531 32.4541 31.6987 32.3487 31.4336 32.3487C31.1684 32.3487 30.914 32.4541 30.7265 32.6416L30.7266 32.6416Z" fill="white"/>
</svg>
