<svg width="64" height="60" viewBox="0 0 64 60" fill="none" xmlns="http://www.w3.org/2000/svg">
<rect x="1" y="1" width="62" height="58" rx="4" stroke="white" stroke-width="2"/>
<path d="M10.7071 17.2929L12.2875 18.8734L15.9522 14.3689C16.3008 13.9405 16.9306 13.8758 17.359 14.2243C17.7874 14.5729 17.8522 15.2027 17.5036 15.6311L13.1397 20.9951C12.7656 21.4549 12.076 21.4902 11.6569 21.0711L9.29289 18.7071C8.90237 18.3166 8.90237 17.6835 9.29289 17.2929C9.68342 16.9024 10.3166 16.9024 10.7071 17.2929ZM10.7071 29.2929L12.2875 30.8734L15.9522 26.3689C16.3008 25.9405 16.9306 25.8758 17.359 26.2243C17.7874 26.5729 17.8522 27.2027 17.5036 27.6311L13.1397 32.9951C12.7656 33.4549 12.076 33.4902 11.6569 33.0711L9.29289 30.7071C8.90237 30.3166 8.90237 29.6835 9.29289 29.2929C9.68342 28.9024 10.3166 28.9024 10.7071 29.2929ZM10.7071 41.2929L12.2875 42.8734L15.9522 38.3689C16.3008 37.9405 16.9306 37.8758 17.359 38.2243C17.7874 38.5729 17.8522 39.2027 17.5036 39.6311L13.1397 44.9951C12.7656 45.4549 12.076 45.4902 11.6569 45.0711L9.29289 42.7071C8.90237 42.3166 8.90237 41.6835 9.29289 41.2929C9.68342 40.9024 10.3166 40.9024 10.7071 41.2929ZM23.864 31.5C23.3117 31.5 22.864 31.0523 22.864 30.5C22.864 29.9477 23.3117 29.5 23.864 29.5H53.864C54.4162 29.5 54.864 29.9477 54.864 30.5C54.864 31.0523 54.4162 31.5 53.864 31.5H23.864ZM23.864 43.5C23.3117 43.5 22.864 43.0523 22.864 42.5C22.864 41.9477 23.3117 41.5 23.864 41.5H53.864C54.4162 41.5 54.864 41.9477 54.864 42.5C54.864 43.0523 54.4162 43.5 53.864 43.5H23.864ZM23.864 19.5C23.3117 19.5 22.864 19.0523 22.864 18.5C22.864 17.9477 23.3117 17.5 23.864 17.5H53.864C54.4162 17.5 54.864 17.9477 54.864 18.5C54.864 19.0523 54.4162 19.5 53.864 19.5H23.864Z" fill="white"/>
</svg>
