<svg width="56" height="62" viewBox="0 0 56 62" fill="none" xmlns="http://www.w3.org/2000/svg">
<path fill-rule="evenodd" clip-rule="evenodd" d="M49.9525 34.7599V16.7947C49.9623 16.701 49.958 16.6057 49.9393 16.5123C49.9051 16.3417 49.8242 16.1843 49.7061 16.0573C49.6976 16.048 49.689 16.0389 49.6801 16.03L33.9279 0.277788C33.919 0.268955 33.9099 0.26031 33.9007 0.251856C33.7736 0.13355 33.6161 0.0525947 33.4454 0.0183504C33.351 -0.00058185 33.2548 -0.00479439 33.1602 0.00538679H0.939311C0.69019 0.00538679 0.451272 0.104349 0.275117 0.280504C0.0989621 0.456659 0 0.695577 0 0.944697V57.3033C0 57.5524 0.0989621 57.7914 0.275117 57.9675C0.451272 58.1437 0.69019 58.2426 0.939311 58.2426H27.6345C27.8836 58.2426 28.1226 58.1437 28.2987 57.9675C28.4749 57.7914 28.5738 57.5524 28.5738 57.3033C28.5738 57.0542 28.4749 56.8153 28.2987 56.6391C28.1226 56.463 27.8836 56.364 27.6345 56.364H1.87862V1.88401H32.3213V16.6876C32.3213 16.9367 32.4203 17.1757 32.5964 17.3518C32.7726 17.528 33.0115 17.6269 33.2606 17.6269H48.0739V34.7599C48.0739 35.009 48.1729 35.2479 48.349 35.4241C48.5252 35.6002 48.7641 35.6992 49.0132 35.6992C49.2623 35.6992 49.5013 35.6002 49.6774 35.4241C49.8536 35.2479 49.9525 35.009 49.9525 34.7599ZM34.2093 15.7483H46.7397L34.1999 3.20851L34.2093 15.7483ZM53.0342 50.7283C53.0342 55.8489 48.8831 60 43.7625 60C38.6418 60 34.4907 55.8489 34.4907 50.7283C34.4907 45.6076 38.6418 41.4565 43.7625 41.4565C48.8831 41.4565 53.0342 45.6076 53.0342 50.7283ZM55.0342 50.7283C55.0342 56.9535 49.9877 62 43.7625 62C37.5372 62 32.4907 56.9535 32.4907 50.7283C32.4907 44.5031 37.5372 39.4565 43.7625 39.4565C49.9877 39.4565 55.0342 44.5031 55.0342 50.7283ZM21.5898 25H9.58984V23H21.5898V25ZM9.58984 30H30.5898V28H9.58984V30ZM27.5898 35H9.58984V33H27.5898V35ZM42.5 45V51.5V52.5H43.5H49.5V50.5H44.5V45H42.5Z" fill="white"/>
</svg>
