<svg width="54" height="61" viewBox="0 0 54 61" fill="none" xmlns="http://www.w3.org/2000/svg">
<path d="M53.3445 50.6172V55.1261C53.3423 56.4707 52.8073 57.7597 51.8565 58.7105C50.9057 59.6613 49.6168 60.1964 48.2723 60.1985H19.6345C19.421 60.1985 19.2162 60.1137 19.0652 59.9627C18.9142 59.8117 18.8294 59.6069 18.8294 59.3934C18.8294 59.1798 18.9142 58.9751 19.0652 58.8241C19.2162 58.6731 19.421 58.5882 19.6345 58.5882H48.2723C49.1898 58.5861 50.0691 58.2207 50.7179 57.5718C51.3667 56.923 51.7321 56.0436 51.7342 55.1261V51.4223H16.7683V55.2388C16.7683 55.8896 16.6401 56.534 16.3911 57.1353C16.1421 57.7365 15.7771 58.2828 15.3169 58.743C14.8567 59.2032 14.3105 59.5682 13.7092 59.8173C13.108 60.0663 12.4636 60.1945 11.8129 60.1945C11.1621 60.1945 10.5177 60.0663 9.9165 59.8173C9.31528 59.5682 8.769 59.2032 8.30884 58.743C7.84868 58.2828 7.48367 57.7365 7.23463 57.1353C6.9856 56.534 6.85742 55.8896 6.85742 55.2388V7.89549C6.85742 7.68195 6.94225 7.47715 7.09323 7.32616C7.24422 7.17516 7.449 7.09033 7.66253 7.09033H47.4994C47.7129 7.09033 47.9177 7.17516 48.0687 7.32616C48.2197 7.47715 48.3045 7.68195 48.3045 7.89549V45.3997C48.3045 45.6133 48.2197 45.8181 48.0687 45.9691C47.9177 46.1201 47.7129 46.2049 47.4994 46.2049C47.2858 46.2049 47.0811 46.1201 46.9301 45.9691C46.7791 45.8181 46.6943 45.6133 46.6943 45.3997V8.70065H8.46764V55.2388C8.46764 56.126 8.82009 56.977 9.44744 57.6044C10.0748 58.2317 10.9257 58.5842 11.8129 58.5842C12.7001 58.5842 13.551 58.2317 14.1783 57.6044C14.8057 56.977 15.1581 56.126 15.1581 55.2388V50.6172C15.1581 50.4036 15.2429 50.1988 15.3939 50.0478C15.5449 49.8968 15.7497 49.812 15.9632 49.812H52.5394C52.7529 49.812 52.9577 49.8968 53.1087 50.0478C53.2596 50.1988 53.3445 50.4036 53.3445 50.6172ZM16.9696 19.9729H27.9996C28.2131 19.9729 28.4179 19.888 28.5689 19.737C28.7199 19.586 28.8047 19.3812 28.8047 19.1677C28.8047 18.9542 28.7199 18.7494 28.5689 18.5984C28.4179 18.4474 28.2131 18.3625 27.9996 18.3625H16.9696C16.7561 18.3625 16.5513 18.4474 16.4003 18.5984C16.2493 18.7494 16.1645 18.9542 16.1645 19.1677C16.1645 19.3812 16.2493 19.586 16.4003 19.737C16.5513 19.888 16.7561 19.9729 16.9696 19.9729ZM38.7639 27.7024C38.7639 27.4888 38.6791 27.284 38.5281 27.133C38.3771 26.982 38.1723 26.8972 37.9588 26.8972H16.9696C16.7561 26.8972 16.5513 26.982 16.4003 27.133C16.2493 27.284 16.1645 27.4888 16.1645 27.7024C16.1645 27.9159 16.2493 28.1207 16.4003 28.2717C16.5513 28.4227 16.7561 28.5075 16.9696 28.5075H37.9588C38.1669 28.5077 38.3669 28.4273 38.517 28.2832C38.6671 28.1391 38.7556 27.9425 38.7639 27.7346V27.7024ZM16.9696 35.4319C16.7561 35.4319 16.5513 35.5167 16.4003 35.6677C16.2493 35.8187 16.1645 36.0235 16.1645 36.237C16.1645 36.4506 16.2493 36.6554 16.4003 36.8064C16.5513 36.9574 16.7561 37.0422 16.9696 37.0422H35.1087C35.3223 37.0422 35.527 36.9574 35.678 36.8064C35.829 36.6554 35.9138 36.4506 35.9138 36.237C35.9138 36.0235 35.829 35.8187 35.678 35.6677C35.527 35.5167 35.3223 35.4319 35.1087 35.4319H16.9696Z" fill="white"/>
<path d="M3.50903 4.71336V52.0568C3.50903 52.0568 3.61414 52.4447 4.24477 52.4447C4.87541 52.4447 5.11925 52.0568 5.11925 52.0568V5.51852H43.3459C43.9039 4.85904 43.9195 4.50648 43.3459 3.9082H4.31414C4.10061 3.9082 3.89583 3.99303 3.74485 4.14403C3.59386 4.29503 3.50903 4.49982 3.50903 4.71336Z" fill="white"/>
<path d="M0.145996 1.35154V48.6948C0.145996 48.6948 0.251102 49.0828 0.881736 49.0828C1.51237 49.0828 1.75622 48.6948 1.75622 48.6948V2.1567H39.9828C40.5408 1.49722 40.5564 1.14466 39.9828 0.546387H0.951106C0.737577 0.546387 0.532796 0.631215 0.381808 0.782211C0.230821 0.933208 0.145996 1.138 0.145996 1.35154Z" fill="white"/>
</svg>
