<svg width="53" height="60" viewBox="0 0 53 60" fill="none" xmlns="http://www.w3.org/2000/svg">
<path d="M53.0001 49.9069V54.4011C52.998 55.7413 52.4649 57.0261 51.5177 57.9738C50.5705 58.9215 49.2864 59.4549 47.9469 59.457H19.4159C19.2032 59.457 18.9992 59.3724 18.8488 59.2219C18.6983 59.0714 18.6138 58.8673 18.6138 58.6545C18.6138 58.4416 18.6983 58.2375 18.8488 58.087C18.9992 57.9365 19.2032 57.8519 19.4159 57.8519H47.9469C48.8609 57.8498 49.737 57.4856 50.3834 56.8389C51.0297 56.1922 51.3938 55.3157 51.3959 54.4011V50.7095H16.5604V54.5134C16.5604 55.1621 16.4327 55.8044 16.1846 56.4037C15.9365 57.003 15.5729 57.5475 15.1144 58.0062C14.656 58.4649 14.1118 58.8287 13.5128 59.077C12.9138 59.3252 12.2718 59.453 11.6235 59.453C10.9752 59.453 10.3332 59.3252 9.73419 59.077C9.13521 58.8287 8.59097 58.4649 8.13253 58.0062C7.67409 57.5475 7.31043 57.003 7.06233 56.4037C6.81422 55.8044 6.68652 55.1621 6.68652 54.5134V7.32499C6.68652 7.11214 6.77103 6.90802 6.92146 6.75751C7.07188 6.60701 7.2759 6.52246 7.48863 6.52246H47.1768C47.3896 6.52246 47.5936 6.60701 47.744 6.75751C47.8944 6.90802 47.9789 7.11214 47.9789 7.32499V44.7066C47.9789 44.9194 47.8944 45.1236 47.744 45.2741C47.5936 45.4246 47.3896 45.5091 47.1768 45.5091C46.9641 45.5091 46.7601 45.4246 46.6097 45.2741C46.4592 45.1236 46.3747 44.9194 46.3747 44.7066V8.12751H8.29074V54.5134C8.29074 55.3978 8.64186 56.2459 9.26688 56.8713C9.89189 57.4966 10.7396 57.8479 11.6235 57.8479C12.5074 57.8479 13.3551 57.4966 13.9801 56.8713C14.6051 56.2459 14.9562 55.3978 14.9562 54.5134V49.9069C14.9562 49.6941 15.0407 49.49 15.1912 49.3395C15.3416 49.189 15.5456 49.1044 15.7583 49.1044H52.198C52.4107 49.1044 52.6148 49.189 52.7652 49.3395C52.9156 49.49 53.0001 49.6941 53.0001 49.9069ZM16.761 19.3629H27.7498C27.9626 19.3629 28.1666 19.2783 28.317 19.1278C28.4674 18.9773 28.5519 18.7732 28.5519 18.5603C28.5519 18.3475 28.4674 18.1434 28.317 17.9929C28.1666 17.8424 27.9626 17.7578 27.7498 17.7578H16.761C16.5482 17.7578 16.3442 17.8424 16.1938 17.9929C16.0434 18.1434 15.9589 18.3475 15.9589 18.5603C15.9589 18.7732 16.0434 18.9773 16.1938 19.1278C16.3442 19.2783 16.5482 19.3629 16.761 19.3629ZM38.474 27.0671C38.474 26.8542 38.3895 26.6501 38.239 26.4996C38.0886 26.3491 37.8846 26.2646 37.6719 26.2646H16.761C16.5482 26.2646 16.3442 26.3491 16.1938 26.4996C16.0434 26.6501 15.9589 26.8542 15.9589 27.0671C15.9589 27.2799 16.0434 27.4841 16.1938 27.6346C16.3442 27.7851 16.5482 27.8696 16.761 27.8696H37.6719C37.8792 27.8698 38.0785 27.7897 38.228 27.646C38.3775 27.5024 38.4657 27.3064 38.474 27.0992V27.0671ZM16.761 34.7713C16.5482 34.7713 16.3442 34.8559 16.1938 35.0064C16.0434 35.1569 15.9589 35.361 15.9589 35.5739C15.9589 35.7867 16.0434 35.9908 16.1938 36.1413C16.3442 36.2918 16.5482 36.3764 16.761 36.3764H34.8324C35.0452 36.3764 35.2492 36.2918 35.3996 36.1413C35.55 35.9908 35.6345 35.7867 35.6345 35.5739C35.6345 35.361 35.55 35.1569 35.3996 35.0064C35.2492 34.8559 35.0452 34.7713 34.8324 34.7713H16.761Z" fill="white"/>
<path d="M3.35059 4.1536V51.3421C3.35059 51.3421 3.4553 51.7287 4.08358 51.7287C4.71186 51.7287 4.9548 51.3421 4.9548 51.3421V4.95612H43.0388C43.5947 4.2988 43.6103 3.94739 43.0388 3.35107H4.15269C3.93996 3.35107 3.73594 3.43563 3.58552 3.58613C3.43509 3.73663 3.35059 3.94076 3.35059 4.1536Z" fill="white"/>
<path d="M0 0.802525V47.991C0 47.991 0.104714 48.3777 0.732995 48.3777C1.36128 48.3777 1.60421 47.991 1.60421 47.991V1.60505H39.6882C40.2441 0.947725 40.2597 0.596321 39.6882 0H0.802106C0.589374 0 0.385356 0.0845509 0.234932 0.235053C0.0845083 0.385556 0 0.589682 0 0.802525Z" fill="white"/>
<rect x="16.125" y="21.7803" width="19.2673" height="1.46599" rx="0.732995" fill="white"/>
<rect x="16.125" y="30.7856" width="19.2673" height="1.46599" rx="0.732995" fill="white"/>
</svg>
