<svg width="53" height="69" viewBox="0 0 53 69" fill="none" xmlns="http://www.w3.org/2000/svg">
<path d="M26.5972 9.03125C17.2994 9.03125 9.73438 16.5769 9.73438 25.8543C9.73438 35.1317 17.2994 42.6782 26.5972 42.6782C35.8949 42.6782 43.4592 35.1317 43.4592 25.8543C43.4592 16.577 35.8949 9.03125 26.5972 9.03125ZM25.7692 16.5386C23.8377 16.5877 21.9978 16.803 20.3012 17.1683C20.9354 15.3991 21.7537 13.9142 22.6943 12.8154C23.6284 11.7242 24.6726 11.0251 25.7692 10.7895V16.5386ZM19.7353 19.0123C21.5655 18.539 23.6075 18.2518 25.7692 18.1923V25.0285H18.9143C18.9739 22.8725 19.2617 20.8371 19.7353 19.0123ZM17.8889 19.5758C17.523 21.2675 17.3078 23.1021 17.2586 25.0285H11.4957C11.732 23.9356 12.4321 22.8947 13.5252 21.9633C14.6265 21.025 16.115 20.2086 17.8889 19.5758ZM11.4957 26.6817H17.2586C17.3078 28.6082 17.523 30.4423 17.8889 32.1346C16.1151 31.5021 14.6265 30.6857 13.5253 29.7473C12.4321 28.8158 11.732 27.7746 11.4957 26.6817ZM19.736 32.6979C19.2617 30.8731 18.9739 28.8378 18.9143 26.6817H25.7692V33.5179C23.6074 33.4584 21.5655 33.1712 19.736 32.6979ZM25.7692 35.1709V40.92C24.6726 40.6844 23.6284 39.9855 22.6943 38.8943C21.7537 37.7956 20.9354 36.3106 20.3012 34.5411C21.9983 34.9064 23.8377 35.1218 25.7692 35.1709ZM27.4251 40.92V35.1709C29.3558 35.1218 31.1944 34.9064 32.8901 34.5412C32.2563 36.3107 31.4385 37.7957 30.4985 38.8944C29.5649 39.9855 28.5213 40.6844 27.4251 40.92ZM33.4559 32.6986C31.6265 33.1713 29.586 33.4584 27.4251 33.5179V26.6817H34.277C34.2173 28.8378 33.9296 30.8738 33.4559 32.6986ZM35.3023 32.1354C35.6682 30.443 35.8835 28.6083 35.9326 26.6817H41.6978C41.4616 27.775 40.7611 28.8163 39.6675 29.7479C38.5657 30.6864 37.0766 31.5029 35.3023 32.1354ZM35.9326 25.0285C35.8835 23.102 35.6683 21.2672 35.3023 19.5749C37.0766 20.2073 38.5657 21.0236 39.6675 21.962C40.7611 22.8936 41.4616 23.9349 41.6978 25.0285H35.9326ZM33.4559 19.0116C33.9296 20.8364 34.2173 22.8718 34.277 25.0285H27.4251V18.1923C29.586 18.2518 31.6265 18.5389 33.4559 19.0116ZM32.8901 17.1683C31.1943 16.8031 29.3557 16.5883 27.4251 16.5387V10.7895C28.5213 11.0251 29.5649 11.7242 30.4985 12.8154C31.4385 13.9141 32.2563 15.3991 32.8901 17.1683ZM18.3821 17.6593C15.8621 18.4191 13.7526 19.5314 12.2448 20.8921C13.7678 16.52 17.2382 13.0575 21.6211 11.5372C20.2578 13.0415 19.1434 15.146 18.3821 17.6593ZM18.3821 34.0509C19.1435 36.5644 20.2586 38.669 21.6216 40.1733C17.2387 38.6536 13.7682 35.1902 12.245 30.8184C13.7525 32.1789 15.8624 33.2906 18.3821 34.0509ZM34.8099 34.0517C37.3303 33.2918 39.4405 32.1788 40.9489 30.8177C39.4258 35.1904 35.9551 38.6543 31.5714 40.174C32.9346 38.6696 34.0485 36.5645 34.8099 34.0517ZM34.8099 17.6586C34.0485 15.1451 32.934 13.0404 31.571 11.5361C35.9549 13.0557 39.4258 16.519 40.9489 20.8923C39.4407 19.5314 37.33 18.419 34.8099 17.6586Z" fill="white" stroke="white" stroke-width="0.5"/>
<path d="M48.8841 0.75H4.30745C2.34671 0.75 0.75 2.34129 0.75 4.2997V64.2026C0.75 66.1602 2.34667 67.7523 4.30745 67.7523H48.8841C50.8449 67.7523 52.4415 66.1602 52.4415 64.2026V4.2997C52.4415 2.34209 50.8449 0.75 48.8841 0.75ZM50.7856 64.2018C50.7856 65.2464 49.9325 66.0983 48.8841 66.0983H4.30745C3.259 66.0983 2.40591 65.2464 2.40591 64.2018V4.2997C2.40591 3.25514 3.259 2.40321 4.30745 2.40321H48.8841C49.9326 2.40321 50.7856 3.25443 50.7856 4.2997V64.2018Z" fill="white" stroke="white" stroke-width="0.5"/>
<path d="M40.2078 52.167V51.917H39.9578H13.2354H12.9854V52.167V53.3202V53.5702H13.2354H39.9578H40.2078V53.3202V52.167Z" fill="white" stroke="white" stroke-width="0.5"/>
<path d="M31.056 57.0659V56.8159H30.806H22.3887H22.1387V57.0659V58.2191V58.4691H22.3887H30.806H31.056V58.2191V57.0659Z" fill="white" stroke="white" stroke-width="0.5"/>
</svg>
