<svg width="64" height="53" viewBox="0 0 64 53" fill="none" xmlns="http://www.w3.org/2000/svg">
<path d="M9.7413 52.1147H54.5986C59.3142 52.1147 63.2004 48.227 63.2004 43.4654C63.2004 43.2775 63.1369 43.1055 63.0113 42.9798C62.8857 42.8542 62.7136 42.7907 62.5257 42.7907H37.1303C36.9425 42.7907 36.7704 42.8542 36.6448 42.9798C36.5191 43.1055 36.4557 43.2775 36.4557 43.4654V46.2559H27.7893V43.4654C27.7893 43.2775 27.7258 43.1055 27.6002 42.9798C27.4745 42.8542 27.3024 42.7907 27.1146 42.7907H1.76667C1.57882 42.7907 1.40673 42.8542 1.28111 42.9798C1.15548 43.1055 1.09199 43.2775 1.09199 43.4654C1.09199 48.2277 4.97898 52.1147 9.7413 52.1147ZM9.69383 50.8128C5.93271 50.8128 2.79171 47.8766 2.45707 44.1876H26.4399V46.978C26.4399 47.1659 26.5034 47.338 26.629 47.4636C26.7547 47.5892 26.9267 47.6527 27.1146 47.6527H37.1778C37.3657 47.6527 37.5377 47.5892 37.6634 47.4636C37.789 47.338 37.8525 47.1659 37.8525 46.978V44.1876H61.7881C61.4547 47.9201 58.314 50.8128 54.5511 50.8128H9.69383Z" fill="white" stroke="white" stroke-width="0.4"/>
<path d="M27.1141 47.6058H37.1773C37.3474 47.6058 37.5119 47.5387 37.6346 47.4324C37.7579 47.3255 37.852 47.1668 37.852 46.9786V44.1881H58.2056C58.3935 44.1881 58.5656 44.1246 58.6912 43.999C58.8168 43.8734 58.8803 43.7013 58.8803 43.5134V3.02323C58.8803 1.86848 57.9363 0.924512 56.7816 0.924512H7.55726C6.40251 0.924512 5.45854 1.86848 5.45854 3.02323V43.466C5.45854 43.6538 5.52203 43.8259 5.64766 43.9515C5.77328 44.0772 5.94537 44.1407 6.13322 44.1407H26.4394V46.9311C26.4394 47.119 26.5029 47.2911 26.6285 47.4167C26.7541 47.5423 26.9262 47.6058 27.1141 47.6058ZM36.4551 46.2565H27.8362V43.5134C27.8362 43.3256 27.7727 43.1535 27.6471 43.0279C27.5215 42.9023 27.3494 42.8388 27.1615 42.8388H6.8079V3.02323C6.8079 2.61154 7.14557 2.27387 7.55726 2.27387H56.7341C57.1458 2.27387 57.4835 2.61154 57.4835 3.02323V42.7913H37.1298C36.942 42.7913 36.7699 42.8548 36.6443 42.9804C36.5186 43.106 36.4551 43.2781 36.4551 43.466V46.2565Z" fill="white" stroke="white" stroke-width="0.4"/>
<path d="M52.1958 37.6332L52.1997 37.6137V37.5937V7.40629C52.1997 7.23849 52.1424 7.08333 52.028 6.96977C51.9137 6.85634 51.7581 6.8 51.5903 6.8H12.4091C12.2413 6.8 12.0857 6.85634 11.9714 6.96977C11.857 7.08333 11.7997 7.23849 11.7997 7.40629V37.5937C11.7997 37.7615 11.857 37.9167 11.9714 38.0302C12.0857 38.1437 12.2413 38.2 12.4091 38.2H51.5493C51.9212 38.2 52.1429 37.8956 52.1958 37.6332ZM50.9809 8.01258V36.9874H13.0185V8.01258H50.9809Z" fill="white" stroke="white" stroke-width="0.4"/>
</svg>
