<svg width="64" height="70" viewBox="0 0 64 70" fill="none" xmlns="http://www.w3.org/2000/svg">
<path d="M32.0885 38.3449V38.4449H32.1885H56.2218H56.3234L56.3218 38.3433C56.1072 25.2401 45.3881 14.635 32.1894 14.5104L32.0885 14.5094V14.6104V38.3449Z" stroke="white" stroke-width="0.2"/>
<mask id="path-2-outside-1" maskUnits="userSpaceOnUse" x="6.67969" y="13.6572" width="50" height="50" fill="black">
<rect fill="white" x="6.67969" y="13.6572" width="50" height="50"/>
<path d="M28.8768 62.6882C30.03 62.8329 31.1992 62.89 32.3692 62.8702C32.504 62.8679 32.6387 62.8641 32.7735 62.8603C33.3248 62.842 33.8761 62.8116 34.4251 62.756C34.6127 62.7377 34.7957 62.7065 34.9787 62.6753C35.1127 62.6525 35.2475 62.6304 35.3823 62.6113L35.7383 62.5626C36.1028 62.5139 36.4673 62.4652 36.8233 62.3928C37.0898 62.3388 37.3486 62.268 37.609 62.1979L37.6281 62.1934L38.001 62.0944C38.001 62.0944 38.001 62.0944 38.0018 62.0944L38.4015 61.997L38.4076 61.9954C38.6526 61.9368 38.8976 61.8789 39.1365 61.8059C39.4934 61.6962 39.841 61.563 40.1886 61.4305L40.266 61.4016L40.4941 61.3148C40.6136 61.2699 40.7346 61.228 40.8556 61.1861C41.0217 61.1283 41.1879 61.0719 41.3487 61.0049C41.5815 60.9075 41.8096 60.8024 42.0386 60.6928C42.2491 60.5915 42.462 60.4849 42.6795 60.3761C42.6986 60.3662 42.7162 60.3578 42.7354 60.3487L42.7844 60.3243L42.8387 60.2969C42.8992 60.2672 42.9605 60.239 43.021 60.2109C43.057 60.1941 43.0922 60.1766 43.1282 60.1599C43.2377 60.1096 43.3472 60.0601 43.4528 60.0038C43.4842 59.987 43.5149 59.9672 43.5463 59.9497C43.7943 59.8142 44.0417 59.6718 44.2798 59.5272C44.4575 59.4191 44.6297 59.3102 44.8013 59.2013C44.8112 59.1952 44.8212 59.1891 44.8311 59.1831C44.8908 59.1458 44.9498 59.1092 45.0095 59.0711C45.057 59.0407 45.106 59.0133 45.1543 58.9844C45.181 58.9684 45.2079 58.9516 45.2346 58.9364C45.3036 58.896 45.3732 58.8564 45.4399 58.8123C45.6803 58.6516 45.9284 58.4781 46.191 58.2847C46.2829 58.2169 46.3901 58.1317 46.4866 58.0586C46.6688 57.9208 46.8457 57.7891 47.0463 57.6292C47.0471 57.6284 47.0471 57.6284 47.0478 57.6284C47.0478 57.6284 47.0486 57.6277 47.0494 57.6277C47.0785 57.6048 47.1091 57.5835 47.139 57.5614C47.1573 57.5477 47.1757 57.534 47.1949 57.5203C47.2278 57.4967 47.2607 57.4739 47.2929 57.448C47.5524 57.2371 47.8113 57.0155 48.0724 56.7826C48.348 56.5367 48.626 56.2786 48.9116 56.0007C48.9139 55.9984 48.9238 55.9893 48.9307 55.9832C48.9445 55.971 48.9568 55.9596 48.9721 55.9466C48.9782 55.9413 48.9866 55.9337 48.9889 55.9314C49.2676 55.6581 49.5387 55.3779 49.8029 55.0932C49.943 54.9424 50.0755 54.7864 50.211 54.6318C50.3297 54.4971 50.4522 54.3646 50.5678 54.2275C50.7202 54.0463 50.8649 53.8606 51.0119 53.6763C51.1038 53.5606 51.1988 53.4472 51.2883 53.3299C51.4354 53.1373 51.5755 52.9409 51.7164 52.7445C51.7983 52.6303 51.8833 52.5183 51.9629 52.4026C52.1008 52.2032 52.2317 51.9999 52.3634 51.7974C52.417 51.7151 52.4714 51.6337 52.5234 51.5515C52.5456 51.5157 52.5701 51.4814 52.5924 51.4456C52.7172 51.2462 52.8351 51.0429 52.9538 50.8404C53.0288 50.7125 53.1054 50.5846 53.1774 50.4559C53.2853 50.2633 53.3872 50.0669 53.4898 49.8712C53.5648 49.7273 53.6414 49.5842 53.7133 49.4388C53.8068 49.2515 53.8948 49.0611 53.9829 48.8716C54.0556 48.7147 54.1299 48.5579 54.1988 48.3988C54.2792 48.2153 54.355 48.0295 54.4316 47.8445C54.5005 47.6755 54.5694 47.5072 54.6345 47.3367C54.7034 47.1563 54.7685 46.9751 54.8328 46.7931C54.8964 46.6142 54.9592 46.4345 55.0181 46.2541C55.0763 46.0759 55.1314 45.897 55.1858 45.7181C55.2425 45.5308 55.2976 45.3428 55.3497 45.1532C55.3979 44.9766 55.4438 44.7999 55.4883 44.6218C55.5373 44.4277 55.584 44.232 55.6276 44.0363C55.6674 43.8605 55.7042 43.6838 55.7402 43.5064C55.78 43.3062 55.8175 43.1052 55.8527 42.9035C55.8834 42.7276 55.9125 42.5517 55.9393 42.3751C55.9699 42.1703 55.9975 41.9647 56.0235 41.7592C56.0457 41.5826 56.0664 41.4059 56.0847 41.2293C56.1062 41.0207 56.1238 40.8113 56.1399 40.6012C56.1537 40.4246 56.1667 40.2487 56.1759 40.0713C56.1797 39.9936 56.1812 39.9152 56.1851 39.8376H31.4396C31.0262 39.8376 30.6908 39.5041 30.6908 39.093V14.6572C26.0873 14.8963 21.6255 16.4464 17.8805 19.0912C17.8743 19.0958 17.8682 19.1004 17.8613 19.1049C17.333 19.4788 16.8192 19.8739 16.3215 20.2903C16.3192 20.2919 16.3169 20.2934 16.3154 20.2957C16.3054 20.304 16.2954 20.3132 16.2855 20.3215C15.9731 20.585 15.6699 20.8545 15.3758 21.127C15.1254 21.36 14.8781 21.596 14.6392 21.8381C14.6384 21.8389 14.6377 21.8396 14.6377 21.8396C14.6377 21.8396 14.6377 21.8396 14.6369 21.8396C14.6369 21.8396 14.6369 21.8396 14.6362 21.8404L14.5328 21.9538C14.313 22.1792 14.1139 22.3947 13.9172 22.6094C13.8536 22.6786 13.7877 22.7487 13.7265 22.818C13.5121 23.0578 13.3061 23.2961 13.1101 23.5351C13.0825 23.5686 13.058 23.6037 13.0328 23.6387C12.996 23.6897 12.9593 23.7399 12.9202 23.7894C12.9202 23.7894 12.9202 23.7902 12.9194 23.7902C12.9187 23.7909 12.9187 23.7909 12.9179 23.7917C12.7196 24.0407 12.5488 24.2653 12.3827 24.486C12.3283 24.5584 12.2732 24.6315 12.2219 24.7007C12.0519 24.9322 11.8919 25.156 11.7471 25.3722C11.7471 25.3722 11.7471 25.3722 11.7471 25.373C11.702 25.4408 11.6606 25.5108 11.6193 25.5808C11.6093 25.5976 11.5994 25.6143 11.5894 25.6319C11.5572 25.6859 11.5243 25.74 11.4906 25.7925C11.4891 25.7948 11.4876 25.7978 11.486 25.8001C11.3176 26.0635 11.166 26.3049 11.022 26.5401C10.8558 26.8119 10.7019 27.0731 10.5588 27.3388C10.4998 27.4476 10.4477 27.5618 10.3949 27.6753C10.3482 27.775 10.3015 27.8755 10.2517 27.9737V27.9745L10.195 28.0872L10.1904 28.0963C9.96227 28.5493 9.74634 28.9772 9.55874 29.4218C9.48676 29.5923 9.4255 29.7697 9.36348 29.9456C9.32213 30.0628 9.28155 30.1801 9.23791 30.2958L9.12152 30.6018C8.99288 30.9368 8.86347 31.2718 8.75627 31.6175C8.70191 31.7933 8.65826 31.9745 8.61462 32.1557C8.60237 32.206 8.58782 32.2547 8.57557 32.3042C8.54264 32.4389 8.51048 32.5737 8.47526 32.7077C8.47526 32.7084 8.47526 32.7084 8.47526 32.7092L8.36806 33.1081C8.29532 33.3739 8.22257 33.6388 8.16744 33.9106C8.10389 34.2197 8.06101 34.5364 8.0189 34.8524L7.99592 35.0145L7.96453 35.2406C7.94462 35.3777 7.92165 35.5132 7.89868 35.6495C7.86269 35.8611 7.8267 36.0728 7.80526 36.2882V36.289C7.80526 36.289 7.80526 36.289 7.80526 36.2898C7.80297 36.3118 7.80143 36.3347 7.79914 36.3568C7.78689 36.4786 7.77617 36.6027 7.76621 36.7306C7.76162 36.7884 7.75855 36.8501 7.75396 36.9095C7.74707 37.0085 7.74094 37.1074 7.73482 37.211C7.73099 37.2772 7.72869 37.3465 7.72563 37.4143C7.72104 37.517 7.71644 37.6198 7.71338 37.7279C7.71108 37.8048 7.70878 37.884 7.70649 37.9639C7.70266 38.1093 7.69883 38.2548 7.69653 38.4108C7.69577 38.4794 7.69117 38.5471 7.68658 38.6149C7.68352 38.656 7.67969 38.6971 7.67969 38.739C7.67969 48.462 13.4998 57.1922 22.5069 60.9806C23.9732 61.5972 25.5062 62.07 27.0621 62.3867C27.6609 62.5116 28.2665 62.6113 28.8768 62.6882Z"/>
</mask>
<path d="M28.8768 62.6882C30.03 62.8329 31.1992 62.89 32.3692 62.8702C32.504 62.8679 32.6387 62.8641 32.7735 62.8603C33.3248 62.842 33.8761 62.8116 34.4251 62.756C34.6127 62.7377 34.7957 62.7065 34.9787 62.6753C35.1127 62.6525 35.2475 62.6304 35.3823 62.6113L35.7383 62.5626C36.1028 62.5139 36.4673 62.4652 36.8233 62.3928C37.0898 62.3388 37.3486 62.268 37.609 62.1979L37.6281 62.1934L38.001 62.0944C38.001 62.0944 38.001 62.0944 38.0018 62.0944L38.4015 61.997L38.4076 61.9954C38.6526 61.9368 38.8976 61.8789 39.1365 61.8059C39.4934 61.6962 39.841 61.563 40.1886 61.4305L40.266 61.4016L40.4941 61.3148C40.6136 61.2699 40.7346 61.228 40.8556 61.1861C41.0217 61.1283 41.1879 61.0719 41.3487 61.0049C41.5815 60.9075 41.8096 60.8024 42.0386 60.6928C42.2491 60.5915 42.462 60.4849 42.6795 60.3761C42.6986 60.3662 42.7162 60.3578 42.7354 60.3487L42.7844 60.3243L42.8387 60.2969C42.8992 60.2672 42.9605 60.239 43.021 60.2109C43.057 60.1941 43.0922 60.1766 43.1282 60.1599C43.2377 60.1096 43.3472 60.0601 43.4528 60.0038C43.4842 59.987 43.5149 59.9672 43.5463 59.9497C43.7943 59.8142 44.0417 59.6718 44.2798 59.5272C44.4575 59.4191 44.6297 59.3102 44.8013 59.2013C44.8112 59.1952 44.8212 59.1891 44.8311 59.1831C44.8908 59.1458 44.9498 59.1092 45.0095 59.0711C45.057 59.0407 45.106 59.0133 45.1543 58.9844C45.181 58.9684 45.2079 58.9516 45.2346 58.9364C45.3036 58.896 45.3732 58.8564 45.4399 58.8123C45.6803 58.6516 45.9284 58.4781 46.191 58.2847C46.2829 58.2169 46.3901 58.1317 46.4866 58.0586C46.6688 57.9208 46.8457 57.7891 47.0463 57.6292C47.0471 57.6284 47.0471 57.6284 47.0478 57.6284C47.0478 57.6284 47.0486 57.6277 47.0494 57.6277C47.0785 57.6048 47.1091 57.5835 47.139 57.5614C47.1573 57.5477 47.1757 57.534 47.1949 57.5203C47.2278 57.4967 47.2607 57.4739 47.2929 57.448C47.5524 57.2371 47.8113 57.0155 48.0724 56.7826C48.348 56.5367 48.626 56.2786 48.9116 56.0007C48.9139 55.9984 48.9238 55.9893 48.9307 55.9832C48.9445 55.971 48.9568 55.9596 48.9721 55.9466C48.9782 55.9413 48.9866 55.9337 48.9889 55.9314C49.2676 55.6581 49.5387 55.3779 49.8029 55.0932C49.943 54.9424 50.0755 54.7864 50.211 54.6318C50.3297 54.4971 50.4522 54.3646 50.5678 54.2275C50.7202 54.0463 50.8649 53.8606 51.0119 53.6763C51.1038 53.5606 51.1988 53.4472 51.2883 53.3299C51.4354 53.1373 51.5755 52.9409 51.7164 52.7445C51.7983 52.6303 51.8833 52.5183 51.9629 52.4026C52.1008 52.2032 52.2317 51.9999 52.3634 51.7974C52.417 51.7151 52.4714 51.6337 52.5234 51.5515C52.5456 51.5157 52.5701 51.4814 52.5924 51.4456C52.7172 51.2462 52.8351 51.0429 52.9538 50.8404C53.0288 50.7125 53.1054 50.5846 53.1774 50.4559C53.2853 50.2633 53.3872 50.0669 53.4898 49.8712C53.5648 49.7273 53.6414 49.5842 53.7133 49.4388C53.8068 49.2515 53.8948 49.0611 53.9829 48.8716C54.0556 48.7147 54.1299 48.5579 54.1988 48.3988C54.2792 48.2153 54.355 48.0295 54.4316 47.8445C54.5005 47.6755 54.5694 47.5072 54.6345 47.3367C54.7034 47.1563 54.7685 46.9751 54.8328 46.7931C54.8964 46.6142 54.9592 46.4345 55.0181 46.2541C55.0763 46.0759 55.1314 45.897 55.1858 45.7181C55.2425 45.5308 55.2976 45.3428 55.3497 45.1532C55.3979 44.9766 55.4438 44.7999 55.4883 44.6218C55.5373 44.4277 55.584 44.232 55.6276 44.0363C55.6674 43.8605 55.7042 43.6838 55.7402 43.5064C55.78 43.3062 55.8175 43.1052 55.8527 42.9035C55.8834 42.7276 55.9125 42.5517 55.9393 42.3751C55.9699 42.1703 55.9975 41.9647 56.0235 41.7592C56.0457 41.5826 56.0664 41.4059 56.0847 41.2293C56.1062 41.0207 56.1238 40.8113 56.1399 40.6012C56.1537 40.4246 56.1667 40.2487 56.1759 40.0713C56.1797 39.9936 56.1812 39.9152 56.1851 39.8376H31.4396C31.0262 39.8376 30.6908 39.5041 30.6908 39.093V14.6572C26.0873 14.8963 21.6255 16.4464 17.8805 19.0912C17.8743 19.0958 17.8682 19.1004 17.8613 19.1049C17.333 19.4788 16.8192 19.8739 16.3215 20.2903C16.3192 20.2919 16.3169 20.2934 16.3154 20.2957C16.3054 20.304 16.2954 20.3132 16.2855 20.3215C15.9731 20.585 15.6699 20.8545 15.3758 21.127C15.1254 21.36 14.8781 21.596 14.6392 21.8381C14.6384 21.8389 14.6377 21.8396 14.6377 21.8396C14.6377 21.8396 14.6377 21.8396 14.6369 21.8396C14.6369 21.8396 14.6369 21.8396 14.6362 21.8404L14.5328 21.9538C14.313 22.1792 14.1139 22.3947 13.9172 22.6094C13.8536 22.6786 13.7877 22.7487 13.7265 22.818C13.5121 23.0578 13.3061 23.2961 13.1101 23.5351C13.0825 23.5686 13.058 23.6037 13.0328 23.6387C12.996 23.6897 12.9593 23.7399 12.9202 23.7894C12.9202 23.7894 12.9202 23.7902 12.9194 23.7902C12.9187 23.7909 12.9187 23.7909 12.9179 23.7917C12.7196 24.0407 12.5488 24.2653 12.3827 24.486C12.3283 24.5584 12.2732 24.6315 12.2219 24.7007C12.0519 24.9322 11.8919 25.156 11.7471 25.3722C11.7471 25.3722 11.7471 25.3722 11.7471 25.373C11.702 25.4408 11.6606 25.5108 11.6193 25.5808C11.6093 25.5976 11.5994 25.6143 11.5894 25.6319C11.5572 25.6859 11.5243 25.74 11.4906 25.7925C11.4891 25.7948 11.4876 25.7978 11.486 25.8001C11.3176 26.0635 11.166 26.3049 11.022 26.5401C10.8558 26.8119 10.7019 27.0731 10.5588 27.3388C10.4998 27.4476 10.4477 27.5618 10.3949 27.6753C10.3482 27.775 10.3015 27.8755 10.2517 27.9737V27.9745L10.195 28.0872L10.1904 28.0963C9.96227 28.5493 9.74634 28.9772 9.55874 29.4218C9.48676 29.5923 9.4255 29.7697 9.36348 29.9456C9.32213 30.0628 9.28155 30.1801 9.23791 30.2958L9.12152 30.6018C8.99288 30.9368 8.86347 31.2718 8.75627 31.6175C8.70191 31.7933 8.65826 31.9745 8.61462 32.1557C8.60237 32.206 8.58782 32.2547 8.57557 32.3042C8.54264 32.4389 8.51048 32.5737 8.47526 32.7077C8.47526 32.7084 8.47526 32.7084 8.47526 32.7092L8.36806 33.1081C8.29532 33.3739 8.22257 33.6388 8.16744 33.9106C8.10389 34.2197 8.06101 34.5364 8.0189 34.8524L7.99592 35.0145L7.96453 35.2406C7.94462 35.3777 7.92165 35.5132 7.89868 35.6495C7.86269 35.8611 7.8267 36.0728 7.80526 36.2882V36.289C7.80526 36.289 7.80526 36.289 7.80526 36.2898C7.80297 36.3118 7.80143 36.3347 7.79914 36.3568C7.78689 36.4786 7.77617 36.6027 7.76621 36.7306C7.76162 36.7884 7.75855 36.8501 7.75396 36.9095C7.74707 37.0085 7.74094 37.1074 7.73482 37.211C7.73099 37.2772 7.72869 37.3465 7.72563 37.4143C7.72104 37.517 7.71644 37.6198 7.71338 37.7279C7.71108 37.8048 7.70878 37.884 7.70649 37.9639C7.70266 38.1093 7.69883 38.2548 7.69653 38.4108C7.69577 38.4794 7.69117 38.5471 7.68658 38.6149C7.68352 38.656 7.67969 38.6971 7.67969 38.739C7.67969 48.462 13.4998 57.1922 22.5069 60.9806C23.9732 61.5972 25.5062 62.07 27.0621 62.3867C27.6609 62.5116 28.2665 62.6113 28.8768 62.6882Z" stroke="white" stroke-width="0.4" mask="url(#path-2-outside-1)"/>
<mask id="path-3-outside-2" maskUnits="userSpaceOnUse" x="1.49805" y="1.49023" width="61" height="67" fill="black">
<rect fill="white" x="1.49805" y="1.49023" width="61" height="67"/>
<path d="M33.9855 9.55769C33.5927 9.53105 33.288 9.20672 33.288 8.81463V5.29423C33.288 4.88311 33.6234 4.54964 34.0368 4.54964H35.7758V2.49023H28.134V4.5504H29.8729C30.2864 4.5504 30.6218 4.88387 30.6218 5.29499V8.81539C30.6218 9.20672 30.317 9.53181 29.9242 9.55845C14.5449 10.6038 2.49805 23.4231 2.49805 38.7434C2.49805 54.8928 15.7127 68.0312 31.9549 68.0312C48.1971 68.0312 61.4109 54.8928 61.4109 38.7434C61.4109 23.4223 49.364 10.603 33.9855 9.55769ZM57.7126 39.099C57.7126 39.1012 57.7126 39.1035 57.7126 39.1058C57.7126 39.1066 57.7126 39.1066 57.7126 39.1073C57.7126 39.1165 57.7126 39.1256 57.7126 39.1347C57.708 39.4423 57.6919 39.7476 57.6766 40.0529C57.6712 40.1587 57.6704 40.2661 57.6643 40.3719C57.639 40.7686 57.6038 41.1629 57.5609 41.5558C57.5587 41.5771 57.5579 41.5992 57.5556 41.6205C56.9055 47.4371 54.2967 52.8151 50.0631 56.9728C50.0624 56.9735 50.0624 56.9735 50.0616 56.9743L50.0608 56.9751C50.0601 56.9758 50.0562 56.9789 50.0555 56.9804C50.0547 56.9804 50.0547 56.9812 50.0547 56.9819C50.0455 56.9903 49.9881 57.0421 49.9781 57.0504C49.665 57.3542 49.3625 57.6344 49.0639 57.9008C49.0532 57.9107 49.0417 57.9222 49.0309 57.9313C48.7683 58.165 48.5072 58.3866 48.2453 58.5998C48.1894 58.6447 48.1305 58.6873 48.0723 58.7299L47.9812 58.7931C47.9689 58.8023 47.9574 58.8114 47.9452 58.8213C47.7178 59.001 47.5141 59.1532 47.3089 59.3078C47.2331 59.3649 47.1481 59.4327 47.0753 59.4867C46.7958 59.6923 46.5324 59.8773 46.2752 60.0486H46.2744C46.2744 60.0486 46.2736 60.0486 46.2729 60.0493C46.1817 60.1102 46.086 60.1658 45.9911 60.2214C45.9329 60.2549 45.8755 60.2884 45.8188 60.3242C45.8111 60.3287 45.802 60.3341 45.7951 60.3394C45.5944 60.4673 45.3778 60.6028 45.1534 60.7399C45.1075 60.768 45.0669 60.7939 45.0202 60.8228C44.9934 60.8388 44.965 60.8541 44.939 60.87C44.8647 60.915 44.7927 60.9599 44.7169 61.004C44.5393 61.1083 44.3586 61.2096 44.1764 61.3078C44.1733 61.3093 44.1702 61.3109 44.1672 61.3124C44.1664 61.3124 44.1664 61.3131 44.1656 61.3131H44.1649C44.1641 61.3139 44.1626 61.3147 44.161 61.3154C44.0301 61.3855 43.8946 61.4479 43.759 61.5103C43.7185 61.5286 43.6779 61.5484 43.6373 61.5674C43.5959 61.5872 43.5538 61.6055 43.5133 61.6261L43.5048 61.6299L43.4328 61.6656L43.4053 61.6793C43.3157 61.7243 43.2223 61.7692 43.1312 61.8149C42.9826 61.8887 42.8356 61.9633 42.6832 62.0357C42.5668 62.0912 42.4459 62.143 42.3279 62.1963C42.1985 62.2557 42.0707 62.3173 41.9382 62.3729C41.9374 62.3729 41.9374 62.3729 41.9374 62.3737C41.9359 62.3744 41.9336 62.3752 41.9321 62.376C41.7414 62.4559 41.5454 62.5237 41.3494 62.5914C41.2406 62.6295 41.1311 62.6668 41.0232 62.7071L40.7261 62.8206C40.723 62.8213 40.7207 62.8229 40.7176 62.8236L40.7085 62.8274C40.7054 62.829 40.7023 62.8297 40.6993 62.8305C40.4282 62.934 40.1564 63.0368 39.8807 63.1305C39.7873 63.1624 39.6924 63.1936 39.5974 63.2226C39.5921 63.2241 39.5859 63.2256 39.5806 63.2279H39.5798C39.3095 63.3109 39.0323 63.3771 38.7559 63.4434L37.9994 63.6367C37.7107 63.7144 37.4213 63.792 37.1257 63.8522C37.1249 63.8522 37.1249 63.853 37.1242 63.853C36.7352 63.9321 36.3378 63.9854 35.9396 64.0387L35.5928 64.0859C35.4764 64.1027 35.3584 64.1225 35.2413 64.1423C35.1372 64.1598 35.0315 64.172 34.9266 64.1872C34.811 64.2047 34.6961 64.2252 34.5782 64.2374H34.5774C33.7076 64.325 32.8255 64.3691 31.9556 64.3691C30.2075 64.3691 28.4594 64.194 26.7611 63.8476C25.5214 63.5956 24.2955 63.25 23.1033 62.8168C22.7059 62.6721 22.3115 62.5183 21.9226 62.3546C13.5549 58.8373 7.77761 51.3008 6.46442 42.5562C6.27682 41.3068 6.18034 40.0331 6.18034 38.7427C6.18034 38.665 6.18494 38.5881 6.1903 38.512L6.19719 38.3947V38.394C6.20638 37.7308 6.22935 37.1636 6.2684 36.6459C6.28142 36.4731 6.29596 36.3064 6.31281 36.1435C6.33731 35.8953 6.37866 35.6509 6.41924 35.4065C6.43226 35.3319 6.44374 35.2565 6.456 35.1811C6.46442 35.1309 6.47284 35.0806 6.4805 35.0304L6.51572 34.7814L6.53333 34.6566C6.58081 34.3086 6.62828 33.9607 6.69796 33.6196C6.69796 33.6196 6.69796 33.6189 6.69796 33.6181C6.69796 33.6174 6.69796 33.6166 6.69796 33.6166C6.73931 33.4148 6.79444 33.2184 6.84651 33.0205C6.87254 32.9215 6.89398 32.821 6.92078 32.722L7.11374 31.9729C7.16351 31.7666 7.21941 31.5618 7.27684 31.3577C7.29292 31.2999 7.30517 31.2397 7.32355 31.1826C7.32355 31.1819 7.32355 31.1811 7.32355 31.1811C7.4407 30.805 7.58006 30.4395 7.72018 30.0749L7.94607 29.462C8.01804 29.2557 8.09079 29.0494 8.17501 28.8491C8.35955 28.4106 8.56935 27.9903 8.77456 27.5823C8.77763 27.5754 8.78069 27.5686 8.78452 27.5617C8.796 27.5381 8.80825 27.5145 8.81974 27.4909C8.82433 27.4825 8.82816 27.4734 8.83276 27.465L8.91009 27.3112C8.95297 27.226 8.99279 27.1399 9.03261 27.0539C9.09846 26.9131 9.16431 26.7722 9.23782 26.6359C9.23782 26.6359 9.23782 26.6359 9.23782 26.6352C9.23782 26.6352 9.23782 26.6352 9.23782 26.6344C9.23782 26.6336 9.23858 26.6336 9.23858 26.6329C9.24165 26.6276 9.24471 26.623 9.24777 26.6169C9.39479 26.3466 9.54793 26.0832 9.71256 25.8122C9.72711 25.7878 9.74165 25.765 9.7562 25.7414C9.76386 25.7284 9.77152 25.7147 9.77917 25.701C9.91317 25.484 10.0556 25.2587 10.208 25.0204C10.2118 25.0135 10.2156 25.0082 10.2195 25.0021C10.2554 24.9458 10.2899 24.8879 10.3236 24.83C10.3803 24.7334 10.4369 24.6374 10.4997 24.5453C10.6138 24.3755 10.7355 24.2012 10.8634 24.0238C10.8925 23.9834 10.9231 23.9408 10.953 23.8997C11.0847 23.7193 11.2218 23.5343 11.3757 23.3348C11.3764 23.3333 11.3772 23.3325 11.3787 23.331C11.4683 23.2145 11.5648 23.0919 11.6621 22.9693C11.6896 22.9351 11.7126 22.9039 11.7409 22.8688L11.8137 22.7714C11.8558 22.7135 11.8987 22.6549 11.9438 22.5993C11.9438 22.5986 11.9446 22.5986 11.9454 22.5978C11.9454 22.5978 11.9454 22.5978 11.9454 22.5971C12.1483 22.3496 12.3642 22.0991 12.5901 21.8464C12.6567 21.7718 12.7295 21.6941 12.7984 21.6187C12.901 21.5061 12.999 21.3957 13.1069 21.2807C13.2164 21.165 13.3282 21.0485 13.4423 20.9305C13.4454 20.9274 13.4485 20.9244 13.4507 20.9214L13.4775 20.8909C13.4806 20.8871 13.4837 20.8841 13.4875 20.8802C13.5181 20.8467 13.5426 20.8193 13.5633 20.798C13.5633 20.798 13.5633 20.798 13.5633 20.7973C13.5641 20.7965 13.5641 20.7965 13.5648 20.7957L13.5656 20.795C13.5679 20.7927 13.5694 20.7912 13.5717 20.7889C13.7999 20.5582 14.0365 20.3283 14.2792 20.1006C14.3015 20.0801 14.3252 20.0611 14.3474 20.0405C14.3742 20.0154 14.3987 19.9902 14.4255 19.9659C14.7157 19.6979 15.0128 19.4375 15.313 19.1855C15.3206 19.1794 15.3275 19.1726 15.3352 19.1657C15.3359 19.1657 15.3359 19.165 15.3367 19.165C15.3497 19.1543 15.3635 19.1436 15.3765 19.133C15.3773 19.1322 15.378 19.1322 15.378 19.1315C15.4347 19.0843 15.4929 19.0401 15.5496 18.9937C20.1683 15.2007 25.977 13.1146 31.951 13.1146C46.1634 13.1146 57.7256 24.6115 57.7256 38.7427C57.7256 38.8226 57.7202 38.9002 57.7149 38.9787L57.7126 39.099Z"/>
</mask>
<path d="M33.9855 9.55769C33.5927 9.53105 33.288 9.20672 33.288 8.81463V5.29423C33.288 4.88311 33.6234 4.54964 34.0368 4.54964H35.7758V2.49023H28.134V4.5504H29.8729C30.2864 4.5504 30.6218 4.88387 30.6218 5.29499V8.81539C30.6218 9.20672 30.317 9.53181 29.9242 9.55845C14.5449 10.6038 2.49805 23.4231 2.49805 38.7434C2.49805 54.8928 15.7127 68.0312 31.9549 68.0312C48.1971 68.0312 61.4109 54.8928 61.4109 38.7434C61.4109 23.4223 49.364 10.603 33.9855 9.55769ZM57.7126 39.099C57.7126 39.1012 57.7126 39.1035 57.7126 39.1058C57.7126 39.1066 57.7126 39.1066 57.7126 39.1073C57.7126 39.1165 57.7126 39.1256 57.7126 39.1347C57.708 39.4423 57.6919 39.7476 57.6766 40.0529C57.6712 40.1587 57.6704 40.2661 57.6643 40.3719C57.639 40.7686 57.6038 41.1629 57.5609 41.5558C57.5587 41.5771 57.5579 41.5992 57.5556 41.6205C56.9055 47.4371 54.2967 52.8151 50.0631 56.9728C50.0624 56.9735 50.0624 56.9735 50.0616 56.9743L50.0608 56.9751C50.0601 56.9758 50.0562 56.9789 50.0555 56.9804C50.0547 56.9804 50.0547 56.9812 50.0547 56.9819C50.0455 56.9903 49.9881 57.0421 49.9781 57.0504C49.665 57.3542 49.3625 57.6344 49.0639 57.9008C49.0532 57.9107 49.0417 57.9222 49.0309 57.9313C48.7683 58.165 48.5072 58.3866 48.2453 58.5998C48.1894 58.6447 48.1305 58.6873 48.0723 58.7299L47.9812 58.7931C47.9689 58.8023 47.9574 58.8114 47.9452 58.8213C47.7178 59.001 47.5141 59.1532 47.3089 59.3078C47.2331 59.3649 47.1481 59.4327 47.0753 59.4867C46.7958 59.6923 46.5324 59.8773 46.2752 60.0486H46.2744C46.2744 60.0486 46.2736 60.0486 46.2729 60.0493C46.1817 60.1102 46.086 60.1658 45.9911 60.2214C45.9329 60.2549 45.8755 60.2884 45.8188 60.3242C45.8111 60.3287 45.802 60.3341 45.7951 60.3394C45.5944 60.4673 45.3778 60.6028 45.1534 60.7399C45.1075 60.768 45.0669 60.7939 45.0202 60.8228C44.9934 60.8388 44.965 60.8541 44.939 60.87C44.8647 60.915 44.7927 60.9599 44.7169 61.004C44.5393 61.1083 44.3586 61.2096 44.1764 61.3078C44.1733 61.3093 44.1702 61.3109 44.1672 61.3124C44.1664 61.3124 44.1664 61.3131 44.1656 61.3131H44.1649C44.1641 61.3139 44.1626 61.3147 44.161 61.3154C44.0301 61.3855 43.8946 61.4479 43.759 61.5103C43.7185 61.5286 43.6779 61.5484 43.6373 61.5674C43.5959 61.5872 43.5538 61.6055 43.5133 61.6261L43.5048 61.6299L43.4328 61.6656L43.4053 61.6793C43.3157 61.7243 43.2223 61.7692 43.1312 61.8149C42.9826 61.8887 42.8356 61.9633 42.6832 62.0357C42.5668 62.0912 42.4459 62.143 42.3279 62.1963C42.1985 62.2557 42.0707 62.3173 41.9382 62.3729C41.9374 62.3729 41.9374 62.3729 41.9374 62.3737C41.9359 62.3744 41.9336 62.3752 41.9321 62.376C41.7414 62.4559 41.5454 62.5237 41.3494 62.5914C41.2406 62.6295 41.1311 62.6668 41.0232 62.7071L40.7261 62.8206C40.723 62.8213 40.7207 62.8229 40.7176 62.8236L40.7085 62.8274C40.7054 62.829 40.7023 62.8297 40.6993 62.8305C40.4282 62.934 40.1564 63.0368 39.8807 63.1305C39.7873 63.1624 39.6924 63.1936 39.5974 63.2226C39.5921 63.2241 39.5859 63.2256 39.5806 63.2279H39.5798C39.3095 63.3109 39.0323 63.3771 38.7559 63.4434L37.9994 63.6367C37.7107 63.7144 37.4213 63.792 37.1257 63.8522C37.1249 63.8522 37.1249 63.853 37.1242 63.853C36.7352 63.9321 36.3378 63.9854 35.9396 64.0387L35.5928 64.0859C35.4764 64.1027 35.3584 64.1225 35.2413 64.1423C35.1372 64.1598 35.0315 64.172 34.9266 64.1872C34.811 64.2047 34.6961 64.2252 34.5782 64.2374H34.5774C33.7076 64.325 32.8255 64.3691 31.9556 64.3691C30.2075 64.3691 28.4594 64.194 26.7611 63.8476C25.5214 63.5956 24.2955 63.25 23.1033 62.8168C22.7059 62.6721 22.3115 62.5183 21.9226 62.3546C13.5549 58.8373 7.77761 51.3008 6.46442 42.5562C6.27682 41.3068 6.18034 40.0331 6.18034 38.7427C6.18034 38.665 6.18494 38.5881 6.1903 38.512L6.19719 38.3947V38.394C6.20638 37.7308 6.22935 37.1636 6.2684 36.6459C6.28142 36.4731 6.29596 36.3064 6.31281 36.1435C6.33731 35.8953 6.37866 35.6509 6.41924 35.4065C6.43226 35.3319 6.44374 35.2565 6.456 35.1811C6.46442 35.1309 6.47284 35.0806 6.4805 35.0304L6.51572 34.7814L6.53333 34.6566C6.58081 34.3086 6.62828 33.9607 6.69796 33.6196C6.69796 33.6196 6.69796 33.6189 6.69796 33.6181C6.69796 33.6174 6.69796 33.6166 6.69796 33.6166C6.73931 33.4148 6.79444 33.2184 6.84651 33.0205C6.87254 32.9215 6.89398 32.821 6.92078 32.722L7.11374 31.9729C7.16351 31.7666 7.21941 31.5618 7.27684 31.3577C7.29292 31.2999 7.30517 31.2397 7.32355 31.1826C7.32355 31.1819 7.32355 31.1811 7.32355 31.1811C7.4407 30.805 7.58006 30.4395 7.72018 30.0749L7.94607 29.462C8.01804 29.2557 8.09079 29.0494 8.17501 28.8491C8.35955 28.4106 8.56935 27.9903 8.77456 27.5823C8.77763 27.5754 8.78069 27.5686 8.78452 27.5617C8.796 27.5381 8.80825 27.5145 8.81974 27.4909C8.82433 27.4825 8.82816 27.4734 8.83276 27.465L8.91009 27.3112C8.95297 27.226 8.99279 27.1399 9.03261 27.0539C9.09846 26.9131 9.16431 26.7722 9.23782 26.6359C9.23782 26.6359 9.23782 26.6359 9.23782 26.6352C9.23782 26.6352 9.23782 26.6352 9.23782 26.6344C9.23782 26.6336 9.23858 26.6336 9.23858 26.6329C9.24165 26.6276 9.24471 26.623 9.24777 26.6169C9.39479 26.3466 9.54793 26.0832 9.71256 25.8122C9.72711 25.7878 9.74165 25.765 9.7562 25.7414C9.76386 25.7284 9.77152 25.7147 9.77917 25.701C9.91317 25.484 10.0556 25.2587 10.208 25.0204C10.2118 25.0135 10.2156 25.0082 10.2195 25.0021C10.2554 24.9458 10.2899 24.8879 10.3236 24.83C10.3803 24.7334 10.4369 24.6374 10.4997 24.5453C10.6138 24.3755 10.7355 24.2012 10.8634 24.0238C10.8925 23.9834 10.9231 23.9408 10.953 23.8997C11.0847 23.7193 11.2218 23.5343 11.3757 23.3348C11.3764 23.3333 11.3772 23.3325 11.3787 23.331C11.4683 23.2145 11.5648 23.0919 11.6621 22.9693C11.6896 22.9351 11.7126 22.9039 11.7409 22.8688L11.8137 22.7714C11.8558 22.7135 11.8987 22.6549 11.9438 22.5993C11.9438 22.5986 11.9446 22.5986 11.9454 22.5978C11.9454 22.5978 11.9454 22.5978 11.9454 22.5971C12.1483 22.3496 12.3642 22.0991 12.5901 21.8464C12.6567 21.7718 12.7295 21.6941 12.7984 21.6187C12.901 21.5061 12.999 21.3957 13.1069 21.2807C13.2164 21.165 13.3282 21.0485 13.4423 20.9305C13.4454 20.9274 13.4485 20.9244 13.4507 20.9214L13.4775 20.8909C13.4806 20.8871 13.4837 20.8841 13.4875 20.8802C13.5181 20.8467 13.5426 20.8193 13.5633 20.798C13.5633 20.798 13.5633 20.798 13.5633 20.7973C13.5641 20.7965 13.5641 20.7965 13.5648 20.7957L13.5656 20.795C13.5679 20.7927 13.5694 20.7912 13.5717 20.7889C13.7999 20.5582 14.0365 20.3283 14.2792 20.1006C14.3015 20.0801 14.3252 20.0611 14.3474 20.0405C14.3742 20.0154 14.3987 19.9902 14.4255 19.9659C14.7157 19.6979 15.0128 19.4375 15.313 19.1855C15.3206 19.1794 15.3275 19.1726 15.3352 19.1657C15.3359 19.1657 15.3359 19.165 15.3367 19.165C15.3497 19.1543 15.3635 19.1436 15.3765 19.133C15.3773 19.1322 15.378 19.1322 15.378 19.1315C15.4347 19.0843 15.4929 19.0401 15.5496 18.9937C20.1683 15.2007 25.977 13.1146 31.951 13.1146C46.1634 13.1146 57.7256 24.6115 57.7256 38.7427C57.7256 38.8226 57.7202 38.9002 57.7149 38.9787L57.7126 39.099Z" stroke="white" stroke-width="0.4" mask="url(#path-3-outside-2)"/>
<mask id="path-4-outside-3" maskUnits="userSpaceOnUse" x="5.18359" y="12.1143" width="53" height="53" fill="black">
<rect fill="white" x="5.18359" y="12.1143" width="53" height="53"/>
<path d="M31.9543 13.1143C25.9802 13.1143 20.1723 15.1996 15.5528 18.9933C15.4961 19.0397 15.4372 19.0839 15.3813 19.1311C15.3805 19.1318 15.3798 19.1318 15.3798 19.1326C15.3667 19.1433 15.353 19.1539 15.3399 19.1646C15.3392 19.1646 15.3392 19.1661 15.3384 19.1653C15.3308 19.1714 15.3239 19.1783 15.3162 19.1851C15.016 19.4371 14.7197 19.6975 14.4287 19.9655C14.4019 19.9906 14.3774 20.0157 14.3506 20.0401C14.3284 20.0607 14.3047 20.0797 14.2825 20.1003C14.0398 20.3279 13.8032 20.5578 13.575 20.7885C13.5727 20.7908 13.5712 20.7923 13.5689 20.7946L13.5681 20.7954C13.5673 20.7961 13.5673 20.7961 13.5666 20.7969C13.5666 20.7969 13.5666 20.7969 13.5666 20.7976C13.5451 20.819 13.5206 20.8456 13.4908 20.8799C13.4877 20.8837 13.4846 20.8867 13.4808 20.8905L13.454 20.921C13.4509 20.924 13.4479 20.9271 13.4456 20.9301C13.3315 21.0474 13.2189 21.1646 13.1102 21.2803C13.0022 21.3953 12.9042 21.5057 12.8016 21.6184C12.7327 21.6937 12.66 21.7714 12.5933 21.846C12.3675 22.0988 12.1515 22.3492 11.9486 22.5967C11.9486 22.5967 11.9486 22.5967 11.9486 22.5974C11.9486 22.5982 11.9479 22.5982 11.9471 22.599C11.9019 22.6545 11.859 22.7132 11.8169 22.771L11.7442 22.8685C11.7158 22.9035 11.6929 22.9347 11.6653 22.969C11.5681 23.0923 11.4716 23.2149 11.382 23.3306C11.3812 23.3321 11.3805 23.3329 11.3789 23.3344C11.225 23.5339 11.088 23.7189 10.9563 23.8993C10.9264 23.9404 10.8958 23.9831 10.8667 24.0234C10.7388 24.2008 10.617 24.3751 10.503 24.5449C10.4402 24.6378 10.3827 24.7337 10.3268 24.8297C10.2932 24.8875 10.2587 24.9454 10.2227 25.0017C10.2189 25.0086 10.2151 25.0139 10.2112 25.02C10.0588 25.2583 9.91566 25.4829 9.78243 25.7006C9.77477 25.7136 9.76711 25.7273 9.75945 25.741C9.74491 25.7653 9.73036 25.7882 9.71581 25.8118C9.55118 26.0828 9.39727 26.3462 9.25102 26.6165C9.24796 26.6218 9.2449 26.6264 9.24184 26.6325C9.24184 26.6333 9.24107 26.6333 9.24107 26.634V26.6348C9.24107 26.6348 9.24107 26.6348 9.24107 26.6355C9.16756 26.7718 9.10171 26.9127 9.03586 27.0535C8.99604 27.1395 8.95623 27.2256 8.91335 27.3108L8.83601 27.4646C8.83142 27.473 8.82759 27.4821 8.82299 27.4905C8.81074 27.5141 8.79926 27.5377 8.78777 27.5613C8.78471 27.5682 8.78164 27.575 8.77782 27.5819C8.57261 27.9907 8.3628 28.4102 8.17827 28.8487C8.09404 29.049 8.0213 29.2553 7.94932 29.4616L7.72343 30.0745C7.58331 30.4399 7.44395 30.8046 7.3268 31.1807C7.3268 31.1815 7.3268 31.1822 7.3268 31.1822C7.30919 31.2401 7.29693 31.2995 7.28009 31.3573C7.22189 31.5606 7.16676 31.7654 7.11699 31.9725L6.92404 32.7216C6.89724 32.8199 6.8758 32.9211 6.84976 33.0201C6.79769 33.218 6.74256 33.4145 6.70121 33.6162C6.70121 33.617 6.70121 33.6177 6.70121 33.6177C6.70121 33.6177 6.70121 33.6185 6.70121 33.6193C6.63153 33.9603 6.58329 34.3083 6.53659 34.6562L6.51897 34.781L6.48375 35.03C6.47609 35.081 6.46767 35.1305 6.45925 35.1807C6.447 35.2561 6.43551 35.3315 6.4225 35.4061C6.38191 35.6505 6.34056 35.8949 6.31606 36.1431C6.29922 36.306 6.28467 36.4727 6.27165 36.6456C6.2326 37.1633 6.20963 37.7305 6.20044 38.3936V38.3943L6.19355 38.5116C6.18819 38.5877 6.18359 38.6646 6.18359 38.7423C6.18359 40.0327 6.28007 41.3064 6.46767 42.5558C7.78086 51.3005 13.5581 58.8369 21.925 62.3558C22.3148 62.5195 22.7084 62.674 23.1058 62.8179C24.2987 63.2511 25.5239 63.5968 26.7636 63.8488C28.4619 64.1944 30.21 64.3703 31.9581 64.3703C32.828 64.3703 33.7101 64.3261 34.5799 64.2386H34.5807C34.6986 64.2264 34.8135 64.2058 34.9291 64.1883C35.0332 64.1723 35.1397 64.1602 35.2438 64.1434C35.3609 64.1236 35.4789 64.1038 35.5952 64.0871L35.9421 64.0399C36.3403 63.9866 36.7369 63.9333 37.1267 63.8541C37.1274 63.8541 37.1274 63.8533 37.1282 63.8533C37.4245 63.7932 37.7132 63.7155 38.0019 63.6379L38.7584 63.4445C39.0356 63.3783 39.312 63.312 39.5823 63.229H39.5831C39.5884 63.2275 39.5945 63.2252 39.5999 63.2237C39.6949 63.194 39.789 63.1636 39.8832 63.1316C40.1589 63.0379 40.4307 62.9352 40.7018 62.8316C40.7048 62.8301 40.7079 62.8293 40.7109 62.8286L40.7201 62.8248C40.7232 62.824 40.7255 62.8225 40.7286 62.8217L41.0249 62.709C41.1329 62.6687 41.2416 62.6314 41.3511 62.5933C41.5471 62.5256 41.7431 62.4578 41.9338 62.3779C41.9353 62.3771 41.9376 62.3763 41.9391 62.3756C41.9391 62.3756 41.9399 62.3756 41.9399 62.3748C42.0724 62.3192 42.2003 62.2576 42.3297 62.1982C42.4483 62.1441 42.5693 62.0931 42.6849 62.0375C42.8373 61.9645 42.9843 61.8906 43.1329 61.8168C43.224 61.7711 43.3174 61.7262 43.407 61.6813L43.4346 61.6675L43.5065 61.6318L43.515 61.628C43.5563 61.6074 43.5977 61.5884 43.639 61.5693C43.6796 61.5503 43.7194 61.5313 43.7608 61.5122C43.8963 61.4498 44.0318 61.3874 44.1628 61.3173C44.1643 61.3166 44.1658 61.3158 44.1666 61.315H44.1674C44.1681 61.315 44.1681 61.3143 44.1689 61.3143C44.172 61.3128 44.175 61.3112 44.1781 61.3097C44.3603 61.2123 44.541 61.1102 44.7187 61.0059C44.7952 60.961 44.8664 60.9169 44.9407 60.8719C44.9675 60.856 44.9959 60.8407 45.0219 60.8247C45.0686 60.7966 45.1092 60.7707 45.1551 60.7418C45.3787 60.6047 45.5954 60.4692 45.7968 60.3413C45.8044 60.3367 45.8136 60.3314 45.8205 60.3261C45.8772 60.2903 45.9346 60.2568 45.9928 60.2233C46.0878 60.1677 46.1835 60.1121 46.2746 60.0512C46.2746 60.0512 46.2754 60.0505 46.2761 60.0505H46.2769C46.5342 59.8792 46.7976 59.6934 47.077 59.4886C47.1506 59.4346 47.2355 59.3668 47.3106 59.3097C47.5158 59.1551 47.7187 59.0036 47.9469 58.8232C47.9591 58.8133 47.9706 58.8042 47.9829 58.795L48.0709 58.7303C48.1299 58.6884 48.1881 58.6458 48.244 58.6001C48.5059 58.387 48.767 58.1654 49.0296 57.9317C49.0403 57.9218 49.0518 57.9104 49.0625 57.9012C49.3619 57.6348 49.6644 57.3546 49.9768 57.0508C49.9867 57.0424 50.0442 56.9907 50.0534 56.9823C50.0541 56.9823 50.0541 56.9815 50.0541 56.9808C50.0557 56.9793 50.0587 56.9762 50.0595 56.9754L50.0603 56.9747C50.061 56.9739 50.061 56.9739 50.0618 56.9732C54.2954 52.8155 56.9042 47.4375 57.5542 41.6209C57.5565 41.5996 57.5573 41.5775 57.5596 41.5562C57.6025 41.1633 57.6377 40.7689 57.663 40.3723C57.6699 40.2665 57.6699 40.1591 57.6752 40.0533C57.6905 39.748 57.7066 39.4419 57.7112 39.1351C57.7112 39.126 57.7112 39.1168 57.7112 39.1077C57.7112 39.1069 57.7112 39.1069 57.7112 39.1062C57.7112 39.1039 57.7112 39.1016 57.7112 39.0993L57.7181 38.9783C57.7242 38.8999 57.7288 38.8222 57.7288 38.7423C57.7296 24.6112 46.1666 13.1143 31.9543 13.1143ZM56.2211 38.3449H32.1878V14.6103C45.3328 14.7344 56.0075 25.2964 56.2211 38.3449ZM22.5047 60.9839C13.4976 57.1955 7.67749 48.4653 7.67749 38.7423C7.67749 38.7004 7.68132 38.6593 7.68438 38.6182C7.68898 38.5504 7.69357 38.4827 7.69434 38.4141C7.69663 38.2581 7.70046 38.1126 7.70429 37.9672C7.70659 37.8873 7.70812 37.8081 7.71118 37.7312C7.71501 37.6231 7.71884 37.5203 7.72343 37.4175C7.7265 37.3498 7.72956 37.2805 7.73262 37.2143C7.73798 37.1107 7.74487 37.0118 7.75177 36.9128C7.75559 36.8534 7.75942 36.7917 7.76402 36.7339C7.77397 36.606 7.78469 36.4819 7.79694 36.3601C7.79924 36.338 7.80077 36.3144 7.80307 36.2931C7.80307 36.2931 7.80307 36.2931 7.80307 36.2923C7.80307 36.2915 7.80307 36.2915 7.80307 36.2915C7.82451 36.0753 7.86126 35.8637 7.89648 35.6528C7.91946 35.5165 7.94243 35.381 7.96234 35.2439L7.99373 35.0178L8.0167 34.8557C8.05958 34.5389 8.10169 34.223 8.16525 33.9139C8.22114 33.6421 8.29389 33.3764 8.36586 33.1114L8.47306 32.7125C8.47306 32.7117 8.47306 32.7117 8.47306 32.711C8.50829 32.577 8.54121 32.4422 8.57337 32.3075C8.58562 32.2572 8.60017 32.2085 8.61242 32.159C8.65683 31.9786 8.69971 31.7966 8.75408 31.6208C8.86128 31.2759 8.99068 30.9409 9.11932 30.6051L9.23571 30.2991C9.27859 30.1834 9.31994 30.0661 9.36129 29.9489C9.42254 29.7722 9.4838 29.5956 9.55654 29.4251C9.74491 28.9797 9.96007 28.5518 10.1883 28.0996L10.1928 28.0905L10.2495 27.9778V27.977C10.2993 27.8788 10.346 27.7783 10.3927 27.6786C10.4455 27.5651 10.4976 27.4509 10.5566 27.3421C10.7005 27.0771 10.8537 26.816 11.0198 26.5434C11.1638 26.3082 11.3154 26.0668 11.4838 25.8034C11.4854 25.8011 11.4869 25.7981 11.4884 25.7958C11.5221 25.7425 11.555 25.6892 11.5872 25.6352C11.5972 25.6184 11.6071 25.6017 11.6171 25.5841C11.6584 25.5141 11.699 25.4441 11.7449 25.3763C11.7449 25.3763 11.7449 25.3763 11.7449 25.3755C11.8897 25.1593 12.0497 24.9362 12.2197 24.704C12.271 24.634 12.3261 24.5609 12.3805 24.4893C12.5466 24.2686 12.7174 24.044 12.9157 23.795C12.9157 23.7942 12.9165 23.7942 12.9172 23.7935C12.9172 23.7935 12.9172 23.7927 12.918 23.7927C12.9571 23.744 12.9938 23.693 13.0306 23.642C13.0558 23.607 13.0811 23.5719 13.1079 23.5384C13.3039 23.2994 13.5107 23.0611 13.7243 22.8213C13.7863 22.752 13.8514 22.6819 13.915 22.6127C14.1117 22.398 14.3108 22.1825 14.5306 21.9571L14.634 21.8437C14.634 21.8437 14.634 21.8437 14.6347 21.8429C14.6347 21.8429 14.6347 21.8429 14.6355 21.8429C14.6363 21.8422 14.637 21.8414 14.637 21.8414C14.8759 21.5993 15.1232 21.3633 15.3736 21.1303C15.6677 20.8578 15.9709 20.5875 16.2833 20.3248C16.2933 20.3165 16.3032 20.3073 16.3132 20.299C16.3155 20.2974 16.3178 20.2959 16.3193 20.2936C16.817 19.8772 17.3316 19.4821 17.8591 19.1082C17.8653 19.1037 17.8714 19.0991 17.8783 19.0945C21.6241 16.4497 26.0851 14.8996 30.6886 14.6605V39.0894C30.6886 39.5006 31.024 39.834 31.4374 39.834H56.1836C56.1798 39.9117 56.179 39.9901 56.1744 40.0678C56.1645 40.2451 56.1515 40.421 56.1385 40.5976C56.1224 40.8078 56.1048 41.0171 56.0833 41.2257C56.0649 41.4031 56.0443 41.5798 56.0221 41.7556C55.996 41.9612 55.9685 42.1667 55.9378 42.3715C55.911 42.5482 55.8819 42.7248 55.8513 42.8999C55.8161 43.1017 55.7786 43.3027 55.7387 43.5029C55.7035 43.6803 55.666 43.8569 55.6262 44.0328C55.5825 44.2284 55.5358 44.4241 55.4868 44.6182C55.4424 44.7956 55.3965 44.973 55.3482 45.1497C55.2962 45.3385 55.241 45.5265 55.1844 45.7146C55.13 45.8935 55.0749 46.0731 55.0167 46.2505C54.9577 46.431 54.8949 46.6106 54.8314 46.7896C54.7671 46.9715 54.702 47.1527 54.6331 47.3332C54.568 47.5037 54.4991 47.672 54.4302 47.841C54.3543 48.0267 54.2785 48.2117 54.1974 48.3952C54.1277 48.5536 54.0542 48.7104 53.9814 48.868C53.8934 49.0576 53.8053 49.2479 53.7119 49.4352C53.6399 49.5806 53.5634 49.7237 53.4883 49.8676C53.3857 50.0633 53.2839 50.259 53.1759 50.4523C53.1039 50.5818 53.0266 50.7089 52.9523 50.8368C52.8336 51.0393 52.7157 51.2426 52.5909 51.4421C52.5687 51.4779 52.5442 51.5129 52.522 51.5479C52.4699 51.6309 52.4156 51.7116 52.362 51.7938C52.2303 51.9971 52.0993 52.2004 51.9615 52.3991C51.8819 52.514 51.7969 52.6267 51.7149 52.7409C51.5741 52.9373 51.4339 53.1338 51.2869 53.3264C51.1973 53.4436 51.1024 53.5571 51.0105 53.6728C50.8635 53.8578 50.7188 54.0435 50.5664 54.224C50.4508 54.361 50.329 54.4935 50.2096 54.6283C50.074 54.782 49.9416 54.9381 49.8014 55.0896C49.5373 55.3744 49.267 55.6538 48.9875 55.9279C48.9852 55.9301 48.976 55.9377 48.9706 55.9431C48.9553 55.9568 48.9431 55.9674 48.9293 55.9796C48.9224 55.9857 48.9125 55.9948 48.9102 55.9971C48.6245 56.275 48.3466 56.5339 48.0709 56.779C47.8098 57.012 47.551 57.2328 47.2914 57.4444C47.2601 57.4696 47.2264 57.4932 47.1934 57.5168C47.1743 57.5305 47.1567 57.5442 47.1375 57.5579C47.1077 57.5799 47.077 57.6013 47.048 57.6241C47.0472 57.6241 47.0472 57.6249 47.0464 57.6249C47.0457 57.6249 47.0457 57.6256 47.0449 57.6256C46.8435 57.7847 46.6666 57.9172 46.4852 58.055C46.3887 58.1281 46.2815 58.2134 46.1896 58.2811C45.927 58.4745 45.6796 58.6481 45.4384 58.8087C45.3718 58.8529 45.3021 58.8932 45.2332 58.9328C45.2064 58.9488 45.1796 58.9648 45.1528 58.9808C45.1046 59.009 45.0556 59.0371 45.0081 59.0676C44.9484 59.1057 44.8894 59.1414 44.8297 59.1795C44.8205 59.1856 44.8098 59.1917 44.7998 59.1978C44.6283 59.3066 44.456 59.4155 44.2784 59.5236C44.0402 59.6683 43.7929 59.8107 43.5448 59.9462C43.5134 59.9637 43.4828 59.9827 43.4514 60.0002C43.3457 60.0573 43.2363 60.106 43.1268 60.1563C43.0908 60.173 43.0555 60.1906 43.0196 60.2073C42.9591 60.2355 42.8978 60.2629 42.8373 60.2933L42.783 60.3207L42.734 60.3451C42.7148 60.355 42.6964 60.3634 42.678 60.3725C42.4606 60.4814 42.2485 60.588 42.0372 60.6892C41.8082 60.7989 41.58 60.9039 41.3472 61.0014C41.1864 61.0684 41.0203 61.1255 40.8541 61.1826C40.7332 61.2244 40.6122 61.2663 40.4927 61.3112L40.2645 61.398L40.1872 61.427C39.8396 61.5594 39.4919 61.6927 39.1351 61.8023C38.8962 61.8754 38.6512 61.9333 38.4062 61.9919L38.4 61.9934L38.0003 62.0908C38.0003 62.0908 38.0003 62.0908 37.9996 62.0908L37.6267 62.1898L37.6075 62.1944C37.348 62.2644 37.0891 62.3352 36.8219 62.3893C36.4651 62.4616 36.1014 62.5103 35.7369 62.5591L35.3808 62.6078C35.2461 62.6268 35.1113 62.6489 34.9773 62.6717C34.7943 62.703 34.6113 62.7342 34.4237 62.7524C33.8739 62.808 33.3226 62.8377 32.7721 62.8567C32.6373 62.8613 32.5025 62.8644 32.3678 62.8666C31.1978 62.8864 30.0285 62.8293 28.8754 62.6847C28.2651 62.6078 27.6594 62.5088 27.0599 62.387C25.5047 62.0733 23.9718 61.6005 22.5047 60.9839Z"/>
</mask>
<path d="M31.9543 13.1143C25.9802 13.1143 20.1723 15.1996 15.5528 18.9933C15.4961 19.0397 15.4372 19.0839 15.3813 19.1311C15.3805 19.1318 15.3798 19.1318 15.3798 19.1326C15.3667 19.1433 15.353 19.1539 15.3399 19.1646C15.3392 19.1646 15.3392 19.1661 15.3384 19.1653C15.3308 19.1714 15.3239 19.1783 15.3162 19.1851C15.016 19.4371 14.7197 19.6975 14.4287 19.9655C14.4019 19.9906 14.3774 20.0157 14.3506 20.0401C14.3284 20.0607 14.3047 20.0797 14.2825 20.1003C14.0398 20.3279 13.8032 20.5578 13.575 20.7885C13.5727 20.7908 13.5712 20.7923 13.5689 20.7946L13.5681 20.7954C13.5673 20.7961 13.5673 20.7961 13.5666 20.7969C13.5666 20.7969 13.5666 20.7969 13.5666 20.7976C13.5451 20.819 13.5206 20.8456 13.4908 20.8799C13.4877 20.8837 13.4846 20.8867 13.4808 20.8905L13.454 20.921C13.4509 20.924 13.4479 20.9271 13.4456 20.9301C13.3315 21.0474 13.2189 21.1646 13.1102 21.2803C13.0022 21.3953 12.9042 21.5057 12.8016 21.6184C12.7327 21.6937 12.66 21.7714 12.5933 21.846C12.3675 22.0988 12.1515 22.3492 11.9486 22.5967C11.9486 22.5967 11.9486 22.5967 11.9486 22.5974C11.9486 22.5982 11.9479 22.5982 11.9471 22.599C11.9019 22.6545 11.859 22.7132 11.8169 22.771L11.7442 22.8685C11.7158 22.9035 11.6929 22.9347 11.6653 22.969C11.5681 23.0923 11.4716 23.2149 11.382 23.3306C11.3812 23.3321 11.3805 23.3329 11.3789 23.3344C11.225 23.5339 11.088 23.7189 10.9563 23.8993C10.9264 23.9404 10.8958 23.9831 10.8667 24.0234C10.7388 24.2008 10.617 24.3751 10.503 24.5449C10.4402 24.6378 10.3827 24.7337 10.3268 24.8297C10.2932 24.8875 10.2587 24.9454 10.2227 25.0017C10.2189 25.0086 10.2151 25.0139 10.2112 25.02C10.0588 25.2583 9.91566 25.4829 9.78243 25.7006C9.77477 25.7136 9.76711 25.7273 9.75945 25.741C9.74491 25.7653 9.73036 25.7882 9.71581 25.8118C9.55118 26.0828 9.39727 26.3462 9.25102 26.6165C9.24796 26.6218 9.2449 26.6264 9.24184 26.6325C9.24184 26.6333 9.24107 26.6333 9.24107 26.634V26.6348C9.24107 26.6348 9.24107 26.6348 9.24107 26.6355C9.16756 26.7718 9.10171 26.9127 9.03586 27.0535C8.99604 27.1395 8.95623 27.2256 8.91335 27.3108L8.83601 27.4646C8.83142 27.473 8.82759 27.4821 8.82299 27.4905C8.81074 27.5141 8.79926 27.5377 8.78777 27.5613C8.78471 27.5682 8.78164 27.575 8.77782 27.5819C8.57261 27.9907 8.3628 28.4102 8.17827 28.8487C8.09404 29.049 8.0213 29.2553 7.94932 29.4616L7.72343 30.0745C7.58331 30.4399 7.44395 30.8046 7.3268 31.1807C7.3268 31.1815 7.3268 31.1822 7.3268 31.1822C7.30919 31.2401 7.29693 31.2995 7.28009 31.3573C7.22189 31.5606 7.16676 31.7654 7.11699 31.9725L6.92404 32.7216C6.89724 32.8199 6.8758 32.9211 6.84976 33.0201C6.79769 33.218 6.74256 33.4145 6.70121 33.6162C6.70121 33.617 6.70121 33.6177 6.70121 33.6177C6.70121 33.6177 6.70121 33.6185 6.70121 33.6193C6.63153 33.9603 6.58329 34.3083 6.53659 34.6562L6.51897 34.781L6.48375 35.03C6.47609 35.081 6.46767 35.1305 6.45925 35.1807C6.447 35.2561 6.43551 35.3315 6.4225 35.4061C6.38191 35.6505 6.34056 35.8949 6.31606 36.1431C6.29922 36.306 6.28467 36.4727 6.27165 36.6456C6.2326 37.1633 6.20963 37.7305 6.20044 38.3936V38.3943L6.19355 38.5116C6.18819 38.5877 6.18359 38.6646 6.18359 38.7423C6.18359 40.0327 6.28007 41.3064 6.46767 42.5558C7.78086 51.3005 13.5581 58.8369 21.925 62.3558C22.3148 62.5195 22.7084 62.674 23.1058 62.8179C24.2987 63.2511 25.5239 63.5968 26.7636 63.8488C28.4619 64.1944 30.21 64.3703 31.9581 64.3703C32.828 64.3703 33.7101 64.3261 34.5799 64.2386H34.5807C34.6986 64.2264 34.8135 64.2058 34.9291 64.1883C35.0332 64.1723 35.1397 64.1602 35.2438 64.1434C35.3609 64.1236 35.4789 64.1038 35.5952 64.0871L35.9421 64.0399C36.3403 63.9866 36.7369 63.9333 37.1267 63.8541C37.1274 63.8541 37.1274 63.8533 37.1282 63.8533C37.4245 63.7932 37.7132 63.7155 38.0019 63.6379L38.7584 63.4445C39.0356 63.3783 39.312 63.312 39.5823 63.229H39.5831C39.5884 63.2275 39.5945 63.2252 39.5999 63.2237C39.6949 63.194 39.789 63.1636 39.8832 63.1316C40.1589 63.0379 40.4307 62.9352 40.7018 62.8316C40.7048 62.8301 40.7079 62.8293 40.7109 62.8286L40.7201 62.8248C40.7232 62.824 40.7255 62.8225 40.7286 62.8217L41.0249 62.709C41.1329 62.6687 41.2416 62.6314 41.3511 62.5933C41.5471 62.5256 41.7431 62.4578 41.9338 62.3779C41.9353 62.3771 41.9376 62.3763 41.9391 62.3756C41.9391 62.3756 41.9399 62.3756 41.9399 62.3748C42.0724 62.3192 42.2003 62.2576 42.3297 62.1982C42.4483 62.1441 42.5693 62.0931 42.6849 62.0375C42.8373 61.9645 42.9843 61.8906 43.1329 61.8168C43.224 61.7711 43.3174 61.7262 43.407 61.6813L43.4346 61.6675L43.5065 61.6318L43.515 61.628C43.5563 61.6074 43.5977 61.5884 43.639 61.5693C43.6796 61.5503 43.7194 61.5313 43.7608 61.5122C43.8963 61.4498 44.0318 61.3874 44.1628 61.3173C44.1643 61.3166 44.1658 61.3158 44.1666 61.315H44.1674C44.1681 61.315 44.1681 61.3143 44.1689 61.3143C44.172 61.3128 44.175 61.3112 44.1781 61.3097C44.3603 61.2123 44.541 61.1102 44.7187 61.0059C44.7952 60.961 44.8664 60.9169 44.9407 60.8719C44.9675 60.856 44.9959 60.8407 45.0219 60.8247C45.0686 60.7966 45.1092 60.7707 45.1551 60.7418C45.3787 60.6047 45.5954 60.4692 45.7968 60.3413C45.8044 60.3367 45.8136 60.3314 45.8205 60.3261C45.8772 60.2903 45.9346 60.2568 45.9928 60.2233C46.0878 60.1677 46.1835 60.1121 46.2746 60.0512C46.2746 60.0512 46.2754 60.0505 46.2761 60.0505H46.2769C46.5342 59.8792 46.7976 59.6934 47.077 59.4886C47.1506 59.4346 47.2355 59.3668 47.3106 59.3097C47.5158 59.1551 47.7187 59.0036 47.9469 58.8232C47.9591 58.8133 47.9706 58.8042 47.9829 58.795L48.0709 58.7303C48.1299 58.6884 48.1881 58.6458 48.244 58.6001C48.5059 58.387 48.767 58.1654 49.0296 57.9317C49.0403 57.9218 49.0518 57.9104 49.0625 57.9012C49.3619 57.6348 49.6644 57.3546 49.9768 57.0508C49.9867 57.0424 50.0442 56.9907 50.0534 56.9823C50.0541 56.9823 50.0541 56.9815 50.0541 56.9808C50.0557 56.9793 50.0587 56.9762 50.0595 56.9754L50.0603 56.9747C50.061 56.9739 50.061 56.9739 50.0618 56.9732C54.2954 52.8155 56.9042 47.4375 57.5542 41.6209C57.5565 41.5996 57.5573 41.5775 57.5596 41.5562C57.6025 41.1633 57.6377 40.7689 57.663 40.3723C57.6699 40.2665 57.6699 40.1591 57.6752 40.0533C57.6905 39.748 57.7066 39.4419 57.7112 39.1351C57.7112 39.126 57.7112 39.1168 57.7112 39.1077C57.7112 39.1069 57.7112 39.1069 57.7112 39.1062C57.7112 39.1039 57.7112 39.1016 57.7112 39.0993L57.7181 38.9783C57.7242 38.8999 57.7288 38.8222 57.7288 38.7423C57.7296 24.6112 46.1666 13.1143 31.9543 13.1143ZM56.2211 38.3449H32.1878V14.6103C45.3328 14.7344 56.0075 25.2964 56.2211 38.3449ZM22.5047 60.9839C13.4976 57.1955 7.67749 48.4653 7.67749 38.7423C7.67749 38.7004 7.68132 38.6593 7.68438 38.6182C7.68898 38.5504 7.69357 38.4827 7.69434 38.4141C7.69663 38.2581 7.70046 38.1126 7.70429 37.9672C7.70659 37.8873 7.70812 37.8081 7.71118 37.7312C7.71501 37.6231 7.71884 37.5203 7.72343 37.4175C7.7265 37.3498 7.72956 37.2805 7.73262 37.2143C7.73798 37.1107 7.74487 37.0118 7.75177 36.9128C7.75559 36.8534 7.75942 36.7917 7.76402 36.7339C7.77397 36.606 7.78469 36.4819 7.79694 36.3601C7.79924 36.338 7.80077 36.3144 7.80307 36.2931C7.80307 36.2931 7.80307 36.2931 7.80307 36.2923C7.80307 36.2915 7.80307 36.2915 7.80307 36.2915C7.82451 36.0753 7.86126 35.8637 7.89648 35.6528C7.91946 35.5165 7.94243 35.381 7.96234 35.2439L7.99373 35.0178L8.0167 34.8557C8.05958 34.5389 8.10169 34.223 8.16525 33.9139C8.22114 33.6421 8.29389 33.3764 8.36586 33.1114L8.47306 32.7125C8.47306 32.7117 8.47306 32.7117 8.47306 32.711C8.50829 32.577 8.54121 32.4422 8.57337 32.3075C8.58562 32.2572 8.60017 32.2085 8.61242 32.159C8.65683 31.9786 8.69971 31.7966 8.75408 31.6208C8.86128 31.2759 8.99068 30.9409 9.11932 30.6051L9.23571 30.2991C9.27859 30.1834 9.31994 30.0661 9.36129 29.9489C9.42254 29.7722 9.4838 29.5956 9.55654 29.4251C9.74491 28.9797 9.96007 28.5518 10.1883 28.0996L10.1928 28.0905L10.2495 27.9778V27.977C10.2993 27.8788 10.346 27.7783 10.3927 27.6786C10.4455 27.5651 10.4976 27.4509 10.5566 27.3421C10.7005 27.0771 10.8537 26.816 11.0198 26.5434C11.1638 26.3082 11.3154 26.0668 11.4838 25.8034C11.4854 25.8011 11.4869 25.7981 11.4884 25.7958C11.5221 25.7425 11.555 25.6892 11.5872 25.6352C11.5972 25.6184 11.6071 25.6017 11.6171 25.5841C11.6584 25.5141 11.699 25.4441 11.7449 25.3763C11.7449 25.3763 11.7449 25.3763 11.7449 25.3755C11.8897 25.1593 12.0497 24.9362 12.2197 24.704C12.271 24.634 12.3261 24.5609 12.3805 24.4893C12.5466 24.2686 12.7174 24.044 12.9157 23.795C12.9157 23.7942 12.9165 23.7942 12.9172 23.7935C12.9172 23.7935 12.9172 23.7927 12.918 23.7927C12.9571 23.744 12.9938 23.693 13.0306 23.642C13.0558 23.607 13.0811 23.5719 13.1079 23.5384C13.3039 23.2994 13.5107 23.0611 13.7243 22.8213C13.7863 22.752 13.8514 22.6819 13.915 22.6127C14.1117 22.398 14.3108 22.1825 14.5306 21.9571L14.634 21.8437C14.634 21.8437 14.634 21.8437 14.6347 21.8429C14.6347 21.8429 14.6347 21.8429 14.6355 21.8429C14.6363 21.8422 14.637 21.8414 14.637 21.8414C14.8759 21.5993 15.1232 21.3633 15.3736 21.1303C15.6677 20.8578 15.9709 20.5875 16.2833 20.3248C16.2933 20.3165 16.3032 20.3073 16.3132 20.299C16.3155 20.2974 16.3178 20.2959 16.3193 20.2936C16.817 19.8772 17.3316 19.4821 17.8591 19.1082C17.8653 19.1037 17.8714 19.0991 17.8783 19.0945C21.6241 16.4497 26.0851 14.8996 30.6886 14.6605V39.0894C30.6886 39.5006 31.024 39.834 31.4374 39.834H56.1836C56.1798 39.9117 56.179 39.9901 56.1744 40.0678C56.1645 40.2451 56.1515 40.421 56.1385 40.5976C56.1224 40.8078 56.1048 41.0171 56.0833 41.2257C56.0649 41.4031 56.0443 41.5798 56.0221 41.7556C55.996 41.9612 55.9685 42.1667 55.9378 42.3715C55.911 42.5482 55.8819 42.7248 55.8513 42.8999C55.8161 43.1017 55.7786 43.3027 55.7387 43.5029C55.7035 43.6803 55.666 43.8569 55.6262 44.0328C55.5825 44.2284 55.5358 44.4241 55.4868 44.6182C55.4424 44.7956 55.3965 44.973 55.3482 45.1497C55.2962 45.3385 55.241 45.5265 55.1844 45.7146C55.13 45.8935 55.0749 46.0731 55.0167 46.2505C54.9577 46.431 54.8949 46.6106 54.8314 46.7896C54.7671 46.9715 54.702 47.1527 54.6331 47.3332C54.568 47.5037 54.4991 47.672 54.4302 47.841C54.3543 48.0267 54.2785 48.2117 54.1974 48.3952C54.1277 48.5536 54.0542 48.7104 53.9814 48.868C53.8934 49.0576 53.8053 49.2479 53.7119 49.4352C53.6399 49.5806 53.5634 49.7237 53.4883 49.8676C53.3857 50.0633 53.2839 50.259 53.1759 50.4523C53.1039 50.5818 53.0266 50.7089 52.9523 50.8368C52.8336 51.0393 52.7157 51.2426 52.5909 51.4421C52.5687 51.4779 52.5442 51.5129 52.522 51.5479C52.4699 51.6309 52.4156 51.7116 52.362 51.7938C52.2303 51.9971 52.0993 52.2004 51.9615 52.3991C51.8819 52.514 51.7969 52.6267 51.7149 52.7409C51.5741 52.9373 51.4339 53.1338 51.2869 53.3264C51.1973 53.4436 51.1024 53.5571 51.0105 53.6728C50.8635 53.8578 50.7188 54.0435 50.5664 54.224C50.4508 54.361 50.329 54.4935 50.2096 54.6283C50.074 54.782 49.9416 54.9381 49.8014 55.0896C49.5373 55.3744 49.267 55.6538 48.9875 55.9279C48.9852 55.9301 48.976 55.9377 48.9706 55.9431C48.9553 55.9568 48.9431 55.9674 48.9293 55.9796C48.9224 55.9857 48.9125 55.9948 48.9102 55.9971C48.6245 56.275 48.3466 56.5339 48.0709 56.779C47.8098 57.012 47.551 57.2328 47.2914 57.4444C47.2601 57.4696 47.2264 57.4932 47.1934 57.5168C47.1743 57.5305 47.1567 57.5442 47.1375 57.5579C47.1077 57.5799 47.077 57.6013 47.048 57.6241C47.0472 57.6241 47.0472 57.6249 47.0464 57.6249C47.0457 57.6249 47.0457 57.6256 47.0449 57.6256C46.8435 57.7847 46.6666 57.9172 46.4852 58.055C46.3887 58.1281 46.2815 58.2134 46.1896 58.2811C45.927 58.4745 45.6796 58.6481 45.4384 58.8087C45.3718 58.8529 45.3021 58.8932 45.2332 58.9328C45.2064 58.9488 45.1796 58.9648 45.1528 58.9808C45.1046 59.009 45.0556 59.0371 45.0081 59.0676C44.9484 59.1057 44.8894 59.1414 44.8297 59.1795C44.8205 59.1856 44.8098 59.1917 44.7998 59.1978C44.6283 59.3066 44.456 59.4155 44.2784 59.5236C44.0402 59.6683 43.7929 59.8107 43.5448 59.9462C43.5134 59.9637 43.4828 59.9827 43.4514 60.0002C43.3457 60.0573 43.2363 60.106 43.1268 60.1563C43.0908 60.173 43.0555 60.1906 43.0196 60.2073C42.9591 60.2355 42.8978 60.2629 42.8373 60.2933L42.783 60.3207L42.734 60.3451C42.7148 60.355 42.6964 60.3634 42.678 60.3725C42.4606 60.4814 42.2485 60.588 42.0372 60.6892C41.8082 60.7989 41.58 60.9039 41.3472 61.0014C41.1864 61.0684 41.0203 61.1255 40.8541 61.1826C40.7332 61.2244 40.6122 61.2663 40.4927 61.3112L40.2645 61.398L40.1872 61.427C39.8396 61.5594 39.4919 61.6927 39.1351 61.8023C38.8962 61.8754 38.6512 61.9333 38.4062 61.9919L38.4 61.9934L38.0003 62.0908C38.0003 62.0908 38.0003 62.0908 37.9996 62.0908L37.6267 62.1898L37.6075 62.1944C37.348 62.2644 37.0891 62.3352 36.8219 62.3893C36.4651 62.4616 36.1014 62.5103 35.7369 62.5591L35.3808 62.6078C35.2461 62.6268 35.1113 62.6489 34.9773 62.6717C34.7943 62.703 34.6113 62.7342 34.4237 62.7524C33.8739 62.808 33.3226 62.8377 32.7721 62.8567C32.6373 62.8613 32.5025 62.8644 32.3678 62.8666C31.1978 62.8864 30.0285 62.8293 28.8754 62.6847C28.2651 62.6078 27.6594 62.5088 27.0599 62.387C25.5047 62.0733 23.9718 61.6005 22.5047 60.9839Z" fill="white"/>
<path d="M31.9543 13.1143C25.9802 13.1143 20.1723 15.1996 15.5528 18.9933C15.4961 19.0397 15.4372 19.0839 15.3813 19.1311C15.3805 19.1318 15.3798 19.1318 15.3798 19.1326C15.3667 19.1433 15.353 19.1539 15.3399 19.1646C15.3392 19.1646 15.3392 19.1661 15.3384 19.1653C15.3308 19.1714 15.3239 19.1783 15.3162 19.1851C15.016 19.4371 14.7197 19.6975 14.4287 19.9655C14.4019 19.9906 14.3774 20.0157 14.3506 20.0401C14.3284 20.0607 14.3047 20.0797 14.2825 20.1003C14.0398 20.3279 13.8032 20.5578 13.575 20.7885C13.5727 20.7908 13.5712 20.7923 13.5689 20.7946L13.5681 20.7954C13.5673 20.7961 13.5673 20.7961 13.5666 20.7969C13.5666 20.7969 13.5666 20.7969 13.5666 20.7976C13.5451 20.819 13.5206 20.8456 13.4908 20.8799C13.4877 20.8837 13.4846 20.8867 13.4808 20.8905L13.454 20.921C13.4509 20.924 13.4479 20.9271 13.4456 20.9301C13.3315 21.0474 13.2189 21.1646 13.1102 21.2803C13.0022 21.3953 12.9042 21.5057 12.8016 21.6184C12.7327 21.6937 12.66 21.7714 12.5933 21.846C12.3675 22.0988 12.1515 22.3492 11.9486 22.5967C11.9486 22.5967 11.9486 22.5967 11.9486 22.5974C11.9486 22.5982 11.9479 22.5982 11.9471 22.599C11.9019 22.6545 11.859 22.7132 11.8169 22.771L11.7442 22.8685C11.7158 22.9035 11.6929 22.9347 11.6653 22.969C11.5681 23.0923 11.4716 23.2149 11.382 23.3306C11.3812 23.3321 11.3805 23.3329 11.3789 23.3344C11.225 23.5339 11.088 23.7189 10.9563 23.8993C10.9264 23.9404 10.8958 23.9831 10.8667 24.0234C10.7388 24.2008 10.617 24.3751 10.503 24.5449C10.4402 24.6378 10.3827 24.7337 10.3268 24.8297C10.2932 24.8875 10.2587 24.9454 10.2227 25.0017C10.2189 25.0086 10.2151 25.0139 10.2112 25.02C10.0588 25.2583 9.91566 25.4829 9.78243 25.7006C9.77477 25.7136 9.76711 25.7273 9.75945 25.741C9.74491 25.7653 9.73036 25.7882 9.71581 25.8118C9.55118 26.0828 9.39727 26.3462 9.25102 26.6165C9.24796 26.6218 9.2449 26.6264 9.24184 26.6325C9.24184 26.6333 9.24107 26.6333 9.24107 26.634V26.6348C9.24107 26.6348 9.24107 26.6348 9.24107 26.6355C9.16756 26.7718 9.10171 26.9127 9.03586 27.0535C8.99604 27.1395 8.95623 27.2256 8.91335 27.3108L8.83601 27.4646C8.83142 27.473 8.82759 27.4821 8.82299 27.4905C8.81074 27.5141 8.79926 27.5377 8.78777 27.5613C8.78471 27.5682 8.78164 27.575 8.77782 27.5819C8.57261 27.9907 8.3628 28.4102 8.17827 28.8487C8.09404 29.049 8.0213 29.2553 7.94932 29.4616L7.72343 30.0745C7.58331 30.4399 7.44395 30.8046 7.3268 31.1807C7.3268 31.1815 7.3268 31.1822 7.3268 31.1822C7.30919 31.2401 7.29693 31.2995 7.28009 31.3573C7.22189 31.5606 7.16676 31.7654 7.11699 31.9725L6.92404 32.7216C6.89724 32.8199 6.8758 32.9211 6.84976 33.0201C6.79769 33.218 6.74256 33.4145 6.70121 33.6162C6.70121 33.617 6.70121 33.6177 6.70121 33.6177C6.70121 33.6177 6.70121 33.6185 6.70121 33.6193C6.63153 33.9603 6.58329 34.3083 6.53659 34.6562L6.51897 34.781L6.48375 35.03C6.47609 35.081 6.46767 35.1305 6.45925 35.1807C6.447 35.2561 6.43551 35.3315 6.4225 35.4061C6.38191 35.6505 6.34056 35.8949 6.31606 36.1431C6.29922 36.306 6.28467 36.4727 6.27165 36.6456C6.2326 37.1633 6.20963 37.7305 6.20044 38.3936V38.3943L6.19355 38.5116C6.18819 38.5877 6.18359 38.6646 6.18359 38.7423C6.18359 40.0327 6.28007 41.3064 6.46767 42.5558C7.78086 51.3005 13.5581 58.8369 21.925 62.3558C22.3148 62.5195 22.7084 62.674 23.1058 62.8179C24.2987 63.2511 25.5239 63.5968 26.7636 63.8488C28.4619 64.1944 30.21 64.3703 31.9581 64.3703C32.828 64.3703 33.7101 64.3261 34.5799 64.2386H34.5807C34.6986 64.2264 34.8135 64.2058 34.9291 64.1883C35.0332 64.1723 35.1397 64.1602 35.2438 64.1434C35.3609 64.1236 35.4789 64.1038 35.5952 64.0871L35.9421 64.0399C36.3403 63.9866 36.7369 63.9333 37.1267 63.8541C37.1274 63.8541 37.1274 63.8533 37.1282 63.8533C37.4245 63.7932 37.7132 63.7155 38.0019 63.6379L38.7584 63.4445C39.0356 63.3783 39.312 63.312 39.5823 63.229H39.5831C39.5884 63.2275 39.5945 63.2252 39.5999 63.2237C39.6949 63.194 39.789 63.1636 39.8832 63.1316C40.1589 63.0379 40.4307 62.9352 40.7018 62.8316C40.7048 62.8301 40.7079 62.8293 40.7109 62.8286L40.7201 62.8248C40.7232 62.824 40.7255 62.8225 40.7286 62.8217L41.0249 62.709C41.1329 62.6687 41.2416 62.6314 41.3511 62.5933C41.5471 62.5256 41.7431 62.4578 41.9338 62.3779C41.9353 62.3771 41.9376 62.3763 41.9391 62.3756C41.9391 62.3756 41.9399 62.3756 41.9399 62.3748C42.0724 62.3192 42.2003 62.2576 42.3297 62.1982C42.4483 62.1441 42.5693 62.0931 42.6849 62.0375C42.8373 61.9645 42.9843 61.8906 43.1329 61.8168C43.224 61.7711 43.3174 61.7262 43.407 61.6813L43.4346 61.6675L43.5065 61.6318L43.515 61.628C43.5563 61.6074 43.5977 61.5884 43.639 61.5693C43.6796 61.5503 43.7194 61.5313 43.7608 61.5122C43.8963 61.4498 44.0318 61.3874 44.1628 61.3173C44.1643 61.3166 44.1658 61.3158 44.1666 61.315H44.1674C44.1681 61.315 44.1681 61.3143 44.1689 61.3143C44.172 61.3128 44.175 61.3112 44.1781 61.3097C44.3603 61.2123 44.541 61.1102 44.7187 61.0059C44.7952 60.961 44.8664 60.9169 44.9407 60.8719C44.9675 60.856 44.9959 60.8407 45.0219 60.8247C45.0686 60.7966 45.1092 60.7707 45.1551 60.7418C45.3787 60.6047 45.5954 60.4692 45.7968 60.3413C45.8044 60.3367 45.8136 60.3314 45.8205 60.3261C45.8772 60.2903 45.9346 60.2568 45.9928 60.2233C46.0878 60.1677 46.1835 60.1121 46.2746 60.0512C46.2746 60.0512 46.2754 60.0505 46.2761 60.0505H46.2769C46.5342 59.8792 46.7976 59.6934 47.077 59.4886C47.1506 59.4346 47.2355 59.3668 47.3106 59.3097C47.5158 59.1551 47.7187 59.0036 47.9469 58.8232C47.9591 58.8133 47.9706 58.8042 47.9829 58.795L48.0709 58.7303C48.1299 58.6884 48.1881 58.6458 48.244 58.6001C48.5059 58.387 48.767 58.1654 49.0296 57.9317C49.0403 57.9218 49.0518 57.9104 49.0625 57.9012C49.3619 57.6348 49.6644 57.3546 49.9768 57.0508C49.9867 57.0424 50.0442 56.9907 50.0534 56.9823C50.0541 56.9823 50.0541 56.9815 50.0541 56.9808C50.0557 56.9793 50.0587 56.9762 50.0595 56.9754L50.0603 56.9747C50.061 56.9739 50.061 56.9739 50.0618 56.9732C54.2954 52.8155 56.9042 47.4375 57.5542 41.6209C57.5565 41.5996 57.5573 41.5775 57.5596 41.5562C57.6025 41.1633 57.6377 40.7689 57.663 40.3723C57.6699 40.2665 57.6699 40.1591 57.6752 40.0533C57.6905 39.748 57.7066 39.4419 57.7112 39.1351C57.7112 39.126 57.7112 39.1168 57.7112 39.1077C57.7112 39.1069 57.7112 39.1069 57.7112 39.1062C57.7112 39.1039 57.7112 39.1016 57.7112 39.0993L57.7181 38.9783C57.7242 38.8999 57.7288 38.8222 57.7288 38.7423C57.7296 24.6112 46.1666 13.1143 31.9543 13.1143ZM56.2211 38.3449H32.1878V14.6103C45.3328 14.7344 56.0075 25.2964 56.2211 38.3449ZM22.5047 60.9839C13.4976 57.1955 7.67749 48.4653 7.67749 38.7423C7.67749 38.7004 7.68132 38.6593 7.68438 38.6182C7.68898 38.5504 7.69357 38.4827 7.69434 38.4141C7.69663 38.2581 7.70046 38.1126 7.70429 37.9672C7.70659 37.8873 7.70812 37.8081 7.71118 37.7312C7.71501 37.6231 7.71884 37.5203 7.72343 37.4175C7.7265 37.3498 7.72956 37.2805 7.73262 37.2143C7.73798 37.1107 7.74487 37.0118 7.75177 36.9128C7.75559 36.8534 7.75942 36.7917 7.76402 36.7339C7.77397 36.606 7.78469 36.4819 7.79694 36.3601C7.79924 36.338 7.80077 36.3144 7.80307 36.2931C7.80307 36.2931 7.80307 36.2931 7.80307 36.2923C7.80307 36.2915 7.80307 36.2915 7.80307 36.2915C7.82451 36.0753 7.86126 35.8637 7.89648 35.6528C7.91946 35.5165 7.94243 35.381 7.96234 35.2439L7.99373 35.0178L8.0167 34.8557C8.05958 34.5389 8.10169 34.223 8.16525 33.9139C8.22114 33.6421 8.29389 33.3764 8.36586 33.1114L8.47306 32.7125C8.47306 32.7117 8.47306 32.7117 8.47306 32.711C8.50829 32.577 8.54121 32.4422 8.57337 32.3075C8.58562 32.2572 8.60017 32.2085 8.61242 32.159C8.65683 31.9786 8.69971 31.7966 8.75408 31.6208C8.86128 31.2759 8.99068 30.9409 9.11932 30.6051L9.23571 30.2991C9.27859 30.1834 9.31994 30.0661 9.36129 29.9489C9.42254 29.7722 9.4838 29.5956 9.55654 29.4251C9.74491 28.9797 9.96007 28.5518 10.1883 28.0996L10.1928 28.0905L10.2495 27.9778V27.977C10.2993 27.8788 10.346 27.7783 10.3927 27.6786C10.4455 27.5651 10.4976 27.4509 10.5566 27.3421C10.7005 27.0771 10.8537 26.816 11.0198 26.5434C11.1638 26.3082 11.3154 26.0668 11.4838 25.8034C11.4854 25.8011 11.4869 25.7981 11.4884 25.7958C11.5221 25.7425 11.555 25.6892 11.5872 25.6352C11.5972 25.6184 11.6071 25.6017 11.6171 25.5841C11.6584 25.5141 11.699 25.4441 11.7449 25.3763C11.7449 25.3763 11.7449 25.3763 11.7449 25.3755C11.8897 25.1593 12.0497 24.9362 12.2197 24.704C12.271 24.634 12.3261 24.5609 12.3805 24.4893C12.5466 24.2686 12.7174 24.044 12.9157 23.795C12.9157 23.7942 12.9165 23.7942 12.9172 23.7935C12.9172 23.7935 12.9172 23.7927 12.918 23.7927C12.9571 23.744 12.9938 23.693 13.0306 23.642C13.0558 23.607 13.0811 23.5719 13.1079 23.5384C13.3039 23.2994 13.5107 23.0611 13.7243 22.8213C13.7863 22.752 13.8514 22.6819 13.915 22.6127C14.1117 22.398 14.3108 22.1825 14.5306 21.9571L14.634 21.8437C14.634 21.8437 14.634 21.8437 14.6347 21.8429C14.6347 21.8429 14.6347 21.8429 14.6355 21.8429C14.6363 21.8422 14.637 21.8414 14.637 21.8414C14.8759 21.5993 15.1232 21.3633 15.3736 21.1303C15.6677 20.8578 15.9709 20.5875 16.2833 20.3248C16.2933 20.3165 16.3032 20.3073 16.3132 20.299C16.3155 20.2974 16.3178 20.2959 16.3193 20.2936C16.817 19.8772 17.3316 19.4821 17.8591 19.1082C17.8653 19.1037 17.8714 19.0991 17.8783 19.0945C21.6241 16.4497 26.0851 14.8996 30.6886 14.6605V39.0894C30.6886 39.5006 31.024 39.834 31.4374 39.834H56.1836C56.1798 39.9117 56.179 39.9901 56.1744 40.0678C56.1645 40.2451 56.1515 40.421 56.1385 40.5976C56.1224 40.8078 56.1048 41.0171 56.0833 41.2257C56.0649 41.4031 56.0443 41.5798 56.0221 41.7556C55.996 41.9612 55.9685 42.1667 55.9378 42.3715C55.911 42.5482 55.8819 42.7248 55.8513 42.8999C55.8161 43.1017 55.7786 43.3027 55.7387 43.5029C55.7035 43.6803 55.666 43.8569 55.6262 44.0328C55.5825 44.2284 55.5358 44.4241 55.4868 44.6182C55.4424 44.7956 55.3965 44.973 55.3482 45.1497C55.2962 45.3385 55.241 45.5265 55.1844 45.7146C55.13 45.8935 55.0749 46.0731 55.0167 46.2505C54.9577 46.431 54.8949 46.6106 54.8314 46.7896C54.7671 46.9715 54.702 47.1527 54.6331 47.3332C54.568 47.5037 54.4991 47.672 54.4302 47.841C54.3543 48.0267 54.2785 48.2117 54.1974 48.3952C54.1277 48.5536 54.0542 48.7104 53.9814 48.868C53.8934 49.0576 53.8053 49.2479 53.7119 49.4352C53.6399 49.5806 53.5634 49.7237 53.4883 49.8676C53.3857 50.0633 53.2839 50.259 53.1759 50.4523C53.1039 50.5818 53.0266 50.7089 52.9523 50.8368C52.8336 51.0393 52.7157 51.2426 52.5909 51.4421C52.5687 51.4779 52.5442 51.5129 52.522 51.5479C52.4699 51.6309 52.4156 51.7116 52.362 51.7938C52.2303 51.9971 52.0993 52.2004 51.9615 52.3991C51.8819 52.514 51.7969 52.6267 51.7149 52.7409C51.5741 52.9373 51.4339 53.1338 51.2869 53.3264C51.1973 53.4436 51.1024 53.5571 51.0105 53.6728C50.8635 53.8578 50.7188 54.0435 50.5664 54.224C50.4508 54.361 50.329 54.4935 50.2096 54.6283C50.074 54.782 49.9416 54.9381 49.8014 55.0896C49.5373 55.3744 49.267 55.6538 48.9875 55.9279C48.9852 55.9301 48.976 55.9377 48.9706 55.9431C48.9553 55.9568 48.9431 55.9674 48.9293 55.9796C48.9224 55.9857 48.9125 55.9948 48.9102 55.9971C48.6245 56.275 48.3466 56.5339 48.0709 56.779C47.8098 57.012 47.551 57.2328 47.2914 57.4444C47.2601 57.4696 47.2264 57.4932 47.1934 57.5168C47.1743 57.5305 47.1567 57.5442 47.1375 57.5579C47.1077 57.5799 47.077 57.6013 47.048 57.6241C47.0472 57.6241 47.0472 57.6249 47.0464 57.6249C47.0457 57.6249 47.0457 57.6256 47.0449 57.6256C46.8435 57.7847 46.6666 57.9172 46.4852 58.055C46.3887 58.1281 46.2815 58.2134 46.1896 58.2811C45.927 58.4745 45.6796 58.6481 45.4384 58.8087C45.3718 58.8529 45.3021 58.8932 45.2332 58.9328C45.2064 58.9488 45.1796 58.9648 45.1528 58.9808C45.1046 59.009 45.0556 59.0371 45.0081 59.0676C44.9484 59.1057 44.8894 59.1414 44.8297 59.1795C44.8205 59.1856 44.8098 59.1917 44.7998 59.1978C44.6283 59.3066 44.456 59.4155 44.2784 59.5236C44.0402 59.6683 43.7929 59.8107 43.5448 59.9462C43.5134 59.9637 43.4828 59.9827 43.4514 60.0002C43.3457 60.0573 43.2363 60.106 43.1268 60.1563C43.0908 60.173 43.0555 60.1906 43.0196 60.2073C42.9591 60.2355 42.8978 60.2629 42.8373 60.2933L42.783 60.3207L42.734 60.3451C42.7148 60.355 42.6964 60.3634 42.678 60.3725C42.4606 60.4814 42.2485 60.588 42.0372 60.6892C41.8082 60.7989 41.58 60.9039 41.3472 61.0014C41.1864 61.0684 41.0203 61.1255 40.8541 61.1826C40.7332 61.2244 40.6122 61.2663 40.4927 61.3112L40.2645 61.398L40.1872 61.427C39.8396 61.5594 39.4919 61.6927 39.1351 61.8023C38.8962 61.8754 38.6512 61.9333 38.4062 61.9919L38.4 61.9934L38.0003 62.0908C38.0003 62.0908 38.0003 62.0908 37.9996 62.0908L37.6267 62.1898L37.6075 62.1944C37.348 62.2644 37.0891 62.3352 36.8219 62.3893C36.4651 62.4616 36.1014 62.5103 35.7369 62.5591L35.3808 62.6078C35.2461 62.6268 35.1113 62.6489 34.9773 62.6717C34.7943 62.703 34.6113 62.7342 34.4237 62.7524C33.8739 62.808 33.3226 62.8377 32.7721 62.8567C32.6373 62.8613 32.5025 62.8644 32.3678 62.8666C31.1978 62.8864 30.0285 62.8293 28.8754 62.6847C28.2651 62.6078 27.6594 62.5088 27.0599 62.387C25.5047 62.0733 23.9718 61.6005 22.5047 60.9839Z" stroke="white" stroke-width="0.4" mask="url(#path-4-outside-3)"/>
<path d="M63.0083 38.7423C63.0091 22.8534 50.7188 9.51651 34.8854 8.03563V6.1385H36.5243C36.9925 6.1385 37.3732 5.76081 37.3732 5.29392V1.74458C37.3732 1.2777 36.9925 0.9 36.5243 0.9H27.3848C26.9166 0.9 26.5359 1.2777 26.5359 1.74458V5.29392C26.5359 5.76081 26.9166 6.1385 27.3848 6.1385H29.0237V8.03563C13.191 9.51651 0.9 22.8534 0.9 38.7423C0.9 55.769 14.8314 69.62 31.9545 69.62C49.0777 69.62 63.0083 55.769 63.0083 38.7423ZM31.9545 67.9301C15.767 67.9301 2.59773 54.836 2.59773 38.7423C2.59773 23.4752 14.6034 10.6989 29.9307 9.65716C30.3755 9.62698 30.7215 9.25946 30.7215 8.81433V5.29392C30.7215 4.82703 30.3408 4.44934 29.8726 4.44934H28.2337V2.58993H35.6754V4.4501H34.0365C33.5683 4.4501 33.1877 4.82779 33.1877 5.29468V8.81509C33.1877 9.25939 33.5335 9.62774 33.9784 9.65792C49.305 10.6997 61.3106 23.4759 61.3106 38.7431C61.3106 54.836 48.1421 67.9301 31.9545 67.9301Z" fill="white" stroke="white" stroke-width="0.2"/>
</svg>
