<svg width="66" height="66" viewBox="0 0 66 66" fill="none" xmlns="http://www.w3.org/2000/svg">
<path d="M33.2737 0.712402C15.3535 0.712402 0.77417 15.2921 0.77417 33.2124C0.77417 51.1327 15.3535 65.7124 33.2737 65.7124C51.1945 65.7124 65.7742 51.1327 65.7742 33.2124C65.7742 15.2921 51.1945 0.712402 33.2737 0.712402ZM33.2737 63.7446C16.4384 63.7446 2.742 50.0481 2.742 33.2124C2.742 16.3768 16.4384 2.68032 33.2737 2.68032C50.1096 2.68032 63.8063 16.3768 63.8063 33.2124C63.8063 50.0481 50.1096 63.7446 33.2737 63.7446Z" fill="white"/>
<path d="M31.7447 24.5839C31.7447 20.55 28.4627 17.2681 24.4285 17.2681C20.394 17.2681 17.1121 20.55 17.1121 24.5839C17.1121 28.6181 20.394 31.9001 24.4285 31.9001C28.4627 31.9001 31.7447 28.6181 31.7447 24.5839ZM19.0799 24.5839C19.0799 21.6352 21.4792 19.2359 24.4285 19.2359C27.3775 19.2359 29.7764 21.6352 29.7764 24.5839C29.7764 27.5329 27.3775 29.9321 24.4285 29.9321C21.4792 29.9321 19.0799 27.5329 19.0799 24.5839Z" fill="white"/>
<path d="M42.772 33.9443C38.658 33.9443 35.3112 37.2912 35.3112 41.4051C35.3112 45.5195 38.658 48.8667 42.772 48.8667C46.8862 48.8667 50.2335 45.5195 50.2335 41.4051C50.2335 37.2912 46.8862 33.9443 42.772 33.9443ZM42.772 46.8985C39.7433 46.8985 37.279 44.4346 37.279 41.4051C37.279 38.3765 39.7433 35.9122 42.772 35.9122C45.8013 35.9122 48.2653 38.3765 48.2653 41.4051C48.2653 44.4346 45.8013 46.8985 42.772 46.8985Z" fill="white"/>
<path d="M43.381 20.258C42.9536 19.9211 42.3356 19.9958 41.9993 20.4221L21.444 46.5244C21.1077 46.9512 21.1811 47.5702 21.6082 47.9062C21.7887 48.0485 22.0034 48.1172 22.2164 48.1172C22.5075 48.1172 22.7959 47.9886 22.9899 47.742L43.5451 21.64C43.8814 21.213 43.8081 20.5943 43.381 20.258Z" fill="white"/>
</svg>
