<svg width="54" height="50" viewBox="0 0 54 50" fill="none" xmlns="http://www.w3.org/2000/svg">
<path d="M51.75 0H0V2.23333H51.75V0Z" fill="white"/>
<path d="M20.25 11.1665H0V13.3998H20.25V11.1665Z" fill="white"/>
<path d="M15.75 22.3335H0V24.5668H15.75V22.3335Z" fill="white"/>
<path d="M15.75 33.5H0V35.7333H15.75V33.5Z" fill="white"/>
<path d="M38.25 40.1998C29.5673 40.1998 22.5 33.1849 22.5 24.5664C22.5 15.9458 29.5673 8.93311 38.25 8.93311C46.9328 8.93311 54 15.9458 54 24.5664C54 33.1849 46.9328 40.1998 38.25 40.1998ZM38.25 11.1664C30.8048 11.1664 24.75 17.1763 24.75 24.5664C24.75 31.9565 30.8048 37.9664 38.25 37.9664C45.6952 37.9664 51.75 31.9565 51.75 24.5664C51.75 17.1763 45.6952 11.1664 38.25 11.1664Z" fill="white"/>
<path d="M27.6176 33.5409L13.5391 47.5151L15.13 49.0943L29.2086 35.1201L27.6176 33.5409Z" fill="white"/>
<path d="M45.5967 18.9863C45.3827 19.0164 45.1854 19.116 45.0367 19.2691C41.8327 22.3998 39.4346 24.9832 36.3767 28.0051L32.8967 25.1386C32.8002 25.0587 32.6886 24.9981 32.5681 24.9604C32.4476 24.9227 32.3206 24.9085 32.1945 24.9187C32.0683 24.9289 31.9455 24.9633 31.8331 25.0199C31.7206 25.0765 31.6207 25.1542 31.5391 25.2485C31.4575 25.3429 31.3958 25.452 31.3575 25.5696C31.3192 25.6872 31.3052 25.811 31.3161 25.934C31.327 26.0569 31.3627 26.1766 31.4212 26.286C31.4796 26.3955 31.5597 26.4926 31.6567 26.5718L35.8167 30.0038C36.0013 30.155 36.2376 30.2329 36.4784 30.2221C36.7193 30.2112 36.9471 30.1124 37.1167 29.9453C40.5499 26.5908 43.0032 23.9012 46.3967 20.5853C46.5419 20.4479 46.6388 20.2693 46.6737 20.075C46.7086 19.8807 46.6796 19.6805 46.5909 19.5032C46.5022 19.3259 46.3583 19.1805 46.1797 19.0876C46.0012 18.9948 45.7971 18.9594 45.5967 18.9863Z" fill="white" stroke="#206CDE" stroke-width="0.3"/>
</svg>
