<svg width="55" height="50" viewBox="0 0 55 50" fill="none" xmlns="http://www.w3.org/2000/svg">
<path d="M52.0931 0.14209H0.149414V2.38275H52.0931V0.14209Z" fill="white"/>
<path d="M20.4752 11.3457H0.149414V13.5864H20.4752V11.3457Z" fill="white"/>
<path d="M15.9584 22.5493H0.149414V24.7901H15.9584V22.5493Z" fill="white"/>
<path d="M15.9584 33.7529H0.149414V35.9937H15.9584V33.7529Z" fill="white"/>
<path d="M38.5424 40.4751C29.8271 40.4751 22.7334 33.437 22.7334 24.79C22.7334 16.1409 29.8271 9.10498 38.5424 9.10498C47.2577 9.10498 54.3514 16.1409 54.3514 24.79C54.3514 33.437 47.2577 40.4751 38.5424 40.4751ZM38.5424 11.3457C31.0693 11.3457 24.9918 17.3755 24.9918 24.79C24.9918 32.2046 31.0693 38.2344 38.5424 38.2344C46.0156 38.2344 52.093 32.2046 52.093 24.79C52.093 17.3755 46.0156 11.3457 38.5424 11.3457Z" fill="white"/>
<path d="M27.8706 33.7935L13.7393 47.814L15.3362 49.3984L29.4675 35.3779L27.8706 33.7935Z" fill="white"/>
<path d="M45.9168 19.1914C45.7021 19.2216 45.504 19.3216 45.3547 19.4751C42.1387 22.6162 39.7317 25.2082 36.6623 28.2401L33.1692 25.3641C33.0724 25.2839 32.9603 25.2231 32.8394 25.1853C32.7184 25.1474 32.591 25.1332 32.4644 25.1435C32.3378 25.1537 32.2145 25.1882 32.1016 25.245C31.9887 25.3018 31.8884 25.3797 31.8065 25.4744C31.7246 25.569 31.6627 25.6785 31.6243 25.7965C31.5859 25.9145 31.5717 26.0388 31.5827 26.1621C31.5937 26.2854 31.6295 26.4055 31.6882 26.5153C31.7469 26.6251 31.8272 26.7225 31.9246 26.802L36.1002 30.2454C36.2855 30.3971 36.5226 30.4753 36.7644 30.4644C37.0061 30.4535 37.2349 30.3544 37.4051 30.1867C40.8511 26.8211 43.3136 24.1225 46.7198 20.7957C46.8656 20.6579 46.9629 20.4787 46.9979 20.2837C47.0329 20.0887 47.0038 19.888 46.9148 19.7101C46.8257 19.5322 46.6813 19.3862 46.5021 19.2931C46.3229 19.2 46.118 19.1644 45.9168 19.1914Z" fill="white" stroke="#206CDE" stroke-width="0.3"/>
</svg>
