<svg width="54" height="60" viewBox="0 0 54 60" fill="none" xmlns="http://www.w3.org/2000/svg">
<path d="M53.3445 50.1855V54.6944C53.3423 56.0391 52.8073 57.328 51.8565 58.2789C50.9057 59.2297 49.6168 59.7648 48.2723 59.7669H19.6345C19.421 59.7669 19.2162 59.6821 19.0652 59.5311C18.9142 59.3801 18.8294 59.1753 18.8294 58.9617C18.8294 58.7482 18.9142 58.5434 19.0652 58.3924C19.2162 58.2414 19.421 58.1566 19.6345 58.1566H48.2723C49.1898 58.1545 50.0691 57.789 50.7179 57.1402C51.3667 56.4914 51.7321 55.612 51.7342 54.6944V50.9907H16.7683V54.8071C16.7683 55.4579 16.6401 56.1024 16.3911 56.7036C16.1421 57.3049 15.7771 57.8512 15.3169 58.3114C14.8567 58.7716 14.3105 59.1366 13.7092 59.3856C13.108 59.6347 12.4636 59.7629 11.8129 59.7629C11.1621 59.7629 10.5177 59.6347 9.9165 59.3856C9.31528 59.1366 8.769 58.7716 8.30884 58.3114C7.84868 57.8512 7.48367 57.3049 7.23463 56.7036C6.9856 56.1024 6.85742 55.4579 6.85742 54.8071V7.46385C6.85742 7.25031 6.94225 7.04551 7.09323 6.89452C7.24422 6.74352 7.449 6.65869 7.66253 6.65869H47.4994C47.7129 6.65869 47.9177 6.74352 48.0687 6.89452C48.2197 7.04551 48.3045 7.25031 48.3045 7.46385V44.9681C48.3045 45.1816 48.2197 45.3864 48.0687 45.5374C47.9177 45.6884 47.7129 45.7733 47.4994 45.7733C47.2858 45.7733 47.0811 45.6884 46.9301 45.5374C46.7791 45.3864 46.6943 45.1816 46.6943 44.9681V8.26901H8.46764V54.8071C8.46764 55.6944 8.82009 56.5453 9.44744 57.1727C10.0748 57.8001 10.9257 58.1526 11.8129 58.1526C12.7001 58.1526 13.551 57.8001 14.1783 57.1727C14.8057 56.5453 15.1581 55.6944 15.1581 54.8071V50.1855C15.1581 49.972 15.2429 49.7672 15.3939 49.6162C15.5449 49.4652 15.7497 49.3804 15.9632 49.3804H52.5394C52.7529 49.3804 52.9577 49.4652 53.1087 49.6162C53.2596 49.7672 53.3445 49.972 53.3445 50.1855ZM16.9696 19.5412H27.9996C28.2131 19.5412 28.4179 19.4564 28.5689 19.3054C28.7199 19.1544 28.8047 18.9496 28.8047 18.7361C28.8047 18.5225 28.7199 18.3177 28.5689 18.1667C28.4179 18.0157 28.2131 17.9309 27.9996 17.9309H16.9696C16.7561 17.9309 16.5513 18.0157 16.4003 18.1667C16.2493 18.3177 16.1645 18.5225 16.1645 18.7361C16.1645 18.9496 16.2493 19.1544 16.4003 19.3054C16.5513 19.4564 16.7561 19.5412 16.9696 19.5412ZM38.7639 27.2707C38.7639 27.0572 38.6791 26.8524 38.5281 26.7014C38.3771 26.5504 38.1723 26.4656 37.9588 26.4656H16.9696C16.7561 26.4656 16.5513 26.5504 16.4003 26.7014C16.2493 26.8524 16.1645 27.0572 16.1645 27.2707C16.1645 27.4843 16.2493 27.6891 16.4003 27.8401C16.5513 27.9911 16.7561 28.0759 16.9696 28.0759H37.9588C38.1669 28.0761 38.3669 27.9957 38.517 27.8516C38.6671 27.7075 38.7556 27.5108 38.7639 27.3029V27.2707ZM16.9696 35.0002C16.7561 35.0002 16.5513 35.0851 16.4003 35.2361C16.2493 35.3871 16.1645 35.5919 16.1645 35.8054C16.1645 36.0189 16.2493 36.2237 16.4003 36.3747C16.5513 36.5257 16.7561 36.6106 16.9696 36.6106H35.1087C35.3223 36.6106 35.527 36.5257 35.678 36.3747C35.829 36.2237 35.9138 36.0189 35.9138 35.8054C35.9138 35.5919 35.829 35.3871 35.678 35.2361C35.527 35.0851 35.3223 35.0002 35.1087 35.0002H16.9696Z" fill="white"/>
<path d="M3.50879 4.28172V51.6251C3.50879 51.6251 3.61389 52.0131 4.24453 52.0131C4.87516 52.0131 5.11901 51.6251 5.11901 51.6251V5.08688H43.3456C43.9036 4.4274 43.9193 4.07484 43.3456 3.47656H4.3139C4.10037 3.47656 3.89559 3.56139 3.7446 3.71239C3.59361 3.86338 3.50879 4.06818 3.50879 4.28172Z" fill="white"/>
<path d="M0.145996 0.919904V48.2632C0.145996 48.2632 0.251102 48.6511 0.881736 48.6511C1.51237 48.6511 1.75622 48.2632 1.75622 48.2632V1.72506H39.9828C40.5408 1.06558 40.5564 0.713023 39.9828 0.114746H0.951106C0.737577 0.114746 0.532796 0.199574 0.381808 0.350571C0.230821 0.501567 0.145996 0.706363 0.145996 0.919904Z" fill="white"/>
</svg>
