<svg width="254" height="284" viewBox="0 0 254 284" fill="none" xmlns="http://www.w3.org/2000/svg">
<g opacity="0.15">
<path d="M253.072 238.302V259.761C253.062 266.161 250.516 272.295 245.994 276.821C241.471 281.346 235.339 283.893 228.943 283.903H92.7098C91.6941 283.903 90.7199 283.499 90.0016 282.78C89.2834 282.062 88.8798 281.087 88.8798 280.071C88.8798 279.055 89.2834 278.08 90.0016 277.361C90.7199 276.643 91.6941 276.239 92.7098 276.239H228.943C233.308 276.229 237.491 274.489 240.577 271.401C243.663 268.313 245.402 264.128 245.412 259.761V242.134H79.075V260.298C79.075 263.395 78.4653 266.462 77.2806 269.324C76.0959 272.185 74.3595 274.785 72.1705 276.975C69.9815 279.166 67.3827 280.903 64.5226 282.088C61.6626 283.274 58.5971 283.884 55.5014 283.884C52.4057 283.884 49.3402 283.274 46.4801 282.088C43.6201 280.903 41.0213 279.166 38.8323 276.975C36.6433 274.785 34.9069 272.185 33.7222 269.324C32.5375 266.462 31.9277 263.395 31.9277 260.298V34.976C31.9277 33.9597 32.3313 32.985 33.0495 32.2664C33.7678 31.5478 34.742 31.144 35.7577 31.144H225.266C226.282 31.144 227.256 31.5478 227.974 32.2664C228.693 32.985 229.096 33.9597 229.096 34.976V213.471C229.096 214.487 228.693 215.462 227.974 216.18C227.256 216.899 226.282 217.303 225.266 217.303C224.25 217.303 223.276 216.899 222.558 216.18C221.84 215.462 221.436 214.487 221.436 213.471V38.808H39.5877V260.298C39.5877 264.52 41.2644 268.57 44.2487 271.556C47.2331 274.542 51.2808 276.22 55.5014 276.22C59.722 276.22 63.7697 274.542 66.754 271.556C69.7384 268.57 71.415 264.52 71.415 260.298V238.302C71.415 237.286 71.8186 236.311 72.5368 235.592C73.2551 234.874 74.2293 234.47 75.245 234.47H249.242C250.258 234.47 251.232 234.874 251.95 235.592C252.668 236.311 253.072 237.286 253.072 238.302ZM80.0325 92.4561H132.504C133.519 92.4561 134.494 92.0523 135.212 91.3337C135.93 90.6151 136.334 89.6404 136.334 88.6241C136.334 87.6077 135.93 86.6331 135.212 85.9144C134.494 85.1958 133.519 84.7921 132.504 84.7921H80.0325C79.0168 84.7921 78.0426 85.1958 77.3243 85.9144C76.6061 86.6331 76.2025 87.6077 76.2025 88.6241C76.2025 89.6404 76.6061 90.6151 77.3243 91.3337C78.0426 92.0523 79.0168 92.4561 80.0325 92.4561ZM183.711 129.243C183.711 128.227 183.307 127.252 182.589 126.534C181.871 125.815 180.896 125.411 179.881 125.411H80.0325C79.0168 125.411 78.0426 125.815 77.3243 126.534C76.6061 127.252 76.2025 128.227 76.2025 129.243C76.2025 130.26 76.6061 131.234 77.3243 131.953C78.0426 132.672 79.0168 133.075 80.0325 133.075H179.881C180.87 133.076 181.822 132.693 182.536 132.008C183.25 131.322 183.671 130.386 183.711 129.397V129.243ZM80.0325 166.03C79.0168 166.03 78.0426 166.434 77.3243 167.153C76.6061 167.871 76.2025 168.846 76.2025 169.862C76.2025 170.879 76.6061 171.853 77.3243 172.572C78.0426 173.291 79.0168 173.694 80.0325 173.694H166.322C167.338 173.694 168.312 173.291 169.031 172.572C169.749 171.853 170.152 170.879 170.152 169.862C170.152 168.846 169.749 167.871 169.031 167.153C168.312 166.434 167.338 166.03 166.322 166.03H80.0325Z" fill="white"/>
<path d="M16 19.832V245.154C16 245.154 16.5 247 19.5 247C22.5 247 23.66 245.154 23.66 245.154V23.664H205.508C208.163 20.5253 208.237 18.8474 205.508 16H19.83C18.8142 16 17.8401 16.4037 17.1218 17.1224C16.4035 17.841 16 18.8157 16 19.832Z" fill="white"/>
<path d="M0 3.832V229.154C0 229.154 0.5 231 3.5 231C6.5 231 7.66 229.154 7.66 229.154V7.664H189.508C192.163 4.52532 192.237 2.84739 189.508 0H3.83C2.81422 0 1.84005 0.403725 1.12179 1.12236C0.403521 1.841 0 2.81569 0 3.832Z" fill="white"/>
<rect x="77" y="104" width="92" height="7" rx="3.5" fill="white"/>
<rect x="77" y="147" width="92" height="7" rx="3.5" fill="white"/>
</g>
</svg>
