<svg width="408" height="358" viewBox="0 0 408 358" fill="none" xmlns="http://www.w3.org/2000/svg">
<g opacity="0.2">
<path d="M264.717 65.325C265.403 66.1092 266.335 66.5504 267.364 66.5504C268.393 66.5504 269.374 66.1092 270.011 65.325L277.51 56.5513C278.637 55.2769 278.637 53.3653 277.559 52.0419L270.06 43.0721C268.736 41.5036 266.04 41.5036 264.717 43.0721L257.218 52.0419C256.139 53.3653 256.139 55.2769 257.267 56.5513L264.717 65.325ZM267.364 50.7675L270.305 54.2966L267.364 57.7276L264.423 54.2966L267.364 50.7675Z" fill="white" fill-opacity="0.49"/>
<path d="M383.428 56.8551C395.785 38.5283 395.396 13.9859 382.534 0.960645C381.796 0.229401 380.863 -0.136225 379.892 0.0465862C379.076 0.183695 378.026 1.00635 377.599 1.829C373.946 8.73012 340.995 70.2003 304.856 96.6623L303.574 97.5763C302.331 98.4447 301.515 99.9529 301.359 101.598C301.243 103.289 301.787 104.889 302.875 106.031C306.683 110.007 308.781 115.309 308.781 120.976C308.781 131.031 302.02 139.714 292.616 141.634C288.303 142.594 281.036 142.594 273.576 139.76C272.565 139.394 271.438 139.577 270.622 140.308C269.884 140.948 269.301 142.319 269.301 143.37V180.938C269.301 182.766 270.428 184.32 271.982 184.686C273.537 185.051 275.091 184 275.635 182.309C279.327 171.021 289.857 168.507 294.559 167.913C296.891 182.264 300.776 193.598 305.595 199.996C310.063 205.938 316.436 209.411 323.003 209.457C323.042 209.457 323.081 209.457 323.159 209.457C328.521 209.457 333.378 207.172 336.448 203.15C337.109 202.281 337.381 201.139 337.225 199.996C337.109 199.036 336.37 197.803 335.632 197.3C332.251 195.06 315.931 183.406 311.385 164.439C311.385 164.439 311.424 164.439 311.424 164.394C317.719 175.545 326.423 185.417 333.573 189.393C346.59 196.614 359.297 193.506 365.203 181.807C365.786 180.71 365.825 179.339 365.32 178.15C364.892 177.145 363.61 176.139 362.639 176.048C356.033 175.408 335.865 168.918 325.995 153.288C336.72 162.063 350.398 169.055 360.113 170.564C369.555 172.026 378.026 169.832 383.311 164.485C387.158 160.6 389.295 155.116 389.412 148.581C389.412 147.529 389.062 146.524 388.44 145.793C387.896 145.153 386.808 144.559 385.953 144.696C382.922 144.879 357.548 146.295 338.08 135.647C346.823 137.795 368.662 142.639 380.63 140.308C396.329 137.338 406.043 123.261 404.217 106.123C404.139 105.072 403.362 103.7 402.546 103.198C401.769 102.695 400.331 102.649 399.476 103.106C395.163 105.62 372.975 117.503 343.831 114.441C366.291 111.104 381.368 106.58 391.199 100.318C405.344 91.2693 411.25 70.0175 404.139 53.9302C403.634 52.8333 402.662 52.0563 401.613 51.9192C400.681 51.8735 399.398 52.3763 398.777 53.1989C394.968 58.2262 374.918 83.1342 343.093 92.2291C343.093 92.092 343.054 91.9549 343.054 91.8178C363.066 78.7468 376.627 66.9555 383.428 56.8551ZM338.741 87.3389C337.73 87.9787 337.186 89.3041 337.342 90.6295C337.575 92.5947 337.73 94.5599 337.808 96.5708C337.847 97.5306 338.236 98.399 338.896 98.9931C339.557 99.5872 340.373 99.77 341.15 99.5872C372.003 91.9549 392.948 69.789 400.525 60.6942C403.945 72.9882 398.893 88.1158 388.557 94.7427C378.881 100.958 363.299 105.391 339.557 108.636C338.313 108.819 337.342 109.916 337.148 111.379C336.914 113.115 336.642 114.806 336.332 116.543C336.176 117.411 336.332 118.371 336.759 119.102C337.186 119.834 337.886 120.336 338.663 120.473C367.107 124.907 390.072 115.263 398.893 110.739C398.699 122.667 391.355 131.808 379.736 134.001C365.864 136.606 335.865 128.517 335.554 128.426C334.233 128.06 332.951 128.837 332.407 130.254C331.824 131.808 331.202 133.316 330.503 134.778C329.803 136.332 330.27 138.298 331.591 139.166C350.01 151.368 374.568 151.78 383.622 151.414C383.117 154.75 381.796 157.493 379.697 159.595C375.656 163.663 368.584 165.399 360.812 164.165C351.253 162.657 337.381 155.299 327.083 146.25C325.956 145.244 324.324 145.427 323.392 146.661C322.42 147.895 321.41 149.038 320.361 150.18C319.351 151.231 319.156 152.968 319.856 154.293C328.715 171.066 347.562 179.476 358.17 181.898C353.157 187.656 344.725 188.433 335.943 183.543C329.182 179.796 320.672 169.787 314.843 158.635C314.105 157.218 312.55 156.716 311.268 157.401C309.947 158.132 308.587 158.772 307.188 159.321C305.867 159.869 305.09 161.469 305.362 163.068C308.742 182.721 323.236 195.792 330.037 200.956C328.133 202.236 325.879 203.15 323.042 202.967C318.029 202.921 313.172 200.27 309.753 195.7C305.362 189.85 301.67 178.287 299.611 163.982C299.377 162.429 298.251 161.286 296.891 161.286C291.023 161.286 281.192 163.663 274.858 171.752V147.027C281.27 148.946 288.109 149.358 293.665 148.124C305.672 145.656 314.377 134.276 314.377 121.022C314.377 114.029 311.967 107.448 307.615 102.329L307.849 102.192C342.044 77.1472 373.169 22.2124 380.863 8.04457C389.528 19.1961 388.984 38.2084 379.114 52.7876C372.547 62.5223 358.986 74.1308 338.741 87.3389Z" fill="white" fill-opacity="0.49"/>
<path d="M23.7306 56.8551C11.3737 38.5283 11.7622 13.9859 24.6243 0.960645C25.3626 0.229401 26.2952 -0.136225 27.2666 0.0465862C28.0827 0.183695 29.1319 1.00635 29.5593 1.829C33.212 8.73012 66.1637 70.2003 102.302 96.6623L103.584 97.5763C104.828 98.4447 105.644 99.9529 105.799 101.598C105.916 103.289 105.372 104.889 104.283 106.031C100.475 110.007 98.3771 115.309 98.3771 120.976C98.3771 131.031 105.138 139.714 114.542 141.634C118.855 142.594 126.122 142.594 133.583 139.76C134.593 139.394 135.72 139.577 136.536 140.308C137.274 140.948 137.857 142.319 137.857 143.37V180.938C137.857 182.766 136.73 184.32 135.176 184.686C133.621 185.051 132.067 184 131.523 182.309C127.832 171.021 117.301 168.507 112.599 167.913C110.268 182.264 106.382 193.598 101.563 199.996C97.0947 205.938 90.722 209.411 84.155 209.457C84.1161 209.457 84.0773 209.457 83.9996 209.457C78.6371 209.457 73.7798 207.172 70.7101 203.15C70.0495 202.281 69.7775 201.139 69.9329 199.996C70.0495 199.036 70.7878 197.803 71.5261 197.3C74.9068 195.06 91.2272 183.406 95.7736 164.439C95.7736 164.439 95.7347 164.439 95.7347 164.394C89.4397 175.545 80.7355 185.417 73.5856 189.393C60.5681 196.614 47.8615 193.506 41.955 181.807C41.3722 180.71 41.3333 179.339 41.8384 178.15C42.2659 177.145 43.5482 176.139 44.5197 176.048C51.1256 175.408 71.2929 168.918 81.1629 153.288C70.438 162.063 56.76 169.055 47.0455 170.564C37.6029 172.026 29.1318 169.832 23.8471 164.485C20.0002 160.6 17.863 155.116 17.7464 148.581C17.7464 147.529 18.0961 146.524 18.7179 145.793C19.2619 145.153 20.3499 144.559 21.2048 144.696C24.2357 144.879 49.6101 146.295 69.078 135.647C60.3349 137.795 38.4967 142.639 26.5284 140.308C10.8297 137.338 1.11513 123.261 2.94147 106.123C3.01918 105.072 3.79634 103.7 4.61237 103.198C5.38953 102.695 6.82729 102.649 7.68216 103.106C11.9954 105.62 34.1834 117.503 63.327 114.441C40.867 111.104 25.79 106.58 15.9589 100.318C1.81458 91.2693 -4.09187 70.0175 3.01917 53.9302C3.52432 52.8333 4.49579 52.0563 5.54495 51.9192C6.47755 51.8735 7.75989 52.3763 8.38161 53.1989C12.1897 58.2262 32.2405 83.1342 64.0653 92.2291C64.0653 92.092 64.1042 91.9549 64.1042 91.8178C44.0922 78.7468 30.5307 66.9555 23.7306 56.8551ZM68.4174 87.3389C69.4277 87.9787 69.9718 89.3041 69.8163 90.6295C69.5832 92.5947 69.4277 94.5599 69.35 96.5708C69.3112 97.5306 68.9226 98.399 68.262 98.9931C67.6014 99.5872 66.7854 99.77 66.0082 99.5872C35.1549 91.9549 14.2103 69.789 6.63298 60.6942C3.21346 72.9882 8.26503 88.1158 18.6013 94.7427C28.277 100.958 43.8591 105.391 67.6014 108.636C68.8449 108.819 69.8163 109.916 70.0106 111.379C70.2438 113.115 70.5158 114.806 70.8267 116.543C70.9821 117.411 70.8266 118.371 70.3992 119.102C69.9718 119.834 69.2723 120.336 68.4951 120.473C40.051 124.907 17.0858 115.263 8.26501 110.739C8.4593 122.667 15.8035 131.808 27.4221 134.001C41.2944 136.606 71.2929 128.517 71.6038 128.426C72.925 128.06 74.2073 128.837 74.7513 130.254C75.3342 131.808 75.9559 133.316 76.6554 134.778C77.3548 136.332 76.8885 138.298 75.5673 139.166C57.1486 151.368 32.5902 151.78 23.5363 151.414C24.0414 154.75 25.3626 157.493 27.4609 159.595C31.5022 163.663 38.5744 165.399 46.346 164.165C55.9051 162.657 69.7775 155.299 80.0749 146.25C81.2018 145.244 82.8338 145.427 83.7664 146.661C84.7378 147.895 85.7481 149.038 86.7973 150.18C87.8076 151.231 88.0019 152.968 87.3025 154.293C78.4428 171.066 59.5966 179.476 48.9884 181.898C54.0011 187.656 62.4333 188.433 71.2152 183.543C77.9765 179.796 86.4865 169.787 92.3152 158.635C93.0535 157.218 94.6078 156.716 95.8901 157.401C97.2113 158.132 98.5714 158.772 99.9703 159.321C101.291 159.869 102.069 161.469 101.797 163.068C98.4159 182.721 83.9218 195.792 77.1217 200.956C79.0257 202.236 81.2795 203.15 84.1161 202.967C89.1288 202.921 93.9861 200.27 97.4056 195.7C101.797 189.85 105.488 178.287 107.548 163.982C107.781 162.429 108.908 161.286 110.268 161.286C116.135 161.286 125.966 163.663 132.3 171.752V147.027C125.889 148.946 119.05 149.358 113.493 148.124C101.486 145.656 92.7815 134.276 92.7815 121.022C92.7815 114.029 95.1907 107.448 99.5428 102.329L99.3096 102.192C65.1145 77.1472 33.9891 22.2124 26.2952 8.04457C17.6298 19.1961 18.1739 38.2084 28.0438 52.7876C34.6108 62.5223 48.1723 74.1308 68.4174 87.3389Z" fill="white" fill-opacity="0.49"/>
<path d="M117.621 73.6086C115.661 76.4025 114.043 81.5 117.18 89.7836C118.552 93.3617 123.258 99.6846 123.797 100.371C124.483 101.253 125.513 101.743 126.591 101.743H154.628C182.223 101.743 191.634 83.9018 194.624 75.2751H213.446C216.387 83.9018 225.846 101.743 253.393 101.743H281.43C282.508 101.743 283.537 101.204 284.224 100.371C284.763 99.6846 289.468 93.3617 290.841 89.7346C293.978 81.451 292.36 76.3535 290.448 73.5596C287.949 69.9325 283.586 67.9719 278.097 67.9719C277.263 67.9719 276.43 68.2659 275.793 68.8541L267.46 76.2554L259.128 68.8541C258.491 68.2659 257.657 67.9719 256.824 67.9719C251.383 67.9719 246.972 69.9815 244.521 73.5596C242.659 76.2554 241.09 81.0099 243.688 88.6562C237.169 86.0094 230.993 80.8138 228.836 72.4322C230.846 69.1972 235.944 61.0117 237.561 56.9925C240.992 48.3168 240.992 41.3076 237.512 36.1611C234.228 31.3086 228.199 28.7598 220.112 28.7598C219.082 28.7598 218.151 29.2009 217.465 29.9851L203.986 45.3759L190.654 29.9851C189.967 29.2009 189.036 28.7598 188.007 28.7598C179.919 28.7598 173.89 31.3086 170.606 36.1611C167.126 41.3076 167.126 48.3168 170.557 56.9925C172.175 61.0117 177.223 69.1972 179.282 72.4322C177.125 80.8628 170.95 86.0094 164.431 88.6562C167.028 81.0099 165.46 76.2554 163.597 73.5596C161.098 69.9325 156.735 67.9719 151.294 67.9719C150.461 67.9719 149.628 68.2659 148.991 68.8541L140.658 76.2554L132.326 68.8541C131.688 68.2659 130.855 67.9719 130.022 67.9719C124.483 68.0209 120.121 70.0305 117.621 73.6086ZM250.158 77.5788C251.383 75.8143 253.687 75.2261 255.452 75.03L265.059 83.5587C266.382 84.735 268.392 84.735 269.715 83.5587L279.322 75.03C281.087 75.1771 283.39 75.7653 284.616 77.5788C285.988 79.5884 285.89 83.0685 284.273 87.2838C283.635 88.9503 281.381 92.3324 279.616 94.7831H253.834C254.03 93.9009 253.834 92.9696 253.344 92.1853C251.825 89.8816 250.844 88.2151 250.501 87.2838C248.884 83.0685 248.737 79.5884 250.158 77.5788ZM177.027 54.4437C175.263 50.0323 173.743 44.0035 176.341 40.1313C178.057 37.5825 181.635 36.063 186.438 35.8179L201.339 52.9732C202.025 53.7575 202.956 54.1986 203.986 54.1986C205.015 54.1986 205.946 53.7575 206.633 52.9732L221.533 35.7689C226.337 36.014 229.915 37.5335 231.63 40.0823C234.228 43.9545 232.709 50.0323 230.944 54.3947C229.523 57.9238 224.033 66.7955 222.072 69.8835C221.582 70.6187 221.386 71.55 221.582 72.4322C222.611 77.5788 224.719 81.8431 227.513 85.3232C222.513 80.2747 220.308 74.3928 219.376 70.8638C218.984 69.3443 217.563 68.266 215.994 68.266H192.026C190.458 68.266 189.036 69.3443 188.644 70.8638C187.713 74.4419 185.507 80.3237 180.507 85.3722C183.301 81.8922 185.458 77.6278 186.487 72.4322C186.634 71.55 186.487 70.6187 185.997 69.8835C183.939 66.8445 178.449 58.0218 177.027 54.4437ZM123.356 77.5788C124.581 75.8143 126.885 75.2261 128.65 75.03L138.256 83.5587C139.58 84.735 141.59 84.735 142.913 83.5587L152.52 75.03C154.284 75.1771 156.588 75.7653 157.814 77.5788C159.186 79.5884 159.088 83.0685 157.47 87.3328C157.274 87.872 156.588 89.2934 154.628 92.1853C154.088 92.9696 153.941 93.9009 154.088 94.7831H128.306C126.542 92.3324 124.287 88.9503 123.65 87.2838C122.081 83.0685 121.983 79.6375 123.356 77.5788Z" fill="white" fill-opacity="0.49"/>
<path d="M137.964 65.325C138.65 66.1092 139.582 66.5504 140.611 66.5504C141.64 66.5504 142.621 66.1092 143.258 65.325L150.757 56.5513C151.884 55.2769 151.884 53.3653 150.806 52.0419L143.307 43.0721C141.983 41.5036 139.288 41.5036 137.964 43.0721L130.465 52.0419C129.387 53.3653 129.386 55.2769 130.514 56.5513L137.964 65.325ZM140.611 50.7675L143.552 54.2966L140.611 57.7276L137.67 54.2966L140.611 50.7675Z" fill="white" fill-opacity="0.49"/>
<path d="M201.239 31.5535C201.925 32.3867 202.906 32.8769 203.984 32.8769C205.062 32.8769 206.043 32.3867 206.729 31.5535L217.316 18.2704C218.346 16.947 218.346 15.1334 217.267 13.859L206.68 1.21312C205.357 -0.404375 202.661 -0.404375 201.337 1.21312L190.75 13.859C189.672 15.1334 189.672 16.947 190.701 18.2704L201.239 31.5535ZM203.984 8.9085L210.062 16.1627L203.984 23.7601L197.906 16.1137L203.984 8.9085Z" fill="white" fill-opacity="0.49"/>
<g opacity="0.49">
<g clip-path="url(#clip0)">
<path d="M205.175 357.172C204.712 357.367 204.197 357.466 203.684 357.466C203.273 357.466 202.861 357.417 202.45 357.269C202.244 357.22 183.224 350.309 183.224 337.957C183.224 325.115 187.491 309.48 190.524 299.971C184.15 309.872 178.649 323.939 177.57 339.428C177.518 340.654 176.85 341.781 175.77 342.516C174.897 343.104 173.2 343.398 172.12 343.153C162.456 340.751 150.53 331.634 153.254 320.851C155.824 310.656 161.942 300.657 170.372 292.422C159.578 300.51 149.502 312.078 146.777 325.557C146.571 326.635 145.903 327.566 144.978 328.204C144.156 328.742 142.665 329.036 141.688 328.841C134.799 327.566 128.271 323.204 124.93 317.665C122.72 313.99 122.205 310.166 123.439 306.833C129.916 289.481 159.063 273.944 184.818 267.228C179.677 255.76 173.611 250.318 169.293 247.769C163.433 244.29 157.315 244.093 153.357 247.28C149.655 250.27 148.936 255.367 151.455 260.954C152.38 263.063 152.175 265.366 150.941 267.131C149.707 268.945 147.548 269.974 145.08 269.974C128.682 269.974 108.788 275.61 101.232 282.325C94.8053 291.099 83.5985 295.804 71.7238 294.775C57.3307 293.452 45.661 283.305 44.0168 270.709C42.6282 260.073 48.129 249.975 58.41 244.29C59.6955 243.604 61.2893 243.653 62.4717 244.534L75.0145 253.749L87.5572 244.534C88.7396 243.653 90.3849 243.554 91.6189 244.29C97.6846 247.672 102.157 252.671 104.418 258.602C111.924 258.602 123.284 256.298 127.86 254.485C112.026 232.428 115.882 218.017 119.687 211.302C125.238 201.548 137.267 195.912 150.889 196.549C152.843 196.647 154.385 198.166 154.385 200.029V223.507C154.385 229.094 159.783 233.653 166.415 233.653H183.276C192.529 233.653 199.52 239.143 203.273 243.015C207.025 239.192 209.493 355.357 205.175 357.172ZM147.445 223.703V203.705C138.09 204.146 130.276 208.263 126.575 214.782C121.177 224.292 124.467 237.771 135.982 252.867C137.01 254.337 137.01 256.152 136.033 257.67C132.589 262.964 109.456 266.542 101.643 265.513C100.151 265.317 98.969 264.287 98.6092 262.964C97.3764 258.504 94.4971 254.583 90.3849 251.74L77.636 261.102C76.3 262.082 74.4484 262.082 73.164 261.102L60.4151 251.74C54.0916 256.103 50.7505 262.915 51.6763 270.023C52.9092 279.434 61.8026 286.981 72.8043 288.011C82.1079 288.844 90.8982 285.119 95.7826 278.257C95.9362 278.061 96.0908 277.865 96.2455 277.718C105.909 268.748 128.219 263.357 144.772 263.16C141.431 255.024 142.973 246.986 148.987 242.133C151.301 240.221 154.077 239.045 157.11 238.506C151.301 235.516 147.445 230.026 147.445 223.703ZM205.175 252.867C203.941 252.867 201.319 251.642 200.651 250.662C200.6 250.564 193.66 240.858 183.687 240.858H171.349C172.069 241.201 172.788 241.593 173.456 241.986C181.682 246.888 188.57 256.053 193.505 268.552C193.865 269.483 193.813 270.562 193.3 271.395C192.786 272.277 191.911 272.915 190.935 273.159C166.363 278.747 136.29 294.138 130.636 309.283C129.968 311.097 130.944 313.205 131.561 314.283C133.36 317.322 136.805 319.92 140.557 321.293C147.651 295.51 177.055 277.129 192.323 273.895C194.123 273.502 195.922 274.434 196.538 276.051L197.823 279.237C198.491 280.953 197.669 282.865 195.922 283.648C178.443 291.393 164.615 306.637 160.657 322.517C159.372 327.615 165.026 332.712 170.887 335.261C173.354 312.764 184.098 293.844 194.071 284.727C195.047 283.845 196.486 283.551 197.772 283.943C199.057 284.384 200.034 285.462 200.188 286.737C200.497 288.55 200.702 290.413 200.856 292.276C200.908 292.766 200.805 293.256 200.651 293.746C200.548 293.991 190.78 319.626 190.78 338.007C190.78 343.398 202.018 349.072 206.182 350.886C209.066 342.516 206.409 252.867 205.175 252.867Z" fill="white"/>
<path d="M203.027 357.305C203.49 357.5 204.005 357.599 204.518 357.599C204.929 357.599 205.341 357.55 205.752 357.402C205.958 357.353 224.978 350.442 224.978 338.09C224.978 325.248 220.711 309.613 217.678 300.104C224.052 310.005 229.553 324.072 230.632 339.561C230.684 340.787 231.352 341.914 232.432 342.649C233.305 343.237 235.002 343.531 236.082 343.286C245.746 340.884 257.672 331.767 254.948 320.984C252.378 310.789 246.261 300.79 237.83 292.555C248.624 300.642 258.7 312.211 261.425 325.69C261.631 326.768 262.299 327.699 263.224 328.337C264.046 328.875 265.537 329.169 266.514 328.974C273.403 327.699 279.931 323.336 283.272 317.798C285.483 314.123 285.997 310.299 284.763 306.966C278.286 289.614 249.139 274.077 223.384 267.361C228.525 255.892 234.591 250.451 238.909 247.902C244.769 244.423 250.887 244.226 254.845 247.413C258.547 250.403 259.266 255.5 256.747 261.087C255.822 263.196 256.027 265.499 257.261 267.264C258.495 269.078 260.654 270.107 263.122 270.107C279.52 270.107 299.414 275.743 306.97 282.458C313.397 291.232 324.604 295.937 336.478 294.908C350.871 293.585 362.541 283.438 364.185 270.842C365.574 260.206 360.073 250.108 349.792 244.423C348.507 243.737 346.913 243.786 345.73 244.667L333.188 253.882L320.645 244.667C319.463 243.786 317.817 243.687 316.583 244.423C310.518 247.805 306.046 252.804 303.784 258.735C296.278 258.735 284.918 256.431 280.343 254.618C296.176 232.561 292.32 218.15 288.515 211.435C282.964 201.681 270.935 196.045 257.313 196.682C255.359 196.78 253.817 198.299 253.817 200.162V223.64C253.817 229.227 248.419 233.786 241.788 233.786H224.926C215.673 233.786 208.682 239.276 204.929 243.148C201.177 239.325 198.709 355.49 203.027 357.305ZM260.757 223.836V203.838C270.112 204.279 277.926 208.396 281.627 214.915C287.025 224.425 283.735 237.904 272.22 253C271.193 254.47 271.193 256.285 272.169 257.803C275.613 263.097 298.746 266.675 306.559 265.646C308.051 265.449 309.233 264.42 309.593 263.097C310.826 258.637 313.705 254.716 317.817 251.873L330.566 261.235C331.902 262.215 333.754 262.215 335.038 261.235L347.787 251.873C354.111 256.236 357.452 263.048 356.526 270.156C355.293 279.566 346.4 287.114 335.398 288.143C326.094 288.977 317.304 285.252 312.42 278.39C312.266 278.194 312.111 277.998 311.957 277.851C302.293 268.881 279.983 263.49 263.43 263.293C266.771 255.157 265.229 247.119 259.215 242.266C256.901 240.354 254.125 239.178 251.092 238.639C256.901 235.649 260.757 230.159 260.757 223.836ZM203.027 253C204.261 253 206.883 251.775 207.551 250.795C207.602 250.697 214.542 240.991 224.515 240.991H236.853C236.133 241.334 235.414 241.726 234.746 242.119C226.52 247.021 219.632 256.186 214.697 268.685C214.337 269.616 214.389 270.694 214.902 271.528C215.417 272.41 216.291 273.048 217.267 273.292C241.839 278.88 271.912 294.271 277.566 309.416C278.234 311.23 277.258 313.338 276.641 314.416C274.842 317.455 271.398 320.053 267.645 321.426C260.551 295.643 231.147 277.262 215.879 274.028C214.079 273.635 212.281 274.567 211.664 276.184L210.379 279.37C209.711 281.086 210.533 282.998 212.281 283.781C229.759 291.526 243.588 306.77 247.545 322.65C248.831 327.748 243.176 332.845 237.316 335.394C234.848 312.897 224.104 293.977 214.131 284.86C213.155 283.978 211.716 283.684 210.43 284.076C209.145 284.516 208.168 285.595 208.014 286.87C207.706 288.683 207.5 290.546 207.346 292.408C207.294 292.899 207.397 293.388 207.551 293.879C207.654 294.124 217.422 319.759 217.422 338.14C217.422 343.531 206.184 349.205 202.021 351.019C199.136 342.649 201.793 253 203.027 253Z" fill="white"/>
<path d="M174.601 210.33V225.748H178.693V220.902H180.728C184.555 220.88 187.475 219.669 187.475 215.616C187.475 211.564 184.555 210.33 180.728 210.33H174.601ZM183.272 215.616C183.272 217.004 182.166 217.378 180.927 217.378H178.693V213.854H180.927C182.166 213.854 183.272 214.229 183.272 215.616Z" fill="white"/>
<path d="M188.645 218.039C188.645 222.334 191.411 226.078 196.941 226.078C202.471 226.078 205.236 222.334 205.236 218.039C205.236 213.744 202.471 210 196.941 210C191.411 210 188.645 213.744 188.645 218.039ZM201.033 218.039C201.033 220.506 199.617 222.334 196.941 222.334C194.264 222.334 192.848 220.506 192.848 218.039C192.848 215.572 194.264 213.744 196.941 213.744C199.617 213.744 201.033 215.572 201.033 218.039Z" fill="white"/>
<path d="M206.619 218.259C206.619 223.766 210.844 226.078 215.091 226.078C216.728 226.078 218.254 225.748 219.604 225.109V221.145C218.719 222.004 217.259 222.488 215.666 222.488C213.255 222.488 210.822 221.255 210.822 218.259C210.822 214.912 213.255 213.568 215.711 213.568C217.126 213.568 218.542 214.031 219.493 214.824V210.969C218.144 210.33 216.573 210 215.003 210C210.822 210 206.619 212.445 206.619 218.259Z" fill="white"/>
<path d="M220.694 210.33V213.965H225.074V225.748H229.166V213.965H233.524V210.33H220.694Z" fill="white"/>
</g>
<path d="M151.215 201.976V121.827L205.768 97.2478L257.012 120.758V201.976" stroke="white" stroke-width="6"/>
</g>
<g clip-path="url(#clip1)">
<path d="M218.833 203.561H189.678C188.058 203.561 186.505 202.92 185.359 201.78C184.214 200.64 183.57 199.093 183.57 197.48C183.57 197.064 183.594 191.878 183.682 190.791C184.068 188.862 184.974 190.915 185.774 190.915C186.46 190.915 187.642 189.187 188.046 190.89C187.992 192.204 187.977 196.952 187.977 197.48C187.977 197.929 188.156 198.36 188.475 198.677C188.794 198.995 189.227 199.173 189.678 199.173H218.833C219.773 199.173 220.534 198.415 220.534 197.48C220.534 196.977 220.534 192.132 220.534 190.915C220.534 189.148 222.026 190.915 222.738 190.915C223.419 190.915 224.941 189.729 224.941 191.424C224.941 192.844 224.941 196.946 224.941 197.48C224.941 200.838 222.207 203.561 218.833 203.561ZM182.883 191.916C180.449 191.916 178.476 189.952 178.476 187.528V180.306C178.476 174.702 183.036 170.158 188.665 170.153H219.838C225.456 170.172 230 174.712 230 180.306V187.555C230 189.978 228.027 191.942 225.593 191.942L182.883 191.916ZM182.883 187.528H225.593V180.306C225.589 177.134 223.007 174.563 219.82 174.558H188.665C185.478 174.563 182.897 177.134 182.892 180.306L182.883 187.528ZM213.933 158.499C215.815 159.276 217.043 161.104 217.044 163.132V171.938C217.044 173.15 216.058 170.795 214.841 170.795C213.624 170.795 212.637 172.006 212.637 170.795V163.159C212.637 162.815 212.357 162.536 212.012 162.536H196.509C196.163 162.536 195.883 162.815 195.883 163.159V170.299C195.883 171.51 194.769 170.299 193.552 170.299C192.335 170.299 191.476 172.006 191.476 170.795V163.159C191.478 161.13 192.705 159.302 194.587 158.525C194.402 157.578 194.199 156.656 193.979 155.752C193.126 152.083 191.634 148.59 189.572 145.432C184.821 138.199 186.103 128.592 192.586 122.844C199.068 117.096 208.8 116.938 215.468 122.472C222.136 128.005 223.732 137.565 219.221 144.95C217.097 148.276 215.515 151.916 214.532 155.735C214.321 156.612 214.118 157.56 213.933 158.499ZM213.016 126.144C208.118 121.722 200.679 121.624 195.664 125.913C190.648 130.202 189.624 137.539 193.274 143.028C195.613 146.613 197.304 150.578 198.271 154.743C198.536 155.84 198.765 156.99 198.994 158.148H209.526C209.747 156.99 209.985 155.849 210.249 154.752C211.339 150.47 213.106 146.388 215.484 142.659C218.77 137.282 217.732 130.336 213.016 126.144Z" fill="white" fill-opacity="0.49"/>
<path d="M182.883 192.066L183.481 192.066C183.434 193.999 183.42 197.162 183.42 197.48C183.42 199.133 184.08 200.718 185.253 201.886C186.427 203.055 188.019 203.711 189.678 203.711H218.833C222.289 203.711 225.091 200.922 225.091 197.48V197.477V197.473V197.47V197.467V197.463V197.46V197.456V197.452V197.448V197.444V197.441V197.436V197.432V197.428V197.424V197.42V197.415V197.411V197.406V197.401V197.397V197.392V197.387V197.382V197.377V197.372V197.367V197.361V197.356V197.351V197.345V197.339V197.334V197.328V197.322V197.316V197.311V197.305V197.299V197.292V197.286V197.28V197.274V197.267V197.261V197.254V197.247V197.241V197.234V197.227V197.22V197.213V197.206V197.199V197.192V197.185V197.178V197.17V197.163V197.155V197.148V197.14V197.132V197.125V197.117V197.109V197.101V197.093V197.085V197.077V197.069V197.06V197.052V197.044V197.035V197.027V197.018V197.01V197.001V196.992V196.983V196.975V196.966V196.957V196.948V196.939V196.929V196.92V196.911V196.902V196.892V196.883V196.873V196.864V196.854V196.845V196.835V196.825V196.815V196.805V196.795V196.785V196.775V196.765V196.755V196.745V196.735V196.725V196.714V196.704V196.693V196.683V196.672V196.662V196.651V196.64V196.63V196.619V196.608V196.597V196.586V196.575V196.564V196.553V196.542V196.531V196.52V196.508V196.497V196.486V196.474V196.463V196.451V196.44V196.428V196.416V196.405V196.393V196.381V196.37V196.358V196.346V196.334V196.322V196.31V196.298V196.286V196.274V196.261V196.249V196.237V196.225V196.212V196.2V196.188V196.175V196.163V196.15V196.138V196.125V196.112V196.1V196.087V196.074V196.061V196.049V196.036V196.023V196.01V195.997V195.984V195.971V195.958V195.945V195.932V195.918V195.905V195.892V195.879V195.866V195.852V195.839V195.826V195.812V195.799V195.785V195.772V195.758V195.745V195.731V195.717V195.704V195.69V195.676V195.663V195.649V195.635V195.621V195.607V195.594V195.58V195.566V195.552V195.538V195.524V195.51V195.496V195.482V195.468V195.454V195.439V195.425V195.411V195.397V195.383V195.369V195.354V195.34V195.326V195.311V195.297V195.283V195.268V195.254V195.239V195.225V195.211V195.196V195.182V195.167V195.153V195.138V195.123V195.109V195.094V195.08V195.065V195.05V195.036V195.021V195.006V194.992V194.977V194.962V194.947V194.933V194.918V194.903V194.888V194.874V194.859V194.844V194.829V194.814V194.799V194.784V194.77V194.755V194.74V194.725V194.71V194.695V194.68V194.665V194.65V194.635V194.62V194.605V194.59V194.575V194.56V194.545V194.53V194.515V194.5V194.485V194.47V194.455V194.44V194.425V194.41V194.395V194.38V194.365V194.35V194.335V194.32V194.305V194.29V194.274V194.259V194.244V194.229V194.214V194.199V194.184V194.169V194.154V194.139V194.124V194.109V194.094V194.079V194.064V194.049V194.034V194.018V194.003V193.988V193.973V193.958V193.943V193.928V193.913V193.898V193.883V193.868V193.853V193.838V193.823V193.809V193.794V193.779V193.764V193.749V193.734V193.719V193.704V193.689V193.674V193.659V193.645V193.63V193.615V193.6V193.585V193.571V193.556V193.541V193.526V193.512V193.497V193.482V193.467V193.453V193.438V193.423V193.409V193.394V193.379V193.365V193.35V193.336V193.321V193.307V193.292V193.278V193.263V193.249V193.234V193.22V193.206V193.191V193.177V193.162V193.148V193.134V193.12V193.105V193.091V193.077V193.063V193.049V193.034V193.02V193.006V192.992V192.978V192.964V192.95V192.936V192.922V192.908V192.894V192.88V192.866V192.853V192.839V192.825V192.811V192.798V192.784V192.77V192.757V192.743V192.729V192.716V192.702V192.689V192.675V192.662V192.649V192.635V192.622V192.609V192.595V192.582V192.569V192.556V192.543V192.529V192.516V192.503V192.49V192.477V192.464V192.451V192.439V192.426V192.413V192.4V192.387V192.375V192.362V192.349V192.337V192.324V192.312V192.299V192.287V192.274V192.262V192.25V192.237V192.225V192.213V192.201V192.189V192.177V192.165V192.153V192.141V192.129V192.117V192.105V192.093V192.092L225.593 192.092C228.109 192.092 230.15 190.061 230.15 187.555V180.306C230.15 174.629 225.539 170.022 219.839 170.003H219.838H217.194V163.132V163.132C217.193 161.084 215.977 159.234 214.104 158.409C214.282 157.511 214.476 156.609 214.678 155.771C215.656 151.968 217.232 148.343 219.348 145.03L219.349 145.028C223.899 137.58 222.289 127.938 215.564 122.356C208.839 116.775 199.024 116.935 192.486 122.732C185.948 128.529 184.655 138.218 189.447 145.515C191.499 148.658 192.984 152.134 193.833 155.786L193.833 155.788C194.044 156.652 194.238 157.531 194.417 158.435C192.543 159.26 191.328 161.11 191.326 163.159V163.159V170.003H188.665H188.664C182.954 170.008 178.326 174.619 178.326 180.306V187.528C178.326 190.035 180.367 192.066 182.883 192.066ZM212.487 170.003H196.033V163.159C196.033 162.898 196.245 162.686 196.509 162.686H212.012C212.275 162.686 212.487 162.898 212.487 163.159V170.003ZM188.167 192.069L220.384 192.089V192.095V192.109V192.123V192.137V192.151V192.165V192.18V192.194V192.208V192.223V192.237V192.251V192.266V192.281V192.295V192.31V192.324V192.339V192.354V192.369V192.383V192.398V192.413V192.428V192.443V192.458V192.473V192.488V192.503V192.519V192.534V192.549V192.564V192.579V192.595V192.61V192.625V192.641V192.656V192.672V192.687V192.703V192.718V192.734V192.75V192.765V192.781V192.797V192.812V192.828V192.844V192.86V192.876V192.891V192.907V192.923V192.939V192.955V192.971V192.987V193.003V193.019V193.035V193.052V193.068V193.084V193.1V193.116V193.132V193.149V193.165V193.181V193.197V193.214V193.23V193.246V193.263V193.279V193.296V193.312V193.328V193.345V193.361V193.378V193.394V193.411V193.427V193.444V193.461V193.477V193.494V193.51V193.527V193.544V193.56V193.577V193.593V193.61V193.627V193.643V193.66V193.677V193.694V193.71V193.727V193.744V193.76V193.777V193.794V193.811V193.827V193.844V193.861V193.878V193.895V193.911V193.928V193.945V193.962V193.979V193.995V194.012V194.029V194.046V194.063V194.079V194.096V194.113V194.13V194.147V194.163V194.18V194.197V194.214V194.231V194.247V194.264V194.281V194.298V194.314V194.331V194.348V194.365V194.382V194.398V194.415V194.432V194.448V194.465V194.482V194.499V194.515V194.532V194.549V194.565V194.582V194.599V194.615V194.632V194.648V194.665V194.682V194.698V194.715V194.731V194.748V194.764V194.781V194.797V194.814V194.83V194.847V194.863V194.88V194.896V194.912V194.929V194.945V194.961V194.978V194.994V195.01V195.026V195.043V195.059V195.075V195.091V195.107V195.123V195.139V195.156V195.172V195.188V195.204V195.22V195.236V195.251V195.267V195.283V195.299V195.315V195.331V195.346V195.362V195.378V195.394V195.409V195.425V195.44V195.456V195.472V195.487V195.503V195.518V195.533V195.549V195.564V195.579V195.595V195.61V195.625V195.64V195.656V195.671V195.686V195.701V195.716V195.731V195.746V195.761V195.775V195.79V195.805V195.82V195.835V195.849V195.864V195.878V195.893V195.907V195.922V195.936V195.951V195.965V195.979V195.994V196.008V196.022V196.036V196.05V196.064V196.078V196.092V196.106V196.12V196.134V196.148V196.161V196.175V196.189V196.202V196.216V196.229V196.243V196.256V196.27V196.283V196.296V196.309V196.322V196.336V196.349V196.362V196.374V196.387V196.4V196.413V196.426V196.438V196.451V196.464V196.476V196.488V196.501V196.513V196.525V196.538V196.55V196.562V196.574V196.586V196.598V196.61V196.622V196.633V196.645V196.657V196.668V196.68V196.691V196.703V196.714V196.725V196.736V196.748V196.759V196.77V196.781V196.791V196.802V196.813V196.824V196.834V196.845V196.855V196.866V196.876V196.886V196.897V196.907V196.917V196.927V196.937V196.947V196.956V196.966V196.976V196.985V196.995V197.004V197.014V197.023V197.032V197.041V197.05V197.059V197.068V197.077V197.086V197.095V197.103V197.112V197.12V197.129V197.137V197.145V197.153V197.161V197.169V197.177V197.185V197.193V197.201V197.208V197.216V197.223V197.23V197.238V197.245V197.252V197.259V197.266V197.273V197.279V197.286V197.293V197.299V197.306V197.312V197.318V197.324V197.331V197.337V197.342V197.348V197.354V197.36V197.365V197.371V197.376V197.381V197.386V197.392V197.397V197.401V197.406V197.411V197.416V197.42V197.425V197.429V197.433V197.437V197.441V197.445V197.449V197.453V197.457V197.46V197.464V197.467V197.47V197.474V197.477V197.48C220.384 198.332 219.691 199.023 218.833 199.023H189.678C189.267 199.023 188.872 198.861 188.581 198.571C188.29 198.282 188.127 197.889 188.127 197.48C188.127 197.059 188.136 193.975 188.167 192.069ZM212.916 126.255L212.917 126.256C217.578 130.399 218.604 137.265 215.357 142.58C212.971 146.322 211.198 150.418 210.104 154.715L210.103 154.717C209.847 155.778 209.616 156.88 209.402 157.998H199.117C198.896 156.881 198.673 155.77 198.417 154.709C197.446 150.526 195.748 146.545 193.4 142.946L193.399 142.945C189.791 137.519 190.803 130.267 195.761 126.027C200.72 121.786 208.073 121.884 212.916 126.255ZM225.443 180.306V187.378H183.033L183.042 180.306C183.042 180.306 183.042 180.306 183.042 180.306C183.046 177.217 185.561 174.713 188.665 174.708H219.82C222.924 174.713 225.439 177.217 225.443 180.306Z" stroke="white" stroke-opacity="0.49" stroke-width="0.3"/>
</g>
</g>
<defs>
<clipPath id="clip0">
<rect width="321.666" height="162.436" fill="white" transform="translate(43.8149 195.564)"/>
</clipPath>
<clipPath id="clip1">
<rect width="52" height="86" fill="white" transform="translate(178 118)"/>
</clipPath>
</defs>
</svg>
