<svg width="64" height="60" viewBox="0 0 64 60" fill="none" xmlns="http://www.w3.org/2000/svg">
<path d="M62.7838 17.0957L47.0796 1.20813C46.8041 0.930622 46.3908 0.930622 46.1153 1.20813L38.9519 8.42344C36.1279 8.35407 33.8549 8.49282 31.9952 8.83971C30.1355 8.49282 27.9314 8.35407 25.0385 8.42344L17.9441 1.20813C17.6685 0.930622 17.2553 0.930622 16.9798 1.20813L1.20663 17.0957C0.931122 17.3732 0.931122 17.7895 1.20663 18.067L8.3011 25.2129C7.47456 29.6531 8.09446 33.3301 10.5052 37.0765L6.78578 40.823C5.95924 41.6555 5.47709 42.7655 5.47709 43.945C5.47709 45.1244 5.95924 46.2344 6.78578 47.067C7.61232 47.8995 8.64549 48.3158 9.74754 48.3852L8.85213 49.2871C8.02559 50.1196 7.54344 51.2297 7.54344 52.4091C7.54344 53.5885 8.02559 54.6986 8.85213 55.5311C9.67867 56.3636 10.7807 56.8493 11.9516 56.8493C13.1226 56.8493 14.2246 56.3636 15.0512 55.5311L15.9466 54.6292C15.9466 55.7392 16.4287 56.7799 17.2553 57.6124C18.0818 58.445 19.2527 58.9306 20.3548 58.9306C21.4569 58.9306 22.6278 58.5144 23.4543 57.6124L26.7605 54.2823L29.0335 56.5718C29.86 57.4043 30.9621 57.8899 32.133 57.8899C33.3039 57.8899 34.406 57.4043 35.2325 56.5718C36.0591 55.7392 36.4723 54.6292 36.5412 53.5885L40.605 57.6818C41.4316 58.5144 42.6025 59 43.7045 59C44.8066 59 45.9775 58.5837 46.8041 57.6818C47.6306 56.8493 48.0439 55.7392 48.1128 54.6986L49.0082 55.6005C49.8347 56.433 51.0056 56.9187 52.1077 56.9187C53.2097 56.9187 54.3807 56.5024 55.2072 55.6005C56.9292 53.866 56.9292 51.0909 55.2072 49.3565L54.3118 48.4545C55.4139 48.4545 56.447 47.9689 57.2736 47.1364C58.1001 46.3038 58.5823 45.1938 58.5823 44.0143C58.5823 42.8349 58.1001 41.7249 57.2736 40.8923L53.3475 36.8684C55.6205 32.9832 56.3781 29.0981 55.7582 25.2129L62.8527 18.067C63.0593 17.7895 63.0593 17.3732 62.7838 17.0957ZM11.9516 46.1651C11.4006 46.7201 10.643 47.067 9.81642 47.067C8.98988 47.067 8.23222 46.7201 7.68119 46.1651C7.13017 45.61 6.78578 44.8469 6.78578 44.0143C6.78578 43.1818 7.13017 42.4187 7.68119 41.8636L11.2629 38.256C12.1583 39.5048 13.2603 40.7536 14.569 42.0718L15.2578 42.7655L11.9516 46.1651ZM14.0869 54.5598C13.5358 55.1148 12.7782 55.4617 11.9516 55.4617C11.1251 55.4617 10.3674 55.1148 9.81642 54.5598C9.26539 54.0048 8.921 53.2416 8.921 52.4091C8.921 51.5766 9.26539 50.8134 9.81642 50.2584L16.291 43.7368L18.564 46.0263L20.5614 48.0383L17.2553 51.3684L14.0869 54.5598ZM22.49 56.7105C21.3191 57.8899 19.3905 57.8899 18.2196 56.7105C17.0486 55.5311 17.0486 53.5885 18.2196 52.4091L21.5257 49.0789L25.7962 53.3804L22.49 56.7105ZM57.1358 44.0143C57.1358 44.8469 56.7914 45.61 56.2404 46.1651C55.0695 47.3445 53.1409 47.3445 51.9699 46.1651L43.6357 37.701L38.4009 32.4282C38.1254 32.1507 37.7121 32.1507 37.4366 32.4282C37.1611 32.7057 37.1611 33.122 37.4366 33.3995L42.6714 38.6722L51.0745 47.1364L54.2429 50.3278C55.4139 51.5072 55.4139 53.4498 54.2429 54.6292C53.072 55.8086 51.1434 55.8086 49.9725 54.6292L46.8729 51.5072L33.7172 37.8397C33.4417 37.5622 33.0284 37.5622 32.7529 37.8397C32.4774 38.1172 32.4774 38.5335 32.7529 38.811L45.8398 52.4091C47.0107 53.5885 47.0107 55.5311 45.8398 56.7105C44.6688 57.8899 42.7402 57.8899 41.5693 56.7105L35.3014 50.3971L27.5181 42.6268C27.2426 42.3493 26.8294 42.3493 26.5538 42.6268C26.2783 42.9043 26.2783 43.3206 26.5538 43.5981L34.2682 51.3684C35.4391 52.5478 35.4391 54.4904 34.2682 55.6699C33.7172 56.2249 32.9595 56.5718 32.133 56.5718C31.3064 56.5718 30.5488 56.2249 29.9978 55.6699L27.2426 52.8947L18.4262 44.0143L16.7043 42.2799L15.5333 41.1005C10.0919 35.6196 8.50773 31.1794 9.67867 25.0742V25.0048C9.67867 24.9354 9.67867 24.9354 9.67867 24.866C9.67867 24.7966 9.67867 24.7966 9.67867 24.7273C9.67867 24.6579 9.67867 24.6579 9.60979 24.5885C9.60979 24.5191 9.54091 24.5191 9.54091 24.4498C9.54091 24.4498 9.54091 24.3804 9.47203 24.3804L2.5842 17.4426L17.3242 2.59569L24.212 9.53349C24.3497 9.67225 24.4875 9.74163 24.6253 9.74163H24.6941C26.1406 9.67225 27.3804 9.74163 28.4824 9.74163C25.8651 10.8517 23.9365 12.7249 21.3191 15.4306L13.467 23.4785C12.6404 24.311 12.1583 25.421 12.1583 26.6005C12.1583 27.7799 12.6404 28.8899 13.467 29.7225C14.2935 30.555 15.4644 31.0407 16.5665 31.0407C17.6685 31.0407 18.8395 30.6244 19.666 29.7225L25.2452 24.1029C26.0717 24.2416 26.8294 24.3804 27.6559 24.3804C30.411 24.3804 33.235 23.4091 36.1279 21.5359L56.2404 41.7943C56.8603 42.4187 57.1358 43.1818 57.1358 44.0143ZM52.3143 35.8277L37.2989 20.7727C37.5744 20.5646 37.8499 20.4258 38.0565 20.2177C38.332 20.0096 38.4009 19.5239 38.1943 19.2464C37.9876 18.9689 37.5055 18.8995 37.23 19.1077C33.0284 22.3684 28.9646 23.6172 25.1763 22.7153H25.1074C25.0385 22.7153 25.0385 22.7153 24.9696 22.7153C24.9008 22.7153 24.9008 22.7153 24.8319 22.7153C24.763 22.7153 24.763 22.7153 24.6941 22.7847C24.6253 22.7847 24.6253 22.8541 24.5564 22.8541C24.5564 22.8541 24.4875 22.8541 24.4875 22.9234L18.6328 28.8206C17.4619 30 15.5333 30 14.3624 28.8206C13.8114 28.2655 13.467 27.5024 13.467 26.6699C13.467 25.8373 13.8114 25.0742 14.3624 24.5191L22.3523 16.4713C27.4493 11.3373 29.7222 9.53349 39.1586 9.811H39.2275C39.3652 9.811 39.503 9.74163 39.6407 9.60287L46.5285 2.66507L61.2685 17.512L54.3807 24.4498C54.3807 24.4498 54.3807 24.5191 54.3118 24.5191C54.3118 24.5885 54.2429 24.5885 54.2429 24.6579C54.2429 24.7273 54.174 24.7273 54.174 24.7966C54.174 24.866 54.174 24.866 54.174 24.9354C54.174 25.0048 54.174 25.0048 54.174 25.0742V25.1435C55.0006 28.6818 54.3118 32.2895 52.3143 35.8277Z" fill="white" stroke="white"/>
</svg>
