<svg width="33" height="33" viewBox="0 0 33 33" fill="none" xmlns="http://www.w3.org/2000/svg">
<path d="M16.7901 0.198242C7.9341 0.198242 0.730225 7.39901 0.730225 16.2512C0.730225 25.1034 7.9341 32.3042 16.7901 32.3042C25.6462 32.3042 32.8501 25.1034 32.8501 16.2512C32.8501 7.39901 25.6462 0.198242 16.7901 0.198242ZM16.7901 2.49181C24.4066 2.49181 30.5555 8.6381 30.5555 16.2512C30.5555 23.8643 24.4066 30.0106 16.7901 30.0106C9.17373 30.0106 3.02479 23.8643 3.02479 16.2512C3.02479 8.6381 9.17373 2.49181 16.7901 2.49181ZM8.76019 15.1044C8.75517 15.1044 8.75015 15.1044 8.74413 15.1044C8.11076 15.1044 7.59684 15.6171 7.59684 16.2512C7.59684 16.8853 8.10976 17.398 8.74413 17.398C8.75015 17.398 8.75517 17.398 8.76119 17.398H24.8201C24.8251 17.398 24.8301 17.398 24.8362 17.398C25.4695 17.398 25.9834 16.8853 25.9834 16.2512C25.9834 15.6171 25.4705 15.1044 24.8362 15.1044C24.8301 15.1044 24.8251 15.1044 24.8191 15.1044H8.76019Z" fill="#FC4D5A"/>
</svg>
