<svg width="61" height="56" viewBox="0 0 61 56" fill="none" xmlns="http://www.w3.org/2000/svg">
<path d="M60.0469 24.4338H55.4004C55.4004 24.4338 55.4004 24.4338 55.4004 24.4006V9.70881C55.3979 8.14241 54.7725 6.64089 53.6612 5.53329C52.55 4.42568 51.0435 3.80232 49.472 3.7998H36.3284C36.0756 3.7998 35.8331 3.89989 35.6544 4.07805C35.4757 4.25621 35.3752 4.49785 35.3752 4.7498C35.3752 5.00176 35.4757 5.2434 35.6544 5.42156C35.8331 5.59972 36.0756 5.6998 36.3284 5.6998H49.472C50.5383 5.70106 51.5606 6.12384 52.3147 6.8754C53.0687 7.62696 53.4929 8.64594 53.4941 9.70881V15.5086C52.4025 14.493 50.9652 13.9277 49.472 13.9268H1.90625V5.6998H18.5859C18.8387 5.6998 19.0812 5.59972 19.2599 5.42156C19.4386 5.2434 19.5391 5.00176 19.5391 4.7498C19.5391 4.49785 19.4386 4.25621 19.2599 4.07805C19.0812 3.89989 18.8387 3.7998 18.5859 3.7998H0.953125C0.700341 3.7998 0.457909 3.89989 0.279164 4.07805C0.100418 4.25621 0 4.49785 0 4.7498L0 54.8766C0 55.1285 0.100418 55.3701 0.279164 55.5483C0.457909 55.7265 0.700341 55.8266 0.953125 55.8266H49.472C51.0435 55.824 52.55 55.2007 53.6612 54.0931C54.7725 52.9855 55.3979 51.4839 55.4004 49.9176V45.4906C55.4004 45.4906 55.4004 45.4478 55.4004 45.4288H60.0469C60.2997 45.4288 60.5421 45.3287 60.7208 45.1506C60.8996 44.9724 61 44.7308 61 44.4788V25.3838C61 25.1318 60.8996 24.8902 60.7208 24.7121C60.5421 24.5339 60.2997 24.4338 60.0469 24.4338ZM53.4941 45.4906V49.9271C53.4929 50.9899 53.0687 52.0089 52.3147 52.7605C51.5606 53.512 50.5383 53.9348 49.472 53.9361H1.90625V15.8268H49.472C50.5391 15.8281 51.5622 16.2515 52.3164 17.0041C53.0705 17.7567 53.4941 18.7769 53.4941 19.8406V24.4101C53.4941 24.4101 53.4941 24.4101 53.4941 24.4433H36.5285C33.742 24.447 31.0695 25.5467 29.092 27.5035C27.1145 29.4603 25.9917 32.116 25.9679 34.8933C25.9679 34.8933 25.9679 34.8933 25.9679 34.9218V34.9883C25.9679 34.9883 25.9679 34.9883 25.9679 35.0168C25.9905 37.7945 27.1128 40.4509 29.0906 42.408C31.0684 44.365 33.7416 45.4644 36.5285 45.4668H53.4989C53.4989 45.4668 53.4941 45.4621 53.4941 45.4906ZM59.0938 43.5193H36.5285C35.3964 43.5193 34.2753 43.2971 33.2294 42.8652C32.1834 42.4334 31.2331 41.8005 30.4325 41.0025C29.632 40.2046 28.997 39.2574 28.5637 38.2149C28.1305 37.1723 27.9075 36.055 27.9075 34.9266C27.9075 33.7981 28.1305 32.6808 28.5637 31.6383C28.997 30.5957 29.632 29.6485 30.4325 28.8506C31.2331 28.0527 32.1834 27.4197 33.2294 26.9879C34.2753 26.5561 35.3964 26.3338 36.5285 26.3338H59.0938V43.5193Z" fill="white"/>
<path d="M32.3115 34.8932C32.3115 35.7246 32.5589 36.5374 33.0223 37.2287C33.4857 37.92 34.1444 38.4588 34.9151 38.777C35.6858 39.0951 36.5338 39.1784 37.3519 39.0162C38.17 38.854 38.9215 38.4536 39.5114 37.8657C40.1012 37.2778 40.5029 36.5288 40.6656 35.7133C40.8284 34.8979 40.7449 34.0526 40.4256 33.2845C40.1064 32.5164 39.5658 31.8598 38.8723 31.3979C38.1787 30.936 37.3633 30.6895 36.5291 30.6895C35.4109 30.6907 34.3389 31.134 33.5482 31.9221C32.7575 32.7102 32.3128 33.7787 32.3115 34.8932ZM38.8452 34.8932C38.8452 35.3488 38.7096 35.7942 38.4557 36.1731C38.2017 36.5519 37.8407 36.8472 37.4184 37.0216C36.996 37.196 36.5313 37.2416 36.0829 37.1527C35.6346 37.0638 35.2228 36.8444 34.8995 36.5222C34.5763 36.2 34.3561 35.7895 34.2669 35.3426C34.1778 34.8958 34.2235 34.4326 34.3985 34.0116C34.5734 33.5906 34.8697 33.2308 35.2498 32.9777C35.6299 32.7246 36.0767 32.5895 36.5339 32.5895C37.1465 32.5907 37.7336 32.8338 38.1668 33.2656C38.6 33.6974 38.8439 34.2826 38.8452 34.8932Z" fill="white"/>
<path d="M36.8236 15.8078C36.5712 15.8068 36.3296 15.706 36.1517 15.5276L22.8746 2.29409L9.59283 15.5323C9.41399 15.7106 9.17142 15.8107 8.9185 15.8107C8.66557 15.8107 8.42301 15.7106 8.24416 15.5323C8.06532 15.3541 7.96484 15.1123 7.96484 14.8602C7.96484 14.6081 8.06532 14.3663 8.24416 14.1881L22.1979 0.280087C22.2864 0.19176 22.3916 0.121689 22.5073 0.0738804C22.623 0.0260724 22.747 0.00146484 22.8722 0.00146484C22.9975 0.00146484 23.1215 0.0260724 23.2372 0.0738804C23.3529 0.121689 23.4581 0.19176 23.5466 0.280087L37.4956 14.1881C37.6281 14.3209 37.7182 14.4898 37.7546 14.6736C37.7911 14.8574 37.7722 15.0478 37.7004 15.2209C37.6286 15.394 37.5071 15.542 37.351 15.6465C37.195 15.7509 37.0115 15.8071 36.8236 15.8078Z" fill="white"/>
<path d="M46.1593 15.808C45.9069 15.8069 45.6653 15.7062 45.4874 15.5277L32.2103 2.29425L28.212 6.2795C28.0331 6.45776 27.7906 6.5579 27.5376 6.5579C27.2847 6.5579 27.0421 6.45776 26.8633 6.2795C26.6845 6.10124 26.584 5.85947 26.584 5.60737C26.584 5.35528 26.6845 5.11351 26.8633 4.93525L31.5336 0.28025C31.7115 0.101846 31.9532 0.00106087 32.2056 2.98268e-07C32.3313 -9.90335e-05 32.4559 0.0246128 32.572 0.0727117C32.6882 0.120811 32.7936 0.191345 32.8823 0.28025L46.836 14.1882C46.9685 14.3211 47.0587 14.49 47.0951 14.6738C47.1316 14.8575 47.1127 15.0479 47.0409 15.221C46.9691 15.3941 46.8475 15.5422 46.6915 15.6466C46.5355 15.7511 46.352 15.8072 46.1641 15.808H46.1593Z" fill="white"/>
</svg>
