<svg width="19" height="34" viewBox="0 0 19 34" fill="none" xmlns="http://www.w3.org/2000/svg">
<path d="M0.0271398 17.3703C0.0632523 17.4874 0.0879612 17.6102 0.135478 17.7235C0.264723 18.0314 0.338848 18.0843 0.547921 18.3374L15.7627 33.4558C15.9547 33.6125 16.1504 33.7712 16.3785 33.8656C17.1844 34.1981 18.2013 33.894 18.6878 33.1705C19.1041 32.551 19.1041 31.6897 18.6878 31.0701C18.6194 30.9663 18.5301 30.8794 18.4521 30.783L4.58302 17.0001L18.4521 3.21907L18.6878 2.93196C18.7467 2.82241 18.8152 2.71852 18.8627 2.60519C19.1972 1.80621 18.9007 0.80134 18.1632 0.31024C17.5398 -0.103418 16.6731 -0.103418 16.0497 0.31024C15.9471 0.380129 15.8577 0.467017 15.7627 0.546347L0.547921 15.6647C0.469994 15.761 0.380663 15.8479 0.31224 15.9518C0.173492 16.1577 0.0765568 16.3881 0.0271397 16.6318C-0.0203768 16.8736 0.00433182 17.1229 0.0271398 17.3703Z" fill="#094295"/>
</svg>
