<svg width="70" height="63" viewBox="0 0 70 63" fill="none" xmlns="http://www.w3.org/2000/svg">
<path d="M49.6775 30.1046H57.8171L69 7.19569H53.6714L54.7019 1H15.2742L16.3046 7.19569H1L12.1829 30.1046H20.2985C20.9849 32.3036 22.1594 34.3197 23.7347 36.0026C25.3099 37.6856 27.2453 38.9921 29.3966 39.8247V48.7076H20.1467V62H49.8293V48.7076H40.5795V39.8247C42.7307 38.9921 44.6661 37.6856 46.2414 36.0026C47.8166 34.3197 48.9912 32.3036 49.6775 30.1046ZM66.4519 8.79046L56.8666 28.5098H50.0849C50.0849 28.3424 50.1648 28.1829 50.1888 28.0154L53.3839 8.79046H66.4519ZM13.1574 28.5098L3.57207 8.79046H16.5922L19.7873 28.0154C19.7873 28.1829 19.8592 28.3503 19.8911 28.5098H13.1574ZM21.3609 27.7124L17.1593 2.59477H52.8167L48.6152 27.7523C48.0728 30.9686 46.4064 33.8891 43.9117 35.9954C41.4169 38.1016 38.2553 39.2572 34.988 39.2572C31.7207 39.2572 28.5591 38.1016 26.0644 35.9954C23.5696 33.8891 21.9032 30.9686 21.3609 27.7523V27.7124ZM48.2397 60.4052H21.7443V50.3024H48.2318L48.2397 60.4052ZM38.9819 48.7076H30.9941V40.343C33.611 41.0398 36.3651 41.0398 38.9819 40.343V48.7076Z" fill="white" stroke="white" stroke-width="0.4"/>
</svg>
