<svg width="58" height="63" viewBox="0 0 58 63" fill="none" xmlns="http://www.w3.org/2000/svg">
<path d="M28.7028 1.01285C28.603 1.03954 28.5107 1.08921 28.4335 1.15789C20.6417 7.60171 11.6112 12.5163 1.74593 15.3926C1.62018 15.4285 1.50785 15.5007 1.42305 15.6003C1.33826 15.6998 1.28479 15.8222 1.26936 15.9521C1.09238 17.4618 1 19.0134 1 20.5727C1 38.277 12.6347 57.7362 28.6821 61.9922C28.7908 62.0203 28.9049 62.0203 29.0136 61.9922C45.061 57.7362 56.6957 38.277 56.6957 20.5727C56.6957 19.0134 56.6034 17.4618 56.4264 15.9521C56.411 15.8222 56.3575 15.6998 56.2727 15.6003C56.1879 15.5007 56.0756 15.4285 55.9498 15.3926C46.0845 12.5163 37.0541 7.60171 29.2623 1.15789C29.186 1.09306 29.0961 1.04635 28.9992 1.02123C28.9023 0.996109 28.801 0.993238 28.7028 1.01285ZM28.8479 2.48398C36.5562 8.77479 45.4248 13.6143 55.121 16.5115C55.2637 17.8457 55.3697 19.1986 55.3697 20.5727C55.3697 37.6263 43.9851 56.5119 28.8479 60.6454C13.7107 56.5119 2.32609 37.6263 2.32609 20.5727C2.32609 19.1986 2.43209 17.8457 2.57473 16.5115C12.2709 13.6143 21.1395 8.77479 28.8479 2.48398Z" fill="white" stroke="white" stroke-width="0.8"/>
<circle cx="29" cy="32" r="13" stroke="white" stroke-width="2"/>
<path d="M36.2842 26.0088C36.0702 26.0389 35.8729 26.1385 35.7242 26.2915C32.5202 29.4222 30.1221 32.0057 27.0642 35.0275L23.5842 32.161C23.4877 32.0811 23.3761 32.0206 23.2556 31.9829C23.1351 31.9451 23.0081 31.931 22.882 31.9412C22.7558 31.9514 22.633 31.9858 22.5206 32.0424C22.4081 32.099 22.3082 32.1767 22.2266 32.271C22.145 32.3653 22.0833 32.4744 22.045 32.592C22.0067 32.7097 21.9927 32.8335 22.0036 32.9564C22.0145 33.0794 22.0502 33.199 22.1087 33.3085C22.1671 33.4179 22.2472 33.515 22.3442 33.5943L26.5042 37.0263C26.6888 37.1775 26.9251 37.2554 27.1659 37.2445C27.4068 37.2337 27.6346 37.1349 27.8042 36.9678C31.2374 33.6133 33.6907 30.9236 37.0842 27.6078C37.2294 27.4704 37.3263 27.2918 37.3612 27.0974C37.3961 26.9031 37.3671 26.703 37.2784 26.5257C37.1897 26.3484 37.0458 26.2029 36.8672 26.1101C36.6887 26.0173 36.4846 25.9818 36.2842 26.0088Z" fill="white" stroke="white" stroke-width="0.3"/>
</svg>
