<svg width="20" height="20" viewBox="0 0 20 20" fill="none" xmlns="http://www.w3.org/2000/svg">
<path d="M18.4344 20H1.565C0.7025 20 0 19.2975 0 18.4344V10C0 9.655 0.28 9.375 0.625 9.375C0.97 9.375 1.25 9.655 1.25 10V18.4344C1.25 18.6081 1.39125 18.75 1.565 18.75H18.4344C18.6081 18.75 18.75 18.6081 18.75 18.4344V10C18.75 9.655 19.0294 9.375 19.375 9.375C19.7206 9.375 20 9.655 20 10V18.4344C20 19.2975 19.2975 20 18.4344 20Z" fill="#206CDE"/>
<path d="M10 14.8863C9.83439 14.8863 9.67502 14.8207 9.55814 14.7032L6.14877 11.2938C5.90439 11.0495 5.90439 10.6545 6.14877 10.4101C6.39314 10.1657 6.78814 10.1657 7.03252 10.4101L10 13.3776L12.9669 10.4101C13.2113 10.1657 13.6063 10.1657 13.8506 10.4101C14.095 10.6545 14.095 11.0495 13.8506 11.2938L10.4419 14.7032C10.325 14.8207 10.1656 14.8863 10 14.8863Z" fill="#206CDE"/>
<path d="M10 14.8863C9.655 14.8863 9.375 14.6069 9.375 14.2613V0.625C9.375 0.28 9.655 0 10 0C10.345 0 10.625 0.28 10.625 0.625V14.2613C10.625 14.6069 10.345 14.8863 10 14.8863Z" fill="#206CDE"/>
</svg>
