<svg width="25" height="24" viewBox="0 0 25 24" fill="none" xmlns="http://www.w3.org/2000/svg">
<path d="M23.9317 21.5705L17.9914 15.6778C19.3957 13.9686 20.1599 11.8504 20.1599 9.61595C20.1599 7.04742 19.1517 4.63264 17.3209 2.81654C15.4899 1.00018 13.0554 0 10.4664 0C7.87744 0 5.44269 1.00018 3.61244 2.81629C1.78144 4.63239 0.773438 7.04717 0.773438 9.6157C0.773438 12.184 1.78144 14.5988 3.61244 16.4151C5.44269 18.2315 7.87744 19.2317 10.4664 19.2317C12.7189 19.2317 14.8542 18.4735 16.5772 17.0803L22.5177 22.9735C22.7124 23.1667 22.9689 23.2636 23.2247 23.2636C23.4802 23.2636 23.7367 23.1672 23.9317 22.9735C24.3224 22.5859 24.3224 21.9579 23.9317 21.5705ZM5.02619 15.0124C3.57294 13.5708 2.77269 11.6543 2.77269 9.61595C2.77269 7.57739 3.57294 5.6611 5.02619 4.21947C6.47944 2.77785 8.41144 1.984 10.4664 1.984C12.5214 1.984 14.4532 2.77785 15.9067 4.21947C17.3599 5.66085 18.1599 7.57739 18.1599 9.6157C18.1599 11.654 17.3602 13.5703 15.9067 15.0122C14.4532 16.4541 12.5214 17.2479 10.4664 17.2479C8.41144 17.2479 6.47969 16.4538 5.02619 15.0124Z" fill="#DFE5EF"/>
</svg>
