<svg width="15" height="22" viewBox="0 0 15 22" fill="none" xmlns="http://www.w3.org/2000/svg">
<path d="M13.5088 3.91971C13.5066 3.88702 13.5003 3.85545 13.4899 3.82425C13.4858 3.81237 13.4828 3.80048 13.4772 3.78897C13.459 3.7496 13.4364 3.71208 13.4044 3.68014L10.4331 0.708796C10.4011 0.676854 10.3636 0.653826 10.3239 0.635998C10.3127 0.630798 10.302 0.627827 10.2905 0.624113C10.2582 0.61297 10.2255 0.606285 10.1913 0.604427C10.1846 0.604056 10.1783 0.600342 10.1709 0.600342H0.513996C0.308973 0.600342 0.142578 0.766366 0.142578 0.97176V19.5427C0.142578 19.7481 0.308973 19.9141 0.513996 19.9141H1.62825V21.0283C1.62825 21.2337 1.79465 21.3998 1.99967 21.3998H14.6279C14.8329 21.3998 14.9993 21.2337 14.9993 21.0283V5.8002C14.9993 5.7014 14.9603 5.60706 14.8905 5.5376L13.5136 4.16076V3.94311C13.5136 3.93493 13.5095 3.92788 13.5088 3.91971ZM12.2456 3.57169H10.5423V1.86836L12.2456 3.57169ZM0.885414 1.34318H9.79945V3.94311C9.79945 4.1485 9.96584 4.31452 10.1709 4.31452H12.7708V19.1712H1.99967H0.885414V1.34318ZM14.2565 5.95396V20.6569H2.37109V19.9141H13.1422C13.3472 19.9141 13.5136 19.7481 13.5136 19.5427V5.21113L14.2565 5.95396Z" fill="white"/>
<path d="M1.99935 10.2572H11.6562C11.8612 10.2572 12.0276 10.0912 12.0276 9.88582C12.0276 9.68043 11.8612 9.5144 11.6562 9.5144H1.99935C1.79433 9.5144 1.62793 9.68043 1.62793 9.88582C1.62793 10.0912 1.79433 10.2572 1.99935 10.2572Z" fill="white"/>
<path d="M1.99935 12.4862H11.6562C11.8612 12.4862 12.0276 12.3202 12.0276 12.1148C12.0276 11.9094 11.8612 11.7434 11.6562 11.7434H1.99935C1.79433 11.7434 1.62793 11.9094 1.62793 12.1148C1.62793 12.3202 1.79433 12.4862 1.99935 12.4862Z" fill="white"/>
<path d="M11.6562 14.7145C11.8612 14.7145 12.0276 14.5485 12.0276 14.3431C12.0276 14.1377 11.8612 13.9717 11.6562 13.9717H1.99935C1.79433 13.9717 1.62793 14.1377 1.62793 14.3431C1.62793 14.5485 1.79433 14.7145 1.99935 14.7145H11.6562Z" fill="white"/>
<path d="M1.99935 8.02824H6.45637C6.66139 8.02824 6.82778 7.86221 6.82778 7.65682C6.82778 7.45142 6.66139 7.2854 6.45637 7.2854H1.99935C1.79433 7.2854 1.62793 7.45142 1.62793 7.65682C1.62793 7.86221 1.79433 8.02824 1.99935 8.02824Z" fill="white"/>
</svg>
