<svg width="21" height="21" viewBox="0 0 21 21" fill="none" xmlns="http://www.w3.org/2000/svg">
<circle cx="10.5" cy="10.5" r="10.5" fill="#FC4D5A"/>
<path d="M12.0299 11.766V11.024C12.6739 10.884 13.2199 10.548 13.5979 10.128C14.0459 9.624 14.2699 8.966 14.2699 8.364C14.2699 7.524 13.8919 6.838 13.3879 6.362C12.8839 5.886 12.0859 5.452 10.9099 5.452C9.73388 5.452 8.93588 5.9 8.47388 6.362C8.05388 6.782 7.67588 7.468 7.63387 8.35H10.0979C10.0979 8.07 10.1959 7.804 10.3499 7.65C10.4759 7.51 10.6859 7.412 10.9519 7.412C11.2179 7.412 11.4699 7.51 11.6239 7.678C11.7919 7.846 11.8619 8.112 11.8619 8.336C11.8619 8.602 11.7499 8.896 11.5399 9.106C11.2039 9.442 10.6579 9.568 10.2239 9.568C10.0419 9.568 9.90188 9.54 9.74788 9.498V11.766H12.0299ZM10.9519 15.21C11.3159 15.21 11.6799 15.07 11.9739 14.776C12.2259 14.524 12.3939 14.216 12.3939 13.754C12.3939 13.292 12.2259 12.984 11.9879 12.746C11.6799 12.438 11.3019 12.298 10.9379 12.298C10.6299 12.298 10.2659 12.396 9.92988 12.732C9.74788 12.914 9.49588 13.25 9.49588 13.754C9.49588 14.258 9.74788 14.594 9.92988 14.776C10.2659 15.112 10.6439 15.21 10.9519 15.21Z" fill="white"/>
</svg>
