<svg width="75" height="45" viewBox="0 0 75 45" fill="none" xmlns="http://www.w3.org/2000/svg">
<path d="M73.7842 37.1387H69.1024C70.5122 16.9155 49.5155 7.74878 47.3501 6.86109V1C47.3501 0.868668 47.3243 0.738616 47.274 0.617275C47.2238 0.495934 47.1501 0.385682 47.0573 0.292816C46.9644 0.199951 46.8542 0.126292 46.7328 0.0760498C46.6115 0.0258072 46.4814 -3.41257e-05 46.3501 3.38221e-08H28.6206C28.4893 -3.41257e-05 28.3592 0.0258072 28.2379 0.0760498C28.1165 0.126292 28.0063 0.199951 27.9134 0.292816C27.8206 0.385682 27.7469 0.495934 27.6967 0.617275C27.6464 0.738616 27.6206 0.868668 27.6206 1V6.8938C25.0359 7.96924 4.55524 17.1604 5.94794 37.1387H1C0.868668 37.1386 0.738617 37.1645 0.617276 37.2147C0.495935 37.265 0.385683 37.3386 0.292817 37.4315C0.199952 37.5243 0.126293 37.6346 0.0760508 37.7559C0.0258082 37.8773 -3.41257e-05 38.0073 3.38209e-08 38.1387V43.1777C-3.41257e-05 43.3091 0.0258082 43.4391 0.0760508 43.5605C0.126293 43.6818 0.199952 43.792 0.292817 43.8849C0.385683 43.9778 0.495935 44.0514 0.617276 44.1017C0.738617 44.1519 0.868668 44.1778 1 44.1777H73.7842C73.9155 44.1778 74.0456 44.1519 74.1669 44.1017C74.2882 44.0514 74.3985 43.9778 74.4914 43.8849C74.5842 43.792 74.6579 43.6818 74.7081 43.5605C74.7584 43.4391 74.7842 43.3091 74.7842 43.1777V38.1387C74.7842 38.0073 74.7584 37.8773 74.7081 37.7559C74.6579 37.6346 74.5842 37.5243 74.4914 37.4315C74.3985 37.3386 74.2882 37.265 74.1669 37.2147C74.0456 37.1645 73.9155 37.1386 73.7842 37.1387ZM72.7842 42.1777H2V39.1387H10.5181C10.7833 39.1387 11.0377 39.0333 11.2252 38.8458C11.4127 38.6582 11.5181 38.4039 11.5181 38.1387C11.5181 37.8735 11.4127 37.6191 11.2252 37.4316C11.0377 37.244 10.7833 37.1387 10.5181 37.1387H7.94965C6.64808 19.75 23.351 11.0131 27.6207 9.07507V19.1025C27.6207 19.3678 27.726 19.6221 27.9135 19.8096C28.1011 19.9972 28.3554 20.1025 28.6207 20.1025C28.8859 20.1025 29.1402 19.9972 29.3278 19.8096C29.5153 19.6221 29.6207 19.3678 29.6207 19.1025V2H36.3921V14.9971C36.3921 15.2623 36.4974 15.5166 36.685 15.7042C36.8725 15.8917 37.1269 15.9971 37.3921 15.9971C37.6573 15.9971 37.9117 15.8917 38.0992 15.7042C38.2867 15.5166 38.3921 15.2623 38.3921 14.9971V2H45.3501V19.8496C45.3501 20.1148 45.4554 20.3692 45.643 20.5567C45.8305 20.7443 46.0849 20.8496 46.3501 20.8496C46.6153 20.8496 46.8697 20.7443 47.0572 20.5567C47.2447 20.3692 47.3501 20.1148 47.3501 19.8496V9.03887C51.4763 10.8912 68.4136 19.6061 67.1007 37.1387H65.0127C64.7475 37.1387 64.4931 37.2441 64.3056 37.4316C64.1181 37.6192 64.0127 37.8735 64.0127 38.1387C64.0127 38.4039 64.1181 38.6583 64.3056 38.8458C64.4931 39.0334 64.7475 39.1387 65.0127 39.1387H72.7842V42.1777Z" fill="white"/>
<path d="M53.6051 29.0889H21.1801C20.9712 29.0889 20.7709 29.1942 20.6232 29.3818C20.4755 29.5693 20.3926 29.8237 20.3926 30.0889C20.3926 30.3541 20.4755 30.6084 20.6232 30.796C20.7709 30.9835 20.9712 31.0889 21.1801 31.0889H53.6051C53.8139 31.0889 54.0142 30.9835 54.1619 30.796C54.3096 30.6084 54.3926 30.3541 54.3926 30.0889C54.3926 29.8237 54.3096 29.5693 54.1619 29.3818C54.0142 29.1942 53.8139 29.0889 53.6051 29.0889Z" fill="white"/>
</svg>
