<svg width="45" height="45" viewBox="0 0 45 45" fill="none" xmlns="http://www.w3.org/2000/svg">
<path d="M28.6946 6.95189C28.7646 7.03162 28.8596 7.07646 28.9646 7.07646C29.0696 7.07646 29.1697 7.03162 29.2347 6.95189L29.9997 6.05995C30.1147 5.9304 30.1147 5.73607 30.0047 5.60153L29.2397 4.68966C29.1047 4.53021 28.8296 4.53021 28.6946 4.68966L27.9295 5.60153C27.8195 5.73607 27.8195 5.9304 27.9345 6.05995L28.6946 6.95189ZM28.9646 5.47197L29.2647 5.83074L28.9646 6.17954L28.6646 5.83074L28.9646 5.47197Z" fill="#206CDE"/>
<path d="M27.4283 21.5269C27.4783 21.3874 27.4133 21.1632 27.2983 21.0685C25.9731 19.9972 26.1182 18.2233 26.6932 16.9177C27.4633 15.1687 29.3034 13.5493 31.3336 13.8532C31.9887 13.9529 32.1237 14.3864 32.1287 14.4014C32.1637 14.516 32.2537 14.6057 32.3687 14.6405C32.4837 14.6754 32.6087 14.6505 32.6987 14.5758C33.0888 14.2569 33.3588 13.35 33.2438 12.7421C32.9138 11.013 30.5935 11.018 28.1333 11.0279C26.6532 11.0379 25.1181 11.0379 24.048 10.6592C23.943 10.6193 23.828 10.6343 23.7329 10.6941C23.6379 10.7539 23.5779 10.8535 23.5729 10.9632C23.5129 11.7256 24.273 12.7171 25.0981 13.2752C23.928 14.4313 23.0179 16.1703 22.5278 18.1336C22.0378 16.1703 21.1277 14.4313 19.9576 13.2752C20.7827 12.7171 21.5427 11.7256 21.4827 10.9632C21.4727 10.8535 21.4127 10.7539 21.3227 10.6941C21.2277 10.6343 21.1127 10.6193 21.0077 10.6592C19.9376 11.0379 18.4025 11.0329 16.9223 11.0279C14.4721 11.0279 12.1419 11.013 11.8119 12.7421C11.6969 13.345 11.9669 14.2519 12.3569 14.5758C12.4519 14.6505 12.5719 14.6754 12.687 14.6405C12.802 14.6057 12.892 14.516 12.927 14.4014C12.932 14.3814 13.072 13.9479 13.7271 13.8532C15.7672 13.5543 17.5924 15.1687 18.3675 16.9227C18.9425 18.2282 19.0875 20.0021 17.7574 21.0735C17.6424 21.1681 17.5774 21.3924 17.6324 21.5319C17.6924 21.6963 17.8524 21.806 18.0274 21.806H20.7327C20.5727 21.9255 20.5027 22.1398 20.5727 22.3591L20.9727 23.5151C20.4727 23.7094 19.9076 24.0831 19.9076 24.6362C19.9076 24.9053 20.0326 25.1644 20.2626 25.3787C20.3176 25.4285 20.3776 25.4734 20.4376 25.5182C20.2576 25.5282 20.0926 25.578 19.9626 25.6827C19.6676 25.9168 19.4726 26.4002 19.8926 27.0131C20.0276 27.2074 19.9976 27.2822 19.9326 27.3818C19.8576 27.4914 19.8526 27.631 19.9126 27.7456C20.0176 27.9399 20.2876 27.9499 20.4677 27.905C20.3526 28.1592 20.2376 28.483 20.1676 28.8318C20.0276 28.8219 19.8676 28.8767 19.7426 29.076C19.5876 29.3202 19.5276 29.674 19.5276 29.8384C19.5276 30.2221 19.7026 30.546 20.0226 30.7453C20.2826 30.9047 20.6177 30.9745 20.9027 30.9247C21.4327 31.3532 22.1528 31.5077 22.8279 31.5077C23.4529 31.5077 24.033 31.3731 24.373 31.1987C24.438 31.1638 24.488 31.114 24.523 31.0542C24.553 31.0492 24.583 31.0393 24.613 31.0243C25.5031 30.5659 26.0381 29.8683 26.0381 29.1557C26.0381 28.8568 25.8831 28.6176 25.6231 28.5229C25.3781 28.4332 25.0881 28.4781 24.823 28.5976C24.748 28.1741 24.678 27.7605 24.603 27.3519C24.768 27.3071 24.958 27.327 25.0681 27.4018C25.1181 27.4366 25.1731 27.4964 25.1681 27.6509C25.1581 27.91 25.3381 28.1143 25.5881 28.1293C25.8481 28.1542 26.0631 27.9549 26.0882 27.7057C26.1782 27.033 25.9531 26.6543 25.7481 26.46C25.5181 26.2407 25.1981 26.1261 24.828 26.1261C24.828 26.1261 24.828 26.1261 24.823 26.1261V26.1211C24.823 26.1112 24.818 26.1012 24.818 26.0912C25.0081 26.0614 25.1481 25.9168 25.2431 25.8072C25.5431 25.4584 25.6931 25 25.6481 24.5864C25.6131 24.2625 25.4581 23.9934 25.2081 23.8041C24.963 23.6197 24.578 23.5599 24.153 23.6347C23.913 23.6795 23.6929 23.7593 23.5079 23.8639C23.4879 23.839 23.4679 23.8091 23.4529 23.7892C23.5579 23.6696 23.6879 23.4702 23.6879 23.2311C23.6879 22.9072 23.4279 22.5683 22.9929 22.5683C22.6428 22.5683 22.2728 22.8125 22.2128 23.2709C22.1078 23.2759 22.0078 23.2909 21.9178 23.3108L21.4727 22.0402C21.4377 21.9455 21.3777 21.8707 21.3077 21.8159H27.0332C27.2083 21.801 27.3683 21.6913 27.4283 21.5269ZM20.0976 29.2953L20.0426 29.2604L20.0976 29.2953ZM20.4026 26.2358C20.4176 26.2258 20.4426 26.2208 20.4777 26.2208C20.5477 26.2208 20.6577 26.2457 20.7677 26.3005C20.6227 26.3603 20.5427 26.4949 20.4977 26.6294C20.4927 26.6194 20.4877 26.6145 20.4827 26.6045C20.4326 26.5347 20.2976 26.3155 20.4026 26.2358ZM24.833 29.4398C24.9881 29.2654 25.2081 29.1806 25.3181 29.1757C25.3031 29.5145 25.0531 29.8783 24.638 30.1722L24.408 29.5245C24.428 29.5344 24.448 29.5394 24.468 29.5494C24.598 29.5843 24.738 29.5394 24.833 29.4398ZM22.5628 23.9636C22.6128 23.9685 22.6578 23.9636 22.7028 23.9486C22.7379 24.0283 22.7879 24.0881 22.8129 24.123C22.9379 24.2775 23.0429 24.4419 23.0579 24.4967C23.0929 24.6313 23.2079 24.7359 23.3479 24.7608C23.4929 24.7857 23.6279 24.721 23.7029 24.6014C23.7629 24.5067 23.983 24.3771 24.273 24.3223C24.518 24.2775 24.708 24.3074 24.773 24.3622C24.863 24.4319 24.918 24.5266 24.928 24.6562C24.938 24.7259 24.933 24.8007 24.918 24.8754C24.898 24.7957 24.863 24.7259 24.808 24.6661C24.738 24.5914 24.598 24.5316 24.498 24.5316C24.328 24.5316 24.173 24.6063 24.068 24.7409C23.8279 25.0498 23.943 25.5631 23.973 25.6627C24.028 25.862 24.073 26.0663 24.128 26.2856L24.203 26.5895C24.213 26.6344 24.233 26.6792 24.263 26.7141C23.853 26.8835 23.848 27.2024 23.883 27.3818C23.963 27.8104 24.038 28.2439 24.118 28.6923L22.4578 23.9636C22.4978 23.9586 22.5378 23.9586 22.5628 23.9636ZM21.9578 26.2856C22.0428 26.2856 22.1178 26.2457 22.1778 26.1809L23.7579 30.6655C23.1029 30.8549 21.8828 30.9097 21.2477 30.2719C21.1777 30.2021 21.0877 30.1673 20.9927 30.1673C20.9377 30.1673 20.8877 30.1772 20.8377 30.2021C20.7827 30.2271 20.5677 30.237 20.4026 30.1324C20.3626 30.1075 20.3326 30.0826 20.3076 30.0527C20.3676 30.0576 20.4176 30.0477 20.4476 30.0626C20.5477 30.0626 20.6377 30.0228 20.7077 29.953C20.7527 29.9032 20.7827 29.8434 20.7977 29.7836C20.8677 29.7686 20.9477 29.7587 21.0127 29.7138C21.1777 29.5892 21.6128 29.4996 22.0378 29.4996C22.1828 29.4996 22.3128 29.4099 22.3678 29.2753C22.4228 29.1408 22.3878 28.9863 22.2828 28.8867C22.1678 28.777 22.0628 28.2439 22.1728 27.915C22.2228 27.7605 22.1578 27.5861 22.0178 27.5014C21.8778 27.4167 21.6928 27.4366 21.5777 27.5562C21.4677 27.6658 21.3727 27.7705 21.2827 27.8701C21.2827 27.8652 21.2877 27.8652 21.2877 27.8602C21.4277 27.626 21.4477 27.4117 21.3577 27.1426C21.2977 26.9682 21.2777 26.8088 21.3027 26.6892C21.3127 26.6344 21.3127 26.5846 21.2977 26.5347C21.3677 26.5198 21.4277 26.4799 21.4727 26.4301C21.5377 26.3653 21.8028 26.2856 21.9578 26.2856ZM21.4027 28.8368C21.4227 28.8119 21.4427 28.782 21.4627 28.7521C21.4677 28.777 21.4727 28.8019 21.4777 28.8219C21.4577 28.8318 21.4327 28.8318 21.4027 28.8368ZM21.4427 24.0981L21.8328 25.2093C21.5377 25.2292 21.0077 25.0897 20.7427 24.8455C20.6827 24.7907 20.6127 24.711 20.6127 24.6263C20.6177 24.4917 20.9977 24.2227 21.4427 24.0981ZM18.7275 21.0884C19.6326 19.9573 19.7526 18.3129 19.0125 16.6287C18.1574 14.6904 16.0973 12.767 13.617 13.1457C13.132 13.2154 12.807 13.4197 12.597 13.629C12.5169 13.3948 12.4669 13.1008 12.5119 12.8716C12.732 11.7206 14.7721 11.7355 16.9223 11.7355C18.2174 11.7405 19.5476 11.7455 20.6427 11.4963C20.3926 11.9896 19.8176 12.6025 19.2125 12.8816C19.1025 12.9314 19.0275 13.0361 19.0075 13.1556C18.9925 13.2752 19.0375 13.3948 19.1275 13.4745C20.7327 14.8399 21.9278 17.5207 22.1728 20.3111C22.1878 20.4955 22.3428 20.635 22.5278 20.635C22.7129 20.635 22.8679 20.4955 22.8829 20.3111C23.1229 17.5207 24.318 14.8349 25.9281 13.4745C26.0231 13.3948 26.0681 13.2752 26.0481 13.1556C26.0331 13.0361 25.9531 12.9314 25.8431 12.8816C25.2331 12.6025 24.663 11.9896 24.413 11.4963C25.5081 11.7405 26.8382 11.7405 28.1333 11.7355C30.2785 11.7305 32.3187 11.7206 32.5387 12.8716C32.5837 13.1008 32.5287 13.3898 32.4537 13.624C32.2237 13.3998 31.8887 13.2105 31.4336 13.1457C28.9384 12.772 26.8932 14.6954 26.0381 16.6287C25.2931 18.3179 25.4131 19.9623 26.3232 21.0934H18.7275V21.0884Z" fill="#206CDE"/>
<path d="M41.9441 13.5892C43.5343 11.5911 43.4843 8.91525 41.8291 7.49512C41.7341 7.41539 41.6141 7.37553 41.4891 7.39546C41.3841 7.41041 41.2491 7.5001 41.1941 7.58979C40.724 8.34221 36.4836 15.0442 31.8332 17.9293L31.6682 18.029C31.5082 18.1237 31.4032 18.2881 31.3832 18.4675C31.3682 18.6518 31.4382 18.8262 31.5782 18.9508C32.0682 19.3843 32.3383 19.9623 32.3383 20.5802C32.3383 21.6765 31.4682 22.6232 30.2581 22.8325C29.703 22.9371 28.7679 22.9371 27.8079 22.6282C27.6778 22.5883 27.5328 22.6083 27.4278 22.688C27.3328 22.7578 27.2578 22.9072 27.2578 23.0218V27.1178C27.2578 27.3171 27.4028 27.4865 27.6028 27.5264C27.8029 27.5663 28.0029 27.4516 28.0729 27.2673C28.5479 26.0365 29.903 25.7624 30.5081 25.6977C30.8081 27.2623 31.3082 28.4981 31.9282 29.1957C32.5033 29.8434 33.3234 30.2221 34.1684 30.2271C34.1734 30.2271 34.1784 30.2271 34.1884 30.2271C34.8785 30.2271 35.5036 29.978 35.8986 29.5395C35.9836 29.4448 36.0186 29.3202 35.9986 29.1957C35.9836 29.091 35.8886 28.9565 35.7936 28.9017C35.3585 28.6575 33.2583 27.3869 32.6733 25.319C32.6733 25.319 32.6783 25.319 32.6783 25.314C33.4884 26.5298 34.6085 27.6061 35.5286 28.0396C37.2037 28.8269 38.8388 28.4881 39.5989 27.2125C39.6739 27.0929 39.6789 26.9434 39.6139 26.8138C39.5589 26.7042 39.3939 26.5946 39.2689 26.5846C38.4188 26.5149 35.8236 25.8073 34.5535 24.1031C35.9336 25.0599 37.6937 25.8222 38.9439 25.9867C40.159 26.1461 41.2491 25.9069 41.9291 25.3239C42.4242 24.9004 42.6992 24.3025 42.7142 23.5899C42.7142 23.4753 42.6692 23.3657 42.5892 23.2859C42.5192 23.2162 42.3792 23.1514 42.2692 23.1663C41.8791 23.1863 38.6138 23.3408 36.1086 22.1797C37.2337 22.4139 40.044 22.9421 41.5841 22.688C43.6043 22.3641 44.8544 20.8294 44.6194 18.9608C44.6094 18.8462 44.5094 18.6967 44.4043 18.6419C44.3043 18.5871 44.1193 18.5821 44.0093 18.6319C43.4543 18.906 40.599 20.2015 36.8487 19.8677C39.7389 19.5039 41.6791 19.0106 42.9442 18.328C44.7644 17.3413 45.5245 15.0243 44.6094 13.2703C44.5444 13.1507 44.4193 13.066 44.2843 13.0511C44.1643 13.0461 43.9993 13.1009 43.9193 13.1906C43.4293 13.7387 40.849 16.4544 36.7537 17.446C36.7537 17.431 36.7487 17.4161 36.7487 17.4011C39.3239 15.976 41.069 14.6904 41.9441 13.5892ZM36.1936 16.9128C36.0636 16.9826 35.9936 17.1271 36.0136 17.2716C36.0436 17.4858 36.0636 17.7001 36.0736 17.9194C36.0786 18.024 36.1286 18.1187 36.2136 18.1834C36.2986 18.2482 36.4036 18.2682 36.5036 18.2482C40.474 17.4161 43.1692 14.9994 44.1443 14.0078C44.5844 15.3482 43.9343 16.9975 42.6042 17.72C41.3591 18.3977 39.3539 18.8811 36.2986 19.2348C36.1386 19.2548 36.0136 19.3744 35.9886 19.5338C35.9586 19.7232 35.9236 19.9075 35.8836 20.0969C35.8636 20.1916 35.8836 20.2962 35.9386 20.3759C35.9936 20.4556 36.0836 20.5105 36.1836 20.5254C39.8439 21.0088 42.7992 19.9574 43.9343 19.4641C43.9093 20.7646 42.9642 21.7612 41.4691 22.0003C39.6839 22.2844 35.8236 21.4024 35.7836 21.3924C35.6136 21.3526 35.4485 21.4373 35.3785 21.5918C35.3035 21.7612 35.2235 21.9256 35.1335 22.0851C35.0435 22.2545 35.1035 22.4687 35.2735 22.5634C37.6437 23.8939 40.804 23.9387 41.9691 23.8988C41.9041 24.2626 41.7341 24.5616 41.4641 24.7908C40.944 25.2343 40.034 25.4236 39.0339 25.2891C37.8038 25.1246 36.0186 24.3224 34.6935 23.3358C34.5485 23.2261 34.3384 23.2461 34.2184 23.3806C34.0934 23.5152 33.9634 23.6397 33.8284 23.7643C33.6984 23.8789 33.6734 24.0683 33.7634 24.2128C34.9035 26.0415 37.3287 26.9583 38.6938 27.2224C38.0488 27.8503 36.9637 27.935 35.8336 27.4018C34.9635 26.9932 33.8684 25.902 33.1183 24.6861C33.0233 24.5317 32.8233 24.4769 32.6583 24.5516C32.4883 24.6313 32.3133 24.7011 32.1332 24.7609C31.9632 24.8207 31.8632 24.9951 31.8982 25.1695C32.3333 27.3121 34.1984 28.7372 35.0735 29.3003C34.8285 29.4398 34.5385 29.5395 34.1734 29.5196C33.5284 29.5146 32.9033 29.2256 32.4633 28.7273C31.8982 28.0895 31.4232 26.8288 31.1582 25.2691C31.1282 25.0997 30.9831 24.9751 30.8081 24.9751C30.0531 24.9751 28.7879 25.2343 27.9729 26.1162V23.4205C28.798 23.6298 29.678 23.6746 30.3931 23.5401C31.9382 23.271 33.0583 22.0302 33.0583 20.5852C33.0583 19.8228 32.7483 19.1053 32.1883 18.5472L32.2183 18.5322C36.6187 15.8016 40.624 9.81217 41.6141 8.26747C42.7292 9.4833 42.6592 11.5562 41.3891 13.1457C40.544 14.2071 38.7988 15.4727 36.1936 16.9128Z" fill="#206CDE"/>
<path d="M13.6899 7.79422C13.4899 8.07824 13.3249 8.59646 13.6449 9.43857C13.7849 9.80233 14.265 10.4451 14.32 10.5149C14.39 10.6046 14.495 10.6544 14.605 10.6544H17.4652C20.2805 10.6544 21.2406 8.84063 21.5456 7.96364H23.4658C23.7658 8.84063 24.7309 10.6544 27.5411 10.6544H30.4014C30.5114 10.6544 30.6164 10.5996 30.6864 10.5149C30.7414 10.4451 31.2215 9.80233 31.3615 9.43359C31.6815 8.59148 31.5165 8.07326 31.3215 7.78923C31.0664 7.4205 30.6214 7.22118 30.0614 7.22118C29.9763 7.22118 29.8913 7.25108 29.8263 7.31088L28.9763 8.06329L28.1262 7.31088C28.0612 7.25108 27.9762 7.22118 27.8912 7.22118C27.3361 7.22118 26.8861 7.42548 26.6361 7.78923C26.446 8.06329 26.286 8.54664 26.551 9.32397C25.886 9.05489 25.2559 8.5267 25.0359 7.67463C25.2409 7.34576 25.761 6.51361 25.926 6.10501C26.276 5.22304 26.276 4.51049 25.921 3.98728C25.586 3.49397 24.9709 3.23486 24.1458 3.23486C24.0408 3.23486 23.9458 3.27971 23.8758 3.35944L22.5007 4.92407L21.1406 3.35944C21.0706 3.27971 20.9755 3.23486 20.8705 3.23486C20.0455 3.23486 19.4304 3.49397 19.0954 3.98728C18.7403 4.51049 18.7404 5.22304 19.0904 6.10501C19.2554 6.51361 19.7704 7.34576 19.9805 7.67463C19.7604 8.53169 19.1304 9.05489 18.4653 9.32397C18.7304 8.54664 18.5703 8.06329 18.3803 7.78923C18.1253 7.4205 17.6803 7.22118 17.1252 7.22118C17.0402 7.22118 16.9552 7.25108 16.8902 7.31088L16.0401 8.06329L15.19 7.31088C15.125 7.25108 15.04 7.22118 14.955 7.22118C14.39 7.22617 13.9449 7.43047 13.6899 7.79422ZM27.2111 8.19783C27.3361 8.01845 27.5711 7.95865 27.7512 7.93872L28.7312 8.80575C28.8662 8.92534 29.0713 8.92534 29.2063 8.80575L30.1864 7.93872C30.3664 7.95367 30.6014 8.01346 30.7264 8.19783C30.8664 8.40213 30.8564 8.75592 30.6914 9.18445C30.6264 9.35387 30.3964 9.69769 30.2164 9.94683H27.5861C27.6061 9.85714 27.5861 9.76246 27.5361 9.68274C27.3811 9.44854 27.2811 9.27912 27.2461 9.18445C27.0811 8.75592 27.0661 8.40213 27.2111 8.19783ZM19.7504 5.8459C19.5704 5.39744 19.4154 4.78455 19.6804 4.3909C19.8554 4.13179 20.2205 3.97732 20.7105 3.9524L22.2307 5.69642C22.3007 5.77614 22.3957 5.82099 22.5007 5.82099C22.6057 5.82099 22.7007 5.77614 22.7707 5.69642L24.2908 3.94742C24.7809 3.97233 25.1459 4.1268 25.3209 4.38591C25.586 4.77956 25.4309 5.39744 25.2509 5.84092C25.1059 6.19969 24.5459 7.10159 24.3458 7.41552C24.2958 7.49026 24.2758 7.58494 24.2958 7.67463C24.4009 8.19783 24.6159 8.63134 24.9009 8.98513C24.3909 8.47189 24.1658 7.87394 24.0708 7.51517C24.0308 7.3607 23.8858 7.25108 23.7258 7.25108H21.2806C21.1206 7.25108 20.9755 7.3607 20.9355 7.51517C20.8405 7.87893 20.6155 8.47687 20.1055 8.99011C20.3905 8.63633 20.6105 8.20282 20.7155 7.67463C20.7305 7.58494 20.7155 7.49026 20.6655 7.41552C20.4555 7.10658 19.8955 6.20966 19.7504 5.8459ZM14.275 8.19783C14.4 8.01845 14.635 7.95865 14.815 7.93872L15.7951 8.80575C15.9301 8.92534 16.1351 8.92534 16.2701 8.80575L17.2502 7.93872C17.4302 7.95367 17.6653 8.01346 17.7903 8.19783C17.9303 8.40213 17.9203 8.75592 17.7553 9.18943C17.7353 9.24424 17.6653 9.38875 17.4652 9.68274C17.4102 9.76246 17.3952 9.85714 17.4102 9.94683H14.78C14.6 9.69769 14.37 9.35387 14.305 9.18445C14.1449 8.75592 14.1349 8.40711 14.275 8.19783Z" fill="#206CDE"/>
<path d="M15.7649 6.95189C15.8349 7.03162 15.9299 7.07646 16.035 7.07646C16.14 7.07646 16.24 7.03162 16.305 6.95189L17.07 6.05995C17.1851 5.9304 17.1851 5.73607 17.075 5.60153L16.31 4.68966C16.175 4.53021 15.8999 4.53021 15.7649 4.68966L14.9999 5.60153C14.8899 5.73607 14.8899 5.9304 15.0049 6.05995L15.7649 6.95189ZM16.035 5.47197L16.335 5.83074L16.035 6.17954L15.7349 5.83074L16.035 5.47197Z" fill="#206CDE"/>
<path d="M22.2196 3.51878C22.2896 3.60349 22.3897 3.65332 22.4997 3.65332C22.6097 3.65332 22.7097 3.60349 22.7797 3.51878L23.8598 2.16841C23.9648 2.03387 23.9648 1.84951 23.8548 1.71995L22.7747 0.434362C22.6397 0.269926 22.3647 0.269926 22.2296 0.434362L21.1495 1.71995C21.0395 1.84951 21.0395 2.03387 21.1445 2.16841L22.2196 3.51878ZM22.4997 1.21668L23.1197 1.95415L22.4997 2.7265L21.8796 1.94916L22.4997 1.21668Z" fill="#206CDE"/>
<path d="M1.07767 13.2056C0.982659 13.1009 0.847647 13.0461 0.707635 13.071C0.592624 13.086 0.442611 13.1906 0.387606 13.2953C-0.527475 15.0443 0.237593 17.3613 2.05275 18.3479C3.31287 19.0356 5.25804 19.5289 8.1483 19.8876C4.39796 20.2265 1.54771 18.9259 0.99266 18.6519C0.867649 18.5921 0.717635 18.5921 0.597625 18.6619C0.497616 18.7167 0.397607 18.8612 0.382606 18.9758C0.147585 20.8792 1.36769 22.3791 3.41788 22.708C4.96301 22.9621 7.76826 22.4339 8.89336 22.1997C6.38314 23.3657 3.12285 23.2112 2.72781 23.1863C2.6178 23.1714 2.49279 23.2212 2.40779 23.3059C2.33778 23.3757 2.27777 23.5152 2.28277 23.6149C2.29778 24.3224 2.5728 24.9254 3.06785 25.3439C3.75291 25.9269 4.838 26.1661 6.05311 26.0067C7.30322 25.8422 9.06338 25.0798 10.4435 24.1231C9.17339 25.8273 6.57816 26.5398 5.72308 26.6046C5.57807 26.6195 5.45306 26.7043 5.38305 26.8288C5.33305 26.9235 5.33305 27.073 5.37305 27.1826C5.12803 26.9783 4.798 26.8039 4.34296 26.7043C4.22795 26.6793 4.10794 26.7142 4.02293 26.7939C3.93792 26.8737 3.89792 26.9933 3.91292 27.1079C3.92792 27.1876 3.93792 27.2972 3.94792 27.4118C3.45288 27.2574 2.73782 27.1627 2.22777 27.6311C1.79773 28.1244 1.94274 28.8021 2.13276 29.2704C2.00775 29.2704 1.89274 29.2655 1.80273 29.2555C1.69272 29.2406 1.56771 29.2904 1.49771 29.3851C1.4227 29.4747 1.3977 29.5993 1.4327 29.7089C1.65772 30.4564 2.16276 30.9746 2.85283 31.1639C3.22786 31.2686 3.62789 31.2636 3.94292 31.1689C3.98793 31.2138 4.04293 31.2536 4.09794 31.2885C4.36296 31.453 4.823 31.5626 5.22304 31.3384C5.58307 31.6772 6.55816 32.5791 9.23339 35.0506C9.08838 35.3695 9.04338 35.7183 9.10338 36.0671C9.23339 36.8096 9.84845 37.4125 10.6385 37.567C11.0636 37.6517 11.4886 37.6068 11.8736 37.4474L12.8537 38.3343C13.0337 38.4938 13.2688 38.5735 13.5088 38.5586C13.7438 38.5436 13.9688 38.434 14.1188 38.2596C14.2638 38.0952 14.3288 37.8859 14.3138 37.6766C14.2988 37.4773 14.2038 37.2929 14.0688 37.1783C14.0538 37.1634 14.0438 37.1484 13.2238 36.406C14.1638 35.9226 15.594 35.5888 16.8341 35.5888C17.0741 35.5888 17.2841 35.4841 17.4041 35.2998C17.5241 35.1204 17.5441 34.8812 17.4541 34.6719C17.2141 34.1088 17.2841 33.5856 17.6441 33.2817C18.0292 32.9528 18.6192 32.9727 19.1943 33.3315C19.6143 33.5956 20.2044 34.1487 20.7044 35.3097C18.1992 35.9924 15.3639 37.572 14.7339 39.3359C14.6139 39.6747 14.6639 40.0634 14.8789 40.4371C15.1989 40.9952 15.839 41.4437 16.499 41.5682C16.6091 41.5932 16.7291 41.5682 16.8241 41.5035C16.9041 41.4487 16.9841 41.3291 17.0041 41.2344C17.2691 39.8641 18.2492 38.6881 19.2993 37.866C18.4842 38.7081 17.8842 39.7196 17.6391 40.756C17.3791 41.8523 18.5342 42.7791 19.4793 43.0233C19.6043 43.0581 19.7343 43.0282 19.8393 42.9535C19.9243 42.8887 20.0044 42.7492 20.0094 42.6445C20.1094 41.065 20.6494 39.6349 21.2695 38.6283C20.9744 39.595 20.5594 41.1846 20.5594 42.4901C20.5594 43.5764 21.9345 44.259 22.3546 44.4434C22.3996 44.4633 22.4496 44.4733 22.4996 44.4733C22.5396 44.4733 22.5796 44.4683 22.6196 44.4533C22.6396 44.4484 24.4898 43.7458 24.4898 42.4901C24.4898 41.1846 24.0747 39.595 23.7797 38.6283C24.3997 39.6349 24.9348 41.065 25.0398 42.6396C25.0448 42.7641 25.1098 42.8787 25.2148 42.9535C25.2998 43.0133 25.4648 43.0432 25.5698 43.0183C26.5099 42.7741 27.67 41.8473 27.405 40.751C27.155 39.7146 26.5599 38.6981 25.7399 37.861C26.79 38.6831 27.77 39.8591 28.0351 41.2294C28.0551 41.339 28.1201 41.4337 28.2101 41.4985C28.2901 41.5533 28.4351 41.5832 28.5301 41.5633C29.2002 41.4337 29.8352 40.9902 30.1603 40.4272C30.3753 40.0534 30.4253 39.6648 30.3053 39.3259C29.6752 37.562 26.84 35.9824 24.3347 35.2998C24.8348 34.1338 25.4248 33.5807 25.8449 33.3215C26.4149 32.9678 27.01 32.9478 27.395 33.2717C27.755 33.5757 27.8251 34.0939 27.58 34.6619C27.49 34.8762 27.51 35.1104 27.63 35.2898C27.75 35.4742 27.9601 35.5788 28.2001 35.5788C29.7952 35.5788 31.7304 36.1518 32.4655 36.8345C33.0905 37.7264 34.1806 38.2048 35.3357 38.1001C36.7358 37.9656 37.8709 36.9341 38.031 35.6535C38.166 34.5723 37.6309 33.5458 36.6308 32.9678C36.5058 32.898 36.3508 32.903 36.2358 32.9927L35.0157 33.9295L33.7956 32.9927C33.6806 32.903 33.5206 32.893 33.4005 32.9678C32.8105 33.3116 32.3755 33.8198 32.1554 34.4228C32.1404 34.4228 32.1254 34.4228 32.1054 34.4228C31.4254 34.4228 30.3203 34.1886 29.8752 34.0042C31.4154 31.7619 31.0403 30.2969 30.6703 29.6143C30.1303 28.6227 28.9602 28.0496 27.635 28.1144C27.445 28.1244 27.295 28.2789 27.295 28.4682V30.855C27.295 31.4231 26.77 31.8865 26.1249 31.8865H24.4848C23.5847 31.8865 22.9046 32.4446 22.5396 32.8382C22.1745 32.4495 21.4945 31.8865 20.5944 31.8865H18.9543C18.3092 31.8865 17.7842 31.4231 17.7842 30.855V28.4682C17.7842 28.2789 17.6341 28.1244 17.4441 28.1144C16.129 28.0496 14.9489 28.6227 14.4089 29.6143C14.0388 30.2969 13.6638 31.7619 15.1989 33.9992C14.6939 34.2085 13.3238 34.4826 12.4737 34.4228C11.9786 33.9893 11.2486 33.8099 10.5935 33.9743C7.81327 31.4031 6.77818 30.4564 6.37814 30.1026C6.49315 29.7488 6.38814 29.405 6.23313 29.1808C6.18312 29.111 6.12812 29.0512 6.06811 29.0014C6.13812 28.7074 6.11812 28.3436 6.00811 28.0098C5.9881 27.945 5.9581 27.8703 5.9181 27.7905C6.77817 28.5728 8.1333 28.6874 9.51342 28.0397C10.4485 27.6012 11.5436 26.5448 12.3637 25.314C12.3637 25.314 12.3687 25.314 12.3687 25.319C11.7836 27.3869 9.67843 28.6576 9.24839 28.9017C9.13839 28.9615 9.06338 29.0662 9.03838 29.1907C9.01837 29.3003 9.06338 29.4598 9.13839 29.5395C9.53342 29.978 10.1585 30.2272 10.8485 30.2272C10.8535 30.2272 10.8585 30.2272 10.8635 30.2272C11.7086 30.2222 12.5287 29.8485 13.1037 29.1957C13.7188 28.4981 14.2188 27.2623 14.5189 25.6977C15.1239 25.7575 16.479 26.0365 16.9591 27.2673C17.0341 27.4517 17.2341 27.5613 17.4341 27.5264C17.6341 27.4866 17.7742 27.3172 17.7742 27.1178V23.0219C17.7742 22.8923 17.7091 22.7678 17.6041 22.688C17.5141 22.6183 17.3291 22.5884 17.2191 22.6233C16.259 22.9322 15.3239 22.9322 14.7639 22.8276C13.5638 22.6183 12.6887 21.6715 12.6887 20.5753C12.6887 19.9574 12.9587 19.3794 13.4488 18.9459C13.5888 18.8213 13.6638 18.6469 13.6488 18.4625C13.6338 18.2782 13.5288 18.1187 13.3638 18.0191L13.1937 17.9194C8.54833 15.0343 4.30295 8.33729 3.83291 7.57989C3.76791 7.47525 3.6629 7.40549 3.54289 7.38555C3.43788 7.37559 3.27786 7.41545 3.19286 7.48023C1.54271 8.90035 1.4927 11.5762 3.08285 13.5743C3.95792 14.6755 5.70308 15.9611 8.27831 17.4012C8.27831 17.4161 8.27331 17.4311 8.27331 17.446C4.15294 16.4694 1.56771 13.7587 1.07767 13.2056ZM27.9701 30.8749V28.8419C28.8801 28.8868 29.6402 29.3053 30.0002 29.9681C30.5253 30.9347 30.2053 32.305 29.0852 33.8398C28.9852 33.9893 28.9852 34.1736 29.0802 34.3281C29.4152 34.8662 31.6654 35.23 32.4255 35.1254C32.5705 35.1054 32.6855 35.0008 32.7205 34.8662C32.8405 34.4128 33.1205 34.0142 33.5206 33.7252L34.7607 34.6769C34.8907 34.7766 35.0707 34.7766 35.1957 34.6769L36.4358 33.7252C37.0509 34.1686 37.3759 34.8613 37.2859 35.5838C37.1659 36.5405 36.3008 37.3079 35.2307 37.4125C34.3256 37.4972 33.4706 37.1185 32.9955 36.4209C32.9805 36.401 32.9655 36.381 32.9505 36.3661C32.0104 35.4542 29.8402 34.9061 28.2301 34.8862C28.5551 34.059 28.4051 33.2418 27.82 32.7485C27.595 32.5542 27.325 32.4346 27.03 32.3798C27.595 32.0758 27.9701 31.5177 27.9701 30.8749ZM20.5544 32.619C21.5195 32.619 22.1945 33.6056 22.2045 33.6155C22.2696 33.7152 22.3796 33.775 22.4996 33.775C22.6196 33.775 22.7296 33.7152 22.7946 33.6155C22.7996 33.6056 23.4747 32.619 24.4447 32.619H25.6449C25.5749 32.6538 25.5048 32.6937 25.4398 32.7336C24.6398 33.2319 23.9697 34.1637 23.4897 35.4343C23.4547 35.529 23.4597 35.6386 23.5097 35.7233C23.5597 35.813 23.6447 35.8778 23.7397 35.9027C26.1299 36.4707 29.0552 38.0354 29.6052 39.5751C29.6702 39.7594 29.5752 39.9737 29.5152 40.0833C29.3402 40.3923 29.0052 40.6564 28.6401 40.7959C27.9501 38.1749 25.0898 36.3063 23.6047 35.9774C23.4297 35.9376 23.2546 36.0322 23.1946 36.1967L23.0696 36.5206C23.0046 36.695 23.0846 36.8893 23.2546 36.969C24.9548 37.7563 26.2999 39.306 26.6849 40.9205C26.81 41.4387 26.2599 41.9569 25.6899 42.216C25.4498 39.9289 24.4047 38.0055 23.4347 37.0787C23.3396 36.989 23.1996 36.9591 23.0746 36.9989C22.9496 37.0438 22.8546 37.1534 22.8396 37.283C22.8096 37.4673 22.7896 37.6567 22.7746 37.846C22.7696 37.8958 22.7796 37.9457 22.7946 37.9955C22.8046 38.0204 23.7547 40.6265 23.7547 42.4951C23.7547 43.0432 22.8946 43.5514 22.4896 43.7358C21.9995 43.4966 21.2545 43.0033 21.2545 42.4951C21.2545 40.6315 22.2045 38.0254 22.2146 37.9955C22.2296 37.9457 22.2396 37.8958 22.2346 37.846C22.2196 37.6567 22.1995 37.4673 22.1745 37.283C22.1545 37.1534 22.0645 37.0438 21.9395 36.9989C21.8995 36.984 21.8645 36.979 21.8245 36.979C21.7345 36.979 21.6445 37.0139 21.5795 37.0787C20.6094 38.0055 19.5643 39.9239 19.3243 42.216C18.7592 41.9569 18.2042 41.4387 18.3292 40.9205C18.7142 39.306 20.0644 37.7513 21.7595 36.969C21.9295 36.8893 22.0095 36.695 21.9445 36.5206L21.8195 36.1967C21.7595 36.0322 21.5845 35.9376 21.4095 35.9774C19.9243 36.3063 17.0691 38.1749 16.374 40.7959C16.009 40.6564 15.674 40.3923 15.499 40.0833C15.4339 39.9737 15.3389 39.7594 15.4039 39.5751C15.954 38.0304 18.8793 36.4658 21.2695 35.9027C21.3695 35.8778 21.4545 35.813 21.4995 35.7233C21.5495 35.6336 21.5545 35.529 21.5195 35.4343C20.9194 33.8298 20.1294 33.0774 19.5743 32.7336C19.5043 32.6937 19.4393 32.6538 19.3693 32.619H20.5544ZM10.2185 34.652C10.3185 34.7417 10.4585 34.7716 10.5835 34.7267C11.0886 34.5424 11.6736 34.6719 12.0286 35.0307C12.0836 35.0905 12.1587 35.1254 12.2387 35.1353C13.1737 35.2499 15.564 34.9061 15.919 34.3281C16.014 34.1786 16.009 33.9942 15.904 33.8398C14.7939 32.315 14.4739 30.9447 14.9989 29.978C15.3589 29.3103 16.124 28.8967 17.0291 28.8519V30.8849C17.0291 31.5277 17.4041 32.0858 17.9642 32.3897C17.6741 32.4446 17.4041 32.5641 17.1741 32.7585C16.594 33.2518 16.439 34.064 16.7641 34.8961C15.2189 34.9111 13.4038 35.3994 12.4237 36.0721C12.3337 36.1319 12.2787 36.2316 12.2687 36.3412C12.2637 36.4508 12.3037 36.5554 12.3837 36.6302C12.3837 36.6302 13.4788 37.6218 13.5338 37.6716C13.5438 37.6816 13.5638 37.8062 13.5738 37.8161C13.5488 37.846 13.5038 37.866 13.4538 37.8709C13.3738 37.8909 13.3438 37.846 13.3188 37.8261L12.1637 36.7797C12.0936 36.7199 12.0086 36.685 11.9236 36.685C11.8636 36.685 11.8036 36.7 11.7486 36.7299C11.5436 36.8494 11.2086 36.969 10.7685 36.8843C10.2635 36.7847 9.87345 36.4109 9.79844 35.9575C9.73844 35.6187 9.85845 35.3546 9.96846 35.1951C10.0685 35.0506 10.0485 34.8513 9.91846 34.7317C8.2283 33.1721 5.66308 30.8052 5.57307 30.7155C5.47306 30.576 5.28304 30.5311 5.13303 30.6059L4.90301 30.7155C4.70299 30.8301 4.49797 30.7304 4.43797 30.6706C4.42297 30.556 4.34796 30.4614 4.24295 30.4065C4.11794 30.3418 3.95792 30.3617 3.84291 30.4514C3.77291 30.5112 3.41288 30.6059 3.00784 30.4813C2.79782 30.4165 2.5378 30.277 2.33278 29.983C2.5378 29.983 2.70281 29.978 2.71281 29.978C2.84282 29.973 2.95783 29.9033 3.01784 29.7887C3.07785 29.6741 3.07285 29.5345 3.00284 29.4299C2.84783 29.1907 2.46779 28.4383 2.73782 28.1294C3.08785 27.8105 3.91292 28.1343 4.17294 28.2689C4.28795 28.3287 4.42297 28.3237 4.52798 28.2539C4.63798 28.1842 4.69799 28.0646 4.69299 27.94C4.69299 27.9251 4.68299 27.7656 4.67299 27.5713C5.02302 27.7556 5.18803 28.0148 5.26804 28.229C5.40305 28.5878 5.33305 28.9067 5.28304 28.9715C5.18803 29.0861 5.17303 29.2455 5.24304 29.3751C5.30304 29.4897 5.42305 29.5545 5.54807 29.5595C5.57307 29.5794 5.62307 29.6342 5.64807 29.7189C5.67808 29.8086 5.66808 29.8933 5.61307 29.998L5.57307 30.0827C5.49306 30.2571 5.51306 30.4265 5.68808 30.5112C5.87309 30.6407 8.49833 33.0575 10.2185 34.652ZM8.79836 16.9129C6.19312 15.4678 4.44797 14.2022 3.60789 13.1508C2.34278 11.5612 2.26777 9.48335 3.38287 8.27251C4.37296 9.82219 8.38832 15.8116 12.7787 18.5423L12.8087 18.5572C12.2487 19.1153 11.9386 19.8328 11.9386 20.5952C11.9386 22.0403 13.0587 23.281 14.5989 23.5451C15.3189 23.6796 16.199 23.6348 17.0241 23.4305V26.1312C16.209 25.2493 14.9439 24.9901 14.1888 24.9901C14.0138 24.9901 13.8688 25.1147 13.8388 25.2841C13.5738 26.8488 13.0937 28.1094 12.5337 28.7423C12.0886 29.2406 11.4636 29.5296 10.8235 29.5345C10.8185 29.5345 10.8135 29.5345 10.8085 29.5345C10.4735 29.5345 10.1635 29.4598 9.92346 29.3153C10.7985 28.7522 12.6587 27.3271 13.0987 25.1845C13.1337 25.0101 13.0337 24.8357 12.8637 24.7759C12.6837 24.7161 12.5087 24.6463 12.3387 24.5666C12.1737 24.4869 11.9736 24.5467 11.8786 24.7011C11.1286 25.917 10.0385 27.0082 9.16339 27.4168C8.03329 27.945 6.94819 27.8603 6.30313 27.2374C7.66825 26.9733 10.0935 26.0515 11.2336 24.2278C11.3236 24.0833 11.2986 23.8889 11.1686 23.7743C11.0336 23.6547 10.9035 23.5252 10.7785 23.3906C10.6535 23.2561 10.4485 23.2362 10.3035 23.3458C8.97337 24.3324 7.18821 25.1346 5.9581 25.2991C4.96301 25.4336 4.05293 25.2443 3.52789 24.8008C3.25786 24.5716 3.08785 24.2726 3.02284 23.9088C4.18794 23.9437 7.34323 23.9039 9.71844 22.5684C9.88845 22.4738 9.94846 22.2595 9.85845 22.0901C9.77344 21.9306 9.68843 21.7662 9.61343 21.5968C9.54342 21.4423 9.37341 21.3576 9.20839 21.3975C9.16839 21.4074 5.29804 22.2894 3.52289 22.0054C2.03275 21.7662 1.08767 20.7696 1.05767 19.4691C2.19277 19.9624 5.15303 21.0088 8.80836 20.5304C8.90837 20.5155 8.99837 20.4607 9.05338 20.381C9.10838 20.3012 9.12838 20.1966 9.10838 20.1019C9.06838 19.9175 9.03338 19.7282 9.00337 19.5438C8.97837 19.3844 8.85336 19.2648 8.69335 19.2449C5.63807 18.8861 3.63289 18.4077 2.38778 17.7301C1.06267 17.0075 0.412608 15.3582 0.847647 14.0178C1.81773 15.0094 4.51797 17.4261 8.48333 18.2582C8.58334 18.2782 8.68834 18.2533 8.77335 18.1935C8.85836 18.1287 8.90837 18.034 8.91337 17.9294C8.92337 17.7101 8.94337 17.4959 8.97337 17.2816C8.99837 17.1271 8.92837 16.9826 8.79836 16.9129Z" fill="#206CDE"/>
</svg>
