<svg width="19" height="34" viewBox="0 0 19 34" fill="none" xmlns="http://www.w3.org/2000/svg">
<path d="M18.9729 17.3703C18.9367 17.4874 18.912 17.6102 18.8645 17.7235C18.7353 18.0314 18.6612 18.0843 18.4521 18.3374L3.23729 33.4558C3.04533 33.6125 2.84956 33.7712 2.62148 33.8656C1.8156 34.1981 0.798746 33.894 0.312178 33.1705C-0.104067 32.551 -0.104067 31.6897 0.312178 31.0701C0.380602 30.9663 0.469935 30.8794 0.547861 30.783L14.417 17.0001L0.547864 3.21907L0.31218 2.93196C0.25326 2.82241 0.184834 2.71852 0.137318 2.60519C-0.197198 1.80621 0.0993052 0.80134 0.836761 0.31024C1.46018 -0.103418 2.32688 -0.103418 2.9503 0.31024C3.05293 0.380129 3.14226 0.467017 3.2373 0.546347L18.4521 15.6647C18.53 15.761 18.6193 15.8479 18.6878 15.9518C18.8265 16.1577 18.9234 16.3881 18.9729 16.6318C19.0204 16.8736 18.9957 17.1229 18.9729 17.3703Z" fill="#094295"/>
</svg>
