<svg width="80" height="81" viewBox="0 0 80 81" fill="none" xmlns="http://www.w3.org/2000/svg">
<path d="M73.6982 0.992207C73.2262 0.369207 72.5072 0.012207 71.7252 0.012207C70.9432 0.012207 70.2242 0.369207 69.7512 0.992207C69.7002 1.05921 69.6572 1.13321 69.6252 1.21221L63.5262 15.8582C63.4752 15.9802 63.4492 16.1102 63.4492 16.2422V74.5242C63.4492 77.5502 65.9112 80.0122 68.9372 80.0122H74.5122C77.5382 80.0122 80.0002 77.5502 80.0002 74.5242V16.2422C80.0002 16.1102 79.9742 15.9792 79.9232 15.8582L73.8242 1.21221C73.7922 1.13421 73.7492 1.06021 73.6982 0.992207ZM71.4092 2.13121C71.5212 2.02921 71.6502 2.01221 71.7252 2.01221C71.7992 2.01221 71.9282 2.02921 72.0402 2.13121L74.3332 7.63721H69.1162L71.4092 2.13121ZM77.6822 15.6792H65.7672L68.2882 9.62521C68.3092 9.62621 68.3282 9.63721 68.3492 9.63721H75.0992C75.1212 9.63721 75.1392 9.62621 75.1602 9.62521L77.6822 15.6792ZM78.0002 17.6792V62.8462H65.4492V17.6792H78.0002ZM65.4492 64.8452H78.0002V69.2622H65.4492V64.8452ZM74.5122 78.0122H68.9372C67.0142 78.0122 65.4492 76.4482 65.4492 74.5242V71.2622H78.0002V74.5242C78.0002 76.4482 76.4362 78.0122 74.5122 78.0122Z" fill="#0F62CA"/>
<path d="M71.7249 51.5601C74.3529 51.5601 75.5499 46.4411 75.5499 41.6851C75.5499 36.9291 74.3529 31.8101 71.7249 31.8101C69.0969 31.8101 67.8999 36.9291 67.8999 41.6851C67.8999 46.4411 69.0969 51.5601 71.7249 51.5601ZM71.7089 33.8101C72.2159 33.9521 73.5499 36.5881 73.5499 41.6861C73.5499 46.7841 72.2159 49.4201 71.7399 49.5621C71.2329 49.4211 69.8989 46.7851 69.8989 41.6861C69.8989 36.5871 71.2329 33.9511 71.7089 33.8101Z" fill="#0F62CA"/>
<path d="M1 80.012H55.694C58.655 80.012 61.065 77.603 61.065 74.641V5.371C61.065 2.41 58.655 0 55.694 0H1C0.448 0 0 0.448 0 1V79.012C0 79.564 0.448 80.012 1 80.012ZM7.822 39.194H2V31.266H7.822V39.194ZM7.822 41.194V49.122H2V41.194H7.822ZM7.822 51.122V59.05H2V51.122H7.822ZM7.822 29.266H2V21.338H7.822V29.266ZM2 61.05H7.822V68.978H2V61.05ZM7.822 19.338H2V11.41H7.822V19.338ZM2 70.978H7.822V78.012H2V70.978ZM59.065 5.371V74.641C59.065 76.499 57.553 78.012 55.694 78.012H9.822V2H55.694C57.553 2 59.065 3.512 59.065 5.371ZM7.822 2V9.41H2V2H7.822Z" fill="#0F62CA"/>
<path d="M20.4072 35.8052H46.9192C47.4712 35.8052 47.9192 35.3572 47.9192 34.8052V17.1362C47.9192 16.5842 47.4712 16.1362 46.9192 16.1362H20.4072C19.8552 16.1362 19.4072 16.5842 19.4072 17.1362V34.8052C19.4072 35.3582 19.8552 35.8052 20.4072 35.8052ZM21.4072 18.1362H45.9192V33.8052H21.4072V18.1362Z" fill="#0F62CA"/>
<path d="M40.1861 22.2393H27.1401C26.5881 22.2393 26.1401 22.6873 26.1401 23.2393C26.1401 23.7913 26.5881 24.2393 27.1401 24.2393H40.1851C40.7371 24.2393 41.1851 23.7913 41.1851 23.2393C41.1851 22.6873 40.7381 22.2393 40.1861 22.2393Z" fill="#0F62CA"/>
<path d="M40.1861 27.7031H27.1401C26.5881 27.7031 26.1401 28.1511 26.1401 28.7031C26.1401 29.2551 26.5881 29.7031 27.1401 29.7031H40.1851C40.7371 29.7031 41.1851 29.2551 41.1851 28.7031C41.1851 28.1511 40.7381 27.7031 40.1861 27.7031Z" fill="#0F62CA"/>
</svg>
