<svg width="50" height="50" viewBox="0 0 50 50" fill="none" xmlns="http://www.w3.org/2000/svg">
<path fill-rule="evenodd" clip-rule="evenodd" d="M40.9816 38.7995C42.2498 39.8371 42.3456 41.646 41.1892 42.8024L36.2999 47.6917C32.3448 51.6469 18.7267 46.063 11.3571 38.6934C3.98679 31.3231 -1.59698 17.7063 2.35873 13.7506L7.24802 8.86132C8.40301 7.70633 10.2146 7.80222 11.251 9.06888L17.7359 16.9952C18.7375 18.2194 18.6475 20.0892 17.5314 21.2053L14.4425 24.2943C13.8186 24.9182 13.6637 26.092 14.1404 26.892C14.1717 26.9559 14.2419 27.0891 14.3526 27.283C14.5412 27.6136 14.7733 27.9884 15.0504 28.3991C15.8465 29.5793 16.8403 30.804 18.0434 32.0071C19.2464 33.2101 20.4726 34.2049 21.6552 35.0025C22.0668 35.2801 22.4425 35.5128 22.774 35.702C22.9686 35.813 23.1021 35.8835 23.2125 35.9396C23.9667 36.3786 25.1381 36.2261 25.7562 35.608L28.8452 32.519C29.9607 31.4035 31.8322 31.3139 33.0553 32.3146L40.9816 38.7995ZM40.0605 39.9253L32.1343 33.4404C31.4885 32.9121 30.4599 32.9613 29.8737 33.5475L26.7847 36.6365C25.6999 37.7213 23.8058 37.968 22.5269 37.2214C22.4356 37.1767 22.2748 37.0918 22.053 36.9652C21.6907 36.7584 21.2842 36.5067 20.8419 36.2084C19.5849 35.3606 18.2867 34.3075 17.0148 33.0356C15.743 31.7638 14.6908 30.4671 13.8445 29.2125C13.5467 28.771 13.2955 28.3654 13.0892 28.0039C12.963 27.7826 12.8784 27.6222 12.8634 27.5856C12.0704 26.2634 12.3218 24.3579 13.414 23.2658L16.503 20.1768C17.0898 19.5899 17.1393 18.563 16.6101 17.9162L10.1252 9.98993C9.63245 9.38772 8.8216 9.34481 8.27657 9.88984L3.38727 14.7791C0.244664 17.9217 5.52895 30.8082 12.3856 37.6649C19.2416 44.5209 32.1293 49.8053 35.2713 46.6632L40.1606 41.7739C40.7071 41.2275 40.6643 40.4193 40.0605 39.9253ZM49.0005 25C49.0005 25.4017 48.6749 25.7273 48.2732 25.7273C47.8716 25.7273 47.546 25.4017 47.546 25C47.546 12.5485 37.452 2.45455 25.0005 2.45455C24.5989 2.45455 24.2732 2.12893 24.2732 1.72727C24.2732 1.32561 24.5989 1 25.0005 1C38.2553 1 49.0005 11.7452 49.0005 25ZM40.2732 25C40.2732 25.4017 39.9476 25.7273 39.546 25.7273C39.1443 25.7273 38.8187 25.4017 38.8187 25C38.8187 17.3684 32.6321 11.1818 25.0005 11.1818C24.5989 11.1818 24.2732 10.8562 24.2732 10.4545C24.2732 10.0529 24.5989 9.72727 25.0005 9.72727C33.4354 9.72727 40.2732 16.5651 40.2732 25Z" fill="#206CDE" stroke="#206CDE" stroke-width="0.3"/>
</svg>
