<svg width="13" height="16" viewBox="0 0 13 16" fill="none" xmlns="http://www.w3.org/2000/svg">
<path d="M10.7899 1.93955C10.2144 1.32695 9.52072 0.838983 8.75143 0.505494C7.98214 0.172004 7.15337 0 6.31579 0C5.47821 0 4.64944 0.172004 3.88015 0.505494C3.11086 0.838983 2.41722 1.32695 1.84166 1.93955C0.658601 3.20715 0 4.88111 0 6.62048C0 8.35985 0.658601 10.0338 1.84166 11.3014L6.31579 16L10.7899 11.3014C11.973 10.0338 12.6316 8.35985 12.6316 6.62048C12.6316 4.88111 11.973 3.20715 10.7899 1.93955ZM10.2811 10.8068L6.31579 14.9755L2.35049 10.8068C1.28412 9.6774 0.689501 8.17871 0.689501 6.62048C0.689501 5.06224 1.28412 3.56355 2.35049 2.43414C2.85914 1.88872 3.47342 1.45402 4.15542 1.15687C4.83741 0.859713 5.57266 0.706407 6.31579 0.706407C7.05892 0.706407 7.79417 0.859713 8.47616 1.15687C9.15816 1.45402 9.77244 1.88872 10.2811 2.43414C11.3475 3.56355 11.9421 5.06224 11.9421 6.62048C11.9421 8.17871 11.3475 9.6774 10.2811 10.8068Z" fill="#565656"/>
<path d="M6.31553 3.36865C5.7326 3.36865 5.16276 3.54151 4.67806 3.86537C4.19337 4.18923 3.8156 4.64955 3.59252 5.18811C3.36944 5.72667 3.31107 6.31929 3.4248 6.89102C3.53852 7.46276 3.81923 7.98793 4.23143 8.40012C4.64363 8.81232 5.1688 9.09303 5.74053 9.20676C6.31226 9.32048 6.90488 9.26211 7.44344 9.03903C7.982 8.81595 8.44232 8.43818 8.76618 7.95349C9.09004 7.4688 9.2629 6.89895 9.2629 6.31602C9.2629 5.53433 8.95238 4.78466 8.39964 4.23192C7.8469 3.67918 7.09722 3.36865 6.31553 3.36865ZM6.31553 8.67685C5.84861 8.67685 5.39216 8.53839 5.00393 8.27898C4.61569 8.01957 4.3131 7.65085 4.13441 7.21947C3.95573 6.78808 3.90898 6.3134 4.00007 5.85545C4.09116 5.39749 4.31601 4.97683 4.64618 4.64666C4.97634 4.3165 5.397 4.09165 5.85496 4.00056C6.31291 3.90946 6.7876 3.95622 7.21898 4.1349C7.65037 4.31359 8.01908 4.61618 8.27849 5.00442C8.5379 5.39265 8.67636 5.84909 8.67636 6.31602C8.67636 6.94215 8.42763 7.54264 7.98489 7.98538C7.54215 8.42812 6.94166 8.67685 6.31553 8.67685Z" fill="#565656"/>
</svg>
