<svg width="14" height="14" viewBox="0 0 14 14" fill="none" xmlns="http://www.w3.org/2000/svg">
<path d="M13.4298 0.480036C13.2025 0.252667 12.8993 0.252667 12.6719 0.480036L6.94984 6.20214L1.22774 0.480036C1.00037 0.252667 0.697211 0.252667 0.469843 0.480036C0.242474 0.707404 0.242474 1.01056 0.469843 1.23793L6.19195 6.96003L0.469843 12.6821C0.242474 12.9095 0.242474 13.2127 0.469843 13.44C0.583527 13.5537 0.697211 13.5916 0.84879 13.5916C1.00037 13.5916 1.11405 13.5537 1.22774 13.44L6.94984 7.71793L12.6719 13.44C12.7856 13.5537 12.8993 13.5916 13.0509 13.5916C13.2025 13.5916 13.3162 13.5537 13.4298 13.44C13.6572 13.2127 13.6572 12.9095 13.4298 12.6821L7.70774 6.96003L13.4298 1.23793C13.6193 1.04846 13.6193 0.707404 13.4298 0.480036Z" fill="#C5D2DC"/>
</svg>
