<svg width="46" height="48" viewBox="0 0 46 48" fill="none" xmlns="http://www.w3.org/2000/svg">
<path d="M44.9476 13.3536L23.4711 0.132888C23.1774 -0.0442962 22.8226 -0.0442962 22.5289 0.132888L1.05241 13.3536C0.391593 13.7625 0 14.5394 0 15.3844V41.635C0 45.165 2.54536 48 5.71482 48H40.2852C43.4546 48 46 45.165 46 41.635V15.3844C46 14.5394 45.6084 13.7625 44.9476 13.3536ZM22.9939 2.01377L43.6749 14.7438L27.3871 29.3275L18.0745 29.3138L2.28838 14.7438L22.9939 2.01377ZM1.70098 41.635V16.6656L16.4836 30.3224L2.49641 44.3336C1.99468 43.584 1.70098 42.6436 1.70098 41.635ZM40.2729 46.0919H5.70258C5.00505 46.0919 4.35648 45.9147 3.79356 45.5739L18.1112 31.222L27.3626 31.2356L42.1452 45.6012C41.5823 45.9283 40.946 46.0919 40.2729 46.0919ZM44.2868 41.635C44.2868 42.6572 43.9931 43.6113 43.4669 44.3745L28.9902 30.3224L44.2868 16.6247V41.635Z" fill="#206CDE"/>
</svg>
