<svg width="28" height="28" viewBox="0 0 28 28" fill="none" xmlns="http://www.w3.org/2000/svg">
<circle cx="14" cy="14" r="13" stroke="#206CDE" stroke-width="2"/>
<path d="M22.1019 8.3826C21.8871 8.41279 21.689 8.51274 21.5398 8.66629C18.3237 11.8073 15.9167 14.3993 12.8473 17.4312L9.35429 14.5552C9.25748 14.475 9.14538 14.4143 9.02443 14.3764C8.90347 14.3386 8.77604 14.3244 8.64944 14.3346C8.52283 14.3449 8.39955 14.3794 8.28666 14.4361C8.17377 14.4929 8.0735 14.5709 7.99159 14.6655C7.90967 14.7601 7.84774 14.8696 7.80933 14.9876C7.77092 15.1056 7.7568 15.2299 7.76776 15.3532C7.77873 15.4766 7.81458 15.5966 7.87325 15.7064C7.93192 15.8162 8.01225 15.9137 8.10965 15.9932L12.2852 19.4365C12.4706 19.5882 12.7077 19.6664 12.9494 19.6555C13.1912 19.6446 13.4199 19.5455 13.5901 19.3778C17.0361 16.0122 19.4987 13.3137 22.9049 9.98689C23.0506 9.84903 23.1479 9.66982 23.1829 9.47485C23.2179 9.27988 23.1888 9.07911 23.0998 8.90121C23.0107 8.72332 22.8663 8.57738 22.6871 8.48425C22.5079 8.39111 22.3031 8.35554 22.1019 8.3826Z" fill="#206CDE" stroke="white" stroke-width="0.4"/>
</svg>
