<svg width="40" height="50" viewBox="0 0 40 50" fill="none" xmlns="http://www.w3.org/2000/svg">
<path d="M20 0.897461C13.6402 0.897461 7.87104 3.86746 4.17964 9.05465C0.330028 14.4481 -0.58755 21.3265 1.71167 27.4522C2.31284 29.0403 3.25151 30.6078 4.51714 32.1031L19.2722 49.5725C19.4515 49.789 19.7257 49.9128 20 49.9128C20.2742 49.9128 20.5484 49.789 20.7277 49.5725L35.4828 32.1031C36.7484 30.6078 37.6871 29.0403 38.2882 27.4522C40.598 21.3265 39.6699 14.4481 35.8203 9.05465C32.1289 3.86746 26.3597 0.897461 20 0.897461ZM36.5058 26.8025C35.9785 28.1947 35.1453 29.5765 34.0167 30.9068L20 47.5203L5.98315 30.9172C4.85464 29.5868 4.02143 28.205 3.49409 26.8128C1.40581 21.2543 2.23901 15.0153 5.73003 10.1168C9.06284 5.43496 14.2625 2.75371 20 2.75371C25.7269 2.75371 30.9265 5.43496 34.2699 10.1168C37.7609 15.005 38.6046 21.2543 36.5058 26.8025Z" fill="#206CDE"/>
<path d="M19.9997 10.4365C15.0005 10.4365 10.9399 14.4068 10.9399 19.295C10.9399 24.1831 15.0005 28.1534 19.9997 28.1534C24.9989 28.1534 29.0595 24.1831 29.0595 19.295C29.0595 14.4068 24.9989 10.4365 19.9997 10.4365ZM19.9997 26.2972C16.0552 26.2972 12.8384 23.1518 12.8384 19.295C12.8384 15.4381 16.0552 12.2928 19.9997 12.2928C23.9442 12.2928 27.161 15.4381 27.161 19.295C27.161 23.1518 23.9442 26.2972 19.9997 26.2972Z" fill="#206CDE"/>
</svg>
