<svg width="94" height="78" viewBox="0 0 94 78" fill="none" xmlns="http://www.w3.org/2000/svg">
<path d="M81.0562 77.5199H13.0162C5.9602 77.5199 0.200195 71.7599 0.200195 64.7039C0.200195 64.2719 0.488195 63.9839 0.920195 63.9839H39.3682C39.8002 63.9839 40.0882 64.2719 40.0882 64.7039V69.2399H53.8402V64.7039C53.8402 64.2719 54.1282 63.9839 54.5602 63.9839H93.0802C93.5122 63.9839 93.8002 64.2719 93.8002 64.7039C93.8002 71.7599 88.0402 77.5199 81.0562 77.5199ZM1.6402 65.4959C2.0002 71.3999 6.9682 76.1519 12.9442 76.1519H80.9842C86.9602 76.1519 91.9282 71.4719 92.2882 65.4959H55.3522V70.0319C55.3522 70.4639 55.0642 70.7519 54.6322 70.7519H39.3682C38.9362 70.7519 38.6482 70.4639 38.6482 70.0319V65.4959H1.6402Z" fill="#0F62CA"/>
<path d="M54.6322 70.68H39.3682C38.9362 70.68 38.6482 70.392 38.6482 69.96V65.424H7.54422C7.11222 65.424 6.82422 65.136 6.82422 64.704V3.35998C6.82422 1.77598 8.12022 0.47998 9.70422 0.47998H84.3682C85.9522 0.47998 87.2482 1.77598 87.2482 3.35998V64.776C87.2482 65.208 86.9602 65.496 86.5282 65.496H55.3522V70.032C55.3522 70.392 54.9922 70.68 54.6322 70.68ZM40.0882 69.24H53.8402V64.704C53.8402 64.272 54.1282 63.984 54.5602 63.984H85.7362V3.35998C85.7362 2.56798 85.0882 1.91998 84.2962 1.91998H9.70422C8.91222 1.91998 8.26422 2.56798 8.26422 3.35998V64.056H39.4402C39.8722 64.056 40.1602 64.344 40.1602 64.776V69.24H40.0882Z" fill="#0F62CA"/>
<path d="M81.4163 60.456H12.5843C12.1523 60.456 11.8643 60.168 11.8643 59.736V6.24002C11.8643 5.80802 12.1523 5.52002 12.5843 5.52002H81.4883C81.9202 5.52002 82.2083 5.80802 82.2083 6.24002V59.736C82.1363 60.096 81.8483 60.456 81.4163 60.456ZM13.3043 59.016H80.7682V6.96002H13.3043V59.016Z" fill="#0F62CA"/>
<path d="M77.0964 17.256C76.8804 17.256 76.7364 17.184 76.5924 17.04L70.6164 11.064C70.3284 10.776 70.3284 10.344 70.6164 10.056C70.9044 9.76797 71.3364 9.76797 71.6244 10.056L77.6004 16.032C77.8884 16.32 77.8884 16.752 77.6004 17.04C77.4564 17.184 77.3124 17.256 77.0964 17.256Z" fill="#0F62CA"/>
<path d="M77.0244 23.448C76.8084 23.448 76.6644 23.376 76.5204 23.232L64.7844 11.928C64.4964 11.64 64.4964 11.208 64.7844 10.92C65.0724 10.632 65.5044 10.632 65.7924 10.92L77.5284 22.224C77.8164 22.512 77.8164 22.944 77.5284 23.232C77.3844 23.376 77.2404 23.448 77.0244 23.448Z" fill="#0F62CA"/>
</svg>
