<svg width="61" height="65" viewBox="0 0 61 65" fill="none" xmlns="http://www.w3.org/2000/svg">
<path d="M60.5748 63.2352C60.5748 44.6432 44.0352 39.4043 40.3524 38.4813L39.5868 31.4097C40.5203 30.0248 41.1915 28.4783 41.5668 26.848C42.4446 26.3102 43.1574 24.9424 43.8174 22.5852C44.5104 20.1151 44.4774 18.5281 43.7052 17.5853C43.5246 17.3619 43.2999 17.1788 43.0452 17.0474C43.1046 16.8217 43.1574 16.576 43.2102 16.3104C43.9494 11.669 43.4874 8.29589 41.9034 6.21093C41.2921 5.39505 40.4358 4.799 39.4614 4.51109C38.6386 3.32368 37.5515 2.34599 36.2868 1.65589C34.2182 0.461963 31.8269 -0.0424297 29.4558 0.215015C28.5123 0.261606 27.5796 0.438102 26.6838 0.739575C25.6189 1.10213 24.6101 1.61403 23.6874 2.26013C22.5824 2.96227 21.571 3.8035 20.6778 4.76341C19.0589 6.36962 17.9162 8.39744 17.3778 10.6199C16.9458 12.4986 16.9458 14.4516 17.3778 16.3303C17.4218 16.5782 17.4724 16.8172 17.5296 17.0474C17.2766 17.1726 17.0519 17.3489 16.8696 17.5653C16.0908 18.5082 16.0512 20.1018 16.7442 22.5852C17.4042 24.9424 18.1038 26.3102 18.9816 26.848C19.3519 28.5067 20.0232 30.0824 20.9616 31.496L20.2224 38.4747C16.5396 39.4043 0 44.6034 0 63.2352C0 63.4994 0.104303 63.7527 0.289964 63.9395C0.475625 64.1263 0.727436 64.2312 0.99 64.2312H59.5848C59.7148 64.2312 59.8435 64.2055 59.9637 64.1554C60.0838 64.1054 60.1929 64.032 60.2848 63.9395C60.3768 63.847 60.4497 63.7372 60.4994 63.6164C60.5492 63.4956 60.5748 63.366 60.5748 63.2352ZM20.0244 25.1349C19.9122 25.0553 19.3644 24.544 18.7044 22.054C17.9718 19.4511 18.4206 18.8734 18.4404 18.8469C18.4602 18.8203 18.6714 18.7937 18.744 18.8004C18.9098 18.8158 19.0767 18.7889 19.2294 18.7222C19.3821 18.6555 19.5156 18.5511 19.6176 18.4187C19.7196 18.2863 19.7868 18.1302 19.8129 17.9648C19.839 17.7994 19.8232 17.63 19.767 17.4724C19.5874 16.9879 19.4527 16.4878 19.3644 15.9784C18.9865 14.3795 18.9752 12.7151 19.3314 11.1113C19.796 9.22763 20.7744 7.51203 22.1562 6.15781C22.9394 5.31108 23.8265 4.56807 24.7962 3.94669C25.5701 3.39892 26.4165 2.96307 27.3108 2.65189C28.0486 2.40281 28.8171 2.25757 29.5944 2.22029C31.5752 2.00012 33.5743 2.41864 35.3034 3.41549C36.3806 3.98379 37.2909 4.82631 37.9434 5.85901C38.0213 6.01133 38.137 6.14085 38.2792 6.23507C38.4214 6.32928 38.5853 6.38501 38.7552 6.39685C39.39 6.53427 39.9506 6.90627 40.326 7.43933C41.1906 8.54157 42.042 10.9187 41.217 15.9518C41.1299 16.4669 41.0064 16.975 40.8474 17.4724C40.7918 17.6289 40.7761 17.7969 40.8016 17.9612C40.8271 18.1254 40.893 18.2806 40.9934 18.4126C41.0938 18.5446 41.2254 18.6493 41.3763 18.717C41.5272 18.7847 41.6925 18.8134 41.8572 18.8004C41.9562 18.8004 42.1212 18.8004 42.174 18.8535C42.2268 18.9066 42.6294 19.5175 41.91 22.0473C41.1906 24.5772 40.6626 25.0486 40.557 25.1283C40.3453 25.1574 40.1486 25.2545 39.9964 25.4053C39.8441 25.5561 39.7444 25.7524 39.7122 25.9649C39.2172 29.192 36.663 33.2092 32.7294 34.6434C31.1443 35.2156 29.4107 35.2156 27.8256 34.6434C23.925 33.2623 21.3774 29.2252 20.8824 25.9583C20.8469 25.7463 20.7441 25.5515 20.5895 25.4031C20.4348 25.2547 20.2366 25.1606 20.0244 25.1349ZM27.1524 36.5358C29.1706 37.2646 31.3778 37.2646 33.396 36.5358C35.0742 35.9065 36.5916 34.9084 37.8378 33.6142L38.4318 39.152L34.353 48.3816L32.967 45.2209L34.3794 42.0271C34.471 41.8239 34.4922 41.5957 34.4396 41.379C34.3869 41.1623 34.2635 40.9696 34.089 40.8319L30.9012 38.2888C30.7264 38.1498 30.5102 38.0742 30.2874 38.0742C30.0646 38.0742 29.8484 38.1498 29.6736 38.2888L26.4858 40.8319C26.3128 40.9692 26.1903 41.1607 26.1377 41.376C26.0851 41.5913 26.1054 41.8181 26.1954 42.0205L27.6078 45.2143L26.2152 48.3683L22.143 39.132L22.737 33.7005C23.9771 34.9641 25.4839 35.9309 27.1458 36.5292L27.1524 36.5358ZM29.6274 44.8159L28.3074 41.9275L30.2874 40.3538L32.2674 41.9275L30.9474 44.8159C30.891 44.9434 30.8618 45.0814 30.8618 45.2209C30.8618 45.3605 30.891 45.4985 30.9474 45.626L33.2376 50.845L32.9736 51.4492C32.7408 51.9785 32.3602 52.4284 31.878 52.7441C31.3959 53.0599 30.833 53.228 30.2577 53.228C29.6824 53.228 29.1195 53.0599 28.6374 52.7441C28.1552 52.4284 27.7746 51.9785 27.5418 51.4492L27.2712 50.8384L29.6274 45.626C29.6838 45.4985 29.713 45.3605 29.713 45.2209C29.713 45.0814 29.6838 44.9434 29.6274 44.8159ZM1.9998 62.2392C2.5674 45.8384 17.0082 41.3033 20.5524 40.4335L25.7598 52.2527C26.1421 53.139 26.7753 53.8925 27.5805 54.4191C28.3856 54.9458 29.3271 55.2223 30.2874 55.2141C31.2477 55.2223 32.1892 54.9458 32.9943 54.4191C33.7995 53.8925 34.4327 53.139 34.815 52.2527L40.0224 40.4335C43.5666 41.3033 58.0074 45.8384 58.575 62.2392H1.9998Z" fill="white"/>
</svg>
