<svg width="70" height="60" viewBox="0 0 70 60" fill="none" xmlns="http://www.w3.org/2000/svg">
<path d="M24.1044 0.423828C17.8891 0.423828 12.2441 1.61017 8.10096 3.5952C4.07673 5.52182 1.34506 8.27898 1.19424 11.5396C1.19424 11.5693 1.1645 11.5693 1.1645 11.5991V11.6288C1.13477 11.6883 1.13477 11.7775 1.13477 11.8656V21.0261C1.13477 21.0856 1.13477 21.1153 1.13477 21.1748V30.9279C1.13477 30.9576 1.13477 31.0171 1.13477 31.0458V40.0278C1.13477 43.4084 3.92698 46.2527 8.07122 48.2695C12.2452 50.2556 17.8902 51.4409 24.1055 51.4409C26.4484 51.4409 28.7 51.2625 30.8316 50.9364C34.7358 55.8571 40.7706 58.9998 47.5276 58.9998C59.3283 58.9998 68.9073 49.3954 68.9073 37.5977C68.9073 25.7693 59.3283 16.1649 47.5276 16.1649H47.0178V11.8656C47.0475 11.7775 47.0178 11.6883 47.0178 11.6288C47.0178 11.5991 47.0178 11.5991 47.0178 11.5693C46.988 11.5693 46.988 11.5396 46.988 11.5098C46.8085 8.27792 44.0758 5.52076 40.0824 3.59414C35.9052 1.61017 30.3197 0.423828 24.1044 0.423828ZM24.1044 2.1136C30.0807 2.1136 35.4857 3.29995 39.3293 5.13841C43.0827 6.94607 45.2441 9.31876 45.3344 11.7191C45.3344 11.7477 45.3344 11.7785 45.3344 11.8072C45.3344 11.837 45.3344 11.837 45.3344 11.8667C45.3344 13.5862 44.2532 15.3355 42.2416 16.8468C42.2416 16.8765 42.2118 16.8468 42.2118 16.8468C39.6289 17.5287 37.2572 18.6545 35.1554 20.1371C31.9118 21.0558 28.1584 21.6198 24.1044 21.6198C18.0994 21.6198 12.6647 20.4632 8.81999 18.595C5.21635 16.8765 3.08581 14.6228 2.84472 12.3404V11.8656C2.84472 11.7775 2.81498 11.718 2.81498 11.6585C2.93499 9.28796 5.06765 6.94501 8.81999 5.13735C12.6637 3.29995 18.0983 2.1136 24.1044 2.1136ZM45.3344 16.1936V16.2828H45.2441C45.2738 16.2531 45.3046 16.2244 45.3344 16.1936ZM2.84472 16.2244C4.04593 17.7358 5.87696 19.0708 8.0999 20.1371C12.2431 22.1232 17.8891 23.3096 24.1033 23.3096C26.9869 23.3096 29.7483 23.0717 32.3016 22.5682C30.0499 24.8804 28.3081 27.6673 27.2864 30.7792C26.236 30.8684 25.1548 30.9279 24.0747 30.9279C18.0686 30.9279 12.6637 29.7713 8.81999 27.9041C4.97738 26.0667 2.84472 23.6346 2.84472 21.1748C2.84472 21.145 2.84472 21.1153 2.84472 21.0856V16.2244ZM47.5254 17.8547C58.4266 17.8547 67.2239 26.688 67.2239 37.5977C67.2239 48.5064 58.4266 57.3397 47.5254 57.3397C36.6561 57.3397 27.8567 48.5064 27.8567 37.5977C27.8578 26.688 36.6561 17.8547 47.5254 17.8547ZM2.84472 25.5622C4.04593 27.0736 5.87696 28.3778 8.07016 29.4452C12.2133 31.4313 17.8594 32.5879 24.0747 32.5879C25.0051 32.5879 25.876 32.5582 26.7766 32.4987C26.3868 34.129 26.1765 35.8474 26.1765 37.5977C26.1765 38.6651 26.2371 39.7325 26.3868 40.7394C25.6359 40.7989 24.8553 40.8286 24.0747 40.8286C18.0686 40.8286 12.6637 39.6433 8.81999 37.8049C4.97738 35.9675 2.84472 33.5066 2.84472 31.0458C2.84472 31.0171 2.84472 30.9863 2.84472 30.9863V25.5622ZM2.84472 35.4332C4.04593 36.9456 5.87696 38.2499 8.07016 39.3162C12.2133 41.3023 17.8594 42.4886 24.0747 42.4886C24.9753 42.4886 25.8165 42.4886 26.6863 42.4281C27.2864 44.9484 28.3081 47.319 29.7186 49.3954C27.9173 49.6322 26.0555 49.7798 24.1033 49.7798C18.0983 49.7798 12.6637 48.6243 8.81893 46.7561C4.97631 44.9187 2.84365 42.4876 2.84365 40.0267V35.4332H2.84472Z" fill="white" stroke="white" stroke-width="0.4"/>
</svg>
