<svg width="128" height="35" viewBox="0 0 128 35" fill="none" xmlns="http://www.w3.org/2000/svg">
<path d="M56.5547 9.89451V28.6696H61.5167V22.7689H63.9843C68.6244 22.7421 72.1649 21.2669 72.1649 16.3317C72.1649 11.3965 68.6244 9.89451 63.9843 9.89451H56.5547ZM67.0688 16.3317C67.0688 18.0215 65.7277 18.4774 64.2257 18.4774H61.5167V14.186H64.2257C65.7277 14.186 67.0688 14.6419 67.0688 16.3317Z" fill="#262626"/>
<path d="M73.5843 19.2821C73.5843 24.5123 76.937 29.072 83.6424 29.072C90.3478 29.072 93.7005 24.5123 93.7005 19.2821C93.7005 14.0519 90.3478 9.49219 83.6424 9.49219C76.937 9.49219 73.5843 14.0519 73.5843 19.2821ZM88.6044 19.2821C88.6044 22.2861 86.8878 24.5123 83.6424 24.5123C80.397 24.5123 78.6804 22.2861 78.6804 19.2821C78.6804 16.2781 80.397 14.0519 83.6424 14.0519C86.8878 14.0519 88.6044 16.2781 88.6044 19.2821Z" fill="#262626"/>
<path d="M95.3775 19.5503C95.3775 26.2557 100.5 29.072 105.65 29.072C107.635 29.072 109.486 28.6696 111.122 27.8918V23.0639C110.049 24.11 108.279 24.7 106.348 24.7C103.424 24.7 100.474 23.198 100.474 19.5503C100.474 15.4734 103.424 13.8373 106.401 13.8373C108.118 13.8373 109.834 14.4005 110.988 15.3661V10.6723C109.352 9.89451 107.447 9.49219 105.543 9.49219C100.474 9.49219 95.3775 12.4694 95.3775 19.5503Z" fill="#262626"/>
<path d="M112.443 9.89451V14.3201H117.754V28.6696H122.716V14.3201H128V9.89451H112.443Z" fill="#262626"/>
<path d="M57.4631 5.84287V4.54973H58.0532L59.158 5.84287H59.7481L58.4675 4.33002L59.61 2.82972H59.0262L58.072 4.0852H57.4631V2.82972H56.9609V5.84287H57.4631Z" fill="#262626"/>
<path d="M59.8864 4.3363C59.8864 5.36579 60.6773 5.9182 61.4934 5.9182C62.3157 5.9182 63.1004 5.36579 63.1004 4.3363C63.1004 3.30681 62.3157 2.75439 61.4934 2.75439C60.6773 2.75439 59.8864 3.30681 59.8864 4.3363ZM62.5982 4.3363C62.5982 5.03309 62.1085 5.44112 61.4934 5.44112C60.8782 5.44112 60.3885 5.03309 60.3885 4.3363C60.3885 3.63951 60.8782 3.23148 61.4934 3.23148C62.1085 3.23148 62.5982 3.63951 62.5982 4.3363Z" fill="#262626"/>
<path d="M64.3229 5.84287V4.56856H66.068V5.84287H66.5702V2.82972H66.068V4.10403H64.3229V2.82972H63.8207V5.84287H64.3229Z" fill="#262626"/>
<path d="M67.2917 4.34885C67.2917 5.42229 68.1141 5.9182 68.905 5.9182C69.2817 5.9182 69.6018 5.84915 69.8843 5.71105V5.20886C69.6332 5.35951 69.3005 5.45367 68.9741 5.45367C68.384 5.45367 67.7939 5.10842 67.7939 4.3363C67.7939 3.54535 68.4028 3.21892 68.9866 3.21892C69.3068 3.21892 69.6269 3.31308 69.8529 3.48885V2.99921C69.5955 2.82972 69.2628 2.75439 68.9238 2.75439C68.1392 2.75439 67.2917 3.25031 67.2917 4.34885Z" fill="#262626"/>
<path d="M73.0674 5.21513V4.03498C73.0674 3.19381 72.5589 2.75439 71.7554 2.75439C71.2595 2.75439 70.8452 2.87366 70.6066 2.95527V3.44491C70.8703 3.33192 71.2406 3.21892 71.7052 3.21892C72.2576 3.21892 72.5652 3.52024 72.5652 3.97221V4.07893C72.3141 4.02243 71.9939 3.98476 71.7303 3.98476C71.0837 3.98476 70.3681 4.22331 70.3681 5.0017C70.3681 5.63572 70.8954 5.9182 71.429 5.9182C71.9186 5.9182 72.3015 5.76754 72.6028 5.51645C72.6907 5.7801 72.9104 5.88054 73.1552 5.88054C73.2808 5.88054 73.4126 5.85543 73.5319 5.81149V5.40346C73.4566 5.42857 73.375 5.4474 73.2996 5.4474C73.1678 5.4474 73.0674 5.39718 73.0674 5.21513ZM70.8828 4.97659C70.8828 4.53717 71.3599 4.40535 71.7993 4.40535C72.0441 4.40535 72.3517 4.44929 72.5652 4.49323V5.04564C72.3015 5.32813 71.9186 5.48506 71.5357 5.48506C71.203 5.48506 70.8828 5.32813 70.8828 4.97659Z" fill="#262626"/>
<path d="M75.1377 3.29425H76.3618V5.84287H76.864V2.82972H74.648C74.5915 4.44929 74.4158 5.46623 73.8822 5.46623C73.8194 5.46623 73.7504 5.45367 73.6813 5.42857V5.82404C73.8131 5.87426 73.9324 5.89309 74.0454 5.89309C74.8238 5.89309 75.0372 4.83849 75.1377 3.29425Z" fill="#262626"/>
<path d="M79.0471 5.84287V3.29425H80.1519V2.82972H77.4338V3.29425H78.5449V5.84287H79.0471Z" fill="#262626"/>
<path d="M81.1487 5.84287L82.9943 3.63951V5.84287H83.4965V2.82972H83.0696L81.2241 5.03309V2.82972H80.7219V5.84287H81.1487Z" fill="#262626"/>
<path d="M84.9267 5.84287V4.56856H86.6719V5.84287H87.174V2.82972H86.6719V4.10403H84.9267V2.82972H84.4245V5.84287H84.9267Z" fill="#262626"/>
<path d="M88.6049 5.84287V3.29425H90.3061V2.82972H88.1027V5.84287H88.6049Z" fill="#262626"/>
<path d="M90.5622 4.3363C90.5622 5.36579 91.3532 5.9182 92.1692 5.9182C92.9916 5.9182 93.7762 5.36579 93.7762 4.3363C93.7762 3.30681 92.9916 2.75439 92.1692 2.75439C91.3532 2.75439 90.5622 3.30681 90.5622 4.3363ZM93.2741 4.3363C93.2741 5.03309 92.7844 5.44112 92.1692 5.44112C91.554 5.44112 91.0644 5.03309 91.0644 4.3363C91.0644 3.63951 91.554 3.23148 92.1692 3.23148C92.7844 3.23148 93.2741 3.63951 93.2741 4.3363Z" fill="#262626"/>
<path d="M96.1977 5.84287C96.8506 5.84287 97.1707 5.50389 97.1707 5.00798C97.1707 4.63134 96.9196 4.39279 96.6748 4.31119C96.9008 4.21075 97.0766 3.95965 97.0766 3.64578C97.0766 3.11221 96.6748 2.82972 96.1475 2.82972H94.4966V5.84287H96.1977ZM94.9988 4.53717H96.1475C96.3986 4.53717 96.6686 4.61878 96.6686 4.97659C96.6686 5.30929 96.4426 5.40346 96.1287 5.40346H94.9988V4.53717ZM94.9988 3.26914H96.0973C96.3107 3.26914 96.5681 3.35702 96.5681 3.696C96.5681 4.0036 96.361 4.10403 96.0973 4.10403H94.9988V3.26914Z" fill="#262626"/>
<path d="M100.384 5.21513V4.03498C100.384 3.19381 99.8754 2.75439 99.0719 2.75439C98.576 2.75439 98.1616 2.87366 97.9231 2.95527V3.44491C98.1868 3.33192 98.5571 3.21892 99.0216 3.21892C99.5741 3.21892 99.8816 3.52024 99.8816 3.97221V4.07893C99.6306 4.02243 99.3104 3.98476 99.0468 3.98476C98.4002 3.98476 97.6846 4.22331 97.6846 5.0017C97.6846 5.63572 98.2119 5.9182 98.7454 5.9182C99.2351 5.9182 99.618 5.76754 99.9193 5.51645C100.007 5.7801 100.227 5.88054 100.472 5.88054C100.597 5.88054 100.729 5.85543 100.848 5.81149V5.40346C100.773 5.42857 100.691 5.4474 100.616 5.4474C100.484 5.4474 100.384 5.39718 100.384 5.21513ZM98.1993 4.97659C98.1993 4.53717 98.6764 4.40535 99.1158 4.40535C99.3606 4.40535 99.6682 4.44929 99.8816 4.49323V5.04564C99.618 5.32813 99.2351 5.48506 98.8522 5.48506C98.5195 5.48506 98.1993 5.32813 98.1993 4.97659Z" fill="#262626"/>
<path d="M101.688 5.84287L102.511 4.78827H103.358V5.84287H103.86V2.82972H102.379C101.644 2.82972 101.249 3.2817 101.249 3.809C101.249 4.22958 101.5 4.59995 101.971 4.73805L101.098 5.84287H101.688ZM101.751 3.809C101.751 3.4763 102.002 3.2817 102.423 3.2817H103.358V4.3363H102.423C102.002 4.3363 101.751 4.1417 101.751 3.809Z" fill="#262626"/>
<path d="M106.855 5.84287V3.29425H108.556V2.82972H106.353V5.84287H106.855Z" fill="#262626"/>
<path d="M109.582 3.33191V2.82972H109.13V7.2239H109.632V5.3909C109.851 5.64827 110.222 5.9182 110.799 5.9182C111.659 5.9182 112.306 5.24024 112.306 4.3363C112.306 3.43235 111.659 2.75439 110.799 2.75439C110.222 2.75439 109.851 3.02432 109.582 3.33191ZM111.804 4.3363C111.804 5.02681 111.327 5.45367 110.743 5.45367C110.203 5.45367 109.801 5.10214 109.632 4.71294V3.95965C109.801 3.57046 110.203 3.21892 110.743 3.21892C111.327 3.21892 111.804 3.64578 111.804 4.3363Z" fill="#262626"/>
<path d="M114.192 5.27163L113.056 2.82972H112.522L113.954 5.84915L113.841 6.12536C113.646 6.61499 113.401 6.85981 113.062 6.85981C112.974 6.85981 112.887 6.84726 112.799 6.82215V7.25529C112.912 7.28667 113.018 7.29923 113.125 7.29923C113.564 7.29923 113.947 7.02302 114.261 6.29485L115.743 2.82972H115.209L114.192 5.27163Z" fill="#262626"/>
<path d="M116.804 5.84287V3.29425H118.549V5.84287H119.051V2.82972H116.302V5.84287H116.804Z" fill="#262626"/>
<path d="M120.482 5.84287V3.29425H122.227V5.84287H122.73V2.82972H119.98V5.84287H120.482Z" fill="#262626"/>
<path d="M126.106 5.21513V4.03498C126.106 3.19381 125.598 2.75439 124.794 2.75439C124.299 2.75439 123.884 2.87366 123.646 2.95527V3.44491C123.909 3.33192 124.28 3.21892 124.744 3.21892C125.297 3.21892 125.604 3.52024 125.604 3.97221V4.07893C125.353 4.02243 125.033 3.98476 124.769 3.98476C124.123 3.98476 123.407 4.22331 123.407 5.0017C123.407 5.63572 123.934 5.9182 124.468 5.9182C124.958 5.9182 125.341 5.76754 125.642 5.51645C125.73 5.7801 125.95 5.88054 126.194 5.88054C126.32 5.88054 126.452 5.85543 126.571 5.81149V5.40346C126.496 5.42857 126.414 5.4474 126.339 5.4474C126.207 5.4474 126.106 5.39718 126.106 5.21513ZM123.922 4.97659C123.922 4.53717 124.399 4.40535 124.838 4.40535C125.083 4.40535 125.391 4.44929 125.604 4.49323V5.04564C125.341 5.32813 124.958 5.48506 124.575 5.48506C124.242 5.48506 123.922 5.32813 123.922 4.97659Z" fill="#262626"/>
<line x1="0.5" y1="8" x2="0.5" y2="35" stroke="#FC4D5A"/>
<line x1="3.5" y1="6" x2="3.5" y2="33" stroke="#FC4D5A"/>
<line x1="6.5" y1="4" x2="6.5" y2="31" stroke="#FC4D5A"/>
<line x1="9.5" y1="2" x2="9.5" y2="29" stroke="#FC4D5A"/>
<line x1="12.5" y1="1" x2="12.5" y2="28" stroke="#FC4D5A"/>
<line x1="15.5" y1="8" x2="15.5" y2="35" stroke="#5E9EFF"/>
<line x1="18.5" y1="6" x2="18.5" y2="33" stroke="#5E9EFF"/>
<line x1="21.5" y1="4" x2="21.5" y2="31" stroke="#5E9EFF"/>
<line x1="24.5" y1="2" x2="24.5" y2="29" stroke="#5E9EFF"/>
<line x1="27.5" y1="1" x2="27.5" y2="28" stroke="#5E9EFF"/>
<line x1="30.5" y1="7" x2="30.5" y2="34" stroke="#C7C7C7"/>
<line x1="33.5" y1="5" x2="33.5" y2="32" stroke="#C7C7C7"/>
<line x1="36.5" y1="3" x2="36.5" y2="30" stroke="#C7C7C7"/>
<line x1="39.5" y1="1" x2="39.5" y2="28" stroke="#C7C7C7"/>
<line x1="42.5" x2="42.5" y2="27" stroke="#C7C7C7"/>
</svg>
