<svg width="802" height="459" viewBox="0 0 802 459" fill="none" xmlns="http://www.w3.org/2000/svg">
<path fill-rule="evenodd" clip-rule="evenodd" d="M800.33 286.464C801.165 286.464 802 285.629 802 284.794C801.165 283.959 800.33 282.289 799.495 282.289H798.66C799.495 283.124 798.66 284.794 799.495 284.794C799.495 286.464 799.495 286.464 800.33 286.464Z" fill="#C5D2DC"/>
<path fill-rule="evenodd" clip-rule="evenodd" d="M795.319 274.771C795.319 275.606 796.989 277.276 796.989 277.276C797.824 277.276 798.659 276.441 798.659 276.441C798.659 275.606 799.494 273.936 799.494 272.266C798.659 270.596 800.329 268.926 798.659 268.09L796.989 267.255V268.926C796.989 270.596 797.824 270.596 796.989 271.431C796.989 273.101 796.154 273.101 795.319 274.771Z" fill="#C5D2DC"/>
<path fill-rule="evenodd" clip-rule="evenodd" d="M797.824 263.08C797.824 263.915 797.824 264.75 797.824 264.75C797.824 264.75 797.824 265.585 798.659 266.42C799.494 266.42 800.33 266.42 800.33 265.585L798.659 264.75C797.824 263.915 797.824 263.915 797.824 263.08Z" fill="#C5D2DC"/>
<path fill-rule="evenodd" clip-rule="evenodd" d="M791.978 268.926C791.978 268.926 792.813 270.596 793.648 270.596H794.483C794.483 269.761 794.483 269.761 794.483 268.091H793.648C792.813 268.091 791.978 268.091 791.978 268.926Z" fill="#C5D2DC"/>
<path fill-rule="evenodd" clip-rule="evenodd" d="M690.086 25.8898L692.592 10.0222C688.416 10.8573 685.076 14.1979 684.241 20.0439C683.406 24.2196 686.746 25.0547 690.086 25.8898Z" fill="#C5D2DC"/>
<path fill-rule="evenodd" clip-rule="evenodd" d="M705.12 296.486C704.284 294.816 702.614 294.816 701.779 293.146C699.274 293.146 699.274 293.146 699.274 296.486C702.614 297.321 702.614 298.156 705.12 296.486Z" fill="#C5D2DC"/>
<path fill-rule="evenodd" clip-rule="evenodd" d="M766.087 161.188L764.417 159.518L762.747 160.353C762.747 161.188 762.747 161.188 762.747 161.188V164.529C762.747 165.364 764.417 166.199 764.417 167.869C764.417 168.704 765.252 169.539 765.252 169.539C765.252 168.704 764.417 165.364 765.252 163.694C766.087 162.859 766.087 162.858 766.087 161.188Z" fill="#C5D2DC"/>
<path fill-rule="evenodd" clip-rule="evenodd" d="M282.522 109.408C281.687 111.913 282.522 110.243 281.687 112.748C281.687 114.419 279.182 113.584 279.182 116.089C278.346 120.265 284.193 123.606 286.698 126.111H288.369C288.369 122.771 287.533 120.265 288.369 116.089C290.039 106.067 294.215 106.067 299.226 101.891C298.391 101.056 298.391 101.056 298.391 101.056C299.226 101.056 301.731 101.056 301.731 100.221C300.896 98.5504 299.226 96.8801 299.226 95.2097C297.555 95.2097 295.885 93.5394 295.885 93.5394C295.05 92.7042 295.05 92.7042 294.215 92.7042C293.38 93.5394 293.38 95.2097 291.709 96.0449C290.874 95.2097 290.039 94.3745 289.204 94.3745H287.533V96.0449C287.533 96.8801 288.368 97.7152 289.204 98.5504C289.204 98.5504 285.863 98.5504 285.863 99.3856C285.028 100.221 285.028 101.891 283.357 101.891C282.522 101.891 282.522 100.221 281.687 100.221C279.182 100.221 278.346 102.726 277.511 104.397C278.346 106.902 281.687 109.408 282.522 109.408Z" fill="#C5D2DC"/>
<path fill-rule="evenodd" clip-rule="evenodd" d="M302.567 95.2099C303.402 96.045 303.402 96.8802 303.402 98.5505C303.402 99.3857 305.907 100.221 307.578 101.056C309.248 101.056 308.413 98.5505 309.248 97.7154C310.083 97.7154 310.918 98.5505 311.754 98.5505C312.589 96.8802 311.754 96.045 311.754 95.2099C311.754 96.045 312.589 96.8802 313.424 97.7154C314.259 97.7154 315.094 96.8802 315.094 96.045C315.094 94.3747 314.259 94.3747 315.094 93.5395L315.929 95.2099C317.6 95.2099 319.27 91.8692 320.105 91.034C320.105 91.8692 320.94 92.7043 321.776 92.7043C322.611 92.7043 322.611 91.034 323.446 91.034C323.446 91.034 326.787 91.8692 327.622 91.034C328.457 90.1988 328.457 89.3636 329.292 89.3636C333.468 88.5285 335.974 88.5285 341.82 88.5285L351.007 90.1988C355.183 89.3636 360.194 88.5285 361.864 82.6823C362.699 79.3416 357.688 77.6712 356.853 78.5064C354.347 78.5064 354.347 81.0119 352.677 81.0119C351.842 81.0119 350.172 80.1767 350.172 80.1767C347.666 80.1767 345.996 81.0119 344.325 81.0119C340.985 80.1767 340.15 77.6712 337.644 76.8361V77.6712L330.963 76.8361C329.292 77.6712 327.622 78.5064 325.952 78.5064C325.116 78.5064 325.116 80.1767 324.281 80.1767L322.611 79.3416C320.94 80.1767 320.94 81.0119 319.27 81.0119C319.27 80.1767 318.435 79.3416 317.6 79.3416V81.0119C318.435 81.8471 318.435 81.8471 318.435 82.6823C317.6 82.6823 316.765 82.6823 315.929 81.8471C315.929 83.5174 316.765 83.5174 316.765 85.1878C315.929 85.1878 315.094 84.3526 315.094 84.3526H313.424C313.424 85.1878 313.424 86.023 313.424 86.8581C312.589 86.8581 312.589 86.8581 312.589 86.8581C310.918 86.8581 310.918 88.5285 310.083 90.1988C309.248 88.5285 309.248 87.6933 308.413 87.6933C306.743 87.6933 302.567 88.5285 302.567 90.1988C302.567 90.1988 305.907 92.7043 305.907 93.5395C305.072 93.5395 304.237 93.5395 304.237 93.5395C303.402 93.5395 302.567 92.7043 302.567 94.3747C300.061 95.2098 300.896 94.3747 302.567 95.2099Z" fill="#C5D2DC"/>
<path fill-rule="evenodd" clip-rule="evenodd" d="M249.115 122.77C250.785 122.77 251.621 122.77 252.456 122.77C254.126 122.77 254.961 122.77 255.796 123.605C255.796 123.605 257.466 123.605 257.466 122.77C257.466 121.935 256.631 121.1 256.631 120.264C256.631 120.264 254.961 116.924 254.961 116.089C252.456 116.089 249.115 116.924 248.28 121.1C247.445 121.935 247.445 122.77 249.115 122.77Z" fill="#C5D2DC"/>
<path fill-rule="evenodd" clip-rule="evenodd" d="M291.709 133.628C290.874 134.463 288.369 135.298 288.369 136.133C288.369 136.968 291.709 142.814 291.709 142.814C293.379 142.814 294.214 141.979 295.049 140.309C295.049 139.473 294.214 137.803 293.379 136.968C292.544 136.968 293.379 134.463 293.379 134.463C293.379 134.463 291.709 134.463 291.709 133.628Z" fill="#C5D2DC"/>
<path fill-rule="evenodd" clip-rule="evenodd" d="M277.511 114.418H278.346C278.346 112.748 278.346 112.748 279.182 111.913C279.182 110.243 280.017 109.408 278.346 109.408C277.511 109.408 277.511 109.408 276.676 110.243C276.676 111.913 277.511 112.748 277.511 113.583C277.511 113.583 276.676 113.583 277.511 114.418Z" fill="#C5D2DC"/>
<path fill-rule="evenodd" clip-rule="evenodd" d="M349.336 123.606C348.501 123.606 348.501 123.606 347.666 123.606C345.995 123.606 344.325 124.441 343.49 126.111C343.49 126.946 344.325 127.781 345.16 127.781C346.831 127.781 347.666 127.781 349.336 128.616V126.946C348.501 126.946 347.666 126.111 347.666 126.111C348.501 126.111 348.501 125.276 348.501 125.276L349.336 123.606Z" fill="#C5D2DC"/>
<path fill-rule="evenodd" clip-rule="evenodd" d="M356.018 133.628C356.853 134.463 358.523 134.463 359.358 133.628C357.688 133.628 357.688 132.792 356.853 131.957L356.018 133.628Z" fill="#C5D2DC"/>
<path fill-rule="evenodd" clip-rule="evenodd" d="M363.534 146.155C364.369 146.155 367.709 145.32 367.709 144.485C367.709 144.485 366.039 142.815 365.204 142.815C364.369 144.485 361.864 143.65 361.864 145.32C361.864 145.32 362.699 146.155 363.534 146.155Z" fill="#C5D2DC"/>
<path fill-rule="evenodd" clip-rule="evenodd" d="M738.527 354.114C736.857 351.608 737.692 347.432 735.187 344.927L736.022 339.08C738.527 334.905 743.538 342.421 748.549 341.586C742.703 337.41 742.703 335.74 737.692 332.399C731.011 328.223 723.494 322.377 719.318 316.531C713.472 307.344 714.307 304.003 704.285 298.157C703.45 301.498 707.626 305.674 700.944 304.003C696.768 303.168 705.955 309.849 705.955 315.696C706.791 318.201 706.791 319.036 707.626 321.542H709.296C716.813 324.047 725.164 339.916 727.67 350.773C738.527 357.454 736.857 369.982 746.879 377.499C746.879 374.158 743.538 369.147 745.209 367.476C746.879 366.641 748.549 365.806 750.22 365.806C751.89 365.806 752.725 367.476 755.231 369.147C755.231 360.795 741.033 364.136 738.527 354.114Z" fill="#C5D2DC"/>
<path fill-rule="evenodd" clip-rule="evenodd" d="M797.824 243.871C796.989 238.86 794.484 241.365 791.978 236.354C791.143 233.848 792.813 228.837 794.484 228.002C803.67 226.332 788.637 226.332 787.802 215.475C787.802 211.299 786.967 211.299 789.473 209.628C799.495 202.947 784.461 199.606 782.791 195.431C776.11 177.057 786.132 198.771 785.297 186.244C784.461 184.573 782.791 183.738 778.615 183.738C775.275 182.903 773.604 182.068 771.934 179.562C771.934 178.727 771.934 177.057 771.934 174.551C771.934 174.551 770.264 171.21 767.758 175.386C766.088 176.222 769.428 181.233 766.088 180.397C762.747 178.727 758.571 163.694 754.395 157.848C751.89 153.672 755.23 152.837 758.571 152.002C759.406 150.331 758.571 149.496 756.901 147.826L757.736 141.979C759.406 139.474 761.077 146.155 762.747 146.99C766.088 146.99 760.241 140.309 760.241 136.968C763.582 121.1 776.11 129.452 774.439 126.946C771.934 122.77 769.428 111.078 768.593 93.5394C766.923 93.5394 766.088 94.3746 763.582 94.3746C765.253 94.3746 766.088 93.5394 767.758 93.5394C767.758 88.5284 767.758 83.5173 766.923 78.5063C766.923 76.0008 774.439 74.3304 775.275 70.1546C776.11 67.649 774.439 63.4732 768.593 64.3083C759.406 64.3083 754.395 58.4621 748.549 68.4842C744.373 71.8249 741.032 66.8139 744.373 65.1435C747.714 62.638 751.89 63.4732 751.89 56.7918C752.725 42.5938 741.032 47.6049 739.362 41.7587C740.197 35.0773 751.89 45.9345 751.055 35.0773C751.055 29.2311 754.395 30.9014 756.066 30.9014C764.417 34.2421 761.912 26.7255 765.253 26.7255C771.099 26.7255 774.439 20.0442 771.934 18.3738C762.747 20.8793 766.923 11.6924 758.571 14.1979C754.395 15.8683 766.923 8.35173 756.901 0C749.384 2.50552 742.703 3.3407 740.197 14.1979C740.197 14.1979 745.208 14.1979 747.714 16.7035C746.879 20.0442 746.879 20.8793 742.703 20.8793C740.197 20.8793 738.527 15.8683 730.175 17.5386C719.318 25.8904 705.12 27.5607 695.098 37.5828C692.592 40.0883 689.252 45.9345 686.746 49.2752C681.735 54.2863 677.559 58.4621 678.394 59.2973C682.57 63.4732 682.57 61.8028 686.746 62.638C690.922 61.8028 690.087 67.649 690.087 67.649C688.417 68.4842 690.087 72.6601 684.241 69.3194C681.735 72.6601 679.23 70.9897 675.889 68.4842C673.383 66.8139 675.054 72.6601 673.383 76.8359C670.878 81.847 663.361 81.0118 662.526 87.6932C662.526 87.6932 662.526 88.5284 662.526 89.3635C662.526 92.7042 665.032 96.8801 666.702 98.5504C669.208 106.902 659.186 90.1987 655.01 94.3746C651.669 96.8801 655.01 91.8691 646.658 88.5284C639.141 86.0229 631.625 94.3746 630.79 98.5504C630.79 101.056 627.449 111.913 619.932 105.232C612.416 105.232 609.91 109.408 609.91 106.902C609.91 104.397 614.086 100.221 604.064 102.726C595.712 104.397 602.394 116.089 598.218 116.089C597.383 116.924 599.053 108.573 597.383 109.408C596.548 110.243 594.877 111.078 593.207 111.913C591.536 110.243 597.383 109.408 596.548 106.902C590.701 106.902 584.02 114.419 578.174 111.913C584.02 118.595 577.339 115.254 575.668 122.77C580.679 124.441 579.844 116.089 581.514 126.946C587.361 130.287 584.02 132.793 579.009 130.287C573.998 132.793 584.02 140.309 576.503 136.133C568.152 134.463 571.492 133.628 566.481 140.309C561.47 143.65 559.8 136.133 558.965 139.474C558.13 142.815 563.141 154.507 555.624 151.166C549.778 149.496 547.272 145.32 548.107 138.639C548.107 136.133 543.096 136.968 543.932 133.628C541.426 130.287 545.602 127.781 533.91 126.946C532.239 132.793 524.723 125.276 521.382 129.452C519.712 130.287 523.052 135.298 523.052 136.133C524.723 141.979 517.206 140.309 511.36 141.144C503.008 142.815 508.019 134.463 504.678 136.133H495.492C493.821 136.968 488.81 139.474 487.975 137.804C486.305 134.463 486.305 139.474 480.458 137.804H479.623C478.788 136.968 478.788 136.968 477.953 136.133C469.601 136.968 479.623 141.144 476.283 142.815C472.942 148.661 465.425 147.826 462.92 151.166C463.755 144.485 482.964 131.957 485.469 118.595C486.305 113.584 479.623 102.726 474.612 101.891C472.942 101.891 469.601 101.056 467.931 101.891C466.26 106.902 464.59 105.232 462.085 105.232C460.414 105.232 472.107 97.7153 456.238 97.7153C454.568 96.0449 462.92 96.8801 458.744 91.869C455.403 90.1987 452.898 90.1987 452.898 91.0339C451.227 91.8691 448.722 96.8801 446.216 98.5504C443.711 100.221 448.722 105.232 442.876 106.902C442.876 106.902 435.359 102.726 441.205 111.078C438.7 109.408 437.865 109.408 437.029 109.408C437.029 109.408 432.854 113.584 431.183 112.748C429.513 112.748 434.524 108.573 431.183 108.573C427.007 111.078 425.337 110.243 422.831 110.243C417.82 109.408 422.832 112.748 421.161 113.584C419.491 114.419 414.48 113.584 411.139 116.089C405.293 118.595 401.952 121.935 399.447 125.276C396.106 127.781 403.623 142.815 396.941 134.463C388.589 134.463 386.084 133.628 381.073 132.793C374.391 131.957 372.721 134.463 375.227 140.309C376.062 142.815 371.051 146.155 376.062 149.496C378.567 148.661 376.062 155.342 378.567 154.507C380.238 158.683 381.908 159.518 376.897 162.859C376.897 162.859 378.567 170.375 376.897 172.046C376.062 180.397 376.062 177.892 376.062 176.222C381.908 167.87 378.567 163.694 374.391 173.716C374.391 172.046 377.732 164.529 378.567 162.859C386.084 154.507 376.897 159.518 376.062 155.342C375.227 151.166 372.721 150.331 370.216 146.155C370.216 146.155 369.38 146.99 368.545 146.99C366.875 146.99 364.369 146.99 364.369 147.826C368.545 153.672 364.369 152.837 359.358 147.826C357.688 149.496 352.677 151.166 361.864 157.848C361.864 157.848 365.205 163.694 361.864 164.529C360.194 163.694 360.194 161.188 359.358 159.518C356.018 158.683 353.512 154.507 353.512 153.672C353.512 149.496 356.853 146.99 358.523 143.65C358.523 143.65 360.193 140.309 360.193 136.133C357.688 132.793 356.853 146.155 354.347 145.32C347.666 146.155 347.666 147.826 346.831 150.331C345.16 154.507 348.501 162.859 344.325 163.694C341.82 167.035 340.149 170.375 340.149 172.881C339.314 177.892 337.644 179.562 346.831 178.727C350.171 180.397 351.842 184.573 351.842 189.584C351.842 194.595 348.501 192.09 347.666 195.431C346.831 198.771 352.677 202.112 351.842 202.947C348.501 202.947 345.16 199.606 345.996 197.936C346.831 195.431 347.666 193.76 350.171 190.419C347.666 187.914 349.336 182.903 342.655 182.068C337.644 182.068 336.809 184.573 335.973 195.431C330.127 197.101 331.798 197.101 330.127 199.606C325.116 206.288 320.94 199.606 318.435 206.288C315.094 201.277 308.413 202.112 309.248 197.936C309.248 196.266 305.072 192.925 310.918 194.595C314.259 195.431 310.918 201.277 315.929 202.112C320.105 202.112 323.446 193.76 330.127 191.255C333.468 182.903 337.644 192.925 333.468 179.562C330.962 173.716 339.314 163.694 342.655 158.683C345.996 153.672 340.984 154.507 343.49 148.661C345.996 143.65 347.666 147.826 351.007 140.309C352.677 136.133 351.842 135.298 346.831 131.957C342.655 128.617 343.49 126.111 339.314 130.287C337.644 131.957 333.468 142.815 324.281 141.979C317.6 146.155 325.951 148.661 320.94 151.166C317.6 156.177 309.248 156.177 315.094 161.188C318.435 163.694 315.929 167.035 316.765 169.54C316.765 169.54 316.764 175.386 313.424 174.551C309.248 174.551 308.413 164.529 305.907 157.013C305.907 156.177 305.072 155.342 305.072 154.507C303.402 150.331 296.72 147.826 294.215 142.815C294.215 142.815 293.38 142.815 290.039 142.815C288.369 143.65 290.039 146.99 289.204 147.826C289.204 157.013 285.028 149.496 282.522 151.166C283.358 155.342 277.511 157.848 278.347 152.002C279.182 148.661 284.193 150.331 281.687 146.155C273.336 146.99 271.665 146.155 267.489 141.144C259.973 144.485 262.478 141.979 260.808 141.144C256.632 139.474 254.126 136.968 259.973 137.804C259.973 134.463 271.665 135.298 262.478 133.628C260.808 133.628 259.138 132.793 258.302 132.793C256.632 135.298 254.127 137.804 254.127 131.957C252.456 131.957 247.445 131.957 244.94 131.122C237.423 129.452 235.753 126.111 227.401 133.628C225.731 135.298 224.06 131.122 222.39 129.452C224.06 126.111 222.39 121.1 222.39 121.1C224.895 121.1 224.06 117.759 230.742 121.935C234.918 124.441 234.918 116.089 234.082 112.748C230.742 110.243 229.071 103.561 228.236 105.232C227.401 109.408 229.906 111.078 220.72 114.419C212.368 117.759 223.225 120.265 214.873 124.441C214.873 124.441 214.038 123.606 212.368 125.276C211.533 126.111 210.697 126.946 209.027 128.617C210.697 124.441 201.511 125.276 209.862 123.606C209.027 121.1 208.192 117.759 205.686 117.759C199.84 120.265 195.664 116.089 193.159 115.254C185.642 113.584 188.148 124.441 184.807 126.111C181.466 123.606 179.796 116.089 180.631 111.078C181.466 109.408 173.95 104.397 172.28 114.419C177.291 119.43 173.115 121.1 170.609 121.1C168.104 120.265 166.433 118.595 166.433 116.924C166.433 113.584 167.268 109.408 168.104 107.737C168.104 104.397 169.774 103.561 173.95 97.7153C182.302 96.0449 181.466 91.8691 182.302 82.6822C182.302 81.847 182.302 81.0118 182.302 81.0118C186.477 68.4842 183.137 84.3525 185.642 90.1987C185.642 101.891 189.818 111.078 199.005 112.748C208.192 114.419 213.203 107.737 213.203 98.5504C214.038 93.5394 209.862 90.1987 213.203 78.5063C209.862 73.4952 212.368 73.4952 209.862 69.3194C194.829 65.1435 212.368 68.4842 207.357 64.3083C208.192 52.6159 209.862 66.8139 211.533 64.3083C210.697 60.9676 211.533 57.627 208.192 56.7918C205.686 57.627 202.346 53.4511 199.84 52.6159C191.489 49.2752 187.313 52.6159 186.477 60.9676C185.642 68.4842 179.796 64.3083 175.62 65.9787C173.95 66.8139 173.115 68.4842 172.28 70.1546C168.939 74.3304 166.433 78.5063 161.422 76.8359C160.587 76.0008 160.587 80.1766 156.411 80.1766C155.576 85.1877 154.741 86.0228 152.235 86.0228C151.4 92.7042 149.73 91.8691 145.554 91.0339C144.719 101.056 142.213 103.561 140.543 103.561C140.543 103.561 129.686 103.561 120.499 101.891C117.158 101.056 114.653 100.221 112.147 99.3856C110.477 101.891 109.642 103.561 108.806 106.067C107.136 109.408 112.147 111.078 109.642 115.254L108.806 116.089C107.136 116.924 107.971 111.078 107.136 109.408C104.631 108.573 103.795 107.737 102.96 106.902C100.455 103.561 98.7843 106.902 98.7843 106.067L97.9491 108.573C95.4436 107.737 94.6084 107.737 93.7732 110.243C93.7732 109.408 93.7732 108.573 93.7732 108.573L88.7622 107.737C87.0919 110.243 84.5863 110.243 83.7512 111.913C82.916 112.748 82.916 114.419 81.2457 115.254C80.4105 115.254 77.905 114.419 77.0698 115.254C75.3994 116.089 76.2346 118.595 76.2346 119.43C75.3994 119.43 72.8939 120.265 72.8939 120.265C70.3884 121.1 70.3884 125.276 68.718 126.946C67.8829 127.781 67.0477 127.781 66.2125 129.452C65.3774 131.957 67.8829 132.793 67.8829 134.463C67.8829 136.133 65.3774 136.133 65.3774 136.968C65.3774 137.804 69.5532 139.474 69.5532 141.144C69.5532 142.815 68.718 145.32 70.3884 146.155C69.5532 147.826 68.7181 147.826 67.0477 147.826C65.3774 148.661 65.3774 152.002 61.2015 151.166C60.3663 154.507 58.696 155.342 57.8608 157.848C57.0256 159.518 57.8608 160.353 57.8608 162.024C57.0256 162.859 56.1905 162.024 55.3553 162.024C55.3553 163.694 57.0256 164.529 57.0256 167.035C57.0256 167.87 56.1905 167.87 56.1905 169.54V170.375C55.3553 170.375 55.3553 171.21 54.5201 171.21C51.1794 170.375 51.1794 165.364 47.8387 165.364C50.3442 162.859 50.3442 165.364 50.3442 166.199C49.5091 168.705 44.498 167.87 43.6629 172.046C43.6629 173.716 43.6629 174.551 45.3332 174.551C46.1684 174.551 47.0035 174.551 47.0035 173.716C47.8387 175.386 48.6739 177.057 49.5091 178.727C50.3442 180.397 54.5201 180.397 53.6849 182.903C53.6849 183.738 52.8498 185.408 52.0146 186.244V188.749C52.0146 187.914 52.8498 187.914 53.6849 187.079C52.0146 187.914 51.1794 189.584 50.3442 189.584C50.3442 190.419 50.3442 189.584 50.3442 189.584C49.5091 189.584 46.1684 191.255 46.1684 192.925C46.1684 195.431 47.8387 196.266 47.8387 197.101C48.6739 197.936 47.8387 199.606 47.8387 200.442C47.0035 201.277 46.1684 202.112 46.1684 202.947C45.3332 203.782 43.6629 203.782 42.8277 205.453C41.9925 208.793 44.498 207.958 45.3332 208.793C46.1684 210.464 44.498 212.134 46.1684 213.804C47.0035 214.64 51.1794 215.475 50.3442 217.145C50.3442 217.98 50.3442 219.651 49.5091 220.486C49.5091 221.321 48.6739 222.156 48.6739 223.826C49.5091 225.497 51.1794 224.662 51.1794 226.332C52.0146 228.837 52.8498 233.013 52.8498 233.013C52.8498 233.848 52.8498 238.024 53.6849 238.86C53.6849 239.695 53.6849 239.695 53.6849 240.53C52.0146 242.2 50.3442 241.365 47.8387 241.365C47.8387 242.2 48.6739 243.035 47.8387 243.871C45.3332 243.871 45.3332 243.035 44.498 243.035C44.498 243.871 44.498 243.871 44.498 244.706C44.498 246.376 41.9925 249.717 39.487 248.882C36.9815 248.882 36.9815 243.871 34.4759 243.035C34.4759 243.035 33.6408 243.871 32.8056 243.871C31.1353 243.871 31.1353 241.365 29.4649 241.365C27.7946 241.365 25.289 243.035 24.4539 243.871C26.1242 246.376 28.6297 246.376 29.4649 247.211C31.9704 249.717 30.3001 250.552 25.289 248.882L24.4539 248.046C21.9484 247.211 20.278 246.376 20.278 245.541C18.6077 242.2 18.6077 247.211 16.9373 248.046C18.6077 250.552 20.278 252.222 17.7725 254.728C17.7725 254.728 16.9373 253.893 16.1021 253.057C14.4318 251.387 11.9263 250.552 10.2559 251.387C7.75041 255.563 6.08006 253.893 5.24489 253.057L2.73937 247.211L0.233849 248.046C1.9042 249.717 1.06902 253.057 0.233849 254.728C-0.601325 258.069 2.73937 263.08 0.233849 263.915C-0.601325 265.585 1.06902 265.585 1.06902 268.091C1.90419 271.431 1.06902 274.772 1.06902 278.948C1.06902 279.783 1.06902 281.453 1.9042 283.124C2.73937 282.289 2.73937 282.289 3.57454 283.124C3.57454 283.124 5.24489 286.464 6.08006 287.3C6.08006 284.794 6.08006 285.629 6.08006 287.3C5.24489 290.64 9.42075 297.322 11.9263 299.827L13.5966 301.498C14.4318 303.168 14.4318 309.014 16.1021 309.849C16.1021 311.52 17.7725 312.355 17.7725 313.19C17.7725 313.19 16.9373 314.025 16.1021 314.86C16.1021 317.366 21.1132 318.201 22.7835 318.201C22.7835 318.201 22.7835 318.201 22.7835 319.036C22.7835 320.706 24.4539 320.706 26.1242 323.212C26.9594 324.047 26.1242 326.553 26.9594 328.223C25.289 329.058 24.4539 329.893 23.6187 331.564C22.7835 334.069 25.289 334.069 25.289 335.74C26.1242 337.41 25.289 339.915 26.1242 342.421V348.267C26.1242 349.102 26.9594 351.608 28.6297 351.608C30.3001 351.608 31.1353 350.773 31.9704 350.773C33.6408 350.773 34.4759 350.773 35.3111 351.608C36.1463 351.608 36.9815 352.443 38.6518 351.608C38.6518 349.102 39.487 347.432 39.487 344.091C41.1573 339.915 36.9815 334.904 42.8277 331.564C43.6629 329.893 49.5091 327.388 48.6739 324.047C47.0036 320.706 47.0035 319.036 49.5091 316.531C50.3442 315.695 51.1794 315.695 52.0146 315.695C53.6849 315.695 56.1905 314.86 58.696 313.19C60.3663 311.52 61.2015 311.52 62.8718 311.52C64.5422 311.52 66.2125 313.19 67.8829 313.19C71.2236 313.19 73.7291 314.025 77.0698 314.86C75.3994 314.025 75.3994 314.025 75.3994 313.19L76.2346 308.179C77.905 309.014 77.905 310.684 79.5753 310.684C81.2457 308.179 81.2457 307.344 81.2457 304.838C82.0808 301.497 82.916 298.157 81.2457 296.486C79.5753 294.816 77.0698 295.651 77.0698 292.311C77.0698 289.805 79.5753 290.64 80.4105 288.97L79.5753 287.3C78.7401 286.464 77.905 285.629 77.905 283.959C77.905 282.289 79.5753 281.453 80.4105 280.618C82.916 279.783 86.2567 280.618 87.0919 276.442C87.927 273.102 92.9381 273.937 95.4436 273.937C96.2788 273.937 96.2788 272.266 97.9491 272.266H99.6195C98.7843 273.937 98.7843 275.607 97.9491 279.783C97.9491 279.783 99.6195 281.453 100.455 281.453C104.631 282.289 103.795 275.607 107.971 276.442C110.477 276.442 111.312 275.607 113.817 275.607C114.653 275.607 115.488 276.442 116.323 276.442C119.664 277.277 120.499 275.607 123.839 276.442C123.839 276.442 124.675 276.442 125.51 276.442H124.675C127.18 277.277 125.51 281.453 128.851 281.453C130.521 281.453 131.356 281.453 132.191 282.289C133.026 283.124 132.191 285.629 132.191 286.464C133.026 288.135 137.202 288.135 137.202 291.475C137.202 293.146 137.202 299.827 138.873 300.662C141.378 301.497 140.543 302.333 141.378 304.003C141.378 306.509 143.048 308.179 144.719 308.179C147.224 308.179 148.895 307.344 151.4 307.344C155.576 308.179 153.906 311.52 156.411 313.19L160.587 314.025C163.093 317.366 160.587 324.882 165.598 325.718C166.433 325.718 167.268 324.882 168.939 324.882C171.444 325.718 170.609 329.058 173.115 329.893C178.126 330.729 179.796 329.058 181.466 326.553C182.302 323.212 178.961 324.047 178.961 322.377C178.961 321.542 179.796 320.706 178.961 320.706C178.961 319.871 176.455 319.871 177.291 319.036C177.291 318.201 178.126 318.201 178.126 317.366C178.126 315.695 176.455 315.695 176.455 314.025L177.291 312.355V313.19C178.961 312.355 183.137 314.86 183.137 314.86C184.807 313.19 184.807 308.179 188.148 308.179C190.653 309.014 191.489 311.52 193.994 311.52C194.829 311.52 194.829 310.684 195.664 309.849C195.664 309.014 192.324 306.509 192.324 305.673V304.003C193.994 304.003 193.994 304.003 194.829 304.003C193.994 303.168 192.324 302.333 192.324 301.498C192.324 299.827 193.994 298.992 195.664 298.992C196.5 298.992 200.675 302.333 201.511 303.168C204.851 304.003 206.522 304.003 208.192 304.003C211.533 304.838 213.203 307.344 216.544 307.344H219.049C219.049 307.344 219.049 307.344 219.049 308.179C220.72 308.179 221.555 307.344 223.225 307.344C224.895 307.344 224.895 309.014 225.731 309.849C226.566 309.849 226.566 309.014 227.401 309.014C228.236 309.014 238.258 310.684 238.258 310.684C239.093 310.684 239.929 309.849 240.764 309.014C242.434 309.849 243.269 309.849 244.94 309.014V308.179C244.94 308.179 244.94 309.014 245.775 309.014C248.28 309.014 249.115 309.849 250.786 311.52C252.456 312.355 252.456 315.695 254.962 315.695C255.797 315.695 255.797 315.695 256.632 315.695C257.467 317.366 257.467 322.377 257.467 322.377C256.632 324.882 255.797 325.718 254.127 326.553V328.223C255.797 328.223 256.632 329.058 256.632 329.893C257.467 329.893 258.302 329.058 259.138 329.058C261.643 329.058 259.973 333.234 261.643 334.069C262.478 334.069 262.478 334.069 263.313 333.234L264.984 335.74C264.984 335.74 267.489 335.74 267.489 336.575C267.489 338.245 264.984 336.575 264.149 339.08C264.149 339.915 264.984 340.751 265.819 340.751C266.654 340.751 265.819 340.751 266.654 340.751C267.489 340.751 268.324 342.421 269.16 342.421C270.83 342.421 271.665 341.586 274.171 341.586C276.676 341.586 277.511 340.751 278.347 340.751C281.687 340.751 283.358 339.915 286.698 339.915C287.533 339.915 288.369 339.915 288.369 339.915C288.369 341.586 286.698 341.586 285.028 341.586V343.256C286.698 346.597 289.204 349.102 290.039 353.278L295.05 385.015C295.05 385.015 295.05 386.685 295.885 386.685C298.391 387.52 299.226 382.509 300.896 382.509C301.731 382.509 303.402 384.18 303.402 385.015C302.567 387.52 305.072 387.52 304.237 390.861C305.072 390.861 306.742 391.696 308.413 391.696C311.753 392.531 314.259 390.861 316.765 391.696C320.105 392.531 321.776 395.872 322.611 398.378L321.776 399.213C320.94 402.553 324.281 402.553 325.951 404.224C326.787 405.059 325.951 406.729 325.951 408.4C325.951 410.905 329.292 411.74 331.798 411.74C331.798 413.411 332.633 413.411 333.468 414.246C335.974 414.246 335.973 411.74 339.314 411.74C339.314 412.576 339.314 413.411 338.479 415.081C338.479 416.751 339.314 417.587 339.314 419.257C339.314 419.257 343.49 420.927 345.996 418.422C347.666 414.246 352.677 417.587 355.182 416.751C356.853 415.916 358.523 415.081 359.358 415.081C359.358 414.246 359.358 414.246 359.358 415.081C366.04 411.74 371.051 408.4 375.227 408.4C381.908 407.564 393.6 411.74 392.765 414.246C391.095 419.257 398.611 420.092 403.622 420.927C413.645 422.598 419.491 423.433 420.326 415.916C420.326 414.246 416.985 412.576 416.985 409.235C417.82 404.224 422.832 400.883 425.337 397.542C432.018 400.883 440.37 403.389 447.052 405.894C451.227 408.4 447.887 417.587 455.403 418.422C464.59 420.092 465.425 413.411 476.283 415.081C480.458 415.916 482.964 419.257 485.469 419.257C486.305 419.257 486.305 419.257 486.305 419.257C487.975 415.916 491.316 415.916 492.151 412.576C491.316 415.916 487.975 416.751 486.305 419.257C486.305 419.257 487.14 425.103 496.327 426.773C513.865 429.279 528.063 415.081 531.404 409.235C533.074 406.729 538.085 410.905 542.261 410.905C543.932 410.905 546.437 408.4 548.107 409.235C551.448 410.07 552.283 411.74 555.624 412.576C563.141 415.081 563.976 407.565 568.987 405.059C571.492 404.224 566.481 400.883 567.316 395.872C568.152 389.191 568.987 388.355 571.492 382.509C576.503 370.817 565.646 378.333 565.646 374.158C567.316 368.311 571.492 364.135 576.503 361.63C580.679 359.124 584.02 358.289 586.525 358.289C597.383 359.124 598.218 357.454 599.888 357.454C611.581 360.795 622.438 385.85 629.119 390.026C633.295 392.531 636.636 387.52 642.482 388.356C646.658 389.191 649.999 390.026 652.504 390.026L654.174 387.52L655.01 384.18L656.68 382.509C655.845 383.344 655.01 383.344 655.01 385.015C655.01 385.85 655.01 385.015 655.01 385.85C655.01 387.52 654.174 388.355 652.504 390.026C655.845 390.861 655.01 391.696 656.68 398.378C658.35 403.389 666.702 399.213 671.713 392.531C675.054 388.356 677.559 382.509 680.9 380.839C681.735 380.839 682.57 381.674 682.57 382.509C683.406 384.18 683.406 386.685 686.746 387.52C685.076 392.531 685.076 396.707 685.911 400.883C686.746 406.729 688.417 412.576 687.581 421.762C685.076 421.762 680.065 420.927 677.559 421.762C676.724 425.938 674.219 430.114 674.219 430.114C676.724 434.29 679.23 434.29 682.57 443.477C682.57 444.312 683.406 448.488 683.406 450.158C678.395 452.664 680.065 455.169 683.406 458.51C680.9 453.499 680.9 453.499 685.911 452.664C687.581 445.982 686.746 444.312 689.252 442.642C693.428 440.971 690.922 445.147 694.263 445.982C702.615 447.653 708.461 435.125 710.131 430.949C712.637 423.433 715.142 403.389 717.648 386.685C715.977 381.674 715.977 377.498 715.977 374.158C715.977 364.971 719.318 362.465 717.648 356.619C715.142 346.597 708.461 340.751 705.955 330.729C704.285 324.047 704.285 314.025 695.933 311.52C690.922 309.849 705.955 305.673 690.922 304.838C688.417 304.003 685.076 297.322 675.889 304.838C675.054 310.684 678.395 314.025 675.054 314.86C669.208 321.542 669.208 306.509 668.372 310.684C666.702 312.355 668.372 316.531 666.702 317.366C664.197 314.025 669.208 302.333 655.01 311.52C648.328 311.52 657.515 299.827 659.186 290.64C661.691 279.783 660.856 272.266 661.691 271.431C665.867 265.585 664.197 255.563 665.867 245.541C667.537 238.024 671.713 241.365 675.054 235.519C675.054 235.519 680.065 230.508 684.241 232.178C683.406 229.673 684.241 228.002 685.911 226.332C688.417 224.662 692.592 223.826 695.933 220.486C695.933 220.486 692.592 216.31 694.263 213.804C696.768 211.299 704.285 210.464 709.296 207.123C711.801 207.958 705.12 215.475 709.296 213.804C711.801 208.793 716.812 208.793 715.977 202.112C718.483 198.771 721.823 197.936 722.659 193.76C723.494 190.419 715.142 198.771 714.307 196.266C712.637 191.255 714.307 175.386 711.801 172.046C707.626 167.035 713.472 162.024 715.977 157.013C720.988 159.518 718.483 151.166 720.153 152.002C721.823 153.672 723.494 163.694 725.999 161.188C729.34 156.177 729.34 163.694 731.01 162.859C735.186 162.024 727.67 152.837 730.175 147.826C731.846 146.155 731.846 144.485 731.01 143.65C730.175 138.639 724.329 134.463 724.329 134.463C724.329 131.957 729.34 124.441 732.681 126.111C724.329 136.968 737.692 140.309 739.362 144.485C741.032 153.672 736.857 155.342 740.197 169.54C741.032 172.881 742.703 179.562 742.703 185.408C744.373 198.771 736.021 196.266 743.538 202.947C746.879 206.288 741.032 210.464 749.384 221.321C749.384 221.321 756.066 231.343 765.253 237.189C771.934 242.2 785.297 251.387 792.813 257.233C799.495 254.728 799.495 248.882 797.824 243.871ZM23.6187 317.366C23.6187 318.201 24.4539 318.201 25.289 318.201C23.6187 318.201 23.6187 318.201 23.6187 317.366ZM77.0698 146.155C77.0698 146.155 77.0698 146.99 77.0698 146.155C77.0698 146.99 77.0698 146.99 77.0698 146.155C77.0698 146.99 77.0698 146.99 77.0698 146.155ZM246.61 309.014C246.61 309.849 246.61 310.684 246.61 310.684C246.61 310.684 246.61 309.849 246.61 309.014ZM660.856 383.344C660.856 382.509 660.021 382.509 660.856 383.344C660.856 382.509 660.856 383.344 660.856 383.344Z" fill="#C5D2DC"/>
<path fill-rule="evenodd" clip-rule="evenodd" d="M370.216 141.144C370.216 142.814 371.886 143.649 373.556 143.649V141.979V141.144C372.721 141.144 372.721 139.474 372.721 139.474C372.721 139.474 370.216 140.309 370.216 141.144Z" fill="#C5D2DC"/>
<path fill-rule="evenodd" clip-rule="evenodd" d="M570.657 101.056C570.657 101.056 569.822 101.056 569.822 101.891C569.822 102.726 569.822 105.232 571.492 105.232C572.327 105.232 573.162 104.396 573.162 103.561C573.162 102.726 573.162 102.726 572.327 101.891V101.056C571.492 101.891 570.657 101.056 570.657 101.056Z" fill="#C5D2DC"/>
<path fill-rule="evenodd" clip-rule="evenodd" d="M550.613 96.8797V95.2095C550.613 95.2095 550.613 95.2095 550.613 94.3744C550.613 93.5393 548.943 92.7043 548.943 92.7043C548.943 92.7043 548.943 92.7043 548.943 93.5394C548.943 94.3744 549.778 97.7148 550.613 97.7148V96.8797Z" fill="#C5D2DC"/>
<path fill-rule="evenodd" clip-rule="evenodd" d="M553.954 93.5395C553.954 94.3747 553.954 95.2099 553.954 96.045C554.789 98.5506 557.295 99.3857 559.8 99.3857C559.8 100.221 561.471 100.221 562.306 100.221C563.141 100.221 563.976 99.3857 563.976 98.5505C563.976 97.7154 563.976 96.8802 563.976 96.045V95.2099C566.482 95.2099 567.317 92.7043 567.317 91.8692C568.987 90.1988 572.328 91.8692 573.163 89.3636C573.163 88.5285 573.163 88.5285 573.163 87.6933C572.328 87.6933 572.328 87.6933 571.493 87.6933C571.493 87.6933 570.657 88.5285 569.822 88.5285C567.317 88.5285 565.646 85.1878 565.646 83.5174C565.646 82.6822 565.646 81.8471 565.646 81.0119H566.482C566.482 83.5174 567.317 86.0229 569.822 86.8581C572.328 86.8581 573.163 86.8581 573.998 86.0229C574.833 86.0229 573.998 82.6822 573.998 82.6822C572.328 82.6822 573.163 79.3415 571.493 79.3415C569.822 79.3415 568.152 78.5064 567.317 79.3415C566.482 79.3415 564.811 81.0119 563.141 81.0119C562.306 81.0119 562.306 80.1767 561.471 80.1767C560.635 80.1767 559.8 81.0119 559.8 81.0119C558.965 83.5174 560.635 84.3526 561.471 85.1878V86.0229C560.635 86.0229 559.8 85.1878 558.965 85.1878H558.13C556.46 85.1878 555.624 83.5174 553.119 83.5174C552.284 83.5174 551.448 86.8581 550.613 87.6933C550.613 88.5285 551.448 89.3636 551.448 90.1988L550.613 91.034C551.448 92.7043 553.119 92.7043 553.954 93.5395Z" fill="#C5D2DC"/>
<path fill-rule="evenodd" clip-rule="evenodd" d="M579.009 81.8467C581.514 81.8467 581.514 81.0115 584.02 81.8467C584.855 81.8467 584.855 81.8467 584.855 81.8467C584.855 81.8467 586.525 81.0115 587.36 81.0115C589.031 81.0115 591.536 76.8358 592.371 76.0007C592.371 75.1655 592.371 75.1655 592.371 75.1655C592.371 75.1655 591.536 74.3304 590.701 74.3304C589.866 74.3304 586.525 74.3304 585.69 75.1655C584.855 76.0007 584.855 76.8358 584.02 76.8358H583.185C583.185 76.0007 582.349 75.1655 582.349 75.1655C580.679 75.1655 579.844 78.5061 579.009 78.5061C578.174 77.671 577.339 77.671 577.339 76.0007H576.503C576.503 76.8358 576.503 76.8358 576.503 77.671C576.503 79.3413 577.339 81.8467 579.009 81.8467Z" fill="#C5D2DC"/>
<path fill-rule="evenodd" clip-rule="evenodd" d="M574.833 109.407C574.833 110.243 573.163 110.243 573.163 111.078H573.998L575.668 109.407C576.503 108.572 579.009 108.572 579.009 108.572C581.514 108.572 584.019 108.572 584.854 105.232C585.69 101.891 579.844 101.891 577.338 101.056C576.503 101.056 574.833 103.561 574.833 104.397C573.998 106.902 574.833 107.737 574.833 109.407Z" fill="#C5D2DC"/>
<path fill-rule="evenodd" clip-rule="evenodd" d="M673.383 308.178L672.548 301.498L668.373 305.673C668.373 306.508 668.373 307.343 668.373 307.343L673.383 308.178Z" fill="#C5D2DC"/>
<path fill-rule="evenodd" clip-rule="evenodd" d="M665.867 308.179L666.702 304.838C665.867 305.673 665.032 306.508 664.197 307.343C664.197 308.179 665.867 308.179 665.867 308.179Z" fill="#C5D2DC"/>
<path fill-rule="evenodd" clip-rule="evenodd" d="M427.842 47.6042C428.677 47.6042 428.677 46.7692 429.512 46.7692C429.512 45.9343 428.677 45.0993 428.677 45.0993C427.842 45.0993 427.007 45.0993 427.007 45.9343C426.172 46.7692 427.007 47.6042 427.842 47.6042Z" fill="#C5D2DC"/>
<path fill-rule="evenodd" clip-rule="evenodd" d="M428.678 60.9676C427.842 60.9676 427.842 61.8027 427.007 61.8027C426.172 62.6378 427.007 62.6378 427.007 63.4729C427.007 64.308 427.842 65.1431 428.678 65.9782C428.678 66.8133 429.513 67.6484 429.513 67.6484C430.348 67.6484 432.018 65.1431 432.018 65.1431C432.018 62.6378 429.513 60.9676 428.678 60.9676Z" fill="#C5D2DC"/>
<path fill-rule="evenodd" clip-rule="evenodd" d="M432.853 51.7804C432.853 53.4507 431.183 55.121 429.513 55.121V55.9561C428.678 55.9561 428.678 55.9561 427.843 56.7913C427.843 57.6264 429.513 58.4615 429.513 58.4615C430.348 59.2967 430.348 61.8021 432.018 61.8021C433.689 61.8021 434.524 60.1318 436.194 60.1318C437.029 60.1318 440.37 60.1318 440.37 58.4615C440.37 57.6264 438.699 56.7913 438.699 55.121C438.699 54.2858 441.205 54.2859 441.205 52.6156C441.205 50.9453 440.37 50.1101 439.535 50.1101C438.699 50.1101 438.699 45.9344 437.029 45.0993C436.194 45.0993 436.194 45.9344 435.359 45.9344C435.359 45.9344 433.689 46.7696 432.853 46.7696C432.018 46.7696 429.513 47.6047 429.513 49.275C431.183 50.9453 432.853 51.7804 432.853 51.7804Z" fill="#C5D2DC"/>
<path fill-rule="evenodd" clip-rule="evenodd" d="M440.37 66.8135C440.37 65.9784 439.535 65.1433 439.535 65.1433C439.535 64.3081 441.205 63.473 441.205 62.6379C441.205 60.9676 441.205 61.8027 439.535 60.9676C439.535 60.9676 433.689 61.8027 432.853 62.6379C432.853 64.3081 432.854 64.3081 432.018 65.9784C431.183 66.8135 429.513 66.8135 429.513 67.6487C429.513 69.3189 432.018 69.3189 432.018 70.9892C432.018 72.6595 432.854 74.3298 433.689 74.3298C437.029 75.1649 437.029 77.6703 440.37 78.5055C442.04 78.5055 443.71 78.5055 444.545 76.8352C444.545 75.1649 443.71 74.3298 443.71 73.4946L444.545 72.6595C445.381 69.319 445.381 68.4838 445.381 66.8135C445.381 65.1433 445.381 63.473 443.71 62.6379C442.875 62.6379 442.875 63.473 442.875 64.3081C442.875 65.1433 442.04 65.9784 440.37 66.8135Z" fill="#C5D2DC"/>
<path fill-rule="evenodd" clip-rule="evenodd" d="M445.381 85.1871C444.546 85.1871 443.711 86.8573 443.711 87.6925C443.711 88.5276 444.546 88.5276 444.546 89.3628C445.381 89.3628 446.216 88.5276 447.052 88.5276C448.722 86.8573 451.227 86.8573 452.898 86.8573C455.403 86.0222 457.908 85.187 458.744 81.8465C458.744 80.1762 457.073 76.0005 455.403 75.1654C453.733 75.1654 452.897 76.0005 452.062 77.6708H451.227V76.0005L452.898 72.66C452.898 72.66 452.898 72.66 452.898 71.8248C452.898 71.8248 452.897 70.9897 452.062 70.1545C452.062 70.1545 449.557 71.8248 449.557 72.66L448.722 76.0005C447.887 78.5059 447.052 81.0114 445.381 82.6816V85.1871Z" fill="#C5D2DC"/>
<circle cx="109.5" cy="184.5" r="24" stroke="white" stroke-opacity="0.32"/>
<g filter="url(#filter0_d)">
<circle cx="109.5" cy="184.5" r="14.9275" fill="white"/>
</g>
<line x1="101.043" y1="180.564" x2="101.043" y2="191.75" stroke="#FC4D5A"/>
<line x1="102.286" y1="179.735" x2="102.286" y2="190.922" stroke="#FC4D5A"/>
<line x1="103.529" y1="178.907" x2="103.529" y2="190.093" stroke="#FC4D5A"/>
<line x1="104.772" y1="178.078" x2="104.772" y2="189.265" stroke="#FC4D5A"/>
<line x1="106.015" y1="177.664" x2="106.015" y2="188.85" stroke="#FC4D5A"/>
<line x1="107.258" y1="180.564" x2="107.258" y2="191.75" stroke="#5E9EFF"/>
<line x1="108.501" y1="179.735" x2="108.501" y2="190.922" stroke="#5E9EFF"/>
<line x1="109.744" y1="178.907" x2="109.744" y2="190.093" stroke="#5E9EFF"/>
<line x1="110.987" y1="178.078" x2="110.987" y2="189.265" stroke="#5E9EFF"/>
<line x1="112.23" y1="177.664" x2="112.23" y2="188.85" stroke="#5E9EFF"/>
<line x1="113.473" y1="180.15" x2="113.473" y2="191.336" stroke="#D4DDE6"/>
<line x1="114.716" y1="179.321" x2="114.716" y2="190.508" stroke="#D4DDE6"/>
<line x1="115.959" y1="178.492" x2="115.959" y2="189.679" stroke="#D4DDE6"/>
<line x1="117.202" y1="177.664" x2="117.202" y2="188.85" stroke="#D4DDE6"/>
<line x1="118.445" y1="177.25" x2="118.445" y2="188.436" stroke="#D4DDE6"/>
<circle cx="678" cy="190" r="21.5" stroke="white" stroke-opacity="0.32"/>
<g filter="url(#filter1_d)">
<circle cx="678" cy="190" r="13.4043" fill="white"/>
</g>
<line x1="670.458" y1="186.466" x2="670.458" y2="196.511" stroke="#FC4D5A"/>
<line x1="671.574" y1="185.722" x2="671.574" y2="195.767" stroke="#FC4D5A"/>
<line x1="672.69" y1="184.978" x2="672.69" y2="195.022" stroke="#FC4D5A"/>
<line x1="673.806" y1="184.233" x2="673.806" y2="194.278" stroke="#FC4D5A"/>
<line x1="674.922" y1="183.861" x2="674.922" y2="193.906" stroke="#FC4D5A"/>
<line x1="676.038" y1="186.466" x2="676.038" y2="196.511" stroke="#5E9EFF"/>
<line x1="677.154" y1="185.722" x2="677.154" y2="195.767" stroke="#5E9EFF"/>
<line x1="678.271" y1="184.978" x2="678.271" y2="195.022" stroke="#5E9EFF"/>
<line x1="679.386" y1="184.233" x2="679.386" y2="194.278" stroke="#5E9EFF"/>
<line x1="680.502" y1="183.861" x2="680.502" y2="193.906" stroke="#5E9EFF"/>
<line x1="681.619" y1="186.094" x2="681.619" y2="196.139" stroke="#D4DDE6"/>
<line x1="682.735" y1="185.35" x2="682.735" y2="195.395" stroke="#D4DDE6"/>
<line x1="683.851" y1="184.605" x2="683.851" y2="194.65" stroke="#D4DDE6"/>
<line x1="684.967" y1="183.861" x2="684.967" y2="193.906" stroke="#D4DDE6"/>
<line x1="686.083" y1="183.489" x2="686.083" y2="193.534" stroke="#D4DDE6"/>
<circle cx="154.5" cy="226.5" r="15" stroke="white" stroke-opacity="0.32"/>
<g filter="url(#filter2_d)">
<circle cx="154.5" cy="226.5" r="9.44391" fill="white"/>
</g>
<line x1="149.334" y1="224.01" x2="149.334" y2="231.087" stroke="#FC4D5A"/>
<line x1="150.12" y1="223.486" x2="150.12" y2="230.563" stroke="#FC4D5A"/>
<line x1="150.906" y1="222.961" x2="150.906" y2="230.039" stroke="#FC4D5A"/>
<line x1="151.693" y1="222.437" x2="151.693" y2="229.514" stroke="#FC4D5A"/>
<line x1="152.479" y1="222.175" x2="152.479" y2="229.252" stroke="#FC4D5A"/>
<line x1="153.265" y1="224.01" x2="153.265" y2="231.087" stroke="#5E9EFF"/>
<line x1="154.052" y1="223.486" x2="154.052" y2="230.563" stroke="#5E9EFF"/>
<line x1="154.838" y1="222.961" x2="154.838" y2="230.039" stroke="#5E9EFF"/>
<line x1="155.625" y1="222.437" x2="155.625" y2="229.514" stroke="#5E9EFF"/>
<line x1="156.411" y1="222.175" x2="156.411" y2="229.252" stroke="#5E9EFF"/>
<line x1="157.197" y1="223.748" x2="157.197" y2="230.825" stroke="#D4DDE6"/>
<line x1="157.984" y1="223.224" x2="157.984" y2="230.301" stroke="#D4DDE6"/>
<line x1="158.77" y1="222.699" x2="158.77" y2="229.776" stroke="#D4DDE6"/>
<line x1="159.556" y1="222.175" x2="159.556" y2="229.252" stroke="#D4DDE6"/>
<line x1="160.343" y1="221.913" x2="160.343" y2="228.99" stroke="#D4DDE6"/>
<circle cx="352" cy="348" r="24.5" stroke="white" stroke-opacity="0.32"/>
<g filter="url(#filter3_d)">
<circle cx="352" cy="348" r="15.2321" fill="white"/>
</g>
<line x1="343.361" y1="343.984" x2="343.361" y2="355.398" stroke="#FC4D5A"/>
<line x1="344.629" y1="343.138" x2="344.629" y2="354.553" stroke="#FC4D5A"/>
<line x1="345.897" y1="342.293" x2="345.897" y2="353.707" stroke="#FC4D5A"/>
<line x1="347.166" y1="341.447" x2="347.166" y2="352.862" stroke="#FC4D5A"/>
<line x1="348.434" y1="341.024" x2="348.434" y2="352.439" stroke="#FC4D5A"/>
<line x1="349.702" y1="343.984" x2="349.702" y2="355.398" stroke="#5E9EFF"/>
<line x1="350.971" y1="343.138" x2="350.971" y2="354.553" stroke="#5E9EFF"/>
<line x1="352.239" y1="342.293" x2="352.239" y2="353.707" stroke="#5E9EFF"/>
<line x1="353.507" y1="341.447" x2="353.507" y2="352.862" stroke="#5E9EFF"/>
<line x1="354.776" y1="341.024" x2="354.776" y2="352.439" stroke="#5E9EFF"/>
<line x1="356.044" y1="343.561" x2="356.044" y2="354.976" stroke="#D4DDE6"/>
<line x1="357.312" y1="342.715" x2="357.312" y2="354.13" stroke="#D4DDE6"/>
<line x1="358.581" y1="341.87" x2="358.581" y2="353.285" stroke="#D4DDE6"/>
<line x1="359.849" y1="341.024" x2="359.849" y2="352.439" stroke="#D4DDE6"/>
<line x1="361.117" y1="340.602" x2="361.117" y2="352.016" stroke="#D4DDE6"/>
<circle cx="570.5" cy="246.5" r="13" stroke="white" stroke-opacity="0.32"/>
<g filter="url(#filter4_d)">
<circle cx="570.5" cy="246.5" r="8.22534" fill="white"/>
</g>
<line x1="566.065" y1="244.331" x2="566.065" y2="250.495" stroke="#FC4D5A"/>
<line x1="566.75" y1="243.875" x2="566.75" y2="250.039" stroke="#FC4D5A"/>
<line x1="567.435" y1="243.418" x2="567.435" y2="249.582" stroke="#FC4D5A"/>
<line x1="568.12" y1="242.961" x2="568.12" y2="249.125" stroke="#FC4D5A"/>
<line x1="568.805" y1="242.733" x2="568.805" y2="248.897" stroke="#FC4D5A"/>
<line x1="569.489" y1="244.331" x2="569.489" y2="250.495" stroke="#5E9EFF"/>
<line x1="570.174" y1="243.875" x2="570.174" y2="250.039" stroke="#5E9EFF"/>
<line x1="570.859" y1="243.418" x2="570.859" y2="249.582" stroke="#5E9EFF"/>
<line x1="571.544" y1="242.961" x2="571.544" y2="249.125" stroke="#5E9EFF"/>
<line x1="572.229" y1="242.733" x2="572.229" y2="248.897" stroke="#5E9EFF"/>
<line x1="572.914" y1="244.103" x2="572.914" y2="250.267" stroke="#D4DDE6"/>
<line x1="573.599" y1="243.646" x2="573.599" y2="249.81" stroke="#D4DDE6"/>
<line x1="574.283" y1="243.19" x2="574.283" y2="249.354" stroke="#D4DDE6"/>
<line x1="574.968" y1="242.733" x2="574.968" y2="248.897" stroke="#D4DDE6"/>
<line x1="575.653" y1="242.505" x2="575.653" y2="248.669" stroke="#D4DDE6"/>
<circle cx="520" cy="349" r="11.5" stroke="white" stroke-opacity="0.32"/>
<g filter="url(#filter5_d)">
<circle cx="520" cy="349" r="7.31141" fill="white"/>
</g>
<line x1="516.113" y1="347.072" x2="516.113" y2="352.551" stroke="#FC4D5A"/>
<line x1="516.722" y1="346.666" x2="516.722" y2="352.145" stroke="#FC4D5A"/>
<line x1="517.331" y1="346.26" x2="517.331" y2="351.74" stroke="#FC4D5A"/>
<line x1="517.94" y1="345.855" x2="517.94" y2="351.334" stroke="#FC4D5A"/>
<line x1="518.548" y1="345.652" x2="518.548" y2="351.131" stroke="#FC4D5A"/>
<line x1="519.157" y1="347.072" x2="519.157" y2="352.551" stroke="#5E9EFF"/>
<line x1="519.766" y1="346.666" x2="519.766" y2="352.145" stroke="#5E9EFF"/>
<line x1="520.375" y1="346.26" x2="520.375" y2="351.74" stroke="#5E9EFF"/>
<line x1="520.984" y1="345.855" x2="520.984" y2="351.334" stroke="#5E9EFF"/>
<line x1="521.592" y1="345.652" x2="521.592" y2="351.131" stroke="#5E9EFF"/>
<line x1="522.201" y1="346.869" x2="522.201" y2="352.348" stroke="#D4DDE6"/>
<line x1="522.81" y1="346.463" x2="522.81" y2="351.942" stroke="#D4DDE6"/>
<line x1="523.419" y1="346.058" x2="523.419" y2="351.537" stroke="#D4DDE6"/>
<line x1="524.028" y1="345.652" x2="524.028" y2="351.131" stroke="#D4DDE6"/>
<line x1="524.636" y1="345.449" x2="524.636" y2="350.928" stroke="#D4DDE6"/>
<circle cx="471" cy="248" r="11.5" stroke="white" stroke-opacity="0.32"/>
<g filter="url(#filter6_d)">
<circle cx="471" cy="248" r="7.31141" fill="white"/>
</g>
<line x1="467.113" y1="246.072" x2="467.113" y2="251.551" stroke="#FC4D5A"/>
<line x1="467.722" y1="245.666" x2="467.722" y2="251.145" stroke="#FC4D5A"/>
<line x1="468.331" y1="245.26" x2="468.331" y2="250.74" stroke="#FC4D5A"/>
<line x1="468.94" y1="244.855" x2="468.94" y2="250.334" stroke="#FC4D5A"/>
<line x1="469.548" y1="244.652" x2="469.548" y2="250.131" stroke="#FC4D5A"/>
<line x1="470.157" y1="246.072" x2="470.157" y2="251.551" stroke="#5E9EFF"/>
<line x1="470.766" y1="245.666" x2="470.766" y2="251.145" stroke="#5E9EFF"/>
<line x1="471.375" y1="245.26" x2="471.375" y2="250.74" stroke="#5E9EFF"/>
<line x1="471.984" y1="244.855" x2="471.984" y2="250.334" stroke="#5E9EFF"/>
<line x1="472.592" y1="244.652" x2="472.592" y2="250.131" stroke="#5E9EFF"/>
<line x1="473.201" y1="245.869" x2="473.201" y2="251.348" stroke="#D4DDE6"/>
<line x1="473.81" y1="245.463" x2="473.81" y2="250.942" stroke="#D4DDE6"/>
<line x1="474.419" y1="245.058" x2="474.419" y2="250.537" stroke="#D4DDE6"/>
<line x1="475.028" y1="244.652" x2="475.028" y2="250.131" stroke="#D4DDE6"/>
<line x1="475.636" y1="244.449" x2="475.636" y2="249.928" stroke="#D4DDE6"/>
<circle cx="293" cy="294" r="14.5" stroke="white" stroke-opacity="0.32"/>
<g filter="url(#filter7_d)">
<circle cx="293" cy="294" r="9.13926" fill="white"/>
</g>
<line x1="288.016" y1="291.59" x2="288.016" y2="298.439" stroke="#FC4D5A"/>
<line x1="288.777" y1="291.083" x2="288.777" y2="297.932" stroke="#FC4D5A"/>
<line x1="289.538" y1="290.576" x2="289.538" y2="297.424" stroke="#FC4D5A"/>
<line x1="290.299" y1="290.068" x2="290.299" y2="296.917" stroke="#FC4D5A"/>
<line x1="291.06" y1="289.815" x2="291.06" y2="296.663" stroke="#FC4D5A"/>
<line x1="291.821" y1="291.59" x2="291.821" y2="298.439" stroke="#5E9EFF"/>
<line x1="292.582" y1="291.083" x2="292.582" y2="297.932" stroke="#5E9EFF"/>
<line x1="293.343" y1="290.576" x2="293.343" y2="297.424" stroke="#5E9EFF"/>
<line x1="294.104" y1="290.068" x2="294.104" y2="296.917" stroke="#5E9EFF"/>
<line x1="294.865" y1="289.815" x2="294.865" y2="296.663" stroke="#5E9EFF"/>
<line x1="295.626" y1="291.337" x2="295.626" y2="298.185" stroke="#D4DDE6"/>
<line x1="296.387" y1="290.829" x2="296.387" y2="297.678" stroke="#D4DDE6"/>
<line x1="297.148" y1="290.322" x2="297.148" y2="297.171" stroke="#D4DDE6"/>
<line x1="297.909" y1="289.815" x2="297.909" y2="296.663" stroke="#D4DDE6"/>
<line x1="298.67" y1="289.561" x2="298.67" y2="296.41" stroke="#D4DDE6"/>
<circle cx="115" cy="256" r="11.5" stroke="white" stroke-opacity="0.32"/>
<g filter="url(#filter8_d)">
<circle cx="115" cy="256" r="7.31141" fill="white"/>
</g>
<line x1="111.113" y1="254.072" x2="111.113" y2="259.551" stroke="#FC4D5A"/>
<line x1="111.722" y1="253.666" x2="111.722" y2="259.145" stroke="#FC4D5A"/>
<line x1="112.331" y1="253.26" x2="112.331" y2="258.74" stroke="#FC4D5A"/>
<line x1="112.94" y1="252.855" x2="112.94" y2="258.334" stroke="#FC4D5A"/>
<line x1="113.548" y1="252.652" x2="113.548" y2="258.131" stroke="#FC4D5A"/>
<line x1="114.157" y1="254.072" x2="114.157" y2="259.551" stroke="#5E9EFF"/>
<line x1="114.766" y1="253.666" x2="114.766" y2="259.145" stroke="#5E9EFF"/>
<line x1="115.375" y1="253.26" x2="115.375" y2="258.74" stroke="#5E9EFF"/>
<line x1="115.984" y1="252.855" x2="115.984" y2="258.334" stroke="#5E9EFF"/>
<line x1="116.592" y1="252.652" x2="116.592" y2="258.131" stroke="#5E9EFF"/>
<line x1="117.201" y1="253.869" x2="117.201" y2="259.348" stroke="#D4DDE6"/>
<line x1="117.81" y1="253.463" x2="117.81" y2="258.942" stroke="#D4DDE6"/>
<line x1="118.419" y1="253.058" x2="118.419" y2="258.537" stroke="#D4DDE6"/>
<line x1="119.028" y1="252.652" x2="119.028" y2="258.131" stroke="#D4DDE6"/>
<line x1="119.636" y1="252.449" x2="119.636" y2="257.928" stroke="#D4DDE6"/>
<circle cx="49" cy="273" r="11.5" stroke="white" stroke-opacity="0.32"/>
<g filter="url(#filter9_d)">
<circle cx="48.9999" cy="273" r="7.31141" fill="white"/>
</g>
<line x1="45.1133" y1="271.072" x2="45.1133" y2="276.551" stroke="#FC4D5A"/>
<line x1="45.7222" y1="270.666" x2="45.7222" y2="276.145" stroke="#FC4D5A"/>
<line x1="46.3308" y1="270.26" x2="46.3308" y2="275.74" stroke="#FC4D5A"/>
<line x1="46.9397" y1="269.855" x2="46.9397" y2="275.334" stroke="#FC4D5A"/>
<line x1="47.5483" y1="269.652" x2="47.5483" y2="275.131" stroke="#FC4D5A"/>
<line x1="48.1572" y1="271.072" x2="48.1572" y2="276.551" stroke="#5E9EFF"/>
<line x1="48.7661" y1="270.666" x2="48.7661" y2="276.145" stroke="#5E9EFF"/>
<line x1="49.3748" y1="270.26" x2="49.3748" y2="275.74" stroke="#5E9EFF"/>
<line x1="49.9836" y1="269.855" x2="49.9836" y2="275.334" stroke="#5E9EFF"/>
<line x1="50.5923" y1="269.652" x2="50.5923" y2="275.131" stroke="#5E9EFF"/>
<line x1="51.2012" y1="270.869" x2="51.2012" y2="276.348" stroke="#D4DDE6"/>
<line x1="51.8101" y1="270.463" x2="51.8101" y2="275.942" stroke="#D4DDE6"/>
<line x1="52.4187" y1="270.058" x2="52.4187" y2="275.537" stroke="#D4DDE6"/>
<line x1="53.0276" y1="269.652" x2="53.0276" y2="275.131" stroke="#D4DDE6"/>
<line x1="53.6362" y1="269.449" x2="53.6362" y2="274.928" stroke="#D4DDE6"/>
<circle cx="173.5" cy="282.5" r="15" stroke="white" stroke-opacity="0.32"/>
<g filter="url(#filter10_d)">
<circle cx="173.5" cy="282.5" r="9.44391" fill="white"/>
</g>
<line x1="168.334" y1="280.01" x2="168.334" y2="287.087" stroke="#FC4D5A"/>
<line x1="169.12" y1="279.486" x2="169.12" y2="286.563" stroke="#FC4D5A"/>
<line x1="169.906" y1="278.961" x2="169.906" y2="286.039" stroke="#FC4D5A"/>
<line x1="170.693" y1="278.437" x2="170.693" y2="285.514" stroke="#FC4D5A"/>
<line x1="171.479" y1="278.175" x2="171.479" y2="285.252" stroke="#FC4D5A"/>
<line x1="172.265" y1="280.01" x2="172.265" y2="287.087" stroke="#5E9EFF"/>
<line x1="173.052" y1="279.486" x2="173.052" y2="286.563" stroke="#5E9EFF"/>
<line x1="173.838" y1="278.961" x2="173.838" y2="286.039" stroke="#5E9EFF"/>
<line x1="174.625" y1="278.437" x2="174.625" y2="285.514" stroke="#5E9EFF"/>
<line x1="175.411" y1="278.175" x2="175.411" y2="285.252" stroke="#5E9EFF"/>
<line x1="176.197" y1="279.748" x2="176.197" y2="286.825" stroke="#D4DDE6"/>
<line x1="176.984" y1="279.224" x2="176.984" y2="286.301" stroke="#D4DDE6"/>
<line x1="177.77" y1="278.699" x2="177.77" y2="285.776" stroke="#D4DDE6"/>
<line x1="178.556" y1="278.175" x2="178.556" y2="285.252" stroke="#D4DDE6"/>
<line x1="179.343" y1="277.913" x2="179.343" y2="284.99" stroke="#D4DDE6"/>
<circle cx="198" cy="241" r="11.5" stroke="white" stroke-opacity="0.32"/>
<g filter="url(#filter11_d)">
<circle cx="198" cy="241" r="7.31141" fill="white"/>
</g>
<line x1="194.113" y1="239.072" x2="194.113" y2="244.551" stroke="#FC4D5A"/>
<line x1="194.722" y1="238.666" x2="194.722" y2="244.145" stroke="#FC4D5A"/>
<line x1="195.331" y1="238.26" x2="195.331" y2="243.74" stroke="#FC4D5A"/>
<line x1="195.94" y1="237.855" x2="195.94" y2="243.334" stroke="#FC4D5A"/>
<line x1="196.548" y1="237.652" x2="196.548" y2="243.131" stroke="#FC4D5A"/>
<line x1="197.157" y1="239.072" x2="197.157" y2="244.551" stroke="#5E9EFF"/>
<line x1="197.766" y1="238.666" x2="197.766" y2="244.145" stroke="#5E9EFF"/>
<line x1="198.375" y1="238.26" x2="198.375" y2="243.74" stroke="#5E9EFF"/>
<line x1="198.984" y1="237.855" x2="198.984" y2="243.334" stroke="#5E9EFF"/>
<line x1="199.592" y1="237.652" x2="199.592" y2="243.131" stroke="#5E9EFF"/>
<line x1="200.201" y1="238.869" x2="200.201" y2="244.348" stroke="#D4DDE6"/>
<line x1="200.81" y1="238.463" x2="200.81" y2="243.942" stroke="#D4DDE6"/>
<line x1="201.419" y1="238.058" x2="201.419" y2="243.537" stroke="#D4DDE6"/>
<line x1="202.028" y1="237.652" x2="202.028" y2="243.131" stroke="#D4DDE6"/>
<line x1="202.636" y1="237.449" x2="202.636" y2="242.928" stroke="#D4DDE6"/>
<circle cx="104" cy="132" r="15.5" stroke="white" stroke-opacity="0.32"/>
<g filter="url(#filter12_d)">
<circle cx="104" cy="132" r="9.74855" fill="white"/>
</g>
<line x1="98.6509" y1="129.43" x2="98.6509" y2="136.735" stroke="#FC4D5A"/>
<line x1="99.4626" y1="128.888" x2="99.4626" y2="136.194" stroke="#FC4D5A"/>
<line x1="100.274" y1="128.347" x2="100.274" y2="135.653" stroke="#FC4D5A"/>
<line x1="101.086" y1="127.806" x2="101.086" y2="135.112" stroke="#FC4D5A"/>
<line x1="101.898" y1="127.536" x2="101.898" y2="134.841" stroke="#FC4D5A"/>
<line x1="102.709" y1="129.43" x2="102.709" y2="136.735" stroke="#5E9EFF"/>
<line x1="103.521" y1="128.888" x2="103.521" y2="136.194" stroke="#5E9EFF"/>
<line x1="104.333" y1="128.347" x2="104.333" y2="135.653" stroke="#5E9EFF"/>
<line x1="105.145" y1="127.806" x2="105.145" y2="135.112" stroke="#5E9EFF"/>
<line x1="105.956" y1="127.536" x2="105.956" y2="134.841" stroke="#5E9EFF"/>
<line x1="106.768" y1="129.159" x2="106.768" y2="136.464" stroke="#D4DDE6"/>
<line x1="107.58" y1="128.618" x2="107.58" y2="135.923" stroke="#D4DDE6"/>
<line x1="108.391" y1="128.077" x2="108.391" y2="135.382" stroke="#D4DDE6"/>
<line x1="109.203" y1="127.536" x2="109.203" y2="134.841" stroke="#D4DDE6"/>
<line x1="110.015" y1="127.265" x2="110.015" y2="134.57" stroke="#D4DDE6"/>
<circle cx="653" cy="335" r="11.5" stroke="white" stroke-opacity="0.32"/>
<g filter="url(#filter13_d)">
<circle cx="653" cy="335" r="7.31141" fill="white"/>
</g>
<line x1="649.113" y1="333.072" x2="649.113" y2="338.551" stroke="#FC4D5A"/>
<line x1="649.722" y1="332.666" x2="649.722" y2="338.145" stroke="#FC4D5A"/>
<line x1="650.331" y1="332.26" x2="650.331" y2="337.74" stroke="#FC4D5A"/>
<line x1="650.939" y1="331.855" x2="650.939" y2="337.334" stroke="#FC4D5A"/>
<line x1="651.548" y1="331.652" x2="651.548" y2="337.131" stroke="#FC4D5A"/>
<line x1="652.157" y1="333.072" x2="652.157" y2="338.551" stroke="#5E9EFF"/>
<line x1="652.766" y1="332.666" x2="652.766" y2="338.145" stroke="#5E9EFF"/>
<line x1="653.375" y1="332.26" x2="653.375" y2="337.74" stroke="#5E9EFF"/>
<line x1="653.983" y1="331.855" x2="653.983" y2="337.334" stroke="#5E9EFF"/>
<line x1="654.592" y1="331.652" x2="654.592" y2="337.131" stroke="#5E9EFF"/>
<line x1="655.201" y1="332.869" x2="655.201" y2="338.348" stroke="#D4DDE6"/>
<line x1="655.81" y1="332.463" x2="655.81" y2="337.942" stroke="#D4DDE6"/>
<line x1="656.419" y1="332.058" x2="656.419" y2="337.537" stroke="#D4DDE6"/>
<line x1="657.027" y1="331.652" x2="657.027" y2="337.131" stroke="#D4DDE6"/>
<line x1="657.636" y1="331.449" x2="657.636" y2="336.928" stroke="#D4DDE6"/>
<circle cx="387" cy="274" r="11.5" stroke="white" stroke-opacity="0.32"/>
<g filter="url(#filter14_d)">
<circle cx="387" cy="274" r="7.31141" fill="white"/>
</g>
<line x1="383.113" y1="272.072" x2="383.113" y2="277.551" stroke="#FC4D5A"/>
<line x1="383.722" y1="271.666" x2="383.722" y2="277.145" stroke="#FC4D5A"/>
<line x1="384.331" y1="271.26" x2="384.331" y2="276.74" stroke="#FC4D5A"/>
<line x1="384.94" y1="270.855" x2="384.94" y2="276.334" stroke="#FC4D5A"/>
<line x1="385.548" y1="270.652" x2="385.548" y2="276.131" stroke="#FC4D5A"/>
<line x1="386.157" y1="272.072" x2="386.157" y2="277.551" stroke="#5E9EFF"/>
<line x1="386.766" y1="271.666" x2="386.766" y2="277.145" stroke="#5E9EFF"/>
<line x1="387.375" y1="271.26" x2="387.375" y2="276.74" stroke="#5E9EFF"/>
<line x1="387.984" y1="270.855" x2="387.984" y2="276.334" stroke="#5E9EFF"/>
<line x1="388.592" y1="270.652" x2="388.592" y2="276.131" stroke="#5E9EFF"/>
<line x1="389.201" y1="271.869" x2="389.201" y2="277.348" stroke="#D4DDE6"/>
<line x1="389.81" y1="271.463" x2="389.81" y2="276.942" stroke="#D4DDE6"/>
<line x1="390.419" y1="271.058" x2="390.419" y2="276.537" stroke="#D4DDE6"/>
<line x1="391.028" y1="270.652" x2="391.028" y2="276.131" stroke="#D4DDE6"/>
<line x1="391.636" y1="270.449" x2="391.636" y2="275.928" stroke="#D4DDE6"/>
<circle cx="236" cy="277" r="11.5" stroke="white" stroke-opacity="0.32"/>
<g filter="url(#filter15_d)">
<circle cx="236" cy="277" r="7.31141" fill="white"/>
</g>
<line x1="232.113" y1="275.072" x2="232.113" y2="280.551" stroke="#FC4D5A"/>
<line x1="232.722" y1="274.666" x2="232.722" y2="280.145" stroke="#FC4D5A"/>
<line x1="233.331" y1="274.26" x2="233.331" y2="279.74" stroke="#FC4D5A"/>
<line x1="233.94" y1="273.855" x2="233.94" y2="279.334" stroke="#FC4D5A"/>
<line x1="234.548" y1="273.652" x2="234.548" y2="279.131" stroke="#FC4D5A"/>
<line x1="235.157" y1="275.072" x2="235.157" y2="280.551" stroke="#5E9EFF"/>
<line x1="235.766" y1="274.666" x2="235.766" y2="280.145" stroke="#5E9EFF"/>
<line x1="236.375" y1="274.26" x2="236.375" y2="279.74" stroke="#5E9EFF"/>
<line x1="236.984" y1="273.855" x2="236.984" y2="279.334" stroke="#5E9EFF"/>
<line x1="237.592" y1="273.652" x2="237.592" y2="279.131" stroke="#5E9EFF"/>
<line x1="238.201" y1="274.869" x2="238.201" y2="280.348" stroke="#D4DDE6"/>
<line x1="238.81" y1="274.463" x2="238.81" y2="279.942" stroke="#D4DDE6"/>
<line x1="239.419" y1="274.058" x2="239.419" y2="279.537" stroke="#D4DDE6"/>
<line x1="240.028" y1="273.652" x2="240.028" y2="279.131" stroke="#D4DDE6"/>
<line x1="240.636" y1="273.449" x2="240.636" y2="278.928" stroke="#D4DDE6"/>
<circle cx="217" cy="210" r="11.5" stroke="white" stroke-opacity="0.32"/>
<g filter="url(#filter16_d)">
<circle cx="217" cy="210" r="7.31141" fill="white"/>
</g>
<line x1="213.113" y1="208.072" x2="213.113" y2="213.551" stroke="#FC4D5A"/>
<line x1="213.722" y1="207.666" x2="213.722" y2="213.145" stroke="#FC4D5A"/>
<line x1="214.331" y1="207.26" x2="214.331" y2="212.74" stroke="#FC4D5A"/>
<line x1="214.94" y1="206.855" x2="214.94" y2="212.334" stroke="#FC4D5A"/>
<line x1="215.548" y1="206.652" x2="215.548" y2="212.131" stroke="#FC4D5A"/>
<line x1="216.157" y1="208.072" x2="216.157" y2="213.551" stroke="#5E9EFF"/>
<line x1="216.766" y1="207.666" x2="216.766" y2="213.145" stroke="#5E9EFF"/>
<line x1="217.375" y1="207.26" x2="217.375" y2="212.74" stroke="#5E9EFF"/>
<line x1="217.984" y1="206.855" x2="217.984" y2="212.334" stroke="#5E9EFF"/>
<line x1="218.592" y1="206.652" x2="218.592" y2="212.131" stroke="#5E9EFF"/>
<line x1="219.201" y1="207.869" x2="219.201" y2="213.348" stroke="#D4DDE6"/>
<line x1="219.81" y1="207.463" x2="219.81" y2="212.942" stroke="#D4DDE6"/>
<line x1="220.419" y1="207.058" x2="220.419" y2="212.537" stroke="#D4DDE6"/>
<line x1="221.028" y1="206.652" x2="221.028" y2="212.131" stroke="#D4DDE6"/>
<line x1="221.636" y1="206.449" x2="221.636" y2="211.928" stroke="#D4DDE6"/>
<circle cx="427" cy="380" r="11.5" stroke="white" stroke-opacity="0.32"/>
<g filter="url(#filter17_d)">
<circle cx="427" cy="380" r="7.31141" fill="white"/>
</g>
<line x1="423.113" y1="378.072" x2="423.113" y2="383.551" stroke="#FC4D5A"/>
<line x1="423.722" y1="377.666" x2="423.722" y2="383.145" stroke="#FC4D5A"/>
<line x1="424.331" y1="377.26" x2="424.331" y2="382.74" stroke="#FC4D5A"/>
<line x1="424.94" y1="376.855" x2="424.94" y2="382.334" stroke="#FC4D5A"/>
<line x1="425.548" y1="376.652" x2="425.548" y2="382.131" stroke="#FC4D5A"/>
<line x1="426.157" y1="378.072" x2="426.157" y2="383.551" stroke="#5E9EFF"/>
<line x1="426.766" y1="377.666" x2="426.766" y2="383.145" stroke="#5E9EFF"/>
<line x1="427.375" y1="377.26" x2="427.375" y2="382.74" stroke="#5E9EFF"/>
<line x1="427.984" y1="376.855" x2="427.984" y2="382.334" stroke="#5E9EFF"/>
<line x1="428.592" y1="376.652" x2="428.592" y2="382.131" stroke="#5E9EFF"/>
<line x1="429.201" y1="377.869" x2="429.201" y2="383.348" stroke="#D4DDE6"/>
<line x1="429.81" y1="377.463" x2="429.81" y2="382.942" stroke="#D4DDE6"/>
<line x1="430.419" y1="377.058" x2="430.419" y2="382.537" stroke="#D4DDE6"/>
<line x1="431.028" y1="376.652" x2="431.028" y2="382.131" stroke="#D4DDE6"/>
<line x1="431.636" y1="376.449" x2="431.636" y2="381.928" stroke="#D4DDE6"/>
<circle cx="646" cy="262" r="11.5" stroke="white" stroke-opacity="0.32"/>
<g filter="url(#filter18_d)">
<circle cx="646" cy="262" r="7.31141" fill="white"/>
</g>
<line x1="642.113" y1="260.072" x2="642.113" y2="265.551" stroke="#FC4D5A"/>
<line x1="642.722" y1="259.666" x2="642.722" y2="265.145" stroke="#FC4D5A"/>
<line x1="643.331" y1="259.26" x2="643.331" y2="264.74" stroke="#FC4D5A"/>
<line x1="643.939" y1="258.855" x2="643.939" y2="264.334" stroke="#FC4D5A"/>
<line x1="644.548" y1="258.652" x2="644.548" y2="264.131" stroke="#FC4D5A"/>
<line x1="645.157" y1="260.072" x2="645.157" y2="265.551" stroke="#5E9EFF"/>
<line x1="645.766" y1="259.666" x2="645.766" y2="265.145" stroke="#5E9EFF"/>
<line x1="646.375" y1="259.26" x2="646.375" y2="264.74" stroke="#5E9EFF"/>
<line x1="646.983" y1="258.855" x2="646.983" y2="264.334" stroke="#5E9EFF"/>
<line x1="647.592" y1="258.652" x2="647.592" y2="264.131" stroke="#5E9EFF"/>
<line x1="648.201" y1="259.869" x2="648.201" y2="265.348" stroke="#D4DDE6"/>
<line x1="648.81" y1="259.463" x2="648.81" y2="264.942" stroke="#D4DDE6"/>
<line x1="649.419" y1="259.058" x2="649.419" y2="264.537" stroke="#D4DDE6"/>
<line x1="650.027" y1="258.652" x2="650.027" y2="264.131" stroke="#D4DDE6"/>
<line x1="650.636" y1="258.449" x2="650.636" y2="263.928" stroke="#D4DDE6"/>
<circle cx="485" cy="321" r="11.5" stroke="white" stroke-opacity="0.32"/>
<g filter="url(#filter19_d)">
<circle cx="485" cy="321" r="7.31141" fill="white"/>
</g>
<line x1="481.113" y1="319.072" x2="481.113" y2="324.551" stroke="#FC4D5A"/>
<line x1="481.722" y1="318.666" x2="481.722" y2="324.145" stroke="#FC4D5A"/>
<line x1="482.331" y1="318.26" x2="482.331" y2="323.74" stroke="#FC4D5A"/>
<line x1="482.94" y1="317.855" x2="482.94" y2="323.334" stroke="#FC4D5A"/>
<line x1="483.548" y1="317.652" x2="483.548" y2="323.131" stroke="#FC4D5A"/>
<line x1="484.157" y1="319.072" x2="484.157" y2="324.551" stroke="#5E9EFF"/>
<line x1="484.766" y1="318.666" x2="484.766" y2="324.145" stroke="#5E9EFF"/>
<line x1="485.375" y1="318.26" x2="485.375" y2="323.74" stroke="#5E9EFF"/>
<line x1="485.984" y1="317.855" x2="485.984" y2="323.334" stroke="#5E9EFF"/>
<line x1="486.592" y1="317.652" x2="486.592" y2="323.131" stroke="#5E9EFF"/>
<line x1="487.201" y1="318.869" x2="487.201" y2="324.348" stroke="#D4DDE6"/>
<line x1="487.81" y1="318.463" x2="487.81" y2="323.942" stroke="#D4DDE6"/>
<line x1="488.419" y1="318.058" x2="488.419" y2="323.537" stroke="#D4DDE6"/>
<line x1="489.028" y1="317.652" x2="489.028" y2="323.131" stroke="#D4DDE6"/>
<line x1="489.636" y1="317.449" x2="489.636" y2="322.928" stroke="#D4DDE6"/>
<circle cx="447" cy="263" r="11.5" stroke="white" stroke-opacity="0.32"/>
<g filter="url(#filter20_d)">
<circle cx="447" cy="263" r="7.31141" fill="white"/>
</g>
<line x1="443.113" y1="261.072" x2="443.113" y2="266.551" stroke="#FC4D5A"/>
<line x1="443.722" y1="260.666" x2="443.722" y2="266.145" stroke="#FC4D5A"/>
<line x1="444.331" y1="260.26" x2="444.331" y2="265.74" stroke="#FC4D5A"/>
<line x1="444.94" y1="259.855" x2="444.94" y2="265.334" stroke="#FC4D5A"/>
<line x1="445.548" y1="259.652" x2="445.548" y2="265.131" stroke="#FC4D5A"/>
<line x1="446.157" y1="261.072" x2="446.157" y2="266.551" stroke="#5E9EFF"/>
<line x1="446.766" y1="260.666" x2="446.766" y2="266.145" stroke="#5E9EFF"/>
<line x1="447.375" y1="260.26" x2="447.375" y2="265.74" stroke="#5E9EFF"/>
<line x1="447.984" y1="259.855" x2="447.984" y2="265.334" stroke="#5E9EFF"/>
<line x1="448.592" y1="259.652" x2="448.592" y2="265.131" stroke="#5E9EFF"/>
<line x1="449.201" y1="260.869" x2="449.201" y2="266.348" stroke="#D4DDE6"/>
<line x1="449.81" y1="260.463" x2="449.81" y2="265.942" stroke="#D4DDE6"/>
<line x1="450.419" y1="260.058" x2="450.419" y2="265.537" stroke="#D4DDE6"/>
<line x1="451.028" y1="259.652" x2="451.028" y2="265.131" stroke="#D4DDE6"/>
<line x1="451.636" y1="259.449" x2="451.636" y2="264.928" stroke="#D4DDE6"/>
<defs>
<filter id="filter0_d" x="71.5725" y="150.573" width="75.8549" height="75.8549" filterUnits="userSpaceOnUse" color-interpolation-filters="sRGB">
<feFlood flood-opacity="0" result="BackgroundImageFix"/>
<feColorMatrix in="SourceAlpha" type="matrix" values="0 0 0 0 0 0 0 0 0 0 0 0 0 0 0 0 0 0 127 0"/>
<feOffset dy="4"/>
<feGaussianBlur stdDeviation="11.5"/>
<feColorMatrix type="matrix" values="0 0 0 0 0 0 0 0 0 0 0 0 0 0 0 0 0 0 0.25 0"/>
<feBlend mode="normal" in2="BackgroundImageFix" result="effect1_dropShadow"/>
<feBlend mode="normal" in="SourceGraphic" in2="effect1_dropShadow" result="shape"/>
</filter>
<filter id="filter1_d" x="641.596" y="157.596" width="72.8085" height="72.8085" filterUnits="userSpaceOnUse" color-interpolation-filters="sRGB">
<feFlood flood-opacity="0" result="BackgroundImageFix"/>
<feColorMatrix in="SourceAlpha" type="matrix" values="0 0 0 0 0 0 0 0 0 0 0 0 0 0 0 0 0 0 127 0"/>
<feOffset dy="4"/>
<feGaussianBlur stdDeviation="11.5"/>
<feColorMatrix type="matrix" values="0 0 0 0 0 0 0 0 0 0 0 0 0 0 0 0 0 0 0.25 0"/>
<feBlend mode="normal" in2="BackgroundImageFix" result="effect1_dropShadow"/>
<feBlend mode="normal" in="SourceGraphic" in2="effect1_dropShadow" result="shape"/>
</filter>
<filter id="filter2_d" x="122.056" y="198.056" width="64.8878" height="64.8878" filterUnits="userSpaceOnUse" color-interpolation-filters="sRGB">
<feFlood flood-opacity="0" result="BackgroundImageFix"/>
<feColorMatrix in="SourceAlpha" type="matrix" values="0 0 0 0 0 0 0 0 0 0 0 0 0 0 0 0 0 0 127 0"/>
<feOffset dy="4"/>
<feGaussianBlur stdDeviation="11.5"/>
<feColorMatrix type="matrix" values="0 0 0 0 0 0 0 0 0 0 0 0 0 0 0 0 0 0 0.25 0"/>
<feBlend mode="normal" in2="BackgroundImageFix" result="effect1_dropShadow"/>
<feBlend mode="normal" in="SourceGraphic" in2="effect1_dropShadow" result="shape"/>
</filter>
<filter id="filter3_d" x="313.768" y="313.768" width="76.4642" height="76.4642" filterUnits="userSpaceOnUse" color-interpolation-filters="sRGB">
<feFlood flood-opacity="0" result="BackgroundImageFix"/>
<feColorMatrix in="SourceAlpha" type="matrix" values="0 0 0 0 0 0 0 0 0 0 0 0 0 0 0 0 0 0 127 0"/>
<feOffset dy="4"/>
<feGaussianBlur stdDeviation="11.5"/>
<feColorMatrix type="matrix" values="0 0 0 0 0 0 0 0 0 0 0 0 0 0 0 0 0 0 0.25 0"/>
<feBlend mode="normal" in2="BackgroundImageFix" result="effect1_dropShadow"/>
<feBlend mode="normal" in="SourceGraphic" in2="effect1_dropShadow" result="shape"/>
</filter>
<filter id="filter4_d" x="539.275" y="219.275" width="62.4507" height="62.4507" filterUnits="userSpaceOnUse" color-interpolation-filters="sRGB">
<feFlood flood-opacity="0" result="BackgroundImageFix"/>
<feColorMatrix in="SourceAlpha" type="matrix" values="0 0 0 0 0 0 0 0 0 0 0 0 0 0 0 0 0 0 127 0"/>
<feOffset dy="4"/>
<feGaussianBlur stdDeviation="11.5"/>
<feColorMatrix type="matrix" values="0 0 0 0 0 0 0 0 0 0 0 0 0 0 0 0 0 0 0.25 0"/>
<feBlend mode="normal" in2="BackgroundImageFix" result="effect1_dropShadow"/>
<feBlend mode="normal" in="SourceGraphic" in2="effect1_dropShadow" result="shape"/>
</filter>
<filter id="filter5_d" x="489.688" y="322.689" width="60.6228" height="60.6228" filterUnits="userSpaceOnUse" color-interpolation-filters="sRGB">
<feFlood flood-opacity="0" result="BackgroundImageFix"/>
<feColorMatrix in="SourceAlpha" type="matrix" values="0 0 0 0 0 0 0 0 0 0 0 0 0 0 0 0 0 0 127 0"/>
<feOffset dy="4"/>
<feGaussianBlur stdDeviation="11.5"/>
<feColorMatrix type="matrix" values="0 0 0 0 0 0 0 0 0 0 0 0 0 0 0 0 0 0 0.25 0"/>
<feBlend mode="normal" in2="BackgroundImageFix" result="effect1_dropShadow"/>
<feBlend mode="normal" in="SourceGraphic" in2="effect1_dropShadow" result="shape"/>
</filter>
<filter id="filter6_d" x="440.688" y="221.689" width="60.6228" height="60.6228" filterUnits="userSpaceOnUse" color-interpolation-filters="sRGB">
<feFlood flood-opacity="0" result="BackgroundImageFix"/>
<feColorMatrix in="SourceAlpha" type="matrix" values="0 0 0 0 0 0 0 0 0 0 0 0 0 0 0 0 0 0 127 0"/>
<feOffset dy="4"/>
<feGaussianBlur stdDeviation="11.5"/>
<feColorMatrix type="matrix" values="0 0 0 0 0 0 0 0 0 0 0 0 0 0 0 0 0 0 0.25 0"/>
<feBlend mode="normal" in2="BackgroundImageFix" result="effect1_dropShadow"/>
<feBlend mode="normal" in="SourceGraphic" in2="effect1_dropShadow" result="shape"/>
</filter>
<filter id="filter7_d" x="260.861" y="265.861" width="64.2785" height="64.2785" filterUnits="userSpaceOnUse" color-interpolation-filters="sRGB">
<feFlood flood-opacity="0" result="BackgroundImageFix"/>
<feColorMatrix in="SourceAlpha" type="matrix" values="0 0 0 0 0 0 0 0 0 0 0 0 0 0 0 0 0 0 127 0"/>
<feOffset dy="4"/>
<feGaussianBlur stdDeviation="11.5"/>
<feColorMatrix type="matrix" values="0 0 0 0 0 0 0 0 0 0 0 0 0 0 0 0 0 0 0.25 0"/>
<feBlend mode="normal" in2="BackgroundImageFix" result="effect1_dropShadow"/>
<feBlend mode="normal" in="SourceGraphic" in2="effect1_dropShadow" result="shape"/>
</filter>
<filter id="filter8_d" x="84.6885" y="229.689" width="60.6228" height="60.6228" filterUnits="userSpaceOnUse" color-interpolation-filters="sRGB">
<feFlood flood-opacity="0" result="BackgroundImageFix"/>
<feColorMatrix in="SourceAlpha" type="matrix" values="0 0 0 0 0 0 0 0 0 0 0 0 0 0 0 0 0 0 127 0"/>
<feOffset dy="4"/>
<feGaussianBlur stdDeviation="11.5"/>
<feColorMatrix type="matrix" values="0 0 0 0 0 0 0 0 0 0 0 0 0 0 0 0 0 0 0.25 0"/>
<feBlend mode="normal" in2="BackgroundImageFix" result="effect1_dropShadow"/>
<feBlend mode="normal" in="SourceGraphic" in2="effect1_dropShadow" result="shape"/>
</filter>
<filter id="filter9_d" x="18.6885" y="246.689" width="60.6228" height="60.6228" filterUnits="userSpaceOnUse" color-interpolation-filters="sRGB">
<feFlood flood-opacity="0" result="BackgroundImageFix"/>
<feColorMatrix in="SourceAlpha" type="matrix" values="0 0 0 0 0 0 0 0 0 0 0 0 0 0 0 0 0 0 127 0"/>
<feOffset dy="4"/>
<feGaussianBlur stdDeviation="11.5"/>
<feColorMatrix type="matrix" values="0 0 0 0 0 0 0 0 0 0 0 0 0 0 0 0 0 0 0.25 0"/>
<feBlend mode="normal" in2="BackgroundImageFix" result="effect1_dropShadow"/>
<feBlend mode="normal" in="SourceGraphic" in2="effect1_dropShadow" result="shape"/>
</filter>
<filter id="filter10_d" x="141.056" y="254.056" width="64.8878" height="64.8878" filterUnits="userSpaceOnUse" color-interpolation-filters="sRGB">
<feFlood flood-opacity="0" result="BackgroundImageFix"/>
<feColorMatrix in="SourceAlpha" type="matrix" values="0 0 0 0 0 0 0 0 0 0 0 0 0 0 0 0 0 0 127 0"/>
<feOffset dy="4"/>
<feGaussianBlur stdDeviation="11.5"/>
<feColorMatrix type="matrix" values="0 0 0 0 0 0 0 0 0 0 0 0 0 0 0 0 0 0 0.25 0"/>
<feBlend mode="normal" in2="BackgroundImageFix" result="effect1_dropShadow"/>
<feBlend mode="normal" in="SourceGraphic" in2="effect1_dropShadow" result="shape"/>
</filter>
<filter id="filter11_d" x="167.688" y="214.689" width="60.6228" height="60.6228" filterUnits="userSpaceOnUse" color-interpolation-filters="sRGB">
<feFlood flood-opacity="0" result="BackgroundImageFix"/>
<feColorMatrix in="SourceAlpha" type="matrix" values="0 0 0 0 0 0 0 0 0 0 0 0 0 0 0 0 0 0 127 0"/>
<feOffset dy="4"/>
<feGaussianBlur stdDeviation="11.5"/>
<feColorMatrix type="matrix" values="0 0 0 0 0 0 0 0 0 0 0 0 0 0 0 0 0 0 0.25 0"/>
<feBlend mode="normal" in2="BackgroundImageFix" result="effect1_dropShadow"/>
<feBlend mode="normal" in="SourceGraphic" in2="effect1_dropShadow" result="shape"/>
</filter>
<filter id="filter12_d" x="71.2515" y="103.251" width="65.4971" height="65.4971" filterUnits="userSpaceOnUse" color-interpolation-filters="sRGB">
<feFlood flood-opacity="0" result="BackgroundImageFix"/>
<feColorMatrix in="SourceAlpha" type="matrix" values="0 0 0 0 0 0 0 0 0 0 0 0 0 0 0 0 0 0 127 0"/>
<feOffset dy="4"/>
<feGaussianBlur stdDeviation="11.5"/>
<feColorMatrix type="matrix" values="0 0 0 0 0 0 0 0 0 0 0 0 0 0 0 0 0 0 0.25 0"/>
<feBlend mode="normal" in2="BackgroundImageFix" result="effect1_dropShadow"/>
<feBlend mode="normal" in="SourceGraphic" in2="effect1_dropShadow" result="shape"/>
</filter>
<filter id="filter13_d" x="622.688" y="308.689" width="60.6228" height="60.6228" filterUnits="userSpaceOnUse" color-interpolation-filters="sRGB">
<feFlood flood-opacity="0" result="BackgroundImageFix"/>
<feColorMatrix in="SourceAlpha" type="matrix" values="0 0 0 0 0 0 0 0 0 0 0 0 0 0 0 0 0 0 127 0"/>
<feOffset dy="4"/>
<feGaussianBlur stdDeviation="11.5"/>
<feColorMatrix type="matrix" values="0 0 0 0 0 0 0 0 0 0 0 0 0 0 0 0 0 0 0.25 0"/>
<feBlend mode="normal" in2="BackgroundImageFix" result="effect1_dropShadow"/>
<feBlend mode="normal" in="SourceGraphic" in2="effect1_dropShadow" result="shape"/>
</filter>
<filter id="filter14_d" x="356.688" y="247.689" width="60.6228" height="60.6228" filterUnits="userSpaceOnUse" color-interpolation-filters="sRGB">
<feFlood flood-opacity="0" result="BackgroundImageFix"/>
<feColorMatrix in="SourceAlpha" type="matrix" values="0 0 0 0 0 0 0 0 0 0 0 0 0 0 0 0 0 0 127 0"/>
<feOffset dy="4"/>
<feGaussianBlur stdDeviation="11.5"/>
<feColorMatrix type="matrix" values="0 0 0 0 0 0 0 0 0 0 0 0 0 0 0 0 0 0 0.25 0"/>
<feBlend mode="normal" in2="BackgroundImageFix" result="effect1_dropShadow"/>
<feBlend mode="normal" in="SourceGraphic" in2="effect1_dropShadow" result="shape"/>
</filter>
<filter id="filter15_d" x="205.688" y="250.689" width="60.6228" height="60.6228" filterUnits="userSpaceOnUse" color-interpolation-filters="sRGB">
<feFlood flood-opacity="0" result="BackgroundImageFix"/>
<feColorMatrix in="SourceAlpha" type="matrix" values="0 0 0 0 0 0 0 0 0 0 0 0 0 0 0 0 0 0 127 0"/>
<feOffset dy="4"/>
<feGaussianBlur stdDeviation="11.5"/>
<feColorMatrix type="matrix" values="0 0 0 0 0 0 0 0 0 0 0 0 0 0 0 0 0 0 0.25 0"/>
<feBlend mode="normal" in2="BackgroundImageFix" result="effect1_dropShadow"/>
<feBlend mode="normal" in="SourceGraphic" in2="effect1_dropShadow" result="shape"/>
</filter>
<filter id="filter16_d" x="186.688" y="183.689" width="60.6228" height="60.6228" filterUnits="userSpaceOnUse" color-interpolation-filters="sRGB">
<feFlood flood-opacity="0" result="BackgroundImageFix"/>
<feColorMatrix in="SourceAlpha" type="matrix" values="0 0 0 0 0 0 0 0 0 0 0 0 0 0 0 0 0 0 127 0"/>
<feOffset dy="4"/>
<feGaussianBlur stdDeviation="11.5"/>
<feColorMatrix type="matrix" values="0 0 0 0 0 0 0 0 0 0 0 0 0 0 0 0 0 0 0.25 0"/>
<feBlend mode="normal" in2="BackgroundImageFix" result="effect1_dropShadow"/>
<feBlend mode="normal" in="SourceGraphic" in2="effect1_dropShadow" result="shape"/>
</filter>
<filter id="filter17_d" x="396.688" y="353.689" width="60.6228" height="60.6228" filterUnits="userSpaceOnUse" color-interpolation-filters="sRGB">
<feFlood flood-opacity="0" result="BackgroundImageFix"/>
<feColorMatrix in="SourceAlpha" type="matrix" values="0 0 0 0 0 0 0 0 0 0 0 0 0 0 0 0 0 0 127 0"/>
<feOffset dy="4"/>
<feGaussianBlur stdDeviation="11.5"/>
<feColorMatrix type="matrix" values="0 0 0 0 0 0 0 0 0 0 0 0 0 0 0 0 0 0 0.25 0"/>
<feBlend mode="normal" in2="BackgroundImageFix" result="effect1_dropShadow"/>
<feBlend mode="normal" in="SourceGraphic" in2="effect1_dropShadow" result="shape"/>
</filter>
<filter id="filter18_d" x="615.688" y="235.689" width="60.6228" height="60.6228" filterUnits="userSpaceOnUse" color-interpolation-filters="sRGB">
<feFlood flood-opacity="0" result="BackgroundImageFix"/>
<feColorMatrix in="SourceAlpha" type="matrix" values="0 0 0 0 0 0 0 0 0 0 0 0 0 0 0 0 0 0 127 0"/>
<feOffset dy="4"/>
<feGaussianBlur stdDeviation="11.5"/>
<feColorMatrix type="matrix" values="0 0 0 0 0 0 0 0 0 0 0 0 0 0 0 0 0 0 0.25 0"/>
<feBlend mode="normal" in2="BackgroundImageFix" result="effect1_dropShadow"/>
<feBlend mode="normal" in="SourceGraphic" in2="effect1_dropShadow" result="shape"/>
</filter>
<filter id="filter19_d" x="454.688" y="294.689" width="60.6228" height="60.6228" filterUnits="userSpaceOnUse" color-interpolation-filters="sRGB">
<feFlood flood-opacity="0" result="BackgroundImageFix"/>
<feColorMatrix in="SourceAlpha" type="matrix" values="0 0 0 0 0 0 0 0 0 0 0 0 0 0 0 0 0 0 127 0"/>
<feOffset dy="4"/>
<feGaussianBlur stdDeviation="11.5"/>
<feColorMatrix type="matrix" values="0 0 0 0 0 0 0 0 0 0 0 0 0 0 0 0 0 0 0.25 0"/>
<feBlend mode="normal" in2="BackgroundImageFix" result="effect1_dropShadow"/>
<feBlend mode="normal" in="SourceGraphic" in2="effect1_dropShadow" result="shape"/>
</filter>
<filter id="filter20_d" x="416.688" y="236.689" width="60.6228" height="60.6228" filterUnits="userSpaceOnUse" color-interpolation-filters="sRGB">
<feFlood flood-opacity="0" result="BackgroundImageFix"/>
<feColorMatrix in="SourceAlpha" type="matrix" values="0 0 0 0 0 0 0 0 0 0 0 0 0 0 0 0 0 0 127 0"/>
<feOffset dy="4"/>
<feGaussianBlur stdDeviation="11.5"/>
<feColorMatrix type="matrix" values="0 0 0 0 0 0 0 0 0 0 0 0 0 0 0 0 0 0 0.25 0"/>
<feBlend mode="normal" in2="BackgroundImageFix" result="effect1_dropShadow"/>
<feBlend mode="normal" in="SourceGraphic" in2="effect1_dropShadow" result="shape"/>
</filter>
</defs>
</svg>
