<svg width="338" height="316" viewBox="0 0 338 316" fill="none" xmlns="http://www.w3.org/2000/svg">
<path opacity="0.15" d="M335.828 88.1387L250.722 2.12679C249.228 0.624402 246.989 0.624402 245.496 2.12679L206.675 41.189C191.371 40.8134 179.053 41.5646 168.974 43.4426C158.896 41.5646 146.951 40.8134 131.273 41.189L92.8259 2.12679C91.3328 0.624402 89.0931 0.624402 87.6 2.12679L2.11983 88.1387C0.626724 89.6411 0.626724 91.8947 2.11983 93.3971L40.5672 132.084C36.0879 156.122 39.4474 176.029 52.5121 196.311L32.3552 216.593C27.8759 221.1 25.2629 227.11 25.2629 233.495C25.2629 239.88 27.8759 245.89 32.3552 250.397C36.8345 254.904 42.4336 257.158 48.406 257.533L43.5535 262.416C39.0741 266.923 36.4612 272.933 36.4612 279.318C36.4612 285.703 39.0741 291.713 43.5535 296.22C48.0328 300.727 54.0052 303.356 60.3509 303.356C66.6966 303.356 72.669 300.727 77.1483 296.22L82.0009 291.337C82.0009 297.347 84.6138 302.981 89.0931 307.488C93.5724 311.995 99.9181 314.624 105.891 314.624C111.863 314.624 118.209 312.371 122.688 307.488L140.605 289.459L152.923 301.854C157.403 306.361 163.375 308.99 169.721 308.99C176.066 308.99 182.039 306.361 186.518 301.854C190.997 297.347 193.237 291.337 193.61 285.703L215.634 307.864C220.113 312.371 226.459 315 232.431 315C238.403 315 244.749 312.746 249.228 307.864C253.708 303.356 255.947 297.347 256.321 291.713L261.173 296.596C265.653 301.103 271.998 303.732 277.971 303.732C283.943 303.732 290.289 301.478 294.768 296.596C304.1 287.206 304.1 272.182 294.768 262.792L289.916 257.909C295.888 257.909 301.487 255.28 305.966 250.773C310.446 246.266 313.059 240.256 313.059 233.871C313.059 227.486 310.446 221.476 305.966 216.969L284.69 195.184C297.008 174.151 301.114 153.117 297.754 132.084L336.202 93.3971C337.322 91.8947 337.322 89.6411 335.828 88.1387ZM60.3509 245.514C57.3647 248.519 53.2586 250.397 48.7793 250.397C44.3 250.397 40.194 248.519 37.2078 245.514C34.2216 242.51 32.3552 238.378 32.3552 233.871C32.3552 229.364 34.2216 225.232 37.2078 222.227L56.6181 202.696C61.4707 209.457 67.4431 216.218 74.5354 223.354L78.2681 227.11L60.3509 245.514ZM71.9224 290.962C68.9362 293.966 64.8302 295.844 60.3509 295.844C55.8716 295.844 51.7655 293.966 48.7793 290.962C45.7931 287.957 43.9267 283.825 43.9267 279.318C43.9267 274.811 45.7931 270.679 48.7793 267.675L83.8673 232.368L96.1854 244.763L107.01 255.655L89.0931 273.684L71.9224 290.962ZM117.462 302.605C111.116 308.99 100.665 308.99 94.319 302.605C87.9733 296.22 87.9733 285.703 94.319 279.318L112.236 261.289L135.379 284.577L117.462 302.605ZM305.22 233.871C305.22 238.378 303.353 242.51 300.367 245.514C294.022 251.9 283.57 251.9 277.224 245.514L232.058 199.691L203.689 171.146C202.196 169.644 199.956 169.644 198.463 171.146C196.97 172.648 196.97 174.902 198.463 176.404L226.832 204.95L272.372 250.773L289.542 268.05C295.888 274.435 295.888 284.952 289.542 291.337C283.197 297.722 272.745 297.722 266.399 291.337L249.602 274.435L178.306 200.443C176.813 198.94 174.573 198.94 173.08 200.443C171.587 201.945 171.587 204.199 173.08 205.701L244.003 279.318C250.348 285.703 250.348 296.22 244.003 302.605C237.657 308.99 227.205 308.99 220.86 302.605L186.891 268.426L144.711 226.359C143.218 224.856 140.978 224.856 139.485 226.359C137.992 227.861 137.992 230.115 139.485 231.617L181.292 273.684C187.638 280.069 187.638 290.586 181.292 296.971C178.306 299.976 174.2 301.854 169.721 301.854C165.241 301.854 161.135 299.976 158.149 296.971L143.218 281.947L95.4388 233.871L86.1069 224.481L79.7612 218.096C50.2724 188.423 41.6871 164.385 48.0328 131.333V130.957C48.0328 130.581 48.0328 130.581 48.0328 130.206C48.0328 129.83 48.0328 129.83 48.0328 129.455C48.0328 129.079 48.0328 129.079 47.6595 128.703C47.6595 128.328 47.2862 128.328 47.2862 127.952C47.2862 127.952 47.2862 127.577 46.9129 127.577L9.58535 90.0167L89.4664 9.63875L126.794 47.1986C127.541 47.9498 128.287 48.3254 129.034 48.3254H129.407C137.246 47.9498 143.965 48.3254 149.937 48.3254C135.753 54.3349 125.301 64.4761 111.116 79.1244L68.5629 122.694C64.0836 127.201 61.4707 133.211 61.4707 139.596C61.4707 145.981 64.0836 151.99 68.5629 156.498C73.0423 161.005 79.3879 163.634 85.3604 163.634C91.3328 163.634 97.6785 161.38 102.158 156.498L132.393 126.074C136.872 126.825 140.978 127.577 145.458 127.577C160.389 127.577 175.693 122.318 191.371 112.177L300.367 221.852C303.727 225.232 305.22 229.364 305.22 233.871ZM279.091 189.55L197.716 108.045C199.21 106.919 200.703 106.167 201.822 105.041C203.316 103.914 203.689 101.285 202.569 99.7823C201.449 98.2799 198.836 97.9043 197.343 99.0311C174.573 116.684 152.55 123.445 132.02 118.562H131.647C131.273 118.562 131.273 118.562 130.9 118.562C130.527 118.562 130.527 118.562 130.153 118.562C129.78 118.562 129.78 118.562 129.407 118.938C129.034 118.938 129.034 119.313 128.66 119.313C128.66 119.313 128.287 119.313 128.287 119.689L96.5586 151.615C90.2129 158 79.7612 158 73.4155 151.615C70.4293 148.61 68.5629 144.478 68.5629 139.971C68.5629 135.464 70.4293 131.333 73.4155 128.328L116.716 84.7584C144.338 56.9641 156.656 47.1986 207.795 48.701H208.168C208.915 48.701 209.661 48.3254 210.408 47.5742L247.735 10.0144L327.616 90.3923L290.289 127.952C290.289 127.952 290.289 128.328 289.916 128.328C289.916 128.703 289.542 128.703 289.542 129.079C289.542 129.455 289.169 129.455 289.169 129.83C289.169 130.206 289.169 130.206 289.169 130.581C289.169 130.957 289.169 130.957 289.169 131.333V131.708C293.648 150.864 289.916 170.395 279.091 189.55Z" fill="white" stroke="white"/>
</svg>
