<svg width="85" height="21" viewBox="0 0 85 21" fill="none" xmlns="http://www.w3.org/2000/svg">
<path d="M7.65468 10.7333C7.65468 10.4347 7.59853 10.1547 7.48624 9.89332C7.38642 9.61954 7.2367 9.3831 7.03706 9.18398C6.83743 8.98487 6.60037 8.82932 6.32587 8.71732C6.06385 8.59287 5.77688 8.53065 5.46495 8.53065C5.1655 8.53065 4.88477 8.58665 4.62275 8.69865C4.36073 8.81065 4.12991 8.96621 3.93028 9.16532C3.74312 9.36443 3.58716 9.60087 3.46239 9.87465C3.35009 10.136 3.29394 10.416 3.29394 10.7147C3.29394 11.0133 3.35009 11.2933 3.46239 11.5547C3.57468 11.816 3.73064 12.0462 3.93028 12.2453C4.12991 12.432 4.36073 12.5875 4.62275 12.712C4.89725 12.824 5.18422 12.88 5.48367 12.88C5.78312 12.88 6.06385 12.824 6.32587 12.712C6.58789 12.6 6.81248 12.4444 6.99963 12.2453C7.19927 12.0462 7.35523 11.816 7.46752 11.5547C7.59229 11.2933 7.65468 11.0195 7.65468 10.7333ZM3.38752 20.272H0V5.91732H3.38752V6.98132C4.11119 6.07287 5.09688 5.61865 6.34459 5.61865C7.03083 5.61865 7.66716 5.75554 8.25358 6.02932C8.85248 6.29065 9.37028 6.65154 9.80697 7.11199C10.2437 7.57243 10.5806 8.11376 10.8176 8.73599C11.0672 9.35821 11.1919 10.024 11.1919 10.7333C11.1919 11.4427 11.0672 12.1022 10.8176 12.712C10.5806 13.3218 10.2437 13.8569 9.80697 14.3173C9.38275 14.7778 8.87743 15.1387 8.29101 15.4C7.70459 15.6613 7.06826 15.792 6.38202 15.792C5.18422 15.792 4.18606 15.3813 3.38752 14.56V20.272Z" fill="#2C3646"/>
<path d="M13.123 5.91725H16.5106V7.48525C16.8724 6.9128 17.3153 6.47725 17.8394 6.17858C18.3634 5.86747 18.9748 5.71191 19.6735 5.71191C19.7608 5.71191 19.8544 5.71191 19.9542 5.71191C20.0665 5.71191 20.1913 5.72436 20.3286 5.74925V8.97858C19.8794 8.75458 19.3928 8.64258 18.8687 8.64258C18.0827 8.64258 17.49 8.87903 17.0908 9.35191C16.704 9.81236 16.5106 10.4906 16.5106 11.3866V15.4932H13.123V5.91725Z" fill="#2C3646"/>
<path d="M25.1142 10.6587C25.1142 10.9823 25.1704 11.281 25.2827 11.5547C25.4074 11.8161 25.5634 12.0463 25.7506 12.2454C25.9502 12.4445 26.181 12.6001 26.443 12.7121C26.7175 12.8241 27.0045 12.8801 27.304 12.8801C27.6034 12.8801 27.8841 12.8241 28.1462 12.7121C28.4207 12.6001 28.6515 12.4445 28.8386 12.2454C29.0383 12.0463 29.1942 11.8161 29.3065 11.5547C29.4313 11.281 29.4937 10.9885 29.4937 10.6774C29.4937 10.3787 29.4313 10.0987 29.3065 9.83741C29.1942 9.56363 29.0383 9.32719 28.8386 9.12808C28.6515 8.92897 28.4207 8.77341 28.1462 8.66141C27.8841 8.54941 27.6034 8.49341 27.304 8.49341C27.0045 8.49341 26.7175 8.54941 26.443 8.66141C26.181 8.77341 25.9502 8.92897 25.7506 9.12808C25.5634 9.32719 25.4074 9.55741 25.2827 9.81874C25.1704 10.0801 25.1142 10.3601 25.1142 10.6587ZM21.5396 10.6214C21.5396 9.91208 21.683 9.25252 21.97 8.64274C22.257 8.02052 22.6562 7.48541 23.1678 7.03741C23.6794 6.57697 24.2845 6.21608 24.9832 5.95474C25.6944 5.69341 26.468 5.56274 27.304 5.56274C28.1274 5.56274 28.8885 5.69341 29.5873 5.95474C30.2985 6.20363 30.9098 6.5583 31.4214 7.01874C31.9454 7.46674 32.3509 8.00808 32.6379 8.64274C32.9249 9.26497 33.0684 9.95563 33.0684 10.7147C33.0684 11.4739 32.9186 12.1707 32.6192 12.8054C32.3322 13.4276 31.9329 13.969 31.4214 14.4294C30.9098 14.8774 30.2922 15.2259 29.5685 15.4747C28.8573 15.7236 28.0838 15.8481 27.2478 15.8481C26.4243 15.8481 25.6632 15.7236 24.9645 15.4747C24.2658 15.2259 23.6607 14.8712 23.1491 14.4107C22.65 13.9503 22.257 13.4027 21.97 12.7681C21.683 12.121 21.5396 11.4054 21.5396 10.6214Z" fill="#2C3646"/>
<path d="M38.4062 5.91724V11.3119C38.4062 12.4941 38.9801 13.0852 40.128 13.0852C41.2759 13.0852 41.8498 12.4941 41.8498 11.3119V5.91724H45.2374V11.9652C45.2374 13.2595 44.8069 14.2301 43.946 14.8772C43.0975 15.5243 41.8249 15.8479 40.128 15.8479C38.4311 15.8479 37.1522 15.5243 36.2912 14.8772C35.4428 14.2301 35.0186 13.2595 35.0186 11.9652V5.91724H38.4062Z" fill="#2C3646"/>
<path d="M50.6826 10.6773C50.6826 10.9884 50.7387 11.2809 50.851 11.5547C50.9633 11.816 51.113 12.0462 51.3002 12.2453C51.4998 12.4444 51.7307 12.6 51.9927 12.712C52.2672 12.824 52.5604 12.88 52.8723 12.88C53.1718 12.88 53.4525 12.824 53.7145 12.712C53.989 12.6 54.2198 12.4444 54.407 12.2453C54.6066 12.0462 54.7626 11.816 54.8749 11.5547C54.9997 11.2933 55.062 11.0133 55.062 10.7147C55.062 10.416 54.9997 10.136 54.8749 9.87467C54.7626 9.60089 54.6066 9.36444 54.407 9.16533C54.2198 8.96622 53.989 8.81067 53.7145 8.69867C53.4525 8.58667 53.1718 8.53067 52.8723 8.53067C52.5729 8.53067 52.2859 8.58667 52.0114 8.69867C51.7494 8.81067 51.5186 8.96622 51.3189 9.16533C51.1318 9.36444 50.9758 9.59467 50.851 9.856C50.7387 10.1049 50.6826 10.3787 50.6826 10.6773ZM54.9497 0H58.356V15.4933H54.9497V14.4293C54.2261 15.3378 53.2466 15.792 52.0114 15.792C51.3127 15.792 50.6701 15.6613 50.0837 15.4C49.4973 15.1387 48.9857 14.7778 48.549 14.3173C48.1123 13.8569 47.7692 13.3156 47.5197 12.6933C47.2826 12.0711 47.1641 11.3991 47.1641 10.6773C47.1641 9.99289 47.2764 9.34578 47.5009 8.736C47.738 8.11378 48.0686 7.57244 48.4929 7.112C48.9171 6.65156 49.4224 6.29067 50.0088 6.02933C50.6077 5.75556 51.2628 5.61867 51.974 5.61867C53.1718 5.61867 54.1637 6.03556 54.9497 6.86933V0Z" fill="#2C3646"/>
<path d="M64.0487 0V15.4933H60.6611V0H64.0487Z" fill="#2C3646"/>
<path d="M70.0272 14.1866L65.3857 5.91724H69.316L71.8801 10.8266L74.3692 5.91724H78.2621L70.5512 20.2719H66.752L70.0272 14.1866Z" fill="#2C3646"/>
<path d="M82.2709 17.1112C83.7782 17.1112 85.0002 15.8924 85.0002 14.389C85.0002 12.8855 83.7782 11.6667 82.2709 11.6667C80.7635 11.6667 79.5415 12.8855 79.5415 14.389C79.5415 15.8924 80.7635 17.1112 82.2709 17.1112Z" fill="#1771F8"/>
</svg>
