<?xml version="1.0" standalone="no"?>
<!DOCTYPE svg PUBLIC "-//W3C//DTD SVG 20010904//EN"
 "http://www.w3.org/TR/2001/REC-SVG-20010904/DTD/svg10.dtd">
<svg version="1.0" xmlns="http://www.w3.org/2000/svg"
 width="500.000000pt" height="500.000000pt" viewBox="0 0 500.000000 500.000000"
 preserveAspectRatio="xMidYMid meet">
<metadata>
Created by potrace 1.11, written by Peter Selinger 2001-2013
</metadata>
<g transform="translate(0.000000,500.000000) scale(0.100000,-0.100000)"
fill="#000000" stroke="none">
<path d="M4571 2950 c0 -945 4 -1510 10 -1511 5 -1 41 -2 79 -3 64 -1 70 1 70
19 1 29 1 2847 0 2933 l0 72 -79 0 -80 0 0 -1510z"/>
<path d="M1470 2837 l0 -1513 80 1 80 0 0 1512 0 1513 -80 0 -80 0 0 -1513z"/>
<path d="M3024 4337 c-2 -7 -3 -687 -2 -1512 l3 -1500 75 0 75 0 3 1512 2
1512 -75 0 c-50 0 -78 -4 -81 -12z"/>
<path d="M4267 4342 c-3 -4 -4 -685 -4 -1513 l0 -1506 78 0 79 0 1 46 c0 25 1
705 1 1511 l1 1465 -76 2 c-42 2 -78 -1 -80 -5z"/>
<path d="M1160 4186 c-1 -87 -1 -2909 -1 -2942 l1 -31 80 -1 80 -1 -2 1512 -3
1512 -77 1 -78 1 0 -51z"/>
<path d="M2710 2725 l0 -1511 80 -2 80 -2 0 1513 0 1514 -80 -1 -80 0 0 -1511z"/>
<path d="M3967 4122 c-16 -3 -17 -90 -17 -1513 l0 -1509 80 0 80 0 -2 1512 -3
1513 -60 0 c-33 0 -68 -1 -78 -3z"/>
<path d="M883 4012 l-33 -3 0 -1509 0 -1508 70 -4 c39 -2 75 -2 80 0 12 4 14
3022 3 3023 -36 3 -94 3 -120 1z"/>
<path d="M2443 4012 l-43 -3 0 -1510 c0 -830 3 -1509 8 -1509 4 -1 40 -2 80
-3 l72 -2 0 1515 0 1515 -37 0 c-21 0 -57 -1 -80 -3z"/>
<path d="M3645 3888 c-3 -7 -4 -688 -2 -1513 l2 -1500 78 0 c75 0 77 0 78 25
0 27 0 2928 -1 2973 l0 27 -75 0 c-51 0 -77 -4 -80 -12z"/>
<path d="M539 3763 c0 -15 -1 -696 -1 -1513 l-1 -1485 79 0 79 0 0 1510 0
1510 -77 3 -78 3 -1 -28z"/>
<path d="M2090 2276 l0 -1513 80 1 80 0 0 1513 0 1513 -80 -1 -80 -1 0 -1512z"/>
<path d="M3330 2164 l0 -1512 80 1 80 0 0 1511 0 1512 -80 0 -80 0 0 -1512z"/>
<path d="M238 3559 c-7 -4 -10 -495 -9 -1505 0 -825 0 -1502 1 -1506 0 -5 36
-8 80 -8 l79 0 -2 1512 -2 1512 -68 1 c-38 0 -73 -3 -79 -6z"/>
<path d="M1784 3561 c-2 -2 -4 -683 -4 -1513 l0 -1508 80 0 80 0 -2 1513 -3
1512 -73 0 c-40 0 -75 -2 -78 -4z"/>
</g>
</svg>
