<svg width="50" height="64" fill="none" xmlns="http://www.w3.org/2000/svg"><path d="M20.043 7.787V22.4c0 .64.431 1.067 1.078 1.067h7.866c.647 0 1.078-.427 1.078-1.067V7.787A20.285 20.285 0 0 1 45.366 24.32h2.156c-1.294-9.28-8.406-16.747-17.565-18.773v-4.48c0-.64-.431-1.067-1.078-1.067h-7.866c-.647 0-1.078.427-1.078 1.067v4.586C10.775 7.68 3.772 15.147 2.371 24.427h2.155c1.4-8.107 7.543-14.614 15.517-16.64zm2.155-5.654h5.712v19.2h-5.712v-19.2zM47.845 38.08H50v4.267c0 2.666-2.047 4.8-4.634 5.12v3.946c0 6.934-5.71 12.587-12.715 12.587H17.349c-7.004 0-12.715-5.653-12.715-12.587v-3.946C2.047 47.147 0 45.013 0 42.347V38.08h2.155v4.267c0 1.493 1.078 2.773 2.479 2.986v-7.36h2.155v13.334c0 5.76 4.741 10.453 10.56 10.453h15.41c5.819 0 10.56-4.693 10.56-10.453V37.973h2.155v7.36c1.401-.32 2.479-1.493 2.479-2.986V38.08h-.108zm1.077-11.52H1.078C.43 26.56 0 26.987 0 27.627v7.253c0 .64.431 1.067 1.078 1.067h47.844c.647 0 1.078-.427 1.078-1.067v-7.253c0-.64-.431-1.067-1.078-1.067zm-1.077 7.253H2.155v-5.12h45.69v5.12z" fill="#fff"/></svg>