<svg width="54" height="62" fill="none" xmlns="http://www.w3.org/2000/svg"><path d="M.404 9.561v51.191a1 1 0 0 0 1 1h51.192a1 1 0 0 0 1-1V9.561a1 1 0 0 0-1-1H42.239V1.248a1 1 0 0 0-2 0V8.56H13.761V1.248a1 1 0 1 0-2 0V8.56H1.404a1 1 0 0 0-1 1zm2 50.191V19.75h49.192v40.003H2.404zm49.192-49.191v7.188H2.404v-7.188h49.192z" fill="#fff"/><path d="M27 24.933a12.849 12.849 0 1 0 12.849 12.849A12.863 12.863 0 0 0 27 24.933zm0 23.697a10.85 10.85 0 1 1 10.849-10.848A10.86 10.86 0 0 1 27 48.63z" fill="#fff"/><path d="M30.727 32.642L28 35.368v-5.14a1 1 0 0 0-2 0v7.554a1 1 0 0 0 1.707.707l4.434-4.433a1 1 0 1 0-1.414-1.414z" fill="#fff"/></svg>