<svg width="56" height="62" fill="none" xmlns="http://www.w3.org/2000/svg"><path fill-rule="evenodd" clip-rule="evenodd" d="M49.953 34.76V16.795a.94.94 0 0 0-.273-.765L33.928.278a.978.978 0 0 0-.483-.26.94.94 0 0 0-.285-.013H.94a.94.94 0 0 0-.94.94v56.358a.94.94 0 0 0 .94.94h26.694a.94.94 0 1 0 0-1.879H1.88V1.884h30.44v14.804a.94.94 0 0 0 .94.939h14.813V34.76a.94.94 0 0 0 1.879 0zM34.209 15.748h12.53L34.2 3.208l.01 12.54zm18.825 34.98a9.272 9.272 0 1 1-18.543 0 9.272 9.272 0 0 1 18.543 0zm2 0C55.034 56.953 49.988 62 43.763 62c-6.226 0-11.272-5.047-11.272-11.272 0-6.225 5.046-11.272 11.272-11.272 6.225 0 11.271 5.047 11.271 11.272zM21.59 25h-12v-2h12v2zm-12 5h21v-2h-21v2zm18 5h-18v-2h18v2zM42.5 45v7.5h7v-2h-5V45h-2z" fill="#fff"/></svg>