<svg width="66" height="58" fill="none" xmlns="http://www.w3.org/2000/svg"><path d="M22.96 1c-5.942 0-11.34 1.134-15.3 3.032C3.813 5.874 1.2 8.51 1.057 11.627c0 .028-.029.028-.029.057v.028C1 11.77 1 11.854 1 11.94v26.922c0 3.232 2.67 5.951 6.631 7.88 3.99 1.898 9.388 3.032 15.33 3.032 2.24 0 4.392-.171 6.43-.483A20.327 20.327 0 0 0 45.353 57c11.282 0 20.44-9.182 20.44-20.46 0-11.31-9.159-20.491-20.44-20.491h-.488v-4.11c.029-.085 0-.17 0-.227v-.057c-.028 0-.028-.028-.028-.056-.172-3.09-2.784-5.726-6.602-7.568C34.24 2.134 28.9 1 22.959 1zm0 1.615c5.713 0 10.88 1.135 14.555 2.892 3.588 1.728 5.655 3.997 5.74 6.292v.141c0 1.644-1.033 3.316-2.956 4.76 0 .03-.028 0-.028 0a20.954 20.954 0 0 0-6.746 3.146c-3.101.879-6.69 1.418-10.566 1.418-5.74 0-10.936-1.106-14.612-2.892-3.445-1.643-5.482-3.797-5.712-5.98v-.453c0-.085-.029-.142-.029-.198.115-2.267 2.154-4.507 5.741-6.235 3.675-1.756 8.87-2.89 14.612-2.89zm20.296 13.461v.086h-.086l.086-.086zm-40.621.03c1.148 1.445 2.899 2.721 5.024 3.74 3.96 1.9 9.359 3.033 15.3 3.033 2.756 0 5.396-.227 7.837-.708-2.152 2.21-3.818 4.874-4.794 7.85a36.457 36.457 0 0 1-3.07.142c-5.743 0-10.91-1.106-14.585-2.891-3.673-1.757-5.712-4.082-5.712-6.434v-4.732zm42.716 1.558c10.421 0 18.832 8.445 18.832 18.875s-8.41 18.874-18.832 18.874c-10.392 0-18.804-8.445-18.804-18.874 0-10.43 8.412-18.875 18.804-18.875zM2.635 25.033c1.148 1.445 2.899 2.692 4.995 3.712 3.961 1.899 9.36 3.005 15.301 3.005.89 0 1.722-.029 2.583-.086a21.013 21.013 0 0 0-.573 4.875c0 1.02.057 2.041.2 3.004-.717.056-1.464.085-2.21.085-5.742 0-10.91-1.133-14.584-2.89-3.673-1.757-5.712-4.11-5.712-6.463v-5.242zm0 9.437c1.148 1.446 2.899 2.693 4.995 3.712 3.961 1.899 9.36 3.033 15.301 3.033.861 0 1.665 0 2.497-.058.574 2.41 1.55 4.676 2.899 6.661a40.975 40.975 0 0 1-5.369.367c-5.74 0-10.936-1.104-14.612-2.89-3.673-1.757-5.712-4.081-5.712-6.434V34.47h0z" fill="#fff" stroke="#fff" stroke-width=".4"/></svg>