<svg width="50" height="50" fill="none" xmlns="http://www.w3.org/2000/svg"><circle cx="25" cy="25" r="25" fill="#094295"/><mask id="a" maskUnits="userSpaceOnUse" x="0" y="0" width="50" height="50"><circle cx="25" cy="25" r="25" fill="#094295"/></mask><g mask="url(#a)"><path d="M44.753 1.996L24.99 28.258l9.824-31.714c4.336.37 7.34 2.668 9.939 5.452z" fill="#0AA2B7"/><path d="M53 9.5l-27.5 18L45.5 1c3.953 1.819 6 5 7.5 8.5z" fill="#745BBC"/></g><path d="M31.5 6.5l2-5.5s5.314 2.626 8 5c2.721 2.405 6 7.5 6 7.5L43 16s-2.5-3.5-5-5.5-6.5-4-6.5-4z" fill="#fff"/></svg>