<svg width="121" height="35" viewBox="0 0 121 35" fill="none" xmlns="http://www.w3.org/2000/svg">
<path d="M49.5548 7.89451V26.6696H54.5168V20.7689H56.9844C61.6245 20.7421 65.165 19.2669 65.165 14.3317C65.165 9.39652 61.6245 7.89451 56.9844 7.89451H49.5548ZM60.0689 14.3317C60.0689 16.0215 58.7278 16.4774 57.2258 16.4774H54.5168V12.186H57.2258C58.7278 12.186 60.0689 12.6419 60.0689 14.3317Z" fill="#434343"/>
<path d="M66.5844 17.2821C66.5844 22.5123 69.9371 27.072 76.6425 27.072C83.3479 27.072 86.7006 22.5123 86.7006 17.2821C86.7006 12.0519 83.3479 7.49219 76.6425 7.49219C69.9371 7.49219 66.5844 12.0519 66.5844 17.2821ZM81.6045 17.2821C81.6045 20.2861 79.8879 22.5123 76.6425 22.5123C73.3971 22.5123 71.6805 20.2861 71.6805 17.2821C71.6805 14.2781 73.3971 12.0519 76.6425 12.0519C79.8879 12.0519 81.6045 14.2781 81.6045 17.2821Z" fill="#434343"/>
<path d="M88.3776 17.5503C88.3776 24.2557 93.5005 27.072 98.6503 27.072C100.635 27.072 102.486 26.6696 104.122 25.8918V21.0639C103.049 22.11 101.279 22.7 99.3476 22.7C96.4241 22.7 93.4737 21.198 93.4737 17.5503C93.4737 13.4734 96.4241 11.8373 99.4013 11.8373C101.118 11.8373 102.834 12.4005 103.988 13.3661V8.67234C102.352 7.89451 100.447 7.49219 98.543 7.49219C93.4737 7.49219 88.3776 10.4694 88.3776 17.5503Z" fill="#434343"/>
<path d="M105.443 7.89451V12.3201H110.754V26.6696H115.716V12.3201H121V7.89451H105.443Z" fill="#434343"/>
<path d="M50.4633 3.84275V2.54961H51.0533L52.1581 3.84275H52.7482L51.4676 2.3299L52.6101 0.829601H52.0263L51.0722 2.08508H50.4633V0.829601H49.9611V3.84275H50.4633Z" fill="#434343"/>
<path d="M52.8865 2.33618C52.8865 3.36567 53.6774 3.91808 54.4935 3.91808C55.3158 3.91808 56.1005 3.36567 56.1005 2.33618C56.1005 1.30668 55.3158 0.754272 54.4935 0.754272C53.6774 0.754272 52.8865 1.30668 52.8865 2.33618ZM55.5983 2.33618C55.5983 3.03297 55.1087 3.441 54.4935 3.441C53.8783 3.441 53.3887 3.03297 53.3887 2.33618C53.3887 1.63939 53.8783 1.23135 54.4935 1.23135C55.1087 1.23135 55.5983 1.63939 55.5983 2.33618Z" fill="#434343"/>
<path d="M57.323 3.84275V2.56844H59.0681V3.84275H59.5703V0.829601H59.0681V2.10391H57.323V0.829601H56.8208V3.84275H57.323Z" fill="#434343"/>
<path d="M60.2918 2.34873C60.2918 3.42217 61.1142 3.91808 61.9051 3.91808C62.2818 3.91808 62.6019 3.84903 62.8844 3.71093V3.20873C62.6333 3.35939 62.3006 3.45355 61.9742 3.45355C61.3841 3.45355 60.794 3.1083 60.794 2.33618C60.794 1.54522 61.4029 1.2188 61.9867 1.2188C62.3069 1.2188 62.627 1.31296 62.853 1.48873V0.999091C62.5956 0.829601 62.2629 0.754272 61.924 0.754272C61.1393 0.754272 60.2918 1.25019 60.2918 2.34873Z" fill="#434343"/>
<path d="M66.0675 3.21501V2.03486C66.0675 1.19369 65.559 0.754272 64.7555 0.754272C64.2596 0.754272 63.8453 0.873543 63.6067 0.955149V1.44479C63.8704 1.33179 64.2408 1.2188 64.7053 1.2188C65.2577 1.2188 65.5653 1.52011 65.5653 1.97209V2.0788C65.3142 2.02231 64.994 1.98464 64.7304 1.98464C64.0838 1.98464 63.3682 2.22318 63.3682 3.00158C63.3682 3.6356 63.8955 3.91808 64.4291 3.91808C64.9187 3.91808 65.3016 3.76742 65.603 3.51633C65.6908 3.77998 65.9105 3.88042 66.1554 3.88042C66.2809 3.88042 66.4127 3.85531 66.532 3.81136V3.40333C66.4567 3.42844 66.3751 3.44728 66.2997 3.44728C66.1679 3.44728 66.0675 3.39706 66.0675 3.21501ZM63.883 2.97647C63.883 2.53705 64.36 2.40523 64.7995 2.40523C65.0443 2.40523 65.3519 2.44917 65.5653 2.49311V3.04552C65.3016 3.328 64.9187 3.48494 64.5358 3.48494C64.2031 3.48494 63.883 3.328 63.883 2.97647Z" fill="#434343"/>
<path d="M68.1378 1.29413H69.3619V3.84275H69.8641V0.829601H67.6482C67.5917 2.44917 67.4159 3.46611 66.8823 3.46611C66.8195 3.46611 66.7505 3.45355 66.6814 3.42844V3.82392C66.8133 3.87414 66.9325 3.89297 67.0455 3.89297C67.8239 3.89297 68.0374 2.83837 68.1378 1.29413Z" fill="#434343"/>
<path d="M72.0472 3.84275V1.29413H73.152V0.829601H70.4339V1.29413H71.545V3.84275H72.0472Z" fill="#434343"/>
<path d="M74.1488 3.84275L75.9944 1.63939V3.84275H76.4966V0.829601H76.0697L74.2242 3.03297V0.829601H73.722V3.84275H74.1488Z" fill="#434343"/>
<path d="M77.9269 3.84275V2.56844H79.672V3.84275H80.1742V0.829601H79.672V2.10391H77.9269V0.829601H77.4247V3.84275H77.9269Z" fill="#434343"/>
<path d="M81.605 3.84275V1.29413H83.3062V0.829601H81.1028V3.84275H81.605Z" fill="#434343"/>
<path d="M83.5623 2.33618C83.5623 3.36567 84.3533 3.91808 85.1694 3.91808C85.9917 3.91808 86.7764 3.36567 86.7764 2.33618C86.7764 1.30668 85.9917 0.754272 85.1694 0.754272C84.3533 0.754272 83.5623 1.30668 83.5623 2.33618ZM86.2742 2.33618C86.2742 3.03297 85.7845 3.441 85.1694 3.441C84.5542 3.441 84.0645 3.03297 84.0645 2.33618C84.0645 1.63939 84.5542 1.23135 85.1694 1.23135C85.7845 1.23135 86.2742 1.63939 86.2742 2.33618Z" fill="#434343"/>
<path d="M89.1979 3.84275C89.8507 3.84275 90.1709 3.50377 90.1709 3.00786C90.1709 2.63121 89.9198 2.39267 89.675 2.31107C89.9009 2.21063 90.0767 1.95953 90.0767 1.64566C90.0767 1.11208 89.675 0.829601 89.1477 0.829601H87.4967V3.84275H89.1979ZM87.9989 2.53705H89.1477C89.3987 2.53705 89.6687 2.61866 89.6687 2.97647C89.6687 3.30917 89.4427 3.40333 89.1288 3.40333H87.9989V2.53705ZM87.9989 1.26902H89.0974C89.3109 1.26902 89.5682 1.3569 89.5682 1.69588C89.5682 2.00347 89.3611 2.10391 89.0974 2.10391H87.9989V1.26902Z" fill="#434343"/>
<path d="M93.384 3.21501V2.03486C93.384 1.19369 92.8755 0.754272 92.072 0.754272C91.5761 0.754272 91.1618 0.873543 90.9232 0.955149V1.44479C91.1869 1.33179 91.5572 1.2188 92.0218 1.2188C92.5742 1.2188 92.8818 1.52011 92.8818 1.97209V2.0788C92.6307 2.02231 92.3105 1.98464 92.0469 1.98464C91.4003 1.98464 90.6847 2.22318 90.6847 3.00158C90.6847 3.6356 91.212 3.91808 91.7456 3.91808C92.2352 3.91808 92.6181 3.76742 92.9194 3.51633C93.0073 3.77998 93.227 3.88042 93.4718 3.88042C93.5974 3.88042 93.7292 3.85531 93.8485 3.81136V3.40333C93.7732 3.42844 93.6916 3.44728 93.6162 3.44728C93.4844 3.44728 93.384 3.39706 93.384 3.21501ZM91.1994 2.97647C91.1994 2.53705 91.6765 2.40523 92.1159 2.40523C92.3607 2.40523 92.6683 2.44917 92.8818 2.49311V3.04552C92.6181 3.328 92.2352 3.48494 91.8523 3.48494C91.5196 3.48494 91.1994 3.328 91.1994 2.97647Z" fill="#434343"/>
<path d="M94.6884 3.84275L95.5108 2.78815H96.3582V3.84275H96.8604V0.829601H95.3789C94.6445 0.829601 94.249 1.28157 94.249 1.80887C94.249 2.22946 94.5001 2.59983 94.9709 2.73793L94.0984 3.84275H94.6884ZM94.7512 1.80887C94.7512 1.47617 95.0023 1.28157 95.4229 1.28157H96.3582V2.33618H95.4229C95.0023 2.33618 94.7512 2.14158 94.7512 1.80887Z" fill="#434343"/>
<path d="M99.8548 3.84275V1.29413H101.556V0.829601H99.3526V3.84275H99.8548Z" fill="#434343"/>
<path d="M102.582 1.33179V0.829601H102.13V5.22378H102.632V3.39078C102.852 3.64815 103.222 3.91808 103.799 3.91808C104.659 3.91808 105.306 3.24012 105.306 2.33618C105.306 1.43223 104.659 0.754272 103.799 0.754272C103.222 0.754272 102.852 1.0242 102.582 1.33179ZM104.804 2.33618C104.804 3.02669 104.327 3.45355 103.743 3.45355C103.203 3.45355 102.801 3.10202 102.632 2.71282V1.95953C102.801 1.57033 103.203 1.2188 103.743 1.2188C104.327 1.2188 104.804 1.64566 104.804 2.33618Z" fill="#434343"/>
<path d="M107.192 3.27151L106.056 0.829601H105.523L106.954 3.84903L106.841 4.12523C106.646 4.61487 106.401 4.85969 106.062 4.85969C105.975 4.85969 105.887 4.84713 105.799 4.82202V5.25517C105.912 5.28655 106.018 5.29911 106.125 5.29911C106.565 5.29911 106.947 5.0229 107.261 4.29472L108.743 0.829601H108.209L107.192 3.27151Z" fill="#434343"/>
<path d="M109.804 3.84275V1.29413H111.549V3.84275H112.052V0.829601H109.302V3.84275H109.804Z" fill="#434343"/>
<path d="M113.482 3.84275V1.29413H115.228V3.84275H115.73V0.829601H112.98V3.84275H113.482Z" fill="#434343"/>
<path d="M119.107 3.21501V2.03486C119.107 1.19369 118.598 0.754272 117.795 0.754272C117.299 0.754272 116.884 0.873543 116.646 0.955149V1.44479C116.909 1.33179 117.28 1.2188 117.744 1.2188C118.297 1.2188 118.604 1.52011 118.604 1.97209V2.0788C118.353 2.02231 118.033 1.98464 117.769 1.98464C117.123 1.98464 116.407 2.22318 116.407 3.00158C116.407 3.6356 116.935 3.91808 117.468 3.91808C117.958 3.91808 118.341 3.76742 118.642 3.51633C118.73 3.77998 118.95 3.88042 119.194 3.88042C119.32 3.88042 119.452 3.85531 119.571 3.81136V3.40333C119.496 3.42844 119.414 3.44728 119.339 3.44728C119.207 3.44728 119.107 3.39706 119.107 3.21501ZM116.922 2.97647C116.922 2.53705 117.399 2.40523 117.839 2.40523C118.083 2.40523 118.391 2.44917 118.604 2.49311V3.04552C118.341 3.328 117.958 3.48494 117.575 3.48494C117.242 3.48494 116.922 3.328 116.922 2.97647Z" fill="#434343"/>
<line x1="0.5" y1="8" x2="0.5" y2="35" stroke="#FD2929"/>
<line x1="3.5" y1="6" x2="3.5" y2="33" stroke="#FD2929"/>
<line x1="6.5" y1="4" x2="6.5" y2="31" stroke="#FD2929"/>
<line x1="9.5" y1="2" x2="9.5" y2="29" stroke="#FD2929"/>
<line x1="12.5" y1="1" x2="12.5" y2="28" stroke="#FD2929"/>
<line x1="15.5" y1="8" x2="15.5" y2="35" stroke="#227ABA"/>
<line x1="18.5" y1="6" x2="18.5" y2="33" stroke="#227ABA"/>
<line x1="21.5" y1="4" x2="21.5" y2="31" stroke="#227ABA"/>
<line x1="24.5" y1="2" x2="24.5" y2="29" stroke="#227ABA"/>
<line x1="27.5" y1="1" x2="27.5" y2="28" stroke="#227ABA"/>
<line x1="30.5" y1="7" x2="30.5" y2="34" stroke="#D5D5D5"/>
<line x1="33.5" y1="5" x2="33.5" y2="32" stroke="#D5D5D5"/>
<line x1="36.5" y1="3" x2="36.5" y2="30" stroke="#D5D5D5"/>
<line x1="39.5" y1="1" x2="39.5" y2="28" stroke="#D5D5D5"/>
<line x1="42.5" x2="42.5" y2="27" stroke="#D5D5D5"/>
</svg>
